%TF.GenerationSoftware,KiCad,Pcbnew,8.0.0*%
%TF.CreationDate,2025-01-04T20:09:10+01:00*%
%TF.ProjectId,inzynierka,696e7a79-6e69-4657-926b-612e6b696361,rev?*%
%TF.SameCoordinates,Original*%
%TF.FileFunction,Drillmap*%
%TF.FilePolarity,Positive*%
%FSLAX45Y45*%
G04 Gerber Fmt 4.5, Leading zero omitted, Abs format (unit mm)*
G04 Created by KiCad (PCBNEW 8.0.0) date 2025-01-04 20:09:10*
%MOMM*%
%LPD*%
G01*
G04 APERTURE LIST*
%ADD10C,0.050000*%
%ADD11C,0.200000*%
%ADD12C,0.100000*%
%ADD13C,0.110000*%
%ADD14C,0.120000*%
%ADD15C,0.150000*%
G04 APERTURE END LIST*
D10*
X10900000Y-7790000D02*
X18100000Y-7790000D01*
X18100000Y-11290000D01*
X10900000Y-11290000D01*
X10900000Y-7790000D01*
D11*
D12*
X10981000Y-8196000D02*
X11011000Y-8226000D01*
X11011000Y-8196000D02*
X10981000Y-8226000D01*
X10988000Y-10289000D02*
X11018000Y-10319000D01*
X11018000Y-10289000D02*
X10988000Y-10319000D01*
X11065000Y-8905000D02*
X11095000Y-8935000D01*
X11095000Y-8905000D02*
X11065000Y-8935000D01*
X11264000Y-8587000D02*
X11294000Y-8617000D01*
X11294000Y-8587000D02*
X11264000Y-8617000D01*
X11625000Y-8225000D02*
X11655000Y-8255000D01*
X11655000Y-8225000D02*
X11625000Y-8255000D01*
X11765000Y-9495000D02*
X11795000Y-9525000D01*
X11795000Y-9495000D02*
X11765000Y-9525000D01*
X11829000Y-10481000D02*
X11859000Y-10511000D01*
X11859000Y-10481000D02*
X11829000Y-10511000D01*
X11835000Y-10175000D02*
X11865000Y-10205000D01*
X11865000Y-10175000D02*
X11835000Y-10205000D01*
X11901000Y-10727000D02*
X11931000Y-10757000D01*
X11931000Y-10727000D02*
X11901000Y-10757000D01*
X11943000Y-9121000D02*
X11973000Y-9151000D01*
X11973000Y-9121000D02*
X11943000Y-9151000D01*
X12245000Y-9745000D02*
X12275000Y-9775000D01*
X12275000Y-9745000D02*
X12245000Y-9775000D01*
X12295000Y-11165000D02*
X12325000Y-11195000D01*
X12325000Y-11165000D02*
X12295000Y-11195000D01*
X12386000Y-8355000D02*
X12416000Y-8385000D01*
X12416000Y-8355000D02*
X12386000Y-8385000D01*
X12531000Y-9142000D02*
X12561000Y-9172000D01*
X12561000Y-9142000D02*
X12531000Y-9172000D01*
X12803000Y-8893000D02*
X12833000Y-8923000D01*
X12833000Y-8893000D02*
X12803000Y-8923000D01*
X13146000Y-9684000D02*
X13176000Y-9714000D01*
X13176000Y-9684000D02*
X13146000Y-9714000D01*
X13205000Y-8765000D02*
X13235000Y-8795000D01*
X13235000Y-8765000D02*
X13205000Y-8795000D01*
X13215000Y-11025000D02*
X13245000Y-11055000D01*
X13245000Y-11025000D02*
X13215000Y-11055000D01*
X13225000Y-10732000D02*
X13255000Y-10762000D01*
X13255000Y-10732000D02*
X13225000Y-10762000D01*
X13360000Y-8304000D02*
X13390000Y-8334000D01*
X13390000Y-8304000D02*
X13360000Y-8334000D01*
X13602000Y-9480000D02*
X13632000Y-9510000D01*
X13632000Y-9480000D02*
X13602000Y-9510000D01*
X13659000Y-8222000D02*
X13689000Y-8252000D01*
X13689000Y-8222000D02*
X13659000Y-8252000D01*
X13665000Y-10445000D02*
X13695000Y-10475000D01*
X13695000Y-10445000D02*
X13665000Y-10475000D01*
X13669000Y-8584000D02*
X13699000Y-8614000D01*
X13699000Y-8584000D02*
X13669000Y-8614000D01*
X13690000Y-7871000D02*
X13720000Y-7901000D01*
X13720000Y-7871000D02*
X13690000Y-7901000D01*
X13692000Y-9017000D02*
X13722000Y-9047000D01*
X13722000Y-9017000D02*
X13692000Y-9047000D01*
X13938000Y-7945000D02*
X13968000Y-7975000D01*
X13968000Y-7945000D02*
X13938000Y-7975000D01*
X14063000Y-8218000D02*
X14093000Y-8248000D01*
X14093000Y-8218000D02*
X14063000Y-8248000D01*
X14072000Y-8043000D02*
X14102000Y-8073000D01*
X14102000Y-8043000D02*
X14072000Y-8073000D01*
X14448000Y-8978000D02*
X14478000Y-9008000D01*
X14478000Y-8978000D02*
X14448000Y-9008000D01*
X14485000Y-8425000D02*
X14515000Y-8455000D01*
X14515000Y-8425000D02*
X14485000Y-8455000D01*
X14555000Y-9885000D02*
X14585000Y-9915000D01*
X14585000Y-9885000D02*
X14555000Y-9915000D01*
X14623000Y-7997000D02*
X14653000Y-8027000D01*
X14653000Y-7997000D02*
X14623000Y-8027000D01*
X14800000Y-10430000D02*
X14830000Y-10460000D01*
X14830000Y-10430000D02*
X14800000Y-10460000D01*
X14955000Y-9430000D02*
X14985000Y-9460000D01*
X14985000Y-9430000D02*
X14955000Y-9460000D01*
X15045000Y-10025000D02*
X15075000Y-10055000D01*
X15075000Y-10025000D02*
X15045000Y-10055000D01*
X15185000Y-10624000D02*
X15215000Y-10654000D01*
X15215000Y-10624000D02*
X15185000Y-10654000D01*
X15195000Y-10805000D02*
X15225000Y-10835000D01*
X15225000Y-10805000D02*
X15195000Y-10835000D01*
X15243000Y-8640000D02*
X15273000Y-8670000D01*
X15273000Y-8640000D02*
X15243000Y-8670000D01*
X15278000Y-7965000D02*
X15308000Y-7995000D01*
X15308000Y-7965000D02*
X15278000Y-7995000D01*
X15459000Y-7928000D02*
X15489000Y-7958000D01*
X15489000Y-7928000D02*
X15459000Y-7958000D01*
X15505000Y-10305000D02*
X15535000Y-10335000D01*
X15535000Y-10305000D02*
X15505000Y-10335000D01*
X15505000Y-10685000D02*
X15535000Y-10715000D01*
X15535000Y-10685000D02*
X15505000Y-10715000D01*
X15925000Y-9745000D02*
X15955000Y-9775000D01*
X15955000Y-9745000D02*
X15925000Y-9775000D01*
X15958000Y-9025000D02*
X15988000Y-9055000D01*
X15988000Y-9025000D02*
X15958000Y-9055000D01*
X16063000Y-11021000D02*
X16093000Y-11051000D01*
X16093000Y-11021000D02*
X16063000Y-11051000D01*
X16700000Y-8311000D02*
X16730000Y-8341000D01*
X16730000Y-8311000D02*
X16700000Y-8341000D01*
X16827000Y-9048000D02*
X16857000Y-9078000D01*
X16857000Y-9048000D02*
X16827000Y-9078000D01*
X16845000Y-10205000D02*
X16875000Y-10235000D01*
X16875000Y-10205000D02*
X16845000Y-10235000D01*
X17025000Y-10825000D02*
X17055000Y-10855000D01*
X17055000Y-10825000D02*
X17025000Y-10855000D01*
X17041000Y-9721000D02*
X17071000Y-9751000D01*
X17071000Y-9721000D02*
X17041000Y-9751000D01*
X17136000Y-9077000D02*
X17166000Y-9107000D01*
X17166000Y-9077000D02*
X17136000Y-9107000D01*
X17422000Y-9089000D02*
X17452000Y-9119000D01*
X17452000Y-9089000D02*
X17422000Y-9119000D01*
X17565000Y-10765000D02*
X17595000Y-10795000D01*
X17595000Y-10765000D02*
X17565000Y-10795000D01*
X17810000Y-9610000D02*
X17840000Y-9640000D01*
X17840000Y-9610000D02*
X17810000Y-9640000D01*
X17862000Y-11004000D02*
X17892000Y-11034000D01*
X17892000Y-11004000D02*
X17862000Y-11034000D01*
X17875000Y-9220000D02*
X17905000Y-9250000D01*
X17905000Y-9220000D02*
X17875000Y-9250000D01*
X17974000Y-8228000D02*
X18004000Y-8258000D01*
X18004000Y-8228000D02*
X17974000Y-8258000D01*
X14013500Y-8780000D02*
G75*
G02*
X13938500Y-8780000I-37500J0D01*
G01*
X13938500Y-8780000D02*
G75*
G02*
X14013500Y-8780000I37500J0D01*
G01*
X14140500Y-8780000D02*
G75*
G02*
X14065500Y-8780000I-37500J0D01*
G01*
X14065500Y-8780000D02*
G75*
G02*
X14140500Y-8780000I37500J0D01*
G01*
X14267500Y-8780000D02*
G75*
G02*
X14192500Y-8780000I-37500J0D01*
G01*
X14192500Y-8780000D02*
G75*
G02*
X14267500Y-8780000I37500J0D01*
G01*
X14805500Y-8850000D02*
G75*
G02*
X14730500Y-8850000I-37500J0D01*
G01*
X14730500Y-8850000D02*
G75*
G02*
X14805500Y-8850000I37500J0D01*
G01*
X14932500Y-8850000D02*
G75*
G02*
X14857500Y-8850000I-37500J0D01*
G01*
X14857500Y-8850000D02*
G75*
G02*
X14932500Y-8850000I37500J0D01*
G01*
X15059500Y-8850000D02*
G75*
G02*
X14984500Y-8850000I-37500J0D01*
G01*
X14984500Y-8850000D02*
G75*
G02*
X15059500Y-8850000I37500J0D01*
G01*
X15470500Y-8120000D02*
G75*
G02*
X15395500Y-8120000I-37500J0D01*
G01*
X15395500Y-8120000D02*
G75*
G02*
X15470500Y-8120000I37500J0D01*
G01*
X15597500Y-8120000D02*
G75*
G02*
X15522500Y-8120000I-37500J0D01*
G01*
X15522500Y-8120000D02*
G75*
G02*
X15597500Y-8120000I37500J0D01*
G01*
X15724500Y-8120000D02*
G75*
G02*
X15649500Y-8120000I-37500J0D01*
G01*
X15649500Y-8120000D02*
G75*
G02*
X15724500Y-8120000I37500J0D01*
G01*
X16283500Y-10470000D02*
G75*
G02*
X16208500Y-10470000I-37500J0D01*
G01*
X16208500Y-10470000D02*
G75*
G02*
X16283500Y-10470000I37500J0D01*
G01*
X16283500Y-10880000D02*
G75*
G02*
X16208500Y-10880000I-37500J0D01*
G01*
X16208500Y-10880000D02*
G75*
G02*
X16283500Y-10880000I37500J0D01*
G01*
X16287500Y-8470000D02*
G75*
G02*
X16212500Y-8470000I-37500J0D01*
G01*
X16212500Y-8470000D02*
G75*
G02*
X16287500Y-8470000I37500J0D01*
G01*
X16287500Y-9920000D02*
G75*
G02*
X16212500Y-9920000I-37500J0D01*
G01*
X16212500Y-9920000D02*
G75*
G02*
X16287500Y-9920000I37500J0D01*
G01*
X16290500Y-8956000D02*
G75*
G02*
X16215500Y-8956000I-37500J0D01*
G01*
X16215500Y-8956000D02*
G75*
G02*
X16290500Y-8956000I37500J0D01*
G01*
X16290500Y-9436000D02*
G75*
G02*
X16215500Y-9436000I-37500J0D01*
G01*
X16215500Y-9436000D02*
G75*
G02*
X16290500Y-9436000I37500J0D01*
G01*
X16410500Y-10470000D02*
G75*
G02*
X16335500Y-10470000I-37500J0D01*
G01*
X16335500Y-10470000D02*
G75*
G02*
X16410500Y-10470000I37500J0D01*
G01*
X16410500Y-10880000D02*
G75*
G02*
X16335500Y-10880000I-37500J0D01*
G01*
X16335500Y-10880000D02*
G75*
G02*
X16410500Y-10880000I37500J0D01*
G01*
X16414500Y-8470000D02*
G75*
G02*
X16339500Y-8470000I-37500J0D01*
G01*
X16339500Y-8470000D02*
G75*
G02*
X16414500Y-8470000I37500J0D01*
G01*
X16414500Y-9920000D02*
G75*
G02*
X16339500Y-9920000I-37500J0D01*
G01*
X16339500Y-9920000D02*
G75*
G02*
X16414500Y-9920000I37500J0D01*
G01*
X16417500Y-8956000D02*
G75*
G02*
X16342500Y-8956000I-37500J0D01*
G01*
X16342500Y-8956000D02*
G75*
G02*
X16417500Y-8956000I37500J0D01*
G01*
X16417500Y-9436000D02*
G75*
G02*
X16342500Y-9436000I-37500J0D01*
G01*
X16342500Y-9436000D02*
G75*
G02*
X16417500Y-9436000I37500J0D01*
G01*
X16537500Y-10470000D02*
G75*
G02*
X16462500Y-10470000I-37500J0D01*
G01*
X16462500Y-10470000D02*
G75*
G02*
X16537500Y-10470000I37500J0D01*
G01*
X16537500Y-10880000D02*
G75*
G02*
X16462500Y-10880000I-37500J0D01*
G01*
X16462500Y-10880000D02*
G75*
G02*
X16537500Y-10880000I37500J0D01*
G01*
X16541500Y-8470000D02*
G75*
G02*
X16466500Y-8470000I-37500J0D01*
G01*
X16466500Y-8470000D02*
G75*
G02*
X16541500Y-8470000I37500J0D01*
G01*
X16541500Y-9920000D02*
G75*
G02*
X16466500Y-9920000I-37500J0D01*
G01*
X16466500Y-9920000D02*
G75*
G02*
X16541500Y-9920000I37500J0D01*
G01*
X16544500Y-8956000D02*
G75*
G02*
X16469500Y-8956000I-37500J0D01*
G01*
X16469500Y-8956000D02*
G75*
G02*
X16544500Y-8956000I37500J0D01*
G01*
X16544500Y-9436000D02*
G75*
G02*
X16469500Y-9436000I-37500J0D01*
G01*
X16469500Y-9436000D02*
G75*
G02*
X16544500Y-9436000I37500J0D01*
G01*
X11120000Y-9720000D02*
X11120000Y-9800000D01*
X11080000Y-9760000D02*
X11160000Y-9760000D01*
X11620000Y-9720000D02*
X11620000Y-9800000D01*
X11580000Y-9760000D02*
X11660000Y-9760000D01*
X12000000Y-9720000D02*
X12000000Y-9800000D01*
X11960000Y-9760000D02*
X12040000Y-9760000D01*
X12500000Y-9720000D02*
X12500000Y-9800000D01*
X12460000Y-9760000D02*
X12540000Y-9760000D01*
X13820000Y-8138000D02*
X13820000Y-8218000D01*
X13780000Y-8178000D02*
X13860000Y-8178000D01*
X14320000Y-8138000D02*
X14320000Y-8218000D01*
X14280000Y-8178000D02*
X14360000Y-8178000D01*
X14640000Y-8138000D02*
X14640000Y-8218000D01*
X14600000Y-8178000D02*
X14680000Y-8178000D01*
X15140000Y-8138000D02*
X15140000Y-8218000D01*
X15100000Y-8178000D02*
X15180000Y-8178000D01*
X13139832Y-10515802D02*
X13139832Y-10455698D01*
X13079728Y-10455698D01*
X13079728Y-10515802D01*
X13139832Y-10515802D01*
X13266832Y-10515802D02*
X13266832Y-10455698D01*
X13206728Y-10455698D01*
X13206728Y-10515802D01*
X13266832Y-10515802D01*
X13393832Y-10515802D02*
X13393832Y-10455698D01*
X13333728Y-10455698D01*
X13333728Y-10515802D01*
X13393832Y-10515802D01*
X16874000Y-8895000D02*
X16919000Y-8850000D01*
X16874000Y-8805000D01*
X16829000Y-8850000D01*
X16874000Y-8895000D01*
X17128000Y-8895000D02*
X17173000Y-8850000D01*
X17128000Y-8805000D01*
X17083000Y-8850000D01*
X17128000Y-8895000D01*
X17128000Y-10295000D02*
X17173000Y-10250000D01*
X17128000Y-10205000D01*
X17083000Y-10250000D01*
X17128000Y-10295000D01*
X17382000Y-8895000D02*
X17427000Y-8850000D01*
X17382000Y-8805000D01*
X17337000Y-8850000D01*
X17382000Y-8895000D01*
X17382000Y-10295000D02*
X17427000Y-10250000D01*
X17382000Y-10205000D01*
X17337000Y-10250000D01*
X17382000Y-10295000D01*
X17636000Y-8895000D02*
X17681000Y-8850000D01*
X17636000Y-8805000D01*
X17591000Y-8850000D01*
X17636000Y-8895000D01*
X17636000Y-10295000D02*
X17681000Y-10250000D01*
X17636000Y-10205000D01*
X17591000Y-10250000D01*
X17636000Y-10295000D01*
X17890000Y-8895000D02*
X17935000Y-8850000D01*
X17890000Y-8805000D01*
X17845000Y-8850000D01*
X17890000Y-8895000D01*
X11154000Y-7960000D02*
X11254000Y-8060000D01*
X11254000Y-7960000D02*
X11154000Y-8060000D01*
X11254000Y-8010000D02*
G75*
G02*
X11154000Y-8010000I-50000J0D01*
G01*
X11154000Y-8010000D02*
G75*
G02*
X11254000Y-8010000I50000J0D01*
G01*
X11408000Y-7960000D02*
X11508000Y-8060000D01*
X11508000Y-7960000D02*
X11408000Y-8060000D01*
X11508000Y-8010000D02*
G75*
G02*
X11408000Y-8010000I-50000J0D01*
G01*
X11408000Y-8010000D02*
G75*
G02*
X11508000Y-8010000I50000J0D01*
G01*
X11662000Y-7960000D02*
X11762000Y-8060000D01*
X11762000Y-7960000D02*
X11662000Y-8060000D01*
X11762000Y-8010000D02*
G75*
G02*
X11662000Y-8010000I-50000J0D01*
G01*
X11662000Y-8010000D02*
G75*
G02*
X11762000Y-8010000I50000J0D01*
G01*
X11916000Y-7960000D02*
X12016000Y-8060000D01*
X12016000Y-7960000D02*
X11916000Y-8060000D01*
X12016000Y-8010000D02*
G75*
G02*
X11916000Y-8010000I-50000J0D01*
G01*
X11916000Y-8010000D02*
G75*
G02*
X12016000Y-8010000I50000J0D01*
G01*
X12110000Y-10602500D02*
X12210000Y-10702500D01*
X12210000Y-10602500D02*
X12110000Y-10702500D01*
X12210000Y-10652500D02*
G75*
G02*
X12110000Y-10652500I-50000J0D01*
G01*
X12110000Y-10652500D02*
G75*
G02*
X12210000Y-10652500I50000J0D01*
G01*
X12110000Y-10856500D02*
X12210000Y-10956500D01*
X12210000Y-10856500D02*
X12110000Y-10956500D01*
X12210000Y-10906500D02*
G75*
G02*
X12110000Y-10906500I-50000J0D01*
G01*
X12110000Y-10906500D02*
G75*
G02*
X12210000Y-10906500I50000J0D01*
G01*
X12170000Y-7960000D02*
X12270000Y-8060000D01*
X12270000Y-7960000D02*
X12170000Y-8060000D01*
X12270000Y-8010000D02*
G75*
G02*
X12170000Y-8010000I-50000J0D01*
G01*
X12170000Y-8010000D02*
G75*
G02*
X12270000Y-8010000I50000J0D01*
G01*
X12424000Y-7960000D02*
X12524000Y-8060000D01*
X12524000Y-7960000D02*
X12424000Y-8060000D01*
X12524000Y-8010000D02*
G75*
G02*
X12424000Y-8010000I-50000J0D01*
G01*
X12424000Y-8010000D02*
G75*
G02*
X12524000Y-8010000I50000J0D01*
G01*
X12678000Y-7960000D02*
X12778000Y-8060000D01*
X12778000Y-7960000D02*
X12678000Y-8060000D01*
X12778000Y-8010000D02*
G75*
G02*
X12678000Y-8010000I-50000J0D01*
G01*
X12678000Y-8010000D02*
G75*
G02*
X12778000Y-8010000I50000J0D01*
G01*
X12932000Y-7960000D02*
X13032000Y-8060000D01*
X13032000Y-7960000D02*
X12932000Y-8060000D01*
X13032000Y-8010000D02*
G75*
G02*
X12932000Y-8010000I-50000J0D01*
G01*
X12932000Y-8010000D02*
G75*
G02*
X13032000Y-8010000I50000J0D01*
G01*
X13186000Y-7960000D02*
X13286000Y-8060000D01*
X13286000Y-7960000D02*
X13186000Y-8060000D01*
X13286000Y-8010000D02*
G75*
G02*
X13186000Y-8010000I-50000J0D01*
G01*
X13186000Y-8010000D02*
G75*
G02*
X13286000Y-8010000I50000J0D01*
G01*
X13440000Y-7960000D02*
X13540000Y-8060000D01*
X13540000Y-7960000D02*
X13440000Y-8060000D01*
X13540000Y-8010000D02*
G75*
G02*
X13440000Y-8010000I-50000J0D01*
G01*
X13440000Y-8010000D02*
G75*
G02*
X13540000Y-8010000I50000J0D01*
G01*
X15980000Y-7960000D02*
X16080000Y-8060000D01*
X16080000Y-7960000D02*
X15980000Y-8060000D01*
X16080000Y-8010000D02*
G75*
G02*
X15980000Y-8010000I-50000J0D01*
G01*
X15980000Y-8010000D02*
G75*
G02*
X16080000Y-8010000I50000J0D01*
G01*
X16234000Y-7960000D02*
X16334000Y-8060000D01*
X16334000Y-7960000D02*
X16234000Y-8060000D01*
X16334000Y-8010000D02*
G75*
G02*
X16234000Y-8010000I-50000J0D01*
G01*
X16234000Y-8010000D02*
G75*
G02*
X16334000Y-8010000I50000J0D01*
G01*
X16488000Y-7960000D02*
X16588000Y-8060000D01*
X16588000Y-7960000D02*
X16488000Y-8060000D01*
X16588000Y-8010000D02*
G75*
G02*
X16488000Y-8010000I-50000J0D01*
G01*
X16488000Y-8010000D02*
G75*
G02*
X16588000Y-8010000I50000J0D01*
G01*
X16742000Y-7960000D02*
X16842000Y-8060000D01*
X16842000Y-7960000D02*
X16742000Y-8060000D01*
X16842000Y-8010000D02*
G75*
G02*
X16742000Y-8010000I-50000J0D01*
G01*
X16742000Y-8010000D02*
G75*
G02*
X16842000Y-8010000I50000J0D01*
G01*
X16996000Y-7960000D02*
X17096000Y-8060000D01*
X17096000Y-7960000D02*
X16996000Y-8060000D01*
X17096000Y-8010000D02*
G75*
G02*
X16996000Y-8010000I-50000J0D01*
G01*
X16996000Y-8010000D02*
G75*
G02*
X17096000Y-8010000I50000J0D01*
G01*
X17250000Y-7960000D02*
X17350000Y-8060000D01*
X17350000Y-7960000D02*
X17250000Y-8060000D01*
X17350000Y-8010000D02*
G75*
G02*
X17250000Y-8010000I-50000J0D01*
G01*
X17250000Y-8010000D02*
G75*
G02*
X17350000Y-8010000I50000J0D01*
G01*
X17504000Y-7960000D02*
X17604000Y-8060000D01*
X17604000Y-7960000D02*
X17504000Y-8060000D01*
X17604000Y-8010000D02*
G75*
G02*
X17504000Y-8010000I-50000J0D01*
G01*
X17504000Y-8010000D02*
G75*
G02*
X17604000Y-8010000I50000J0D01*
G01*
X17758000Y-7960000D02*
X17858000Y-8060000D01*
X17858000Y-7960000D02*
X17758000Y-8060000D01*
X17858000Y-8010000D02*
G75*
G02*
X17758000Y-8010000I-50000J0D01*
G01*
X17758000Y-8010000D02*
G75*
G02*
X17858000Y-8010000I50000J0D01*
G01*
D13*
X11090000Y-8358000D02*
X11200000Y-8468000D01*
X11200000Y-8358000D02*
X11090000Y-8468000D01*
X11145000Y-8358000D02*
X11145000Y-8468000D01*
X11090000Y-8413000D02*
X11200000Y-8413000D01*
X11090000Y-9120000D02*
X11200000Y-9230000D01*
X11200000Y-9120000D02*
X11090000Y-9230000D01*
X11145000Y-9120000D02*
X11145000Y-9230000D01*
X11090000Y-9175000D02*
X11200000Y-9175000D01*
X11598000Y-8358000D02*
X11708000Y-8468000D01*
X11708000Y-8358000D02*
X11598000Y-8468000D01*
X11653000Y-8358000D02*
X11653000Y-8468000D01*
X11598000Y-8413000D02*
X11708000Y-8413000D01*
X11598000Y-9120000D02*
X11708000Y-9230000D01*
X11708000Y-9120000D02*
X11598000Y-9230000D01*
X11653000Y-9120000D02*
X11653000Y-9230000D01*
X11598000Y-9175000D02*
X11708000Y-9175000D01*
X12106000Y-8358000D02*
X12216000Y-8468000D01*
X12216000Y-8358000D02*
X12106000Y-8468000D01*
X12161000Y-8358000D02*
X12161000Y-8468000D01*
X12106000Y-8413000D02*
X12216000Y-8413000D01*
X12106000Y-9120000D02*
X12216000Y-9230000D01*
X12216000Y-9120000D02*
X12106000Y-9230000D01*
X12161000Y-9120000D02*
X12161000Y-9230000D01*
X12106000Y-9175000D02*
X12216000Y-9175000D01*
X12868000Y-8358000D02*
X12978000Y-8468000D01*
X12978000Y-8358000D02*
X12868000Y-8468000D01*
X12923000Y-8358000D02*
X12923000Y-8468000D01*
X12868000Y-8413000D02*
X12978000Y-8413000D01*
X12868000Y-9120000D02*
X12978000Y-9230000D01*
X12978000Y-9120000D02*
X12868000Y-9230000D01*
X12923000Y-9120000D02*
X12923000Y-9230000D01*
X12868000Y-9175000D02*
X12978000Y-9175000D01*
D14*
X12788000Y-9974000D02*
X12908000Y-10094000D01*
X12908000Y-9974000D02*
X12788000Y-10094000D01*
X12890427Y-10076427D02*
X12890427Y-9991573D01*
X12805573Y-9991573D01*
X12805573Y-10076427D01*
X12890427Y-10076427D01*
X12847000Y-9534000D02*
X12967000Y-9654000D01*
X12967000Y-9534000D02*
X12847000Y-9654000D01*
X12949427Y-9636427D02*
X12949427Y-9551573D01*
X12864573Y-9551573D01*
X12864573Y-9636427D01*
X12949427Y-9636427D01*
X13296000Y-9974000D02*
X13416000Y-10094000D01*
X13416000Y-9974000D02*
X13296000Y-10094000D01*
X13398427Y-10076427D02*
X13398427Y-9991573D01*
X13313573Y-9991573D01*
X13313573Y-10076427D01*
X13398427Y-10076427D01*
X13355000Y-9534000D02*
X13475000Y-9654000D01*
X13475000Y-9534000D02*
X13355000Y-9654000D01*
X13457427Y-9636427D02*
X13457427Y-9551573D01*
X13372573Y-9551573D01*
X13372573Y-9636427D01*
X13457427Y-9636427D01*
X13375000Y-8517000D02*
X13495000Y-8637000D01*
X13495000Y-8517000D02*
X13375000Y-8637000D01*
X13477427Y-8619427D02*
X13477427Y-8534573D01*
X13392573Y-8534573D01*
X13392573Y-8619427D01*
X13477427Y-8619427D01*
X13375000Y-9025000D02*
X13495000Y-9145000D01*
X13495000Y-9025000D02*
X13375000Y-9145000D01*
X13477427Y-9127427D02*
X13477427Y-9042573D01*
X13392573Y-9042573D01*
X13392573Y-9127427D01*
X13477427Y-9127427D01*
X13765000Y-9230000D02*
X13885000Y-9350000D01*
X13885000Y-9230000D02*
X13765000Y-9350000D01*
X13867427Y-9332427D02*
X13867427Y-9247573D01*
X13782573Y-9247573D01*
X13782573Y-9332427D01*
X13867427Y-9332427D01*
X13820000Y-9626000D02*
X13940000Y-9746000D01*
X13940000Y-9626000D02*
X13820000Y-9746000D01*
X13922427Y-9728427D02*
X13922427Y-9643573D01*
X13837573Y-9643573D01*
X13837573Y-9728427D01*
X13922427Y-9728427D01*
X13820000Y-10134000D02*
X13940000Y-10254000D01*
X13940000Y-10134000D02*
X13820000Y-10254000D01*
X13922427Y-10236427D02*
X13922427Y-10151573D01*
X13837573Y-10151573D01*
X13837573Y-10236427D01*
X13922427Y-10236427D01*
X14270000Y-9626000D02*
X14390000Y-9746000D01*
X14390000Y-9626000D02*
X14270000Y-9746000D01*
X14372427Y-9728427D02*
X14372427Y-9643573D01*
X14287573Y-9643573D01*
X14287573Y-9728427D01*
X14372427Y-9728427D01*
X14270000Y-10134000D02*
X14390000Y-10254000D01*
X14390000Y-10134000D02*
X14270000Y-10254000D01*
X14372427Y-10236427D02*
X14372427Y-10151573D01*
X14287573Y-10151573D01*
X14287573Y-10236427D01*
X14372427Y-10236427D01*
X14273000Y-9230000D02*
X14393000Y-9350000D01*
X14393000Y-9230000D02*
X14273000Y-9350000D01*
X14375427Y-9332427D02*
X14375427Y-9247573D01*
X14290573Y-9247573D01*
X14290573Y-9332427D01*
X14375427Y-9332427D01*
D15*
X11035000Y-10499000D02*
X11185000Y-10649000D01*
X11185000Y-10499000D02*
X11035000Y-10649000D01*
X11110000Y-10649000D02*
X11185000Y-10574000D01*
X11110000Y-10499000D01*
X11035000Y-10574000D01*
X11110000Y-10649000D01*
X11035000Y-11007000D02*
X11185000Y-11157000D01*
X11185000Y-11007000D02*
X11035000Y-11157000D01*
X11110000Y-11157000D02*
X11185000Y-11082000D01*
X11110000Y-11007000D01*
X11035000Y-11082000D01*
X11110000Y-11157000D01*
X11289000Y-10753000D02*
X11439000Y-10903000D01*
X11439000Y-10753000D02*
X11289000Y-10903000D01*
X11364000Y-10903000D02*
X11439000Y-10828000D01*
X11364000Y-10753000D01*
X11289000Y-10828000D01*
X11364000Y-10903000D01*
X11543000Y-10499000D02*
X11693000Y-10649000D01*
X11693000Y-10499000D02*
X11543000Y-10649000D01*
X11618000Y-10649000D02*
X11693000Y-10574000D01*
X11618000Y-10499000D01*
X11543000Y-10574000D01*
X11618000Y-10649000D01*
X11543000Y-11007000D02*
X11693000Y-11157000D01*
X11693000Y-11007000D02*
X11543000Y-11157000D01*
X11618000Y-11157000D02*
X11693000Y-11082000D01*
X11618000Y-11007000D01*
X11543000Y-11082000D01*
X11618000Y-11157000D01*
D11*
X11158277Y-11603984D02*
X11158277Y-11403984D01*
X11158277Y-11403984D02*
X11205896Y-11403984D01*
X11205896Y-11403984D02*
X11234467Y-11413508D01*
X11234467Y-11413508D02*
X11253515Y-11432555D01*
X11253515Y-11432555D02*
X11263039Y-11451603D01*
X11263039Y-11451603D02*
X11272562Y-11489698D01*
X11272562Y-11489698D02*
X11272562Y-11518269D01*
X11272562Y-11518269D02*
X11263039Y-11556365D01*
X11263039Y-11556365D02*
X11253515Y-11575412D01*
X11253515Y-11575412D02*
X11234467Y-11594460D01*
X11234467Y-11594460D02*
X11205896Y-11603984D01*
X11205896Y-11603984D02*
X11158277Y-11603984D01*
X11358277Y-11603984D02*
X11358277Y-11470650D01*
X11358277Y-11508746D02*
X11367801Y-11489698D01*
X11367801Y-11489698D02*
X11377324Y-11480174D01*
X11377324Y-11480174D02*
X11396372Y-11470650D01*
X11396372Y-11470650D02*
X11415420Y-11470650D01*
X11482086Y-11603984D02*
X11482086Y-11470650D01*
X11482086Y-11403984D02*
X11472562Y-11413508D01*
X11472562Y-11413508D02*
X11482086Y-11423031D01*
X11482086Y-11423031D02*
X11491610Y-11413508D01*
X11491610Y-11413508D02*
X11482086Y-11403984D01*
X11482086Y-11403984D02*
X11482086Y-11423031D01*
X11605896Y-11603984D02*
X11586848Y-11594460D01*
X11586848Y-11594460D02*
X11577324Y-11575412D01*
X11577324Y-11575412D02*
X11577324Y-11403984D01*
X11710658Y-11603984D02*
X11691610Y-11594460D01*
X11691610Y-11594460D02*
X11682086Y-11575412D01*
X11682086Y-11575412D02*
X11682086Y-11403984D01*
X11939229Y-11603984D02*
X11939229Y-11403984D01*
X11939229Y-11403984D02*
X12005896Y-11546841D01*
X12005896Y-11546841D02*
X12072562Y-11403984D01*
X12072562Y-11403984D02*
X12072562Y-11603984D01*
X12253515Y-11603984D02*
X12253515Y-11499222D01*
X12253515Y-11499222D02*
X12243991Y-11480174D01*
X12243991Y-11480174D02*
X12224943Y-11470650D01*
X12224943Y-11470650D02*
X12186848Y-11470650D01*
X12186848Y-11470650D02*
X12167801Y-11480174D01*
X12253515Y-11594460D02*
X12234467Y-11603984D01*
X12234467Y-11603984D02*
X12186848Y-11603984D01*
X12186848Y-11603984D02*
X12167801Y-11594460D01*
X12167801Y-11594460D02*
X12158277Y-11575412D01*
X12158277Y-11575412D02*
X12158277Y-11556365D01*
X12158277Y-11556365D02*
X12167801Y-11537317D01*
X12167801Y-11537317D02*
X12186848Y-11527793D01*
X12186848Y-11527793D02*
X12234467Y-11527793D01*
X12234467Y-11527793D02*
X12253515Y-11518269D01*
X12348753Y-11470650D02*
X12348753Y-11670650D01*
X12348753Y-11480174D02*
X12367801Y-11470650D01*
X12367801Y-11470650D02*
X12405896Y-11470650D01*
X12405896Y-11470650D02*
X12424943Y-11480174D01*
X12424943Y-11480174D02*
X12434467Y-11489698D01*
X12434467Y-11489698D02*
X12443991Y-11508746D01*
X12443991Y-11508746D02*
X12443991Y-11565888D01*
X12443991Y-11565888D02*
X12434467Y-11584936D01*
X12434467Y-11584936D02*
X12424943Y-11594460D01*
X12424943Y-11594460D02*
X12405896Y-11603984D01*
X12405896Y-11603984D02*
X12367801Y-11603984D01*
X12367801Y-11603984D02*
X12348753Y-11594460D01*
X12529705Y-11584936D02*
X12539229Y-11594460D01*
X12539229Y-11594460D02*
X12529705Y-11603984D01*
X12529705Y-11603984D02*
X12520182Y-11594460D01*
X12520182Y-11594460D02*
X12529705Y-11584936D01*
X12529705Y-11584936D02*
X12529705Y-11603984D01*
X12529705Y-11480174D02*
X12539229Y-11489698D01*
X12539229Y-11489698D02*
X12529705Y-11499222D01*
X12529705Y-11499222D02*
X12520182Y-11489698D01*
X12520182Y-11489698D02*
X12529705Y-11480174D01*
X12529705Y-11480174D02*
X12529705Y-11499222D01*
D12*
X10867500Y-11917500D02*
X10897500Y-11947500D01*
X10897500Y-11917500D02*
X10867500Y-11947500D01*
D11*
X11196372Y-11823984D02*
X11215420Y-11823984D01*
X11215420Y-11823984D02*
X11234467Y-11833508D01*
X11234467Y-11833508D02*
X11243991Y-11843031D01*
X11243991Y-11843031D02*
X11253515Y-11862079D01*
X11253515Y-11862079D02*
X11263039Y-11900174D01*
X11263039Y-11900174D02*
X11263039Y-11947793D01*
X11263039Y-11947793D02*
X11253515Y-11985888D01*
X11253515Y-11985888D02*
X11243991Y-12004936D01*
X11243991Y-12004936D02*
X11234467Y-12014460D01*
X11234467Y-12014460D02*
X11215420Y-12023984D01*
X11215420Y-12023984D02*
X11196372Y-12023984D01*
X11196372Y-12023984D02*
X11177324Y-12014460D01*
X11177324Y-12014460D02*
X11167801Y-12004936D01*
X11167801Y-12004936D02*
X11158277Y-11985888D01*
X11158277Y-11985888D02*
X11148753Y-11947793D01*
X11148753Y-11947793D02*
X11148753Y-11900174D01*
X11148753Y-11900174D02*
X11158277Y-11862079D01*
X11158277Y-11862079D02*
X11167801Y-11843031D01*
X11167801Y-11843031D02*
X11177324Y-11833508D01*
X11177324Y-11833508D02*
X11196372Y-11823984D01*
X11348753Y-12004936D02*
X11358277Y-12014460D01*
X11358277Y-12014460D02*
X11348753Y-12023984D01*
X11348753Y-12023984D02*
X11339229Y-12014460D01*
X11339229Y-12014460D02*
X11348753Y-12004936D01*
X11348753Y-12004936D02*
X11348753Y-12023984D01*
X11424943Y-11823984D02*
X11548753Y-11823984D01*
X11548753Y-11823984D02*
X11482086Y-11900174D01*
X11482086Y-11900174D02*
X11510658Y-11900174D01*
X11510658Y-11900174D02*
X11529705Y-11909698D01*
X11529705Y-11909698D02*
X11539229Y-11919222D01*
X11539229Y-11919222D02*
X11548753Y-11938269D01*
X11548753Y-11938269D02*
X11548753Y-11985888D01*
X11548753Y-11985888D02*
X11539229Y-12004936D01*
X11539229Y-12004936D02*
X11529705Y-12014460D01*
X11529705Y-12014460D02*
X11510658Y-12023984D01*
X11510658Y-12023984D02*
X11453515Y-12023984D01*
X11453515Y-12023984D02*
X11434467Y-12014460D01*
X11434467Y-12014460D02*
X11424943Y-12004936D01*
X11672562Y-11823984D02*
X11691610Y-11823984D01*
X11691610Y-11823984D02*
X11710658Y-11833508D01*
X11710658Y-11833508D02*
X11720182Y-11843031D01*
X11720182Y-11843031D02*
X11729705Y-11862079D01*
X11729705Y-11862079D02*
X11739229Y-11900174D01*
X11739229Y-11900174D02*
X11739229Y-11947793D01*
X11739229Y-11947793D02*
X11729705Y-11985888D01*
X11729705Y-11985888D02*
X11720182Y-12004936D01*
X11720182Y-12004936D02*
X11710658Y-12014460D01*
X11710658Y-12014460D02*
X11691610Y-12023984D01*
X11691610Y-12023984D02*
X11672562Y-12023984D01*
X11672562Y-12023984D02*
X11653515Y-12014460D01*
X11653515Y-12014460D02*
X11643991Y-12004936D01*
X11643991Y-12004936D02*
X11634467Y-11985888D01*
X11634467Y-11985888D02*
X11624943Y-11947793D01*
X11624943Y-11947793D02*
X11624943Y-11900174D01*
X11624943Y-11900174D02*
X11634467Y-11862079D01*
X11634467Y-11862079D02*
X11643991Y-11843031D01*
X11643991Y-11843031D02*
X11653515Y-11833508D01*
X11653515Y-11833508D02*
X11672562Y-11823984D01*
X11863039Y-11823984D02*
X11882086Y-11823984D01*
X11882086Y-11823984D02*
X11901134Y-11833508D01*
X11901134Y-11833508D02*
X11910658Y-11843031D01*
X11910658Y-11843031D02*
X11920182Y-11862079D01*
X11920182Y-11862079D02*
X11929705Y-11900174D01*
X11929705Y-11900174D02*
X11929705Y-11947793D01*
X11929705Y-11947793D02*
X11920182Y-11985888D01*
X11920182Y-11985888D02*
X11910658Y-12004936D01*
X11910658Y-12004936D02*
X11901134Y-12014460D01*
X11901134Y-12014460D02*
X11882086Y-12023984D01*
X11882086Y-12023984D02*
X11863039Y-12023984D01*
X11863039Y-12023984D02*
X11843991Y-12014460D01*
X11843991Y-12014460D02*
X11834467Y-12004936D01*
X11834467Y-12004936D02*
X11824943Y-11985888D01*
X11824943Y-11985888D02*
X11815420Y-11947793D01*
X11815420Y-11947793D02*
X11815420Y-11900174D01*
X11815420Y-11900174D02*
X11824943Y-11862079D01*
X11824943Y-11862079D02*
X11834467Y-11843031D01*
X11834467Y-11843031D02*
X11843991Y-11833508D01*
X11843991Y-11833508D02*
X11863039Y-11823984D01*
X12015420Y-12023984D02*
X12015420Y-11890650D01*
X12015420Y-11909698D02*
X12024943Y-11900174D01*
X12024943Y-11900174D02*
X12043991Y-11890650D01*
X12043991Y-11890650D02*
X12072563Y-11890650D01*
X12072563Y-11890650D02*
X12091610Y-11900174D01*
X12091610Y-11900174D02*
X12101134Y-11919222D01*
X12101134Y-11919222D02*
X12101134Y-12023984D01*
X12101134Y-11919222D02*
X12110658Y-11900174D01*
X12110658Y-11900174D02*
X12129705Y-11890650D01*
X12129705Y-11890650D02*
X12158277Y-11890650D01*
X12158277Y-11890650D02*
X12177324Y-11900174D01*
X12177324Y-11900174D02*
X12186848Y-11919222D01*
X12186848Y-11919222D02*
X12186848Y-12023984D01*
X12282086Y-12023984D02*
X12282086Y-11890650D01*
X12282086Y-11909698D02*
X12291610Y-11900174D01*
X12291610Y-11900174D02*
X12310658Y-11890650D01*
X12310658Y-11890650D02*
X12339229Y-11890650D01*
X12339229Y-11890650D02*
X12358277Y-11900174D01*
X12358277Y-11900174D02*
X12367801Y-11919222D01*
X12367801Y-11919222D02*
X12367801Y-12023984D01*
X12367801Y-11919222D02*
X12377324Y-11900174D01*
X12377324Y-11900174D02*
X12396372Y-11890650D01*
X12396372Y-11890650D02*
X12424943Y-11890650D01*
X12424943Y-11890650D02*
X12443991Y-11900174D01*
X12443991Y-11900174D02*
X12453515Y-11919222D01*
X12453515Y-11919222D02*
X12453515Y-12023984D01*
X12843991Y-11814460D02*
X12672563Y-12071603D01*
X13101134Y-11823984D02*
X13120182Y-11823984D01*
X13120182Y-11823984D02*
X13139229Y-11833508D01*
X13139229Y-11833508D02*
X13148753Y-11843031D01*
X13148753Y-11843031D02*
X13158277Y-11862079D01*
X13158277Y-11862079D02*
X13167801Y-11900174D01*
X13167801Y-11900174D02*
X13167801Y-11947793D01*
X13167801Y-11947793D02*
X13158277Y-11985888D01*
X13158277Y-11985888D02*
X13148753Y-12004936D01*
X13148753Y-12004936D02*
X13139229Y-12014460D01*
X13139229Y-12014460D02*
X13120182Y-12023984D01*
X13120182Y-12023984D02*
X13101134Y-12023984D01*
X13101134Y-12023984D02*
X13082086Y-12014460D01*
X13082086Y-12014460D02*
X13072563Y-12004936D01*
X13072563Y-12004936D02*
X13063039Y-11985888D01*
X13063039Y-11985888D02*
X13053515Y-11947793D01*
X13053515Y-11947793D02*
X13053515Y-11900174D01*
X13053515Y-11900174D02*
X13063039Y-11862079D01*
X13063039Y-11862079D02*
X13072563Y-11843031D01*
X13072563Y-11843031D02*
X13082086Y-11833508D01*
X13082086Y-11833508D02*
X13101134Y-11823984D01*
X13253515Y-12004936D02*
X13263039Y-12014460D01*
X13263039Y-12014460D02*
X13253515Y-12023984D01*
X13253515Y-12023984D02*
X13243991Y-12014460D01*
X13243991Y-12014460D02*
X13253515Y-12004936D01*
X13253515Y-12004936D02*
X13253515Y-12023984D01*
X13386848Y-11823984D02*
X13405896Y-11823984D01*
X13405896Y-11823984D02*
X13424944Y-11833508D01*
X13424944Y-11833508D02*
X13434467Y-11843031D01*
X13434467Y-11843031D02*
X13443991Y-11862079D01*
X13443991Y-11862079D02*
X13453515Y-11900174D01*
X13453515Y-11900174D02*
X13453515Y-11947793D01*
X13453515Y-11947793D02*
X13443991Y-11985888D01*
X13443991Y-11985888D02*
X13434467Y-12004936D01*
X13434467Y-12004936D02*
X13424944Y-12014460D01*
X13424944Y-12014460D02*
X13405896Y-12023984D01*
X13405896Y-12023984D02*
X13386848Y-12023984D01*
X13386848Y-12023984D02*
X13367801Y-12014460D01*
X13367801Y-12014460D02*
X13358277Y-12004936D01*
X13358277Y-12004936D02*
X13348753Y-11985888D01*
X13348753Y-11985888D02*
X13339229Y-11947793D01*
X13339229Y-11947793D02*
X13339229Y-11900174D01*
X13339229Y-11900174D02*
X13348753Y-11862079D01*
X13348753Y-11862079D02*
X13358277Y-11843031D01*
X13358277Y-11843031D02*
X13367801Y-11833508D01*
X13367801Y-11833508D02*
X13386848Y-11823984D01*
X13643991Y-12023984D02*
X13529706Y-12023984D01*
X13586848Y-12023984D02*
X13586848Y-11823984D01*
X13586848Y-11823984D02*
X13567801Y-11852555D01*
X13567801Y-11852555D02*
X13548753Y-11871603D01*
X13548753Y-11871603D02*
X13529706Y-11881127D01*
X13834467Y-12023984D02*
X13720182Y-12023984D01*
X13777325Y-12023984D02*
X13777325Y-11823984D01*
X13777325Y-11823984D02*
X13758277Y-11852555D01*
X13758277Y-11852555D02*
X13739229Y-11871603D01*
X13739229Y-11871603D02*
X13720182Y-11881127D01*
X13948753Y-11909698D02*
X13929706Y-11900174D01*
X13929706Y-11900174D02*
X13920182Y-11890650D01*
X13920182Y-11890650D02*
X13910658Y-11871603D01*
X13910658Y-11871603D02*
X13910658Y-11862079D01*
X13910658Y-11862079D02*
X13920182Y-11843031D01*
X13920182Y-11843031D02*
X13929706Y-11833508D01*
X13929706Y-11833508D02*
X13948753Y-11823984D01*
X13948753Y-11823984D02*
X13986848Y-11823984D01*
X13986848Y-11823984D02*
X14005896Y-11833508D01*
X14005896Y-11833508D02*
X14015420Y-11843031D01*
X14015420Y-11843031D02*
X14024944Y-11862079D01*
X14024944Y-11862079D02*
X14024944Y-11871603D01*
X14024944Y-11871603D02*
X14015420Y-11890650D01*
X14015420Y-11890650D02*
X14005896Y-11900174D01*
X14005896Y-11900174D02*
X13986848Y-11909698D01*
X13986848Y-11909698D02*
X13948753Y-11909698D01*
X13948753Y-11909698D02*
X13929706Y-11919222D01*
X13929706Y-11919222D02*
X13920182Y-11928746D01*
X13920182Y-11928746D02*
X13910658Y-11947793D01*
X13910658Y-11947793D02*
X13910658Y-11985888D01*
X13910658Y-11985888D02*
X13920182Y-12004936D01*
X13920182Y-12004936D02*
X13929706Y-12014460D01*
X13929706Y-12014460D02*
X13948753Y-12023984D01*
X13948753Y-12023984D02*
X13986848Y-12023984D01*
X13986848Y-12023984D02*
X14005896Y-12014460D01*
X14005896Y-12014460D02*
X14015420Y-12004936D01*
X14015420Y-12004936D02*
X14024944Y-11985888D01*
X14024944Y-11985888D02*
X14024944Y-11947793D01*
X14024944Y-11947793D02*
X14015420Y-11928746D01*
X14015420Y-11928746D02*
X14005896Y-11919222D01*
X14005896Y-11919222D02*
X13986848Y-11909698D01*
X14101134Y-11823984D02*
X14101134Y-11862079D01*
X14177325Y-11823984D02*
X14177325Y-11862079D01*
X14472563Y-12100174D02*
X14463039Y-12090650D01*
X14463039Y-12090650D02*
X14443991Y-12062079D01*
X14443991Y-12062079D02*
X14434468Y-12043031D01*
X14434468Y-12043031D02*
X14424944Y-12014460D01*
X14424944Y-12014460D02*
X14415420Y-11966841D01*
X14415420Y-11966841D02*
X14415420Y-11928746D01*
X14415420Y-11928746D02*
X14424944Y-11881127D01*
X14424944Y-11881127D02*
X14434468Y-11852555D01*
X14434468Y-11852555D02*
X14443991Y-11833508D01*
X14443991Y-11833508D02*
X14463039Y-11804936D01*
X14463039Y-11804936D02*
X14472563Y-11795412D01*
X14643991Y-11823984D02*
X14548753Y-11823984D01*
X14548753Y-11823984D02*
X14539229Y-11919222D01*
X14539229Y-11919222D02*
X14548753Y-11909698D01*
X14548753Y-11909698D02*
X14567801Y-11900174D01*
X14567801Y-11900174D02*
X14615420Y-11900174D01*
X14615420Y-11900174D02*
X14634468Y-11909698D01*
X14634468Y-11909698D02*
X14643991Y-11919222D01*
X14643991Y-11919222D02*
X14653515Y-11938269D01*
X14653515Y-11938269D02*
X14653515Y-11985888D01*
X14653515Y-11985888D02*
X14643991Y-12004936D01*
X14643991Y-12004936D02*
X14634468Y-12014460D01*
X14634468Y-12014460D02*
X14615420Y-12023984D01*
X14615420Y-12023984D02*
X14567801Y-12023984D01*
X14567801Y-12023984D02*
X14548753Y-12014460D01*
X14548753Y-12014460D02*
X14539229Y-12004936D01*
X14767801Y-11909698D02*
X14748753Y-11900174D01*
X14748753Y-11900174D02*
X14739229Y-11890650D01*
X14739229Y-11890650D02*
X14729706Y-11871603D01*
X14729706Y-11871603D02*
X14729706Y-11862079D01*
X14729706Y-11862079D02*
X14739229Y-11843031D01*
X14739229Y-11843031D02*
X14748753Y-11833508D01*
X14748753Y-11833508D02*
X14767801Y-11823984D01*
X14767801Y-11823984D02*
X14805896Y-11823984D01*
X14805896Y-11823984D02*
X14824944Y-11833508D01*
X14824944Y-11833508D02*
X14834468Y-11843031D01*
X14834468Y-11843031D02*
X14843991Y-11862079D01*
X14843991Y-11862079D02*
X14843991Y-11871603D01*
X14843991Y-11871603D02*
X14834468Y-11890650D01*
X14834468Y-11890650D02*
X14824944Y-11900174D01*
X14824944Y-11900174D02*
X14805896Y-11909698D01*
X14805896Y-11909698D02*
X14767801Y-11909698D01*
X14767801Y-11909698D02*
X14748753Y-11919222D01*
X14748753Y-11919222D02*
X14739229Y-11928746D01*
X14739229Y-11928746D02*
X14729706Y-11947793D01*
X14729706Y-11947793D02*
X14729706Y-11985888D01*
X14729706Y-11985888D02*
X14739229Y-12004936D01*
X14739229Y-12004936D02*
X14748753Y-12014460D01*
X14748753Y-12014460D02*
X14767801Y-12023984D01*
X14767801Y-12023984D02*
X14805896Y-12023984D01*
X14805896Y-12023984D02*
X14824944Y-12014460D01*
X14824944Y-12014460D02*
X14834468Y-12004936D01*
X14834468Y-12004936D02*
X14843991Y-11985888D01*
X14843991Y-11985888D02*
X14843991Y-11947793D01*
X14843991Y-11947793D02*
X14834468Y-11928746D01*
X14834468Y-11928746D02*
X14824944Y-11919222D01*
X14824944Y-11919222D02*
X14805896Y-11909698D01*
X15082087Y-12023984D02*
X15082087Y-11823984D01*
X15167801Y-12023984D02*
X15167801Y-11919222D01*
X15167801Y-11919222D02*
X15158277Y-11900174D01*
X15158277Y-11900174D02*
X15139230Y-11890650D01*
X15139230Y-11890650D02*
X15110658Y-11890650D01*
X15110658Y-11890650D02*
X15091610Y-11900174D01*
X15091610Y-11900174D02*
X15082087Y-11909698D01*
X15291610Y-12023984D02*
X15272563Y-12014460D01*
X15272563Y-12014460D02*
X15263039Y-12004936D01*
X15263039Y-12004936D02*
X15253515Y-11985888D01*
X15253515Y-11985888D02*
X15253515Y-11928746D01*
X15253515Y-11928746D02*
X15263039Y-11909698D01*
X15263039Y-11909698D02*
X15272563Y-11900174D01*
X15272563Y-11900174D02*
X15291610Y-11890650D01*
X15291610Y-11890650D02*
X15320182Y-11890650D01*
X15320182Y-11890650D02*
X15339230Y-11900174D01*
X15339230Y-11900174D02*
X15348753Y-11909698D01*
X15348753Y-11909698D02*
X15358277Y-11928746D01*
X15358277Y-11928746D02*
X15358277Y-11985888D01*
X15358277Y-11985888D02*
X15348753Y-12004936D01*
X15348753Y-12004936D02*
X15339230Y-12014460D01*
X15339230Y-12014460D02*
X15320182Y-12023984D01*
X15320182Y-12023984D02*
X15291610Y-12023984D01*
X15472563Y-12023984D02*
X15453515Y-12014460D01*
X15453515Y-12014460D02*
X15443991Y-11995412D01*
X15443991Y-11995412D02*
X15443991Y-11823984D01*
X15624944Y-12014460D02*
X15605896Y-12023984D01*
X15605896Y-12023984D02*
X15567801Y-12023984D01*
X15567801Y-12023984D02*
X15548753Y-12014460D01*
X15548753Y-12014460D02*
X15539230Y-11995412D01*
X15539230Y-11995412D02*
X15539230Y-11919222D01*
X15539230Y-11919222D02*
X15548753Y-11900174D01*
X15548753Y-11900174D02*
X15567801Y-11890650D01*
X15567801Y-11890650D02*
X15605896Y-11890650D01*
X15605896Y-11890650D02*
X15624944Y-11900174D01*
X15624944Y-11900174D02*
X15634468Y-11919222D01*
X15634468Y-11919222D02*
X15634468Y-11938269D01*
X15634468Y-11938269D02*
X15539230Y-11957317D01*
X15710658Y-12014460D02*
X15729706Y-12023984D01*
X15729706Y-12023984D02*
X15767801Y-12023984D01*
X15767801Y-12023984D02*
X15786849Y-12014460D01*
X15786849Y-12014460D02*
X15796372Y-11995412D01*
X15796372Y-11995412D02*
X15796372Y-11985888D01*
X15796372Y-11985888D02*
X15786849Y-11966841D01*
X15786849Y-11966841D02*
X15767801Y-11957317D01*
X15767801Y-11957317D02*
X15739230Y-11957317D01*
X15739230Y-11957317D02*
X15720182Y-11947793D01*
X15720182Y-11947793D02*
X15710658Y-11928746D01*
X15710658Y-11928746D02*
X15710658Y-11919222D01*
X15710658Y-11919222D02*
X15720182Y-11900174D01*
X15720182Y-11900174D02*
X15739230Y-11890650D01*
X15739230Y-11890650D02*
X15767801Y-11890650D01*
X15767801Y-11890650D02*
X15786849Y-11900174D01*
X15863039Y-12100174D02*
X15872563Y-12090650D01*
X15872563Y-12090650D02*
X15891611Y-12062079D01*
X15891611Y-12062079D02*
X15901134Y-12043031D01*
X15901134Y-12043031D02*
X15910658Y-12014460D01*
X15910658Y-12014460D02*
X15920182Y-11966841D01*
X15920182Y-11966841D02*
X15920182Y-11928746D01*
X15920182Y-11928746D02*
X15910658Y-11881127D01*
X15910658Y-11881127D02*
X15901134Y-11852555D01*
X15901134Y-11852555D02*
X15891611Y-11833508D01*
X15891611Y-11833508D02*
X15872563Y-11804936D01*
X15872563Y-11804936D02*
X15863039Y-11795412D01*
D12*
X10897500Y-12196500D02*
G75*
G02*
X10822500Y-12196500I-37500J0D01*
G01*
X10822500Y-12196500D02*
G75*
G02*
X10897500Y-12196500I37500J0D01*
G01*
D11*
X11196372Y-12087984D02*
X11215420Y-12087984D01*
X11215420Y-12087984D02*
X11234467Y-12097508D01*
X11234467Y-12097508D02*
X11243991Y-12107031D01*
X11243991Y-12107031D02*
X11253515Y-12126079D01*
X11253515Y-12126079D02*
X11263039Y-12164174D01*
X11263039Y-12164174D02*
X11263039Y-12211793D01*
X11263039Y-12211793D02*
X11253515Y-12249888D01*
X11253515Y-12249888D02*
X11243991Y-12268936D01*
X11243991Y-12268936D02*
X11234467Y-12278460D01*
X11234467Y-12278460D02*
X11215420Y-12287984D01*
X11215420Y-12287984D02*
X11196372Y-12287984D01*
X11196372Y-12287984D02*
X11177324Y-12278460D01*
X11177324Y-12278460D02*
X11167801Y-12268936D01*
X11167801Y-12268936D02*
X11158277Y-12249888D01*
X11158277Y-12249888D02*
X11148753Y-12211793D01*
X11148753Y-12211793D02*
X11148753Y-12164174D01*
X11148753Y-12164174D02*
X11158277Y-12126079D01*
X11158277Y-12126079D02*
X11167801Y-12107031D01*
X11167801Y-12107031D02*
X11177324Y-12097508D01*
X11177324Y-12097508D02*
X11196372Y-12087984D01*
X11348753Y-12268936D02*
X11358277Y-12278460D01*
X11358277Y-12278460D02*
X11348753Y-12287984D01*
X11348753Y-12287984D02*
X11339229Y-12278460D01*
X11339229Y-12278460D02*
X11348753Y-12268936D01*
X11348753Y-12268936D02*
X11348753Y-12287984D01*
X11424943Y-12087984D02*
X11558277Y-12087984D01*
X11558277Y-12087984D02*
X11472562Y-12287984D01*
X11729705Y-12087984D02*
X11634467Y-12087984D01*
X11634467Y-12087984D02*
X11624943Y-12183222D01*
X11624943Y-12183222D02*
X11634467Y-12173698D01*
X11634467Y-12173698D02*
X11653515Y-12164174D01*
X11653515Y-12164174D02*
X11701134Y-12164174D01*
X11701134Y-12164174D02*
X11720182Y-12173698D01*
X11720182Y-12173698D02*
X11729705Y-12183222D01*
X11729705Y-12183222D02*
X11739229Y-12202269D01*
X11739229Y-12202269D02*
X11739229Y-12249888D01*
X11739229Y-12249888D02*
X11729705Y-12268936D01*
X11729705Y-12268936D02*
X11720182Y-12278460D01*
X11720182Y-12278460D02*
X11701134Y-12287984D01*
X11701134Y-12287984D02*
X11653515Y-12287984D01*
X11653515Y-12287984D02*
X11634467Y-12278460D01*
X11634467Y-12278460D02*
X11624943Y-12268936D01*
X11863039Y-12087984D02*
X11882086Y-12087984D01*
X11882086Y-12087984D02*
X11901134Y-12097508D01*
X11901134Y-12097508D02*
X11910658Y-12107031D01*
X11910658Y-12107031D02*
X11920182Y-12126079D01*
X11920182Y-12126079D02*
X11929705Y-12164174D01*
X11929705Y-12164174D02*
X11929705Y-12211793D01*
X11929705Y-12211793D02*
X11920182Y-12249888D01*
X11920182Y-12249888D02*
X11910658Y-12268936D01*
X11910658Y-12268936D02*
X11901134Y-12278460D01*
X11901134Y-12278460D02*
X11882086Y-12287984D01*
X11882086Y-12287984D02*
X11863039Y-12287984D01*
X11863039Y-12287984D02*
X11843991Y-12278460D01*
X11843991Y-12278460D02*
X11834467Y-12268936D01*
X11834467Y-12268936D02*
X11824943Y-12249888D01*
X11824943Y-12249888D02*
X11815420Y-12211793D01*
X11815420Y-12211793D02*
X11815420Y-12164174D01*
X11815420Y-12164174D02*
X11824943Y-12126079D01*
X11824943Y-12126079D02*
X11834467Y-12107031D01*
X11834467Y-12107031D02*
X11843991Y-12097508D01*
X11843991Y-12097508D02*
X11863039Y-12087984D01*
X12015420Y-12287984D02*
X12015420Y-12154650D01*
X12015420Y-12173698D02*
X12024943Y-12164174D01*
X12024943Y-12164174D02*
X12043991Y-12154650D01*
X12043991Y-12154650D02*
X12072563Y-12154650D01*
X12072563Y-12154650D02*
X12091610Y-12164174D01*
X12091610Y-12164174D02*
X12101134Y-12183222D01*
X12101134Y-12183222D02*
X12101134Y-12287984D01*
X12101134Y-12183222D02*
X12110658Y-12164174D01*
X12110658Y-12164174D02*
X12129705Y-12154650D01*
X12129705Y-12154650D02*
X12158277Y-12154650D01*
X12158277Y-12154650D02*
X12177324Y-12164174D01*
X12177324Y-12164174D02*
X12186848Y-12183222D01*
X12186848Y-12183222D02*
X12186848Y-12287984D01*
X12282086Y-12287984D02*
X12282086Y-12154650D01*
X12282086Y-12173698D02*
X12291610Y-12164174D01*
X12291610Y-12164174D02*
X12310658Y-12154650D01*
X12310658Y-12154650D02*
X12339229Y-12154650D01*
X12339229Y-12154650D02*
X12358277Y-12164174D01*
X12358277Y-12164174D02*
X12367801Y-12183222D01*
X12367801Y-12183222D02*
X12367801Y-12287984D01*
X12367801Y-12183222D02*
X12377324Y-12164174D01*
X12377324Y-12164174D02*
X12396372Y-12154650D01*
X12396372Y-12154650D02*
X12424943Y-12154650D01*
X12424943Y-12154650D02*
X12443991Y-12164174D01*
X12443991Y-12164174D02*
X12453515Y-12183222D01*
X12453515Y-12183222D02*
X12453515Y-12287984D01*
X12843991Y-12078460D02*
X12672563Y-12335603D01*
X13101134Y-12087984D02*
X13120182Y-12087984D01*
X13120182Y-12087984D02*
X13139229Y-12097508D01*
X13139229Y-12097508D02*
X13148753Y-12107031D01*
X13148753Y-12107031D02*
X13158277Y-12126079D01*
X13158277Y-12126079D02*
X13167801Y-12164174D01*
X13167801Y-12164174D02*
X13167801Y-12211793D01*
X13167801Y-12211793D02*
X13158277Y-12249888D01*
X13158277Y-12249888D02*
X13148753Y-12268936D01*
X13148753Y-12268936D02*
X13139229Y-12278460D01*
X13139229Y-12278460D02*
X13120182Y-12287984D01*
X13120182Y-12287984D02*
X13101134Y-12287984D01*
X13101134Y-12287984D02*
X13082086Y-12278460D01*
X13082086Y-12278460D02*
X13072563Y-12268936D01*
X13072563Y-12268936D02*
X13063039Y-12249888D01*
X13063039Y-12249888D02*
X13053515Y-12211793D01*
X13053515Y-12211793D02*
X13053515Y-12164174D01*
X13053515Y-12164174D02*
X13063039Y-12126079D01*
X13063039Y-12126079D02*
X13072563Y-12107031D01*
X13072563Y-12107031D02*
X13082086Y-12097508D01*
X13082086Y-12097508D02*
X13101134Y-12087984D01*
X13253515Y-12268936D02*
X13263039Y-12278460D01*
X13263039Y-12278460D02*
X13253515Y-12287984D01*
X13253515Y-12287984D02*
X13243991Y-12278460D01*
X13243991Y-12278460D02*
X13253515Y-12268936D01*
X13253515Y-12268936D02*
X13253515Y-12287984D01*
X13386848Y-12087984D02*
X13405896Y-12087984D01*
X13405896Y-12087984D02*
X13424944Y-12097508D01*
X13424944Y-12097508D02*
X13434467Y-12107031D01*
X13434467Y-12107031D02*
X13443991Y-12126079D01*
X13443991Y-12126079D02*
X13453515Y-12164174D01*
X13453515Y-12164174D02*
X13453515Y-12211793D01*
X13453515Y-12211793D02*
X13443991Y-12249888D01*
X13443991Y-12249888D02*
X13434467Y-12268936D01*
X13434467Y-12268936D02*
X13424944Y-12278460D01*
X13424944Y-12278460D02*
X13405896Y-12287984D01*
X13405896Y-12287984D02*
X13386848Y-12287984D01*
X13386848Y-12287984D02*
X13367801Y-12278460D01*
X13367801Y-12278460D02*
X13358277Y-12268936D01*
X13358277Y-12268936D02*
X13348753Y-12249888D01*
X13348753Y-12249888D02*
X13339229Y-12211793D01*
X13339229Y-12211793D02*
X13339229Y-12164174D01*
X13339229Y-12164174D02*
X13348753Y-12126079D01*
X13348753Y-12126079D02*
X13358277Y-12107031D01*
X13358277Y-12107031D02*
X13367801Y-12097508D01*
X13367801Y-12097508D02*
X13386848Y-12087984D01*
X13529706Y-12107031D02*
X13539229Y-12097508D01*
X13539229Y-12097508D02*
X13558277Y-12087984D01*
X13558277Y-12087984D02*
X13605896Y-12087984D01*
X13605896Y-12087984D02*
X13624944Y-12097508D01*
X13624944Y-12097508D02*
X13634467Y-12107031D01*
X13634467Y-12107031D02*
X13643991Y-12126079D01*
X13643991Y-12126079D02*
X13643991Y-12145127D01*
X13643991Y-12145127D02*
X13634467Y-12173698D01*
X13634467Y-12173698D02*
X13520182Y-12287984D01*
X13520182Y-12287984D02*
X13643991Y-12287984D01*
X13739229Y-12287984D02*
X13777325Y-12287984D01*
X13777325Y-12287984D02*
X13796372Y-12278460D01*
X13796372Y-12278460D02*
X13805896Y-12268936D01*
X13805896Y-12268936D02*
X13824944Y-12240365D01*
X13824944Y-12240365D02*
X13834467Y-12202269D01*
X13834467Y-12202269D02*
X13834467Y-12126079D01*
X13834467Y-12126079D02*
X13824944Y-12107031D01*
X13824944Y-12107031D02*
X13815420Y-12097508D01*
X13815420Y-12097508D02*
X13796372Y-12087984D01*
X13796372Y-12087984D02*
X13758277Y-12087984D01*
X13758277Y-12087984D02*
X13739229Y-12097508D01*
X13739229Y-12097508D02*
X13729706Y-12107031D01*
X13729706Y-12107031D02*
X13720182Y-12126079D01*
X13720182Y-12126079D02*
X13720182Y-12173698D01*
X13720182Y-12173698D02*
X13729706Y-12192746D01*
X13729706Y-12192746D02*
X13739229Y-12202269D01*
X13739229Y-12202269D02*
X13758277Y-12211793D01*
X13758277Y-12211793D02*
X13796372Y-12211793D01*
X13796372Y-12211793D02*
X13815420Y-12202269D01*
X13815420Y-12202269D02*
X13824944Y-12192746D01*
X13824944Y-12192746D02*
X13834467Y-12173698D01*
X14015420Y-12087984D02*
X13920182Y-12087984D01*
X13920182Y-12087984D02*
X13910658Y-12183222D01*
X13910658Y-12183222D02*
X13920182Y-12173698D01*
X13920182Y-12173698D02*
X13939229Y-12164174D01*
X13939229Y-12164174D02*
X13986848Y-12164174D01*
X13986848Y-12164174D02*
X14005896Y-12173698D01*
X14005896Y-12173698D02*
X14015420Y-12183222D01*
X14015420Y-12183222D02*
X14024944Y-12202269D01*
X14024944Y-12202269D02*
X14024944Y-12249888D01*
X14024944Y-12249888D02*
X14015420Y-12268936D01*
X14015420Y-12268936D02*
X14005896Y-12278460D01*
X14005896Y-12278460D02*
X13986848Y-12287984D01*
X13986848Y-12287984D02*
X13939229Y-12287984D01*
X13939229Y-12287984D02*
X13920182Y-12278460D01*
X13920182Y-12278460D02*
X13910658Y-12268936D01*
X14101134Y-12087984D02*
X14101134Y-12126079D01*
X14177325Y-12087984D02*
X14177325Y-12126079D01*
X14472563Y-12364174D02*
X14463039Y-12354650D01*
X14463039Y-12354650D02*
X14443991Y-12326079D01*
X14443991Y-12326079D02*
X14434468Y-12307031D01*
X14434468Y-12307031D02*
X14424944Y-12278460D01*
X14424944Y-12278460D02*
X14415420Y-12230841D01*
X14415420Y-12230841D02*
X14415420Y-12192746D01*
X14415420Y-12192746D02*
X14424944Y-12145127D01*
X14424944Y-12145127D02*
X14434468Y-12116555D01*
X14434468Y-12116555D02*
X14443991Y-12097508D01*
X14443991Y-12097508D02*
X14463039Y-12068936D01*
X14463039Y-12068936D02*
X14472563Y-12059412D01*
X14539229Y-12107031D02*
X14548753Y-12097508D01*
X14548753Y-12097508D02*
X14567801Y-12087984D01*
X14567801Y-12087984D02*
X14615420Y-12087984D01*
X14615420Y-12087984D02*
X14634468Y-12097508D01*
X14634468Y-12097508D02*
X14643991Y-12107031D01*
X14643991Y-12107031D02*
X14653515Y-12126079D01*
X14653515Y-12126079D02*
X14653515Y-12145127D01*
X14653515Y-12145127D02*
X14643991Y-12173698D01*
X14643991Y-12173698D02*
X14529706Y-12287984D01*
X14529706Y-12287984D02*
X14653515Y-12287984D01*
X14720182Y-12087984D02*
X14853515Y-12087984D01*
X14853515Y-12087984D02*
X14767801Y-12287984D01*
X15082087Y-12287984D02*
X15082087Y-12087984D01*
X15167801Y-12287984D02*
X15167801Y-12183222D01*
X15167801Y-12183222D02*
X15158277Y-12164174D01*
X15158277Y-12164174D02*
X15139230Y-12154650D01*
X15139230Y-12154650D02*
X15110658Y-12154650D01*
X15110658Y-12154650D02*
X15091610Y-12164174D01*
X15091610Y-12164174D02*
X15082087Y-12173698D01*
X15291610Y-12287984D02*
X15272563Y-12278460D01*
X15272563Y-12278460D02*
X15263039Y-12268936D01*
X15263039Y-12268936D02*
X15253515Y-12249888D01*
X15253515Y-12249888D02*
X15253515Y-12192746D01*
X15253515Y-12192746D02*
X15263039Y-12173698D01*
X15263039Y-12173698D02*
X15272563Y-12164174D01*
X15272563Y-12164174D02*
X15291610Y-12154650D01*
X15291610Y-12154650D02*
X15320182Y-12154650D01*
X15320182Y-12154650D02*
X15339230Y-12164174D01*
X15339230Y-12164174D02*
X15348753Y-12173698D01*
X15348753Y-12173698D02*
X15358277Y-12192746D01*
X15358277Y-12192746D02*
X15358277Y-12249888D01*
X15358277Y-12249888D02*
X15348753Y-12268936D01*
X15348753Y-12268936D02*
X15339230Y-12278460D01*
X15339230Y-12278460D02*
X15320182Y-12287984D01*
X15320182Y-12287984D02*
X15291610Y-12287984D01*
X15472563Y-12287984D02*
X15453515Y-12278460D01*
X15453515Y-12278460D02*
X15443991Y-12259412D01*
X15443991Y-12259412D02*
X15443991Y-12087984D01*
X15624944Y-12278460D02*
X15605896Y-12287984D01*
X15605896Y-12287984D02*
X15567801Y-12287984D01*
X15567801Y-12287984D02*
X15548753Y-12278460D01*
X15548753Y-12278460D02*
X15539230Y-12259412D01*
X15539230Y-12259412D02*
X15539230Y-12183222D01*
X15539230Y-12183222D02*
X15548753Y-12164174D01*
X15548753Y-12164174D02*
X15567801Y-12154650D01*
X15567801Y-12154650D02*
X15605896Y-12154650D01*
X15605896Y-12154650D02*
X15624944Y-12164174D01*
X15624944Y-12164174D02*
X15634468Y-12183222D01*
X15634468Y-12183222D02*
X15634468Y-12202269D01*
X15634468Y-12202269D02*
X15539230Y-12221317D01*
X15710658Y-12278460D02*
X15729706Y-12287984D01*
X15729706Y-12287984D02*
X15767801Y-12287984D01*
X15767801Y-12287984D02*
X15786849Y-12278460D01*
X15786849Y-12278460D02*
X15796372Y-12259412D01*
X15796372Y-12259412D02*
X15796372Y-12249888D01*
X15796372Y-12249888D02*
X15786849Y-12230841D01*
X15786849Y-12230841D02*
X15767801Y-12221317D01*
X15767801Y-12221317D02*
X15739230Y-12221317D01*
X15739230Y-12221317D02*
X15720182Y-12211793D01*
X15720182Y-12211793D02*
X15710658Y-12192746D01*
X15710658Y-12192746D02*
X15710658Y-12183222D01*
X15710658Y-12183222D02*
X15720182Y-12164174D01*
X15720182Y-12164174D02*
X15739230Y-12154650D01*
X15739230Y-12154650D02*
X15767801Y-12154650D01*
X15767801Y-12154650D02*
X15786849Y-12164174D01*
X15863039Y-12364174D02*
X15872563Y-12354650D01*
X15872563Y-12354650D02*
X15891611Y-12326079D01*
X15891611Y-12326079D02*
X15901134Y-12307031D01*
X15901134Y-12307031D02*
X15910658Y-12278460D01*
X15910658Y-12278460D02*
X15920182Y-12230841D01*
X15920182Y-12230841D02*
X15920182Y-12192746D01*
X15920182Y-12192746D02*
X15910658Y-12145127D01*
X15910658Y-12145127D02*
X15901134Y-12116555D01*
X15901134Y-12116555D02*
X15891611Y-12097508D01*
X15891611Y-12097508D02*
X15872563Y-12068936D01*
X15872563Y-12068936D02*
X15863039Y-12059412D01*
D12*
X10857500Y-12420500D02*
X10857500Y-12500500D01*
X10817500Y-12460500D02*
X10897500Y-12460500D01*
D11*
X11196372Y-12351984D02*
X11215420Y-12351984D01*
X11215420Y-12351984D02*
X11234467Y-12361508D01*
X11234467Y-12361508D02*
X11243991Y-12371031D01*
X11243991Y-12371031D02*
X11253515Y-12390079D01*
X11253515Y-12390079D02*
X11263039Y-12428174D01*
X11263039Y-12428174D02*
X11263039Y-12475793D01*
X11263039Y-12475793D02*
X11253515Y-12513888D01*
X11253515Y-12513888D02*
X11243991Y-12532936D01*
X11243991Y-12532936D02*
X11234467Y-12542460D01*
X11234467Y-12542460D02*
X11215420Y-12551984D01*
X11215420Y-12551984D02*
X11196372Y-12551984D01*
X11196372Y-12551984D02*
X11177324Y-12542460D01*
X11177324Y-12542460D02*
X11167801Y-12532936D01*
X11167801Y-12532936D02*
X11158277Y-12513888D01*
X11158277Y-12513888D02*
X11148753Y-12475793D01*
X11148753Y-12475793D02*
X11148753Y-12428174D01*
X11148753Y-12428174D02*
X11158277Y-12390079D01*
X11158277Y-12390079D02*
X11167801Y-12371031D01*
X11167801Y-12371031D02*
X11177324Y-12361508D01*
X11177324Y-12361508D02*
X11196372Y-12351984D01*
X11348753Y-12532936D02*
X11358277Y-12542460D01*
X11358277Y-12542460D02*
X11348753Y-12551984D01*
X11348753Y-12551984D02*
X11339229Y-12542460D01*
X11339229Y-12542460D02*
X11348753Y-12532936D01*
X11348753Y-12532936D02*
X11348753Y-12551984D01*
X11472562Y-12437698D02*
X11453515Y-12428174D01*
X11453515Y-12428174D02*
X11443991Y-12418650D01*
X11443991Y-12418650D02*
X11434467Y-12399603D01*
X11434467Y-12399603D02*
X11434467Y-12390079D01*
X11434467Y-12390079D02*
X11443991Y-12371031D01*
X11443991Y-12371031D02*
X11453515Y-12361508D01*
X11453515Y-12361508D02*
X11472562Y-12351984D01*
X11472562Y-12351984D02*
X11510658Y-12351984D01*
X11510658Y-12351984D02*
X11529705Y-12361508D01*
X11529705Y-12361508D02*
X11539229Y-12371031D01*
X11539229Y-12371031D02*
X11548753Y-12390079D01*
X11548753Y-12390079D02*
X11548753Y-12399603D01*
X11548753Y-12399603D02*
X11539229Y-12418650D01*
X11539229Y-12418650D02*
X11529705Y-12428174D01*
X11529705Y-12428174D02*
X11510658Y-12437698D01*
X11510658Y-12437698D02*
X11472562Y-12437698D01*
X11472562Y-12437698D02*
X11453515Y-12447222D01*
X11453515Y-12447222D02*
X11443991Y-12456746D01*
X11443991Y-12456746D02*
X11434467Y-12475793D01*
X11434467Y-12475793D02*
X11434467Y-12513888D01*
X11434467Y-12513888D02*
X11443991Y-12532936D01*
X11443991Y-12532936D02*
X11453515Y-12542460D01*
X11453515Y-12542460D02*
X11472562Y-12551984D01*
X11472562Y-12551984D02*
X11510658Y-12551984D01*
X11510658Y-12551984D02*
X11529705Y-12542460D01*
X11529705Y-12542460D02*
X11539229Y-12532936D01*
X11539229Y-12532936D02*
X11548753Y-12513888D01*
X11548753Y-12513888D02*
X11548753Y-12475793D01*
X11548753Y-12475793D02*
X11539229Y-12456746D01*
X11539229Y-12456746D02*
X11529705Y-12447222D01*
X11529705Y-12447222D02*
X11510658Y-12437698D01*
X11672562Y-12351984D02*
X11691610Y-12351984D01*
X11691610Y-12351984D02*
X11710658Y-12361508D01*
X11710658Y-12361508D02*
X11720182Y-12371031D01*
X11720182Y-12371031D02*
X11729705Y-12390079D01*
X11729705Y-12390079D02*
X11739229Y-12428174D01*
X11739229Y-12428174D02*
X11739229Y-12475793D01*
X11739229Y-12475793D02*
X11729705Y-12513888D01*
X11729705Y-12513888D02*
X11720182Y-12532936D01*
X11720182Y-12532936D02*
X11710658Y-12542460D01*
X11710658Y-12542460D02*
X11691610Y-12551984D01*
X11691610Y-12551984D02*
X11672562Y-12551984D01*
X11672562Y-12551984D02*
X11653515Y-12542460D01*
X11653515Y-12542460D02*
X11643991Y-12532936D01*
X11643991Y-12532936D02*
X11634467Y-12513888D01*
X11634467Y-12513888D02*
X11624943Y-12475793D01*
X11624943Y-12475793D02*
X11624943Y-12428174D01*
X11624943Y-12428174D02*
X11634467Y-12390079D01*
X11634467Y-12390079D02*
X11643991Y-12371031D01*
X11643991Y-12371031D02*
X11653515Y-12361508D01*
X11653515Y-12361508D02*
X11672562Y-12351984D01*
X11863039Y-12351984D02*
X11882086Y-12351984D01*
X11882086Y-12351984D02*
X11901134Y-12361508D01*
X11901134Y-12361508D02*
X11910658Y-12371031D01*
X11910658Y-12371031D02*
X11920182Y-12390079D01*
X11920182Y-12390079D02*
X11929705Y-12428174D01*
X11929705Y-12428174D02*
X11929705Y-12475793D01*
X11929705Y-12475793D02*
X11920182Y-12513888D01*
X11920182Y-12513888D02*
X11910658Y-12532936D01*
X11910658Y-12532936D02*
X11901134Y-12542460D01*
X11901134Y-12542460D02*
X11882086Y-12551984D01*
X11882086Y-12551984D02*
X11863039Y-12551984D01*
X11863039Y-12551984D02*
X11843991Y-12542460D01*
X11843991Y-12542460D02*
X11834467Y-12532936D01*
X11834467Y-12532936D02*
X11824943Y-12513888D01*
X11824943Y-12513888D02*
X11815420Y-12475793D01*
X11815420Y-12475793D02*
X11815420Y-12428174D01*
X11815420Y-12428174D02*
X11824943Y-12390079D01*
X11824943Y-12390079D02*
X11834467Y-12371031D01*
X11834467Y-12371031D02*
X11843991Y-12361508D01*
X11843991Y-12361508D02*
X11863039Y-12351984D01*
X12015420Y-12551984D02*
X12015420Y-12418650D01*
X12015420Y-12437698D02*
X12024943Y-12428174D01*
X12024943Y-12428174D02*
X12043991Y-12418650D01*
X12043991Y-12418650D02*
X12072563Y-12418650D01*
X12072563Y-12418650D02*
X12091610Y-12428174D01*
X12091610Y-12428174D02*
X12101134Y-12447222D01*
X12101134Y-12447222D02*
X12101134Y-12551984D01*
X12101134Y-12447222D02*
X12110658Y-12428174D01*
X12110658Y-12428174D02*
X12129705Y-12418650D01*
X12129705Y-12418650D02*
X12158277Y-12418650D01*
X12158277Y-12418650D02*
X12177324Y-12428174D01*
X12177324Y-12428174D02*
X12186848Y-12447222D01*
X12186848Y-12447222D02*
X12186848Y-12551984D01*
X12282086Y-12551984D02*
X12282086Y-12418650D01*
X12282086Y-12437698D02*
X12291610Y-12428174D01*
X12291610Y-12428174D02*
X12310658Y-12418650D01*
X12310658Y-12418650D02*
X12339229Y-12418650D01*
X12339229Y-12418650D02*
X12358277Y-12428174D01*
X12358277Y-12428174D02*
X12367801Y-12447222D01*
X12367801Y-12447222D02*
X12367801Y-12551984D01*
X12367801Y-12447222D02*
X12377324Y-12428174D01*
X12377324Y-12428174D02*
X12396372Y-12418650D01*
X12396372Y-12418650D02*
X12424943Y-12418650D01*
X12424943Y-12418650D02*
X12443991Y-12428174D01*
X12443991Y-12428174D02*
X12453515Y-12447222D01*
X12453515Y-12447222D02*
X12453515Y-12551984D01*
X12843991Y-12342460D02*
X12672563Y-12599603D01*
X13101134Y-12351984D02*
X13120182Y-12351984D01*
X13120182Y-12351984D02*
X13139229Y-12361508D01*
X13139229Y-12361508D02*
X13148753Y-12371031D01*
X13148753Y-12371031D02*
X13158277Y-12390079D01*
X13158277Y-12390079D02*
X13167801Y-12428174D01*
X13167801Y-12428174D02*
X13167801Y-12475793D01*
X13167801Y-12475793D02*
X13158277Y-12513888D01*
X13158277Y-12513888D02*
X13148753Y-12532936D01*
X13148753Y-12532936D02*
X13139229Y-12542460D01*
X13139229Y-12542460D02*
X13120182Y-12551984D01*
X13120182Y-12551984D02*
X13101134Y-12551984D01*
X13101134Y-12551984D02*
X13082086Y-12542460D01*
X13082086Y-12542460D02*
X13072563Y-12532936D01*
X13072563Y-12532936D02*
X13063039Y-12513888D01*
X13063039Y-12513888D02*
X13053515Y-12475793D01*
X13053515Y-12475793D02*
X13053515Y-12428174D01*
X13053515Y-12428174D02*
X13063039Y-12390079D01*
X13063039Y-12390079D02*
X13072563Y-12371031D01*
X13072563Y-12371031D02*
X13082086Y-12361508D01*
X13082086Y-12361508D02*
X13101134Y-12351984D01*
X13253515Y-12532936D02*
X13263039Y-12542460D01*
X13263039Y-12542460D02*
X13253515Y-12551984D01*
X13253515Y-12551984D02*
X13243991Y-12542460D01*
X13243991Y-12542460D02*
X13253515Y-12532936D01*
X13253515Y-12532936D02*
X13253515Y-12551984D01*
X13386848Y-12351984D02*
X13405896Y-12351984D01*
X13405896Y-12351984D02*
X13424944Y-12361508D01*
X13424944Y-12361508D02*
X13434467Y-12371031D01*
X13434467Y-12371031D02*
X13443991Y-12390079D01*
X13443991Y-12390079D02*
X13453515Y-12428174D01*
X13453515Y-12428174D02*
X13453515Y-12475793D01*
X13453515Y-12475793D02*
X13443991Y-12513888D01*
X13443991Y-12513888D02*
X13434467Y-12532936D01*
X13434467Y-12532936D02*
X13424944Y-12542460D01*
X13424944Y-12542460D02*
X13405896Y-12551984D01*
X13405896Y-12551984D02*
X13386848Y-12551984D01*
X13386848Y-12551984D02*
X13367801Y-12542460D01*
X13367801Y-12542460D02*
X13358277Y-12532936D01*
X13358277Y-12532936D02*
X13348753Y-12513888D01*
X13348753Y-12513888D02*
X13339229Y-12475793D01*
X13339229Y-12475793D02*
X13339229Y-12428174D01*
X13339229Y-12428174D02*
X13348753Y-12390079D01*
X13348753Y-12390079D02*
X13358277Y-12371031D01*
X13358277Y-12371031D02*
X13367801Y-12361508D01*
X13367801Y-12361508D02*
X13386848Y-12351984D01*
X13520182Y-12351984D02*
X13643991Y-12351984D01*
X13643991Y-12351984D02*
X13577325Y-12428174D01*
X13577325Y-12428174D02*
X13605896Y-12428174D01*
X13605896Y-12428174D02*
X13624944Y-12437698D01*
X13624944Y-12437698D02*
X13634467Y-12447222D01*
X13634467Y-12447222D02*
X13643991Y-12466269D01*
X13643991Y-12466269D02*
X13643991Y-12513888D01*
X13643991Y-12513888D02*
X13634467Y-12532936D01*
X13634467Y-12532936D02*
X13624944Y-12542460D01*
X13624944Y-12542460D02*
X13605896Y-12551984D01*
X13605896Y-12551984D02*
X13548753Y-12551984D01*
X13548753Y-12551984D02*
X13529706Y-12542460D01*
X13529706Y-12542460D02*
X13520182Y-12532936D01*
X13834467Y-12551984D02*
X13720182Y-12551984D01*
X13777325Y-12551984D02*
X13777325Y-12351984D01*
X13777325Y-12351984D02*
X13758277Y-12380555D01*
X13758277Y-12380555D02*
X13739229Y-12399603D01*
X13739229Y-12399603D02*
X13720182Y-12409127D01*
X14015420Y-12351984D02*
X13920182Y-12351984D01*
X13920182Y-12351984D02*
X13910658Y-12447222D01*
X13910658Y-12447222D02*
X13920182Y-12437698D01*
X13920182Y-12437698D02*
X13939229Y-12428174D01*
X13939229Y-12428174D02*
X13986848Y-12428174D01*
X13986848Y-12428174D02*
X14005896Y-12437698D01*
X14005896Y-12437698D02*
X14015420Y-12447222D01*
X14015420Y-12447222D02*
X14024944Y-12466269D01*
X14024944Y-12466269D02*
X14024944Y-12513888D01*
X14024944Y-12513888D02*
X14015420Y-12532936D01*
X14015420Y-12532936D02*
X14005896Y-12542460D01*
X14005896Y-12542460D02*
X13986848Y-12551984D01*
X13986848Y-12551984D02*
X13939229Y-12551984D01*
X13939229Y-12551984D02*
X13920182Y-12542460D01*
X13920182Y-12542460D02*
X13910658Y-12532936D01*
X14101134Y-12351984D02*
X14101134Y-12390079D01*
X14177325Y-12351984D02*
X14177325Y-12390079D01*
X14472563Y-12628174D02*
X14463039Y-12618650D01*
X14463039Y-12618650D02*
X14443991Y-12590079D01*
X14443991Y-12590079D02*
X14434468Y-12571031D01*
X14434468Y-12571031D02*
X14424944Y-12542460D01*
X14424944Y-12542460D02*
X14415420Y-12494841D01*
X14415420Y-12494841D02*
X14415420Y-12456746D01*
X14415420Y-12456746D02*
X14424944Y-12409127D01*
X14424944Y-12409127D02*
X14434468Y-12380555D01*
X14434468Y-12380555D02*
X14443991Y-12361508D01*
X14443991Y-12361508D02*
X14463039Y-12332936D01*
X14463039Y-12332936D02*
X14472563Y-12323412D01*
X14577325Y-12437698D02*
X14558277Y-12428174D01*
X14558277Y-12428174D02*
X14548753Y-12418650D01*
X14548753Y-12418650D02*
X14539229Y-12399603D01*
X14539229Y-12399603D02*
X14539229Y-12390079D01*
X14539229Y-12390079D02*
X14548753Y-12371031D01*
X14548753Y-12371031D02*
X14558277Y-12361508D01*
X14558277Y-12361508D02*
X14577325Y-12351984D01*
X14577325Y-12351984D02*
X14615420Y-12351984D01*
X14615420Y-12351984D02*
X14634468Y-12361508D01*
X14634468Y-12361508D02*
X14643991Y-12371031D01*
X14643991Y-12371031D02*
X14653515Y-12390079D01*
X14653515Y-12390079D02*
X14653515Y-12399603D01*
X14653515Y-12399603D02*
X14643991Y-12418650D01*
X14643991Y-12418650D02*
X14634468Y-12428174D01*
X14634468Y-12428174D02*
X14615420Y-12437698D01*
X14615420Y-12437698D02*
X14577325Y-12437698D01*
X14577325Y-12437698D02*
X14558277Y-12447222D01*
X14558277Y-12447222D02*
X14548753Y-12456746D01*
X14548753Y-12456746D02*
X14539229Y-12475793D01*
X14539229Y-12475793D02*
X14539229Y-12513888D01*
X14539229Y-12513888D02*
X14548753Y-12532936D01*
X14548753Y-12532936D02*
X14558277Y-12542460D01*
X14558277Y-12542460D02*
X14577325Y-12551984D01*
X14577325Y-12551984D02*
X14615420Y-12551984D01*
X14615420Y-12551984D02*
X14634468Y-12542460D01*
X14634468Y-12542460D02*
X14643991Y-12532936D01*
X14643991Y-12532936D02*
X14653515Y-12513888D01*
X14653515Y-12513888D02*
X14653515Y-12475793D01*
X14653515Y-12475793D02*
X14643991Y-12456746D01*
X14643991Y-12456746D02*
X14634468Y-12447222D01*
X14634468Y-12447222D02*
X14615420Y-12437698D01*
X14891610Y-12551984D02*
X14891610Y-12351984D01*
X14977325Y-12551984D02*
X14977325Y-12447222D01*
X14977325Y-12447222D02*
X14967801Y-12428174D01*
X14967801Y-12428174D02*
X14948753Y-12418650D01*
X14948753Y-12418650D02*
X14920182Y-12418650D01*
X14920182Y-12418650D02*
X14901134Y-12428174D01*
X14901134Y-12428174D02*
X14891610Y-12437698D01*
X15101134Y-12551984D02*
X15082087Y-12542460D01*
X15082087Y-12542460D02*
X15072563Y-12532936D01*
X15072563Y-12532936D02*
X15063039Y-12513888D01*
X15063039Y-12513888D02*
X15063039Y-12456746D01*
X15063039Y-12456746D02*
X15072563Y-12437698D01*
X15072563Y-12437698D02*
X15082087Y-12428174D01*
X15082087Y-12428174D02*
X15101134Y-12418650D01*
X15101134Y-12418650D02*
X15129706Y-12418650D01*
X15129706Y-12418650D02*
X15148753Y-12428174D01*
X15148753Y-12428174D02*
X15158277Y-12437698D01*
X15158277Y-12437698D02*
X15167801Y-12456746D01*
X15167801Y-12456746D02*
X15167801Y-12513888D01*
X15167801Y-12513888D02*
X15158277Y-12532936D01*
X15158277Y-12532936D02*
X15148753Y-12542460D01*
X15148753Y-12542460D02*
X15129706Y-12551984D01*
X15129706Y-12551984D02*
X15101134Y-12551984D01*
X15282087Y-12551984D02*
X15263039Y-12542460D01*
X15263039Y-12542460D02*
X15253515Y-12523412D01*
X15253515Y-12523412D02*
X15253515Y-12351984D01*
X15434468Y-12542460D02*
X15415420Y-12551984D01*
X15415420Y-12551984D02*
X15377325Y-12551984D01*
X15377325Y-12551984D02*
X15358277Y-12542460D01*
X15358277Y-12542460D02*
X15348753Y-12523412D01*
X15348753Y-12523412D02*
X15348753Y-12447222D01*
X15348753Y-12447222D02*
X15358277Y-12428174D01*
X15358277Y-12428174D02*
X15377325Y-12418650D01*
X15377325Y-12418650D02*
X15415420Y-12418650D01*
X15415420Y-12418650D02*
X15434468Y-12428174D01*
X15434468Y-12428174D02*
X15443991Y-12447222D01*
X15443991Y-12447222D02*
X15443991Y-12466269D01*
X15443991Y-12466269D02*
X15348753Y-12485317D01*
X15520182Y-12542460D02*
X15539230Y-12551984D01*
X15539230Y-12551984D02*
X15577325Y-12551984D01*
X15577325Y-12551984D02*
X15596372Y-12542460D01*
X15596372Y-12542460D02*
X15605896Y-12523412D01*
X15605896Y-12523412D02*
X15605896Y-12513888D01*
X15605896Y-12513888D02*
X15596372Y-12494841D01*
X15596372Y-12494841D02*
X15577325Y-12485317D01*
X15577325Y-12485317D02*
X15548753Y-12485317D01*
X15548753Y-12485317D02*
X15529706Y-12475793D01*
X15529706Y-12475793D02*
X15520182Y-12456746D01*
X15520182Y-12456746D02*
X15520182Y-12447222D01*
X15520182Y-12447222D02*
X15529706Y-12428174D01*
X15529706Y-12428174D02*
X15548753Y-12418650D01*
X15548753Y-12418650D02*
X15577325Y-12418650D01*
X15577325Y-12418650D02*
X15596372Y-12428174D01*
X15672563Y-12628174D02*
X15682087Y-12618650D01*
X15682087Y-12618650D02*
X15701134Y-12590079D01*
X15701134Y-12590079D02*
X15710658Y-12571031D01*
X15710658Y-12571031D02*
X15720182Y-12542460D01*
X15720182Y-12542460D02*
X15729706Y-12494841D01*
X15729706Y-12494841D02*
X15729706Y-12456746D01*
X15729706Y-12456746D02*
X15720182Y-12409127D01*
X15720182Y-12409127D02*
X15710658Y-12380555D01*
X15710658Y-12380555D02*
X15701134Y-12361508D01*
X15701134Y-12361508D02*
X15682087Y-12332936D01*
X15682087Y-12332936D02*
X15672563Y-12323412D01*
D12*
X10885052Y-12754552D02*
X10885052Y-12694448D01*
X10824948Y-12694448D01*
X10824948Y-12754552D01*
X10885052Y-12754552D01*
D11*
X11196372Y-12615984D02*
X11215420Y-12615984D01*
X11215420Y-12615984D02*
X11234467Y-12625508D01*
X11234467Y-12625508D02*
X11243991Y-12635031D01*
X11243991Y-12635031D02*
X11253515Y-12654079D01*
X11253515Y-12654079D02*
X11263039Y-12692174D01*
X11263039Y-12692174D02*
X11263039Y-12739793D01*
X11263039Y-12739793D02*
X11253515Y-12777888D01*
X11253515Y-12777888D02*
X11243991Y-12796936D01*
X11243991Y-12796936D02*
X11234467Y-12806460D01*
X11234467Y-12806460D02*
X11215420Y-12815984D01*
X11215420Y-12815984D02*
X11196372Y-12815984D01*
X11196372Y-12815984D02*
X11177324Y-12806460D01*
X11177324Y-12806460D02*
X11167801Y-12796936D01*
X11167801Y-12796936D02*
X11158277Y-12777888D01*
X11158277Y-12777888D02*
X11148753Y-12739793D01*
X11148753Y-12739793D02*
X11148753Y-12692174D01*
X11148753Y-12692174D02*
X11158277Y-12654079D01*
X11158277Y-12654079D02*
X11167801Y-12635031D01*
X11167801Y-12635031D02*
X11177324Y-12625508D01*
X11177324Y-12625508D02*
X11196372Y-12615984D01*
X11348753Y-12796936D02*
X11358277Y-12806460D01*
X11358277Y-12806460D02*
X11348753Y-12815984D01*
X11348753Y-12815984D02*
X11339229Y-12806460D01*
X11339229Y-12806460D02*
X11348753Y-12796936D01*
X11348753Y-12796936D02*
X11348753Y-12815984D01*
X11472562Y-12701698D02*
X11453515Y-12692174D01*
X11453515Y-12692174D02*
X11443991Y-12682650D01*
X11443991Y-12682650D02*
X11434467Y-12663603D01*
X11434467Y-12663603D02*
X11434467Y-12654079D01*
X11434467Y-12654079D02*
X11443991Y-12635031D01*
X11443991Y-12635031D02*
X11453515Y-12625508D01*
X11453515Y-12625508D02*
X11472562Y-12615984D01*
X11472562Y-12615984D02*
X11510658Y-12615984D01*
X11510658Y-12615984D02*
X11529705Y-12625508D01*
X11529705Y-12625508D02*
X11539229Y-12635031D01*
X11539229Y-12635031D02*
X11548753Y-12654079D01*
X11548753Y-12654079D02*
X11548753Y-12663603D01*
X11548753Y-12663603D02*
X11539229Y-12682650D01*
X11539229Y-12682650D02*
X11529705Y-12692174D01*
X11529705Y-12692174D02*
X11510658Y-12701698D01*
X11510658Y-12701698D02*
X11472562Y-12701698D01*
X11472562Y-12701698D02*
X11453515Y-12711222D01*
X11453515Y-12711222D02*
X11443991Y-12720746D01*
X11443991Y-12720746D02*
X11434467Y-12739793D01*
X11434467Y-12739793D02*
X11434467Y-12777888D01*
X11434467Y-12777888D02*
X11443991Y-12796936D01*
X11443991Y-12796936D02*
X11453515Y-12806460D01*
X11453515Y-12806460D02*
X11472562Y-12815984D01*
X11472562Y-12815984D02*
X11510658Y-12815984D01*
X11510658Y-12815984D02*
X11529705Y-12806460D01*
X11529705Y-12806460D02*
X11539229Y-12796936D01*
X11539229Y-12796936D02*
X11548753Y-12777888D01*
X11548753Y-12777888D02*
X11548753Y-12739793D01*
X11548753Y-12739793D02*
X11539229Y-12720746D01*
X11539229Y-12720746D02*
X11529705Y-12711222D01*
X11529705Y-12711222D02*
X11510658Y-12701698D01*
X11729705Y-12615984D02*
X11634467Y-12615984D01*
X11634467Y-12615984D02*
X11624943Y-12711222D01*
X11624943Y-12711222D02*
X11634467Y-12701698D01*
X11634467Y-12701698D02*
X11653515Y-12692174D01*
X11653515Y-12692174D02*
X11701134Y-12692174D01*
X11701134Y-12692174D02*
X11720182Y-12701698D01*
X11720182Y-12701698D02*
X11729705Y-12711222D01*
X11729705Y-12711222D02*
X11739229Y-12730269D01*
X11739229Y-12730269D02*
X11739229Y-12777888D01*
X11739229Y-12777888D02*
X11729705Y-12796936D01*
X11729705Y-12796936D02*
X11720182Y-12806460D01*
X11720182Y-12806460D02*
X11701134Y-12815984D01*
X11701134Y-12815984D02*
X11653515Y-12815984D01*
X11653515Y-12815984D02*
X11634467Y-12806460D01*
X11634467Y-12806460D02*
X11624943Y-12796936D01*
X11863039Y-12615984D02*
X11882086Y-12615984D01*
X11882086Y-12615984D02*
X11901134Y-12625508D01*
X11901134Y-12625508D02*
X11910658Y-12635031D01*
X11910658Y-12635031D02*
X11920182Y-12654079D01*
X11920182Y-12654079D02*
X11929705Y-12692174D01*
X11929705Y-12692174D02*
X11929705Y-12739793D01*
X11929705Y-12739793D02*
X11920182Y-12777888D01*
X11920182Y-12777888D02*
X11910658Y-12796936D01*
X11910658Y-12796936D02*
X11901134Y-12806460D01*
X11901134Y-12806460D02*
X11882086Y-12815984D01*
X11882086Y-12815984D02*
X11863039Y-12815984D01*
X11863039Y-12815984D02*
X11843991Y-12806460D01*
X11843991Y-12806460D02*
X11834467Y-12796936D01*
X11834467Y-12796936D02*
X11824943Y-12777888D01*
X11824943Y-12777888D02*
X11815420Y-12739793D01*
X11815420Y-12739793D02*
X11815420Y-12692174D01*
X11815420Y-12692174D02*
X11824943Y-12654079D01*
X11824943Y-12654079D02*
X11834467Y-12635031D01*
X11834467Y-12635031D02*
X11843991Y-12625508D01*
X11843991Y-12625508D02*
X11863039Y-12615984D01*
X12015420Y-12815984D02*
X12015420Y-12682650D01*
X12015420Y-12701698D02*
X12024943Y-12692174D01*
X12024943Y-12692174D02*
X12043991Y-12682650D01*
X12043991Y-12682650D02*
X12072563Y-12682650D01*
X12072563Y-12682650D02*
X12091610Y-12692174D01*
X12091610Y-12692174D02*
X12101134Y-12711222D01*
X12101134Y-12711222D02*
X12101134Y-12815984D01*
X12101134Y-12711222D02*
X12110658Y-12692174D01*
X12110658Y-12692174D02*
X12129705Y-12682650D01*
X12129705Y-12682650D02*
X12158277Y-12682650D01*
X12158277Y-12682650D02*
X12177324Y-12692174D01*
X12177324Y-12692174D02*
X12186848Y-12711222D01*
X12186848Y-12711222D02*
X12186848Y-12815984D01*
X12282086Y-12815984D02*
X12282086Y-12682650D01*
X12282086Y-12701698D02*
X12291610Y-12692174D01*
X12291610Y-12692174D02*
X12310658Y-12682650D01*
X12310658Y-12682650D02*
X12339229Y-12682650D01*
X12339229Y-12682650D02*
X12358277Y-12692174D01*
X12358277Y-12692174D02*
X12367801Y-12711222D01*
X12367801Y-12711222D02*
X12367801Y-12815984D01*
X12367801Y-12711222D02*
X12377324Y-12692174D01*
X12377324Y-12692174D02*
X12396372Y-12682650D01*
X12396372Y-12682650D02*
X12424943Y-12682650D01*
X12424943Y-12682650D02*
X12443991Y-12692174D01*
X12443991Y-12692174D02*
X12453515Y-12711222D01*
X12453515Y-12711222D02*
X12453515Y-12815984D01*
X12843991Y-12606460D02*
X12672563Y-12863603D01*
X13101134Y-12615984D02*
X13120182Y-12615984D01*
X13120182Y-12615984D02*
X13139229Y-12625508D01*
X13139229Y-12625508D02*
X13148753Y-12635031D01*
X13148753Y-12635031D02*
X13158277Y-12654079D01*
X13158277Y-12654079D02*
X13167801Y-12692174D01*
X13167801Y-12692174D02*
X13167801Y-12739793D01*
X13167801Y-12739793D02*
X13158277Y-12777888D01*
X13158277Y-12777888D02*
X13148753Y-12796936D01*
X13148753Y-12796936D02*
X13139229Y-12806460D01*
X13139229Y-12806460D02*
X13120182Y-12815984D01*
X13120182Y-12815984D02*
X13101134Y-12815984D01*
X13101134Y-12815984D02*
X13082086Y-12806460D01*
X13082086Y-12806460D02*
X13072563Y-12796936D01*
X13072563Y-12796936D02*
X13063039Y-12777888D01*
X13063039Y-12777888D02*
X13053515Y-12739793D01*
X13053515Y-12739793D02*
X13053515Y-12692174D01*
X13053515Y-12692174D02*
X13063039Y-12654079D01*
X13063039Y-12654079D02*
X13072563Y-12635031D01*
X13072563Y-12635031D02*
X13082086Y-12625508D01*
X13082086Y-12625508D02*
X13101134Y-12615984D01*
X13253515Y-12796936D02*
X13263039Y-12806460D01*
X13263039Y-12806460D02*
X13253515Y-12815984D01*
X13253515Y-12815984D02*
X13243991Y-12806460D01*
X13243991Y-12806460D02*
X13253515Y-12796936D01*
X13253515Y-12796936D02*
X13253515Y-12815984D01*
X13386848Y-12615984D02*
X13405896Y-12615984D01*
X13405896Y-12615984D02*
X13424944Y-12625508D01*
X13424944Y-12625508D02*
X13434467Y-12635031D01*
X13434467Y-12635031D02*
X13443991Y-12654079D01*
X13443991Y-12654079D02*
X13453515Y-12692174D01*
X13453515Y-12692174D02*
X13453515Y-12739793D01*
X13453515Y-12739793D02*
X13443991Y-12777888D01*
X13443991Y-12777888D02*
X13434467Y-12796936D01*
X13434467Y-12796936D02*
X13424944Y-12806460D01*
X13424944Y-12806460D02*
X13405896Y-12815984D01*
X13405896Y-12815984D02*
X13386848Y-12815984D01*
X13386848Y-12815984D02*
X13367801Y-12806460D01*
X13367801Y-12806460D02*
X13358277Y-12796936D01*
X13358277Y-12796936D02*
X13348753Y-12777888D01*
X13348753Y-12777888D02*
X13339229Y-12739793D01*
X13339229Y-12739793D02*
X13339229Y-12692174D01*
X13339229Y-12692174D02*
X13348753Y-12654079D01*
X13348753Y-12654079D02*
X13358277Y-12635031D01*
X13358277Y-12635031D02*
X13367801Y-12625508D01*
X13367801Y-12625508D02*
X13386848Y-12615984D01*
X13520182Y-12615984D02*
X13643991Y-12615984D01*
X13643991Y-12615984D02*
X13577325Y-12692174D01*
X13577325Y-12692174D02*
X13605896Y-12692174D01*
X13605896Y-12692174D02*
X13624944Y-12701698D01*
X13624944Y-12701698D02*
X13634467Y-12711222D01*
X13634467Y-12711222D02*
X13643991Y-12730269D01*
X13643991Y-12730269D02*
X13643991Y-12777888D01*
X13643991Y-12777888D02*
X13634467Y-12796936D01*
X13634467Y-12796936D02*
X13624944Y-12806460D01*
X13624944Y-12806460D02*
X13605896Y-12815984D01*
X13605896Y-12815984D02*
X13548753Y-12815984D01*
X13548753Y-12815984D02*
X13529706Y-12806460D01*
X13529706Y-12806460D02*
X13520182Y-12796936D01*
X13710658Y-12615984D02*
X13834467Y-12615984D01*
X13834467Y-12615984D02*
X13767801Y-12692174D01*
X13767801Y-12692174D02*
X13796372Y-12692174D01*
X13796372Y-12692174D02*
X13815420Y-12701698D01*
X13815420Y-12701698D02*
X13824944Y-12711222D01*
X13824944Y-12711222D02*
X13834467Y-12730269D01*
X13834467Y-12730269D02*
X13834467Y-12777888D01*
X13834467Y-12777888D02*
X13824944Y-12796936D01*
X13824944Y-12796936D02*
X13815420Y-12806460D01*
X13815420Y-12806460D02*
X13796372Y-12815984D01*
X13796372Y-12815984D02*
X13739229Y-12815984D01*
X13739229Y-12815984D02*
X13720182Y-12806460D01*
X13720182Y-12806460D02*
X13710658Y-12796936D01*
X14015420Y-12615984D02*
X13920182Y-12615984D01*
X13920182Y-12615984D02*
X13910658Y-12711222D01*
X13910658Y-12711222D02*
X13920182Y-12701698D01*
X13920182Y-12701698D02*
X13939229Y-12692174D01*
X13939229Y-12692174D02*
X13986848Y-12692174D01*
X13986848Y-12692174D02*
X14005896Y-12701698D01*
X14005896Y-12701698D02*
X14015420Y-12711222D01*
X14015420Y-12711222D02*
X14024944Y-12730269D01*
X14024944Y-12730269D02*
X14024944Y-12777888D01*
X14024944Y-12777888D02*
X14015420Y-12796936D01*
X14015420Y-12796936D02*
X14005896Y-12806460D01*
X14005896Y-12806460D02*
X13986848Y-12815984D01*
X13986848Y-12815984D02*
X13939229Y-12815984D01*
X13939229Y-12815984D02*
X13920182Y-12806460D01*
X13920182Y-12806460D02*
X13910658Y-12796936D01*
X14101134Y-12615984D02*
X14101134Y-12654079D01*
X14177325Y-12615984D02*
X14177325Y-12654079D01*
X14472563Y-12892174D02*
X14463039Y-12882650D01*
X14463039Y-12882650D02*
X14443991Y-12854079D01*
X14443991Y-12854079D02*
X14434468Y-12835031D01*
X14434468Y-12835031D02*
X14424944Y-12806460D01*
X14424944Y-12806460D02*
X14415420Y-12758841D01*
X14415420Y-12758841D02*
X14415420Y-12720746D01*
X14415420Y-12720746D02*
X14424944Y-12673127D01*
X14424944Y-12673127D02*
X14434468Y-12644555D01*
X14434468Y-12644555D02*
X14443991Y-12625508D01*
X14443991Y-12625508D02*
X14463039Y-12596936D01*
X14463039Y-12596936D02*
X14472563Y-12587412D01*
X14529706Y-12615984D02*
X14653515Y-12615984D01*
X14653515Y-12615984D02*
X14586848Y-12692174D01*
X14586848Y-12692174D02*
X14615420Y-12692174D01*
X14615420Y-12692174D02*
X14634468Y-12701698D01*
X14634468Y-12701698D02*
X14643991Y-12711222D01*
X14643991Y-12711222D02*
X14653515Y-12730269D01*
X14653515Y-12730269D02*
X14653515Y-12777888D01*
X14653515Y-12777888D02*
X14643991Y-12796936D01*
X14643991Y-12796936D02*
X14634468Y-12806460D01*
X14634468Y-12806460D02*
X14615420Y-12815984D01*
X14615420Y-12815984D02*
X14558277Y-12815984D01*
X14558277Y-12815984D02*
X14539229Y-12806460D01*
X14539229Y-12806460D02*
X14529706Y-12796936D01*
X14891610Y-12815984D02*
X14891610Y-12615984D01*
X14977325Y-12815984D02*
X14977325Y-12711222D01*
X14977325Y-12711222D02*
X14967801Y-12692174D01*
X14967801Y-12692174D02*
X14948753Y-12682650D01*
X14948753Y-12682650D02*
X14920182Y-12682650D01*
X14920182Y-12682650D02*
X14901134Y-12692174D01*
X14901134Y-12692174D02*
X14891610Y-12701698D01*
X15101134Y-12815984D02*
X15082087Y-12806460D01*
X15082087Y-12806460D02*
X15072563Y-12796936D01*
X15072563Y-12796936D02*
X15063039Y-12777888D01*
X15063039Y-12777888D02*
X15063039Y-12720746D01*
X15063039Y-12720746D02*
X15072563Y-12701698D01*
X15072563Y-12701698D02*
X15082087Y-12692174D01*
X15082087Y-12692174D02*
X15101134Y-12682650D01*
X15101134Y-12682650D02*
X15129706Y-12682650D01*
X15129706Y-12682650D02*
X15148753Y-12692174D01*
X15148753Y-12692174D02*
X15158277Y-12701698D01*
X15158277Y-12701698D02*
X15167801Y-12720746D01*
X15167801Y-12720746D02*
X15167801Y-12777888D01*
X15167801Y-12777888D02*
X15158277Y-12796936D01*
X15158277Y-12796936D02*
X15148753Y-12806460D01*
X15148753Y-12806460D02*
X15129706Y-12815984D01*
X15129706Y-12815984D02*
X15101134Y-12815984D01*
X15282087Y-12815984D02*
X15263039Y-12806460D01*
X15263039Y-12806460D02*
X15253515Y-12787412D01*
X15253515Y-12787412D02*
X15253515Y-12615984D01*
X15434468Y-12806460D02*
X15415420Y-12815984D01*
X15415420Y-12815984D02*
X15377325Y-12815984D01*
X15377325Y-12815984D02*
X15358277Y-12806460D01*
X15358277Y-12806460D02*
X15348753Y-12787412D01*
X15348753Y-12787412D02*
X15348753Y-12711222D01*
X15348753Y-12711222D02*
X15358277Y-12692174D01*
X15358277Y-12692174D02*
X15377325Y-12682650D01*
X15377325Y-12682650D02*
X15415420Y-12682650D01*
X15415420Y-12682650D02*
X15434468Y-12692174D01*
X15434468Y-12692174D02*
X15443991Y-12711222D01*
X15443991Y-12711222D02*
X15443991Y-12730269D01*
X15443991Y-12730269D02*
X15348753Y-12749317D01*
X15520182Y-12806460D02*
X15539230Y-12815984D01*
X15539230Y-12815984D02*
X15577325Y-12815984D01*
X15577325Y-12815984D02*
X15596372Y-12806460D01*
X15596372Y-12806460D02*
X15605896Y-12787412D01*
X15605896Y-12787412D02*
X15605896Y-12777888D01*
X15605896Y-12777888D02*
X15596372Y-12758841D01*
X15596372Y-12758841D02*
X15577325Y-12749317D01*
X15577325Y-12749317D02*
X15548753Y-12749317D01*
X15548753Y-12749317D02*
X15529706Y-12739793D01*
X15529706Y-12739793D02*
X15520182Y-12720746D01*
X15520182Y-12720746D02*
X15520182Y-12711222D01*
X15520182Y-12711222D02*
X15529706Y-12692174D01*
X15529706Y-12692174D02*
X15548753Y-12682650D01*
X15548753Y-12682650D02*
X15577325Y-12682650D01*
X15577325Y-12682650D02*
X15596372Y-12692174D01*
X15672563Y-12892174D02*
X15682087Y-12882650D01*
X15682087Y-12882650D02*
X15701134Y-12854079D01*
X15701134Y-12854079D02*
X15710658Y-12835031D01*
X15710658Y-12835031D02*
X15720182Y-12806460D01*
X15720182Y-12806460D02*
X15729706Y-12758841D01*
X15729706Y-12758841D02*
X15729706Y-12720746D01*
X15729706Y-12720746D02*
X15720182Y-12673127D01*
X15720182Y-12673127D02*
X15710658Y-12644555D01*
X15710658Y-12644555D02*
X15701134Y-12625508D01*
X15701134Y-12625508D02*
X15682087Y-12596936D01*
X15682087Y-12596936D02*
X15672563Y-12587412D01*
D12*
X10852500Y-13033500D02*
X10897500Y-12988500D01*
X10852500Y-12943500D01*
X10807500Y-12988500D01*
X10852500Y-13033500D01*
D11*
X11196372Y-12879984D02*
X11215420Y-12879984D01*
X11215420Y-12879984D02*
X11234467Y-12889508D01*
X11234467Y-12889508D02*
X11243991Y-12899031D01*
X11243991Y-12899031D02*
X11253515Y-12918079D01*
X11253515Y-12918079D02*
X11263039Y-12956174D01*
X11263039Y-12956174D02*
X11263039Y-13003793D01*
X11263039Y-13003793D02*
X11253515Y-13041888D01*
X11253515Y-13041888D02*
X11243991Y-13060936D01*
X11243991Y-13060936D02*
X11234467Y-13070460D01*
X11234467Y-13070460D02*
X11215420Y-13079984D01*
X11215420Y-13079984D02*
X11196372Y-13079984D01*
X11196372Y-13079984D02*
X11177324Y-13070460D01*
X11177324Y-13070460D02*
X11167801Y-13060936D01*
X11167801Y-13060936D02*
X11158277Y-13041888D01*
X11158277Y-13041888D02*
X11148753Y-13003793D01*
X11148753Y-13003793D02*
X11148753Y-12956174D01*
X11148753Y-12956174D02*
X11158277Y-12918079D01*
X11158277Y-12918079D02*
X11167801Y-12899031D01*
X11167801Y-12899031D02*
X11177324Y-12889508D01*
X11177324Y-12889508D02*
X11196372Y-12879984D01*
X11348753Y-13060936D02*
X11358277Y-13070460D01*
X11358277Y-13070460D02*
X11348753Y-13079984D01*
X11348753Y-13079984D02*
X11339229Y-13070460D01*
X11339229Y-13070460D02*
X11348753Y-13060936D01*
X11348753Y-13060936D02*
X11348753Y-13079984D01*
X11453515Y-13079984D02*
X11491610Y-13079984D01*
X11491610Y-13079984D02*
X11510658Y-13070460D01*
X11510658Y-13070460D02*
X11520182Y-13060936D01*
X11520182Y-13060936D02*
X11539229Y-13032365D01*
X11539229Y-13032365D02*
X11548753Y-12994269D01*
X11548753Y-12994269D02*
X11548753Y-12918079D01*
X11548753Y-12918079D02*
X11539229Y-12899031D01*
X11539229Y-12899031D02*
X11529705Y-12889508D01*
X11529705Y-12889508D02*
X11510658Y-12879984D01*
X11510658Y-12879984D02*
X11472562Y-12879984D01*
X11472562Y-12879984D02*
X11453515Y-12889508D01*
X11453515Y-12889508D02*
X11443991Y-12899031D01*
X11443991Y-12899031D02*
X11434467Y-12918079D01*
X11434467Y-12918079D02*
X11434467Y-12965698D01*
X11434467Y-12965698D02*
X11443991Y-12984746D01*
X11443991Y-12984746D02*
X11453515Y-12994269D01*
X11453515Y-12994269D02*
X11472562Y-13003793D01*
X11472562Y-13003793D02*
X11510658Y-13003793D01*
X11510658Y-13003793D02*
X11529705Y-12994269D01*
X11529705Y-12994269D02*
X11539229Y-12984746D01*
X11539229Y-12984746D02*
X11548753Y-12965698D01*
X11672562Y-12879984D02*
X11691610Y-12879984D01*
X11691610Y-12879984D02*
X11710658Y-12889508D01*
X11710658Y-12889508D02*
X11720182Y-12899031D01*
X11720182Y-12899031D02*
X11729705Y-12918079D01*
X11729705Y-12918079D02*
X11739229Y-12956174D01*
X11739229Y-12956174D02*
X11739229Y-13003793D01*
X11739229Y-13003793D02*
X11729705Y-13041888D01*
X11729705Y-13041888D02*
X11720182Y-13060936D01*
X11720182Y-13060936D02*
X11710658Y-13070460D01*
X11710658Y-13070460D02*
X11691610Y-13079984D01*
X11691610Y-13079984D02*
X11672562Y-13079984D01*
X11672562Y-13079984D02*
X11653515Y-13070460D01*
X11653515Y-13070460D02*
X11643991Y-13060936D01*
X11643991Y-13060936D02*
X11634467Y-13041888D01*
X11634467Y-13041888D02*
X11624943Y-13003793D01*
X11624943Y-13003793D02*
X11624943Y-12956174D01*
X11624943Y-12956174D02*
X11634467Y-12918079D01*
X11634467Y-12918079D02*
X11643991Y-12899031D01*
X11643991Y-12899031D02*
X11653515Y-12889508D01*
X11653515Y-12889508D02*
X11672562Y-12879984D01*
X11863039Y-12879984D02*
X11882086Y-12879984D01*
X11882086Y-12879984D02*
X11901134Y-12889508D01*
X11901134Y-12889508D02*
X11910658Y-12899031D01*
X11910658Y-12899031D02*
X11920182Y-12918079D01*
X11920182Y-12918079D02*
X11929705Y-12956174D01*
X11929705Y-12956174D02*
X11929705Y-13003793D01*
X11929705Y-13003793D02*
X11920182Y-13041888D01*
X11920182Y-13041888D02*
X11910658Y-13060936D01*
X11910658Y-13060936D02*
X11901134Y-13070460D01*
X11901134Y-13070460D02*
X11882086Y-13079984D01*
X11882086Y-13079984D02*
X11863039Y-13079984D01*
X11863039Y-13079984D02*
X11843991Y-13070460D01*
X11843991Y-13070460D02*
X11834467Y-13060936D01*
X11834467Y-13060936D02*
X11824943Y-13041888D01*
X11824943Y-13041888D02*
X11815420Y-13003793D01*
X11815420Y-13003793D02*
X11815420Y-12956174D01*
X11815420Y-12956174D02*
X11824943Y-12918079D01*
X11824943Y-12918079D02*
X11834467Y-12899031D01*
X11834467Y-12899031D02*
X11843991Y-12889508D01*
X11843991Y-12889508D02*
X11863039Y-12879984D01*
X12015420Y-13079984D02*
X12015420Y-12946650D01*
X12015420Y-12965698D02*
X12024943Y-12956174D01*
X12024943Y-12956174D02*
X12043991Y-12946650D01*
X12043991Y-12946650D02*
X12072563Y-12946650D01*
X12072563Y-12946650D02*
X12091610Y-12956174D01*
X12091610Y-12956174D02*
X12101134Y-12975222D01*
X12101134Y-12975222D02*
X12101134Y-13079984D01*
X12101134Y-12975222D02*
X12110658Y-12956174D01*
X12110658Y-12956174D02*
X12129705Y-12946650D01*
X12129705Y-12946650D02*
X12158277Y-12946650D01*
X12158277Y-12946650D02*
X12177324Y-12956174D01*
X12177324Y-12956174D02*
X12186848Y-12975222D01*
X12186848Y-12975222D02*
X12186848Y-13079984D01*
X12282086Y-13079984D02*
X12282086Y-12946650D01*
X12282086Y-12965698D02*
X12291610Y-12956174D01*
X12291610Y-12956174D02*
X12310658Y-12946650D01*
X12310658Y-12946650D02*
X12339229Y-12946650D01*
X12339229Y-12946650D02*
X12358277Y-12956174D01*
X12358277Y-12956174D02*
X12367801Y-12975222D01*
X12367801Y-12975222D02*
X12367801Y-13079984D01*
X12367801Y-12975222D02*
X12377324Y-12956174D01*
X12377324Y-12956174D02*
X12396372Y-12946650D01*
X12396372Y-12946650D02*
X12424943Y-12946650D01*
X12424943Y-12946650D02*
X12443991Y-12956174D01*
X12443991Y-12956174D02*
X12453515Y-12975222D01*
X12453515Y-12975222D02*
X12453515Y-13079984D01*
X12843991Y-12870460D02*
X12672563Y-13127603D01*
X13101134Y-12879984D02*
X13120182Y-12879984D01*
X13120182Y-12879984D02*
X13139229Y-12889508D01*
X13139229Y-12889508D02*
X13148753Y-12899031D01*
X13148753Y-12899031D02*
X13158277Y-12918079D01*
X13158277Y-12918079D02*
X13167801Y-12956174D01*
X13167801Y-12956174D02*
X13167801Y-13003793D01*
X13167801Y-13003793D02*
X13158277Y-13041888D01*
X13158277Y-13041888D02*
X13148753Y-13060936D01*
X13148753Y-13060936D02*
X13139229Y-13070460D01*
X13139229Y-13070460D02*
X13120182Y-13079984D01*
X13120182Y-13079984D02*
X13101134Y-13079984D01*
X13101134Y-13079984D02*
X13082086Y-13070460D01*
X13082086Y-13070460D02*
X13072563Y-13060936D01*
X13072563Y-13060936D02*
X13063039Y-13041888D01*
X13063039Y-13041888D02*
X13053515Y-13003793D01*
X13053515Y-13003793D02*
X13053515Y-12956174D01*
X13053515Y-12956174D02*
X13063039Y-12918079D01*
X13063039Y-12918079D02*
X13072563Y-12899031D01*
X13072563Y-12899031D02*
X13082086Y-12889508D01*
X13082086Y-12889508D02*
X13101134Y-12879984D01*
X13253515Y-13060936D02*
X13263039Y-13070460D01*
X13263039Y-13070460D02*
X13253515Y-13079984D01*
X13253515Y-13079984D02*
X13243991Y-13070460D01*
X13243991Y-13070460D02*
X13253515Y-13060936D01*
X13253515Y-13060936D02*
X13253515Y-13079984D01*
X13386848Y-12879984D02*
X13405896Y-12879984D01*
X13405896Y-12879984D02*
X13424944Y-12889508D01*
X13424944Y-12889508D02*
X13434467Y-12899031D01*
X13434467Y-12899031D02*
X13443991Y-12918079D01*
X13443991Y-12918079D02*
X13453515Y-12956174D01*
X13453515Y-12956174D02*
X13453515Y-13003793D01*
X13453515Y-13003793D02*
X13443991Y-13041888D01*
X13443991Y-13041888D02*
X13434467Y-13060936D01*
X13434467Y-13060936D02*
X13424944Y-13070460D01*
X13424944Y-13070460D02*
X13405896Y-13079984D01*
X13405896Y-13079984D02*
X13386848Y-13079984D01*
X13386848Y-13079984D02*
X13367801Y-13070460D01*
X13367801Y-13070460D02*
X13358277Y-13060936D01*
X13358277Y-13060936D02*
X13348753Y-13041888D01*
X13348753Y-13041888D02*
X13339229Y-13003793D01*
X13339229Y-13003793D02*
X13339229Y-12956174D01*
X13339229Y-12956174D02*
X13348753Y-12918079D01*
X13348753Y-12918079D02*
X13358277Y-12899031D01*
X13358277Y-12899031D02*
X13367801Y-12889508D01*
X13367801Y-12889508D02*
X13386848Y-12879984D01*
X13520182Y-12879984D02*
X13643991Y-12879984D01*
X13643991Y-12879984D02*
X13577325Y-12956174D01*
X13577325Y-12956174D02*
X13605896Y-12956174D01*
X13605896Y-12956174D02*
X13624944Y-12965698D01*
X13624944Y-12965698D02*
X13634467Y-12975222D01*
X13634467Y-12975222D02*
X13643991Y-12994269D01*
X13643991Y-12994269D02*
X13643991Y-13041888D01*
X13643991Y-13041888D02*
X13634467Y-13060936D01*
X13634467Y-13060936D02*
X13624944Y-13070460D01*
X13624944Y-13070460D02*
X13605896Y-13079984D01*
X13605896Y-13079984D02*
X13548753Y-13079984D01*
X13548753Y-13079984D02*
X13529706Y-13070460D01*
X13529706Y-13070460D02*
X13520182Y-13060936D01*
X13824944Y-12879984D02*
X13729706Y-12879984D01*
X13729706Y-12879984D02*
X13720182Y-12975222D01*
X13720182Y-12975222D02*
X13729706Y-12965698D01*
X13729706Y-12965698D02*
X13748753Y-12956174D01*
X13748753Y-12956174D02*
X13796372Y-12956174D01*
X13796372Y-12956174D02*
X13815420Y-12965698D01*
X13815420Y-12965698D02*
X13824944Y-12975222D01*
X13824944Y-12975222D02*
X13834467Y-12994269D01*
X13834467Y-12994269D02*
X13834467Y-13041888D01*
X13834467Y-13041888D02*
X13824944Y-13060936D01*
X13824944Y-13060936D02*
X13815420Y-13070460D01*
X13815420Y-13070460D02*
X13796372Y-13079984D01*
X13796372Y-13079984D02*
X13748753Y-13079984D01*
X13748753Y-13079984D02*
X13729706Y-13070460D01*
X13729706Y-13070460D02*
X13720182Y-13060936D01*
X14005896Y-12946650D02*
X14005896Y-13079984D01*
X13958277Y-12870460D02*
X13910658Y-13013317D01*
X13910658Y-13013317D02*
X14034467Y-13013317D01*
X14101134Y-12879984D02*
X14101134Y-12918079D01*
X14177325Y-12879984D02*
X14177325Y-12918079D01*
X14472563Y-13156174D02*
X14463039Y-13146650D01*
X14463039Y-13146650D02*
X14443991Y-13118079D01*
X14443991Y-13118079D02*
X14434468Y-13099031D01*
X14434468Y-13099031D02*
X14424944Y-13070460D01*
X14424944Y-13070460D02*
X14415420Y-13022841D01*
X14415420Y-13022841D02*
X14415420Y-12984746D01*
X14415420Y-12984746D02*
X14424944Y-12937127D01*
X14424944Y-12937127D02*
X14434468Y-12908555D01*
X14434468Y-12908555D02*
X14443991Y-12889508D01*
X14443991Y-12889508D02*
X14463039Y-12860936D01*
X14463039Y-12860936D02*
X14472563Y-12851412D01*
X14577325Y-12965698D02*
X14558277Y-12956174D01*
X14558277Y-12956174D02*
X14548753Y-12946650D01*
X14548753Y-12946650D02*
X14539229Y-12927603D01*
X14539229Y-12927603D02*
X14539229Y-12918079D01*
X14539229Y-12918079D02*
X14548753Y-12899031D01*
X14548753Y-12899031D02*
X14558277Y-12889508D01*
X14558277Y-12889508D02*
X14577325Y-12879984D01*
X14577325Y-12879984D02*
X14615420Y-12879984D01*
X14615420Y-12879984D02*
X14634468Y-12889508D01*
X14634468Y-12889508D02*
X14643991Y-12899031D01*
X14643991Y-12899031D02*
X14653515Y-12918079D01*
X14653515Y-12918079D02*
X14653515Y-12927603D01*
X14653515Y-12927603D02*
X14643991Y-12946650D01*
X14643991Y-12946650D02*
X14634468Y-12956174D01*
X14634468Y-12956174D02*
X14615420Y-12965698D01*
X14615420Y-12965698D02*
X14577325Y-12965698D01*
X14577325Y-12965698D02*
X14558277Y-12975222D01*
X14558277Y-12975222D02*
X14548753Y-12984746D01*
X14548753Y-12984746D02*
X14539229Y-13003793D01*
X14539229Y-13003793D02*
X14539229Y-13041888D01*
X14539229Y-13041888D02*
X14548753Y-13060936D01*
X14548753Y-13060936D02*
X14558277Y-13070460D01*
X14558277Y-13070460D02*
X14577325Y-13079984D01*
X14577325Y-13079984D02*
X14615420Y-13079984D01*
X14615420Y-13079984D02*
X14634468Y-13070460D01*
X14634468Y-13070460D02*
X14643991Y-13060936D01*
X14643991Y-13060936D02*
X14653515Y-13041888D01*
X14653515Y-13041888D02*
X14653515Y-13003793D01*
X14653515Y-13003793D02*
X14643991Y-12984746D01*
X14643991Y-12984746D02*
X14634468Y-12975222D01*
X14634468Y-12975222D02*
X14615420Y-12965698D01*
X14891610Y-13079984D02*
X14891610Y-12879984D01*
X14977325Y-13079984D02*
X14977325Y-12975222D01*
X14977325Y-12975222D02*
X14967801Y-12956174D01*
X14967801Y-12956174D02*
X14948753Y-12946650D01*
X14948753Y-12946650D02*
X14920182Y-12946650D01*
X14920182Y-12946650D02*
X14901134Y-12956174D01*
X14901134Y-12956174D02*
X14891610Y-12965698D01*
X15101134Y-13079984D02*
X15082087Y-13070460D01*
X15082087Y-13070460D02*
X15072563Y-13060936D01*
X15072563Y-13060936D02*
X15063039Y-13041888D01*
X15063039Y-13041888D02*
X15063039Y-12984746D01*
X15063039Y-12984746D02*
X15072563Y-12965698D01*
X15072563Y-12965698D02*
X15082087Y-12956174D01*
X15082087Y-12956174D02*
X15101134Y-12946650D01*
X15101134Y-12946650D02*
X15129706Y-12946650D01*
X15129706Y-12946650D02*
X15148753Y-12956174D01*
X15148753Y-12956174D02*
X15158277Y-12965698D01*
X15158277Y-12965698D02*
X15167801Y-12984746D01*
X15167801Y-12984746D02*
X15167801Y-13041888D01*
X15167801Y-13041888D02*
X15158277Y-13060936D01*
X15158277Y-13060936D02*
X15148753Y-13070460D01*
X15148753Y-13070460D02*
X15129706Y-13079984D01*
X15129706Y-13079984D02*
X15101134Y-13079984D01*
X15282087Y-13079984D02*
X15263039Y-13070460D01*
X15263039Y-13070460D02*
X15253515Y-13051412D01*
X15253515Y-13051412D02*
X15253515Y-12879984D01*
X15434468Y-13070460D02*
X15415420Y-13079984D01*
X15415420Y-13079984D02*
X15377325Y-13079984D01*
X15377325Y-13079984D02*
X15358277Y-13070460D01*
X15358277Y-13070460D02*
X15348753Y-13051412D01*
X15348753Y-13051412D02*
X15348753Y-12975222D01*
X15348753Y-12975222D02*
X15358277Y-12956174D01*
X15358277Y-12956174D02*
X15377325Y-12946650D01*
X15377325Y-12946650D02*
X15415420Y-12946650D01*
X15415420Y-12946650D02*
X15434468Y-12956174D01*
X15434468Y-12956174D02*
X15443991Y-12975222D01*
X15443991Y-12975222D02*
X15443991Y-12994269D01*
X15443991Y-12994269D02*
X15348753Y-13013317D01*
X15520182Y-13070460D02*
X15539230Y-13079984D01*
X15539230Y-13079984D02*
X15577325Y-13079984D01*
X15577325Y-13079984D02*
X15596372Y-13070460D01*
X15596372Y-13070460D02*
X15605896Y-13051412D01*
X15605896Y-13051412D02*
X15605896Y-13041888D01*
X15605896Y-13041888D02*
X15596372Y-13022841D01*
X15596372Y-13022841D02*
X15577325Y-13013317D01*
X15577325Y-13013317D02*
X15548753Y-13013317D01*
X15548753Y-13013317D02*
X15529706Y-13003793D01*
X15529706Y-13003793D02*
X15520182Y-12984746D01*
X15520182Y-12984746D02*
X15520182Y-12975222D01*
X15520182Y-12975222D02*
X15529706Y-12956174D01*
X15529706Y-12956174D02*
X15548753Y-12946650D01*
X15548753Y-12946650D02*
X15577325Y-12946650D01*
X15577325Y-12946650D02*
X15596372Y-12956174D01*
X15672563Y-13156174D02*
X15682087Y-13146650D01*
X15682087Y-13146650D02*
X15701134Y-13118079D01*
X15701134Y-13118079D02*
X15710658Y-13099031D01*
X15710658Y-13099031D02*
X15720182Y-13070460D01*
X15720182Y-13070460D02*
X15729706Y-13022841D01*
X15729706Y-13022841D02*
X15729706Y-12984746D01*
X15729706Y-12984746D02*
X15720182Y-12937127D01*
X15720182Y-12937127D02*
X15710658Y-12908555D01*
X15710658Y-12908555D02*
X15701134Y-12889508D01*
X15701134Y-12889508D02*
X15682087Y-12860936D01*
X15682087Y-12860936D02*
X15672563Y-12851412D01*
D12*
X10797500Y-13202500D02*
X10897500Y-13302500D01*
X10897500Y-13202500D02*
X10797500Y-13302500D01*
X10897500Y-13252500D02*
G75*
G02*
X10797500Y-13252500I-50000J0D01*
G01*
X10797500Y-13252500D02*
G75*
G02*
X10897500Y-13252500I50000J0D01*
G01*
D11*
X11263039Y-13343984D02*
X11148753Y-13343984D01*
X11205896Y-13343984D02*
X11205896Y-13143984D01*
X11205896Y-13143984D02*
X11186848Y-13172555D01*
X11186848Y-13172555D02*
X11167801Y-13191603D01*
X11167801Y-13191603D02*
X11148753Y-13201127D01*
X11348753Y-13324936D02*
X11358277Y-13334460D01*
X11358277Y-13334460D02*
X11348753Y-13343984D01*
X11348753Y-13343984D02*
X11339229Y-13334460D01*
X11339229Y-13334460D02*
X11348753Y-13324936D01*
X11348753Y-13324936D02*
X11348753Y-13343984D01*
X11482086Y-13143984D02*
X11501134Y-13143984D01*
X11501134Y-13143984D02*
X11520182Y-13153508D01*
X11520182Y-13153508D02*
X11529705Y-13163031D01*
X11529705Y-13163031D02*
X11539229Y-13182079D01*
X11539229Y-13182079D02*
X11548753Y-13220174D01*
X11548753Y-13220174D02*
X11548753Y-13267793D01*
X11548753Y-13267793D02*
X11539229Y-13305888D01*
X11539229Y-13305888D02*
X11529705Y-13324936D01*
X11529705Y-13324936D02*
X11520182Y-13334460D01*
X11520182Y-13334460D02*
X11501134Y-13343984D01*
X11501134Y-13343984D02*
X11482086Y-13343984D01*
X11482086Y-13343984D02*
X11463039Y-13334460D01*
X11463039Y-13334460D02*
X11453515Y-13324936D01*
X11453515Y-13324936D02*
X11443991Y-13305888D01*
X11443991Y-13305888D02*
X11434467Y-13267793D01*
X11434467Y-13267793D02*
X11434467Y-13220174D01*
X11434467Y-13220174D02*
X11443991Y-13182079D01*
X11443991Y-13182079D02*
X11453515Y-13163031D01*
X11453515Y-13163031D02*
X11463039Y-13153508D01*
X11463039Y-13153508D02*
X11482086Y-13143984D01*
X11672562Y-13143984D02*
X11691610Y-13143984D01*
X11691610Y-13143984D02*
X11710658Y-13153508D01*
X11710658Y-13153508D02*
X11720182Y-13163031D01*
X11720182Y-13163031D02*
X11729705Y-13182079D01*
X11729705Y-13182079D02*
X11739229Y-13220174D01*
X11739229Y-13220174D02*
X11739229Y-13267793D01*
X11739229Y-13267793D02*
X11729705Y-13305888D01*
X11729705Y-13305888D02*
X11720182Y-13324936D01*
X11720182Y-13324936D02*
X11710658Y-13334460D01*
X11710658Y-13334460D02*
X11691610Y-13343984D01*
X11691610Y-13343984D02*
X11672562Y-13343984D01*
X11672562Y-13343984D02*
X11653515Y-13334460D01*
X11653515Y-13334460D02*
X11643991Y-13324936D01*
X11643991Y-13324936D02*
X11634467Y-13305888D01*
X11634467Y-13305888D02*
X11624943Y-13267793D01*
X11624943Y-13267793D02*
X11624943Y-13220174D01*
X11624943Y-13220174D02*
X11634467Y-13182079D01*
X11634467Y-13182079D02*
X11643991Y-13163031D01*
X11643991Y-13163031D02*
X11653515Y-13153508D01*
X11653515Y-13153508D02*
X11672562Y-13143984D01*
X11863039Y-13143984D02*
X11882086Y-13143984D01*
X11882086Y-13143984D02*
X11901134Y-13153508D01*
X11901134Y-13153508D02*
X11910658Y-13163031D01*
X11910658Y-13163031D02*
X11920182Y-13182079D01*
X11920182Y-13182079D02*
X11929705Y-13220174D01*
X11929705Y-13220174D02*
X11929705Y-13267793D01*
X11929705Y-13267793D02*
X11920182Y-13305888D01*
X11920182Y-13305888D02*
X11910658Y-13324936D01*
X11910658Y-13324936D02*
X11901134Y-13334460D01*
X11901134Y-13334460D02*
X11882086Y-13343984D01*
X11882086Y-13343984D02*
X11863039Y-13343984D01*
X11863039Y-13343984D02*
X11843991Y-13334460D01*
X11843991Y-13334460D02*
X11834467Y-13324936D01*
X11834467Y-13324936D02*
X11824943Y-13305888D01*
X11824943Y-13305888D02*
X11815420Y-13267793D01*
X11815420Y-13267793D02*
X11815420Y-13220174D01*
X11815420Y-13220174D02*
X11824943Y-13182079D01*
X11824943Y-13182079D02*
X11834467Y-13163031D01*
X11834467Y-13163031D02*
X11843991Y-13153508D01*
X11843991Y-13153508D02*
X11863039Y-13143984D01*
X12015420Y-13343984D02*
X12015420Y-13210650D01*
X12015420Y-13229698D02*
X12024943Y-13220174D01*
X12024943Y-13220174D02*
X12043991Y-13210650D01*
X12043991Y-13210650D02*
X12072563Y-13210650D01*
X12072563Y-13210650D02*
X12091610Y-13220174D01*
X12091610Y-13220174D02*
X12101134Y-13239222D01*
X12101134Y-13239222D02*
X12101134Y-13343984D01*
X12101134Y-13239222D02*
X12110658Y-13220174D01*
X12110658Y-13220174D02*
X12129705Y-13210650D01*
X12129705Y-13210650D02*
X12158277Y-13210650D01*
X12158277Y-13210650D02*
X12177324Y-13220174D01*
X12177324Y-13220174D02*
X12186848Y-13239222D01*
X12186848Y-13239222D02*
X12186848Y-13343984D01*
X12282086Y-13343984D02*
X12282086Y-13210650D01*
X12282086Y-13229698D02*
X12291610Y-13220174D01*
X12291610Y-13220174D02*
X12310658Y-13210650D01*
X12310658Y-13210650D02*
X12339229Y-13210650D01*
X12339229Y-13210650D02*
X12358277Y-13220174D01*
X12358277Y-13220174D02*
X12367801Y-13239222D01*
X12367801Y-13239222D02*
X12367801Y-13343984D01*
X12367801Y-13239222D02*
X12377324Y-13220174D01*
X12377324Y-13220174D02*
X12396372Y-13210650D01*
X12396372Y-13210650D02*
X12424943Y-13210650D01*
X12424943Y-13210650D02*
X12443991Y-13220174D01*
X12443991Y-13220174D02*
X12453515Y-13239222D01*
X12453515Y-13239222D02*
X12453515Y-13343984D01*
X12843991Y-13134460D02*
X12672563Y-13391603D01*
X13101134Y-13143984D02*
X13120182Y-13143984D01*
X13120182Y-13143984D02*
X13139229Y-13153508D01*
X13139229Y-13153508D02*
X13148753Y-13163031D01*
X13148753Y-13163031D02*
X13158277Y-13182079D01*
X13158277Y-13182079D02*
X13167801Y-13220174D01*
X13167801Y-13220174D02*
X13167801Y-13267793D01*
X13167801Y-13267793D02*
X13158277Y-13305888D01*
X13158277Y-13305888D02*
X13148753Y-13324936D01*
X13148753Y-13324936D02*
X13139229Y-13334460D01*
X13139229Y-13334460D02*
X13120182Y-13343984D01*
X13120182Y-13343984D02*
X13101134Y-13343984D01*
X13101134Y-13343984D02*
X13082086Y-13334460D01*
X13082086Y-13334460D02*
X13072563Y-13324936D01*
X13072563Y-13324936D02*
X13063039Y-13305888D01*
X13063039Y-13305888D02*
X13053515Y-13267793D01*
X13053515Y-13267793D02*
X13053515Y-13220174D01*
X13053515Y-13220174D02*
X13063039Y-13182079D01*
X13063039Y-13182079D02*
X13072563Y-13163031D01*
X13072563Y-13163031D02*
X13082086Y-13153508D01*
X13082086Y-13153508D02*
X13101134Y-13143984D01*
X13253515Y-13324936D02*
X13263039Y-13334460D01*
X13263039Y-13334460D02*
X13253515Y-13343984D01*
X13253515Y-13343984D02*
X13243991Y-13334460D01*
X13243991Y-13334460D02*
X13253515Y-13324936D01*
X13253515Y-13324936D02*
X13253515Y-13343984D01*
X13386848Y-13143984D02*
X13405896Y-13143984D01*
X13405896Y-13143984D02*
X13424944Y-13153508D01*
X13424944Y-13153508D02*
X13434467Y-13163031D01*
X13434467Y-13163031D02*
X13443991Y-13182079D01*
X13443991Y-13182079D02*
X13453515Y-13220174D01*
X13453515Y-13220174D02*
X13453515Y-13267793D01*
X13453515Y-13267793D02*
X13443991Y-13305888D01*
X13443991Y-13305888D02*
X13434467Y-13324936D01*
X13434467Y-13324936D02*
X13424944Y-13334460D01*
X13424944Y-13334460D02*
X13405896Y-13343984D01*
X13405896Y-13343984D02*
X13386848Y-13343984D01*
X13386848Y-13343984D02*
X13367801Y-13334460D01*
X13367801Y-13334460D02*
X13358277Y-13324936D01*
X13358277Y-13324936D02*
X13348753Y-13305888D01*
X13348753Y-13305888D02*
X13339229Y-13267793D01*
X13339229Y-13267793D02*
X13339229Y-13220174D01*
X13339229Y-13220174D02*
X13348753Y-13182079D01*
X13348753Y-13182079D02*
X13358277Y-13163031D01*
X13358277Y-13163031D02*
X13367801Y-13153508D01*
X13367801Y-13153508D02*
X13386848Y-13143984D01*
X13520182Y-13143984D02*
X13643991Y-13143984D01*
X13643991Y-13143984D02*
X13577325Y-13220174D01*
X13577325Y-13220174D02*
X13605896Y-13220174D01*
X13605896Y-13220174D02*
X13624944Y-13229698D01*
X13624944Y-13229698D02*
X13634467Y-13239222D01*
X13634467Y-13239222D02*
X13643991Y-13258269D01*
X13643991Y-13258269D02*
X13643991Y-13305888D01*
X13643991Y-13305888D02*
X13634467Y-13324936D01*
X13634467Y-13324936D02*
X13624944Y-13334460D01*
X13624944Y-13334460D02*
X13605896Y-13343984D01*
X13605896Y-13343984D02*
X13548753Y-13343984D01*
X13548753Y-13343984D02*
X13529706Y-13334460D01*
X13529706Y-13334460D02*
X13520182Y-13324936D01*
X13739229Y-13343984D02*
X13777325Y-13343984D01*
X13777325Y-13343984D02*
X13796372Y-13334460D01*
X13796372Y-13334460D02*
X13805896Y-13324936D01*
X13805896Y-13324936D02*
X13824944Y-13296365D01*
X13824944Y-13296365D02*
X13834467Y-13258269D01*
X13834467Y-13258269D02*
X13834467Y-13182079D01*
X13834467Y-13182079D02*
X13824944Y-13163031D01*
X13824944Y-13163031D02*
X13815420Y-13153508D01*
X13815420Y-13153508D02*
X13796372Y-13143984D01*
X13796372Y-13143984D02*
X13758277Y-13143984D01*
X13758277Y-13143984D02*
X13739229Y-13153508D01*
X13739229Y-13153508D02*
X13729706Y-13163031D01*
X13729706Y-13163031D02*
X13720182Y-13182079D01*
X13720182Y-13182079D02*
X13720182Y-13229698D01*
X13720182Y-13229698D02*
X13729706Y-13248746D01*
X13729706Y-13248746D02*
X13739229Y-13258269D01*
X13739229Y-13258269D02*
X13758277Y-13267793D01*
X13758277Y-13267793D02*
X13796372Y-13267793D01*
X13796372Y-13267793D02*
X13815420Y-13258269D01*
X13815420Y-13258269D02*
X13824944Y-13248746D01*
X13824944Y-13248746D02*
X13834467Y-13229698D01*
X14005896Y-13210650D02*
X14005896Y-13343984D01*
X13958277Y-13134460D02*
X13910658Y-13277317D01*
X13910658Y-13277317D02*
X14034467Y-13277317D01*
X14101134Y-13143984D02*
X14101134Y-13182079D01*
X14177325Y-13143984D02*
X14177325Y-13182079D01*
X14472563Y-13420174D02*
X14463039Y-13410650D01*
X14463039Y-13410650D02*
X14443991Y-13382079D01*
X14443991Y-13382079D02*
X14434468Y-13363031D01*
X14434468Y-13363031D02*
X14424944Y-13334460D01*
X14424944Y-13334460D02*
X14415420Y-13286841D01*
X14415420Y-13286841D02*
X14415420Y-13248746D01*
X14415420Y-13248746D02*
X14424944Y-13201127D01*
X14424944Y-13201127D02*
X14434468Y-13172555D01*
X14434468Y-13172555D02*
X14443991Y-13153508D01*
X14443991Y-13153508D02*
X14463039Y-13124936D01*
X14463039Y-13124936D02*
X14472563Y-13115412D01*
X14539229Y-13163031D02*
X14548753Y-13153508D01*
X14548753Y-13153508D02*
X14567801Y-13143984D01*
X14567801Y-13143984D02*
X14615420Y-13143984D01*
X14615420Y-13143984D02*
X14634468Y-13153508D01*
X14634468Y-13153508D02*
X14643991Y-13163031D01*
X14643991Y-13163031D02*
X14653515Y-13182079D01*
X14653515Y-13182079D02*
X14653515Y-13201127D01*
X14653515Y-13201127D02*
X14643991Y-13229698D01*
X14643991Y-13229698D02*
X14529706Y-13343984D01*
X14529706Y-13343984D02*
X14653515Y-13343984D01*
X14777325Y-13143984D02*
X14796372Y-13143984D01*
X14796372Y-13143984D02*
X14815420Y-13153508D01*
X14815420Y-13153508D02*
X14824944Y-13163031D01*
X14824944Y-13163031D02*
X14834468Y-13182079D01*
X14834468Y-13182079D02*
X14843991Y-13220174D01*
X14843991Y-13220174D02*
X14843991Y-13267793D01*
X14843991Y-13267793D02*
X14834468Y-13305888D01*
X14834468Y-13305888D02*
X14824944Y-13324936D01*
X14824944Y-13324936D02*
X14815420Y-13334460D01*
X14815420Y-13334460D02*
X14796372Y-13343984D01*
X14796372Y-13343984D02*
X14777325Y-13343984D01*
X14777325Y-13343984D02*
X14758277Y-13334460D01*
X14758277Y-13334460D02*
X14748753Y-13324936D01*
X14748753Y-13324936D02*
X14739229Y-13305888D01*
X14739229Y-13305888D02*
X14729706Y-13267793D01*
X14729706Y-13267793D02*
X14729706Y-13220174D01*
X14729706Y-13220174D02*
X14739229Y-13182079D01*
X14739229Y-13182079D02*
X14748753Y-13163031D01*
X14748753Y-13163031D02*
X14758277Y-13153508D01*
X14758277Y-13153508D02*
X14777325Y-13143984D01*
X15082087Y-13343984D02*
X15082087Y-13143984D01*
X15167801Y-13343984D02*
X15167801Y-13239222D01*
X15167801Y-13239222D02*
X15158277Y-13220174D01*
X15158277Y-13220174D02*
X15139230Y-13210650D01*
X15139230Y-13210650D02*
X15110658Y-13210650D01*
X15110658Y-13210650D02*
X15091610Y-13220174D01*
X15091610Y-13220174D02*
X15082087Y-13229698D01*
X15291610Y-13343984D02*
X15272563Y-13334460D01*
X15272563Y-13334460D02*
X15263039Y-13324936D01*
X15263039Y-13324936D02*
X15253515Y-13305888D01*
X15253515Y-13305888D02*
X15253515Y-13248746D01*
X15253515Y-13248746D02*
X15263039Y-13229698D01*
X15263039Y-13229698D02*
X15272563Y-13220174D01*
X15272563Y-13220174D02*
X15291610Y-13210650D01*
X15291610Y-13210650D02*
X15320182Y-13210650D01*
X15320182Y-13210650D02*
X15339230Y-13220174D01*
X15339230Y-13220174D02*
X15348753Y-13229698D01*
X15348753Y-13229698D02*
X15358277Y-13248746D01*
X15358277Y-13248746D02*
X15358277Y-13305888D01*
X15358277Y-13305888D02*
X15348753Y-13324936D01*
X15348753Y-13324936D02*
X15339230Y-13334460D01*
X15339230Y-13334460D02*
X15320182Y-13343984D01*
X15320182Y-13343984D02*
X15291610Y-13343984D01*
X15472563Y-13343984D02*
X15453515Y-13334460D01*
X15453515Y-13334460D02*
X15443991Y-13315412D01*
X15443991Y-13315412D02*
X15443991Y-13143984D01*
X15624944Y-13334460D02*
X15605896Y-13343984D01*
X15605896Y-13343984D02*
X15567801Y-13343984D01*
X15567801Y-13343984D02*
X15548753Y-13334460D01*
X15548753Y-13334460D02*
X15539230Y-13315412D01*
X15539230Y-13315412D02*
X15539230Y-13239222D01*
X15539230Y-13239222D02*
X15548753Y-13220174D01*
X15548753Y-13220174D02*
X15567801Y-13210650D01*
X15567801Y-13210650D02*
X15605896Y-13210650D01*
X15605896Y-13210650D02*
X15624944Y-13220174D01*
X15624944Y-13220174D02*
X15634468Y-13239222D01*
X15634468Y-13239222D02*
X15634468Y-13258269D01*
X15634468Y-13258269D02*
X15539230Y-13277317D01*
X15710658Y-13334460D02*
X15729706Y-13343984D01*
X15729706Y-13343984D02*
X15767801Y-13343984D01*
X15767801Y-13343984D02*
X15786849Y-13334460D01*
X15786849Y-13334460D02*
X15796372Y-13315412D01*
X15796372Y-13315412D02*
X15796372Y-13305888D01*
X15796372Y-13305888D02*
X15786849Y-13286841D01*
X15786849Y-13286841D02*
X15767801Y-13277317D01*
X15767801Y-13277317D02*
X15739230Y-13277317D01*
X15739230Y-13277317D02*
X15720182Y-13267793D01*
X15720182Y-13267793D02*
X15710658Y-13248746D01*
X15710658Y-13248746D02*
X15710658Y-13239222D01*
X15710658Y-13239222D02*
X15720182Y-13220174D01*
X15720182Y-13220174D02*
X15739230Y-13210650D01*
X15739230Y-13210650D02*
X15767801Y-13210650D01*
X15767801Y-13210650D02*
X15786849Y-13220174D01*
X15863039Y-13420174D02*
X15872563Y-13410650D01*
X15872563Y-13410650D02*
X15891611Y-13382079D01*
X15891611Y-13382079D02*
X15901134Y-13363031D01*
X15901134Y-13363031D02*
X15910658Y-13334460D01*
X15910658Y-13334460D02*
X15920182Y-13286841D01*
X15920182Y-13286841D02*
X15920182Y-13248746D01*
X15920182Y-13248746D02*
X15910658Y-13201127D01*
X15910658Y-13201127D02*
X15901134Y-13172555D01*
X15901134Y-13172555D02*
X15891611Y-13153508D01*
X15891611Y-13153508D02*
X15872563Y-13124936D01*
X15872563Y-13124936D02*
X15863039Y-13115412D01*
D13*
X10787500Y-13461500D02*
X10897500Y-13571500D01*
X10897500Y-13461500D02*
X10787500Y-13571500D01*
X10842500Y-13461500D02*
X10842500Y-13571500D01*
X10787500Y-13516500D02*
X10897500Y-13516500D01*
D11*
X11263039Y-13607984D02*
X11148753Y-13607984D01*
X11205896Y-13607984D02*
X11205896Y-13407984D01*
X11205896Y-13407984D02*
X11186848Y-13436555D01*
X11186848Y-13436555D02*
X11167801Y-13455603D01*
X11167801Y-13455603D02*
X11148753Y-13465127D01*
X11348753Y-13588936D02*
X11358277Y-13598460D01*
X11358277Y-13598460D02*
X11348753Y-13607984D01*
X11348753Y-13607984D02*
X11339229Y-13598460D01*
X11339229Y-13598460D02*
X11348753Y-13588936D01*
X11348753Y-13588936D02*
X11348753Y-13607984D01*
X11548753Y-13607984D02*
X11434467Y-13607984D01*
X11491610Y-13607984D02*
X11491610Y-13407984D01*
X11491610Y-13407984D02*
X11472562Y-13436555D01*
X11472562Y-13436555D02*
X11453515Y-13455603D01*
X11453515Y-13455603D02*
X11434467Y-13465127D01*
X11672562Y-13407984D02*
X11691610Y-13407984D01*
X11691610Y-13407984D02*
X11710658Y-13417508D01*
X11710658Y-13417508D02*
X11720182Y-13427031D01*
X11720182Y-13427031D02*
X11729705Y-13446079D01*
X11729705Y-13446079D02*
X11739229Y-13484174D01*
X11739229Y-13484174D02*
X11739229Y-13531793D01*
X11739229Y-13531793D02*
X11729705Y-13569888D01*
X11729705Y-13569888D02*
X11720182Y-13588936D01*
X11720182Y-13588936D02*
X11710658Y-13598460D01*
X11710658Y-13598460D02*
X11691610Y-13607984D01*
X11691610Y-13607984D02*
X11672562Y-13607984D01*
X11672562Y-13607984D02*
X11653515Y-13598460D01*
X11653515Y-13598460D02*
X11643991Y-13588936D01*
X11643991Y-13588936D02*
X11634467Y-13569888D01*
X11634467Y-13569888D02*
X11624943Y-13531793D01*
X11624943Y-13531793D02*
X11624943Y-13484174D01*
X11624943Y-13484174D02*
X11634467Y-13446079D01*
X11634467Y-13446079D02*
X11643991Y-13427031D01*
X11643991Y-13427031D02*
X11653515Y-13417508D01*
X11653515Y-13417508D02*
X11672562Y-13407984D01*
X11863039Y-13407984D02*
X11882086Y-13407984D01*
X11882086Y-13407984D02*
X11901134Y-13417508D01*
X11901134Y-13417508D02*
X11910658Y-13427031D01*
X11910658Y-13427031D02*
X11920182Y-13446079D01*
X11920182Y-13446079D02*
X11929705Y-13484174D01*
X11929705Y-13484174D02*
X11929705Y-13531793D01*
X11929705Y-13531793D02*
X11920182Y-13569888D01*
X11920182Y-13569888D02*
X11910658Y-13588936D01*
X11910658Y-13588936D02*
X11901134Y-13598460D01*
X11901134Y-13598460D02*
X11882086Y-13607984D01*
X11882086Y-13607984D02*
X11863039Y-13607984D01*
X11863039Y-13607984D02*
X11843991Y-13598460D01*
X11843991Y-13598460D02*
X11834467Y-13588936D01*
X11834467Y-13588936D02*
X11824943Y-13569888D01*
X11824943Y-13569888D02*
X11815420Y-13531793D01*
X11815420Y-13531793D02*
X11815420Y-13484174D01*
X11815420Y-13484174D02*
X11824943Y-13446079D01*
X11824943Y-13446079D02*
X11834467Y-13427031D01*
X11834467Y-13427031D02*
X11843991Y-13417508D01*
X11843991Y-13417508D02*
X11863039Y-13407984D01*
X12015420Y-13607984D02*
X12015420Y-13474650D01*
X12015420Y-13493698D02*
X12024943Y-13484174D01*
X12024943Y-13484174D02*
X12043991Y-13474650D01*
X12043991Y-13474650D02*
X12072563Y-13474650D01*
X12072563Y-13474650D02*
X12091610Y-13484174D01*
X12091610Y-13484174D02*
X12101134Y-13503222D01*
X12101134Y-13503222D02*
X12101134Y-13607984D01*
X12101134Y-13503222D02*
X12110658Y-13484174D01*
X12110658Y-13484174D02*
X12129705Y-13474650D01*
X12129705Y-13474650D02*
X12158277Y-13474650D01*
X12158277Y-13474650D02*
X12177324Y-13484174D01*
X12177324Y-13484174D02*
X12186848Y-13503222D01*
X12186848Y-13503222D02*
X12186848Y-13607984D01*
X12282086Y-13607984D02*
X12282086Y-13474650D01*
X12282086Y-13493698D02*
X12291610Y-13484174D01*
X12291610Y-13484174D02*
X12310658Y-13474650D01*
X12310658Y-13474650D02*
X12339229Y-13474650D01*
X12339229Y-13474650D02*
X12358277Y-13484174D01*
X12358277Y-13484174D02*
X12367801Y-13503222D01*
X12367801Y-13503222D02*
X12367801Y-13607984D01*
X12367801Y-13503222D02*
X12377324Y-13484174D01*
X12377324Y-13484174D02*
X12396372Y-13474650D01*
X12396372Y-13474650D02*
X12424943Y-13474650D01*
X12424943Y-13474650D02*
X12443991Y-13484174D01*
X12443991Y-13484174D02*
X12453515Y-13503222D01*
X12453515Y-13503222D02*
X12453515Y-13607984D01*
X12843991Y-13398460D02*
X12672563Y-13655603D01*
X13101134Y-13407984D02*
X13120182Y-13407984D01*
X13120182Y-13407984D02*
X13139229Y-13417508D01*
X13139229Y-13417508D02*
X13148753Y-13427031D01*
X13148753Y-13427031D02*
X13158277Y-13446079D01*
X13158277Y-13446079D02*
X13167801Y-13484174D01*
X13167801Y-13484174D02*
X13167801Y-13531793D01*
X13167801Y-13531793D02*
X13158277Y-13569888D01*
X13158277Y-13569888D02*
X13148753Y-13588936D01*
X13148753Y-13588936D02*
X13139229Y-13598460D01*
X13139229Y-13598460D02*
X13120182Y-13607984D01*
X13120182Y-13607984D02*
X13101134Y-13607984D01*
X13101134Y-13607984D02*
X13082086Y-13598460D01*
X13082086Y-13598460D02*
X13072563Y-13588936D01*
X13072563Y-13588936D02*
X13063039Y-13569888D01*
X13063039Y-13569888D02*
X13053515Y-13531793D01*
X13053515Y-13531793D02*
X13053515Y-13484174D01*
X13053515Y-13484174D02*
X13063039Y-13446079D01*
X13063039Y-13446079D02*
X13072563Y-13427031D01*
X13072563Y-13427031D02*
X13082086Y-13417508D01*
X13082086Y-13417508D02*
X13101134Y-13407984D01*
X13253515Y-13588936D02*
X13263039Y-13598460D01*
X13263039Y-13598460D02*
X13253515Y-13607984D01*
X13253515Y-13607984D02*
X13243991Y-13598460D01*
X13243991Y-13598460D02*
X13253515Y-13588936D01*
X13253515Y-13588936D02*
X13253515Y-13607984D01*
X13386848Y-13407984D02*
X13405896Y-13407984D01*
X13405896Y-13407984D02*
X13424944Y-13417508D01*
X13424944Y-13417508D02*
X13434467Y-13427031D01*
X13434467Y-13427031D02*
X13443991Y-13446079D01*
X13443991Y-13446079D02*
X13453515Y-13484174D01*
X13453515Y-13484174D02*
X13453515Y-13531793D01*
X13453515Y-13531793D02*
X13443991Y-13569888D01*
X13443991Y-13569888D02*
X13434467Y-13588936D01*
X13434467Y-13588936D02*
X13424944Y-13598460D01*
X13424944Y-13598460D02*
X13405896Y-13607984D01*
X13405896Y-13607984D02*
X13386848Y-13607984D01*
X13386848Y-13607984D02*
X13367801Y-13598460D01*
X13367801Y-13598460D02*
X13358277Y-13588936D01*
X13358277Y-13588936D02*
X13348753Y-13569888D01*
X13348753Y-13569888D02*
X13339229Y-13531793D01*
X13339229Y-13531793D02*
X13339229Y-13484174D01*
X13339229Y-13484174D02*
X13348753Y-13446079D01*
X13348753Y-13446079D02*
X13358277Y-13427031D01*
X13358277Y-13427031D02*
X13367801Y-13417508D01*
X13367801Y-13417508D02*
X13386848Y-13407984D01*
X13624944Y-13474650D02*
X13624944Y-13607984D01*
X13577325Y-13398460D02*
X13529706Y-13541317D01*
X13529706Y-13541317D02*
X13653515Y-13541317D01*
X13710658Y-13407984D02*
X13834467Y-13407984D01*
X13834467Y-13407984D02*
X13767801Y-13484174D01*
X13767801Y-13484174D02*
X13796372Y-13484174D01*
X13796372Y-13484174D02*
X13815420Y-13493698D01*
X13815420Y-13493698D02*
X13824944Y-13503222D01*
X13824944Y-13503222D02*
X13834467Y-13522269D01*
X13834467Y-13522269D02*
X13834467Y-13569888D01*
X13834467Y-13569888D02*
X13824944Y-13588936D01*
X13824944Y-13588936D02*
X13815420Y-13598460D01*
X13815420Y-13598460D02*
X13796372Y-13607984D01*
X13796372Y-13607984D02*
X13739229Y-13607984D01*
X13739229Y-13607984D02*
X13720182Y-13598460D01*
X13720182Y-13598460D02*
X13710658Y-13588936D01*
X13901134Y-13407984D02*
X14024944Y-13407984D01*
X14024944Y-13407984D02*
X13958277Y-13484174D01*
X13958277Y-13484174D02*
X13986848Y-13484174D01*
X13986848Y-13484174D02*
X14005896Y-13493698D01*
X14005896Y-13493698D02*
X14015420Y-13503222D01*
X14015420Y-13503222D02*
X14024944Y-13522269D01*
X14024944Y-13522269D02*
X14024944Y-13569888D01*
X14024944Y-13569888D02*
X14015420Y-13588936D01*
X14015420Y-13588936D02*
X14005896Y-13598460D01*
X14005896Y-13598460D02*
X13986848Y-13607984D01*
X13986848Y-13607984D02*
X13929706Y-13607984D01*
X13929706Y-13607984D02*
X13910658Y-13598460D01*
X13910658Y-13598460D02*
X13901134Y-13588936D01*
X14101134Y-13407984D02*
X14101134Y-13446079D01*
X14177325Y-13407984D02*
X14177325Y-13446079D01*
X14472563Y-13684174D02*
X14463039Y-13674650D01*
X14463039Y-13674650D02*
X14443991Y-13646079D01*
X14443991Y-13646079D02*
X14434468Y-13627031D01*
X14434468Y-13627031D02*
X14424944Y-13598460D01*
X14424944Y-13598460D02*
X14415420Y-13550841D01*
X14415420Y-13550841D02*
X14415420Y-13512746D01*
X14415420Y-13512746D02*
X14424944Y-13465127D01*
X14424944Y-13465127D02*
X14434468Y-13436555D01*
X14434468Y-13436555D02*
X14443991Y-13417508D01*
X14443991Y-13417508D02*
X14463039Y-13388936D01*
X14463039Y-13388936D02*
X14472563Y-13379412D01*
X14577325Y-13493698D02*
X14558277Y-13484174D01*
X14558277Y-13484174D02*
X14548753Y-13474650D01*
X14548753Y-13474650D02*
X14539229Y-13455603D01*
X14539229Y-13455603D02*
X14539229Y-13446079D01*
X14539229Y-13446079D02*
X14548753Y-13427031D01*
X14548753Y-13427031D02*
X14558277Y-13417508D01*
X14558277Y-13417508D02*
X14577325Y-13407984D01*
X14577325Y-13407984D02*
X14615420Y-13407984D01*
X14615420Y-13407984D02*
X14634468Y-13417508D01*
X14634468Y-13417508D02*
X14643991Y-13427031D01*
X14643991Y-13427031D02*
X14653515Y-13446079D01*
X14653515Y-13446079D02*
X14653515Y-13455603D01*
X14653515Y-13455603D02*
X14643991Y-13474650D01*
X14643991Y-13474650D02*
X14634468Y-13484174D01*
X14634468Y-13484174D02*
X14615420Y-13493698D01*
X14615420Y-13493698D02*
X14577325Y-13493698D01*
X14577325Y-13493698D02*
X14558277Y-13503222D01*
X14558277Y-13503222D02*
X14548753Y-13512746D01*
X14548753Y-13512746D02*
X14539229Y-13531793D01*
X14539229Y-13531793D02*
X14539229Y-13569888D01*
X14539229Y-13569888D02*
X14548753Y-13588936D01*
X14548753Y-13588936D02*
X14558277Y-13598460D01*
X14558277Y-13598460D02*
X14577325Y-13607984D01*
X14577325Y-13607984D02*
X14615420Y-13607984D01*
X14615420Y-13607984D02*
X14634468Y-13598460D01*
X14634468Y-13598460D02*
X14643991Y-13588936D01*
X14643991Y-13588936D02*
X14653515Y-13569888D01*
X14653515Y-13569888D02*
X14653515Y-13531793D01*
X14653515Y-13531793D02*
X14643991Y-13512746D01*
X14643991Y-13512746D02*
X14634468Y-13503222D01*
X14634468Y-13503222D02*
X14615420Y-13493698D01*
X14891610Y-13607984D02*
X14891610Y-13407984D01*
X14977325Y-13607984D02*
X14977325Y-13503222D01*
X14977325Y-13503222D02*
X14967801Y-13484174D01*
X14967801Y-13484174D02*
X14948753Y-13474650D01*
X14948753Y-13474650D02*
X14920182Y-13474650D01*
X14920182Y-13474650D02*
X14901134Y-13484174D01*
X14901134Y-13484174D02*
X14891610Y-13493698D01*
X15101134Y-13607984D02*
X15082087Y-13598460D01*
X15082087Y-13598460D02*
X15072563Y-13588936D01*
X15072563Y-13588936D02*
X15063039Y-13569888D01*
X15063039Y-13569888D02*
X15063039Y-13512746D01*
X15063039Y-13512746D02*
X15072563Y-13493698D01*
X15072563Y-13493698D02*
X15082087Y-13484174D01*
X15082087Y-13484174D02*
X15101134Y-13474650D01*
X15101134Y-13474650D02*
X15129706Y-13474650D01*
X15129706Y-13474650D02*
X15148753Y-13484174D01*
X15148753Y-13484174D02*
X15158277Y-13493698D01*
X15158277Y-13493698D02*
X15167801Y-13512746D01*
X15167801Y-13512746D02*
X15167801Y-13569888D01*
X15167801Y-13569888D02*
X15158277Y-13588936D01*
X15158277Y-13588936D02*
X15148753Y-13598460D01*
X15148753Y-13598460D02*
X15129706Y-13607984D01*
X15129706Y-13607984D02*
X15101134Y-13607984D01*
X15282087Y-13607984D02*
X15263039Y-13598460D01*
X15263039Y-13598460D02*
X15253515Y-13579412D01*
X15253515Y-13579412D02*
X15253515Y-13407984D01*
X15434468Y-13598460D02*
X15415420Y-13607984D01*
X15415420Y-13607984D02*
X15377325Y-13607984D01*
X15377325Y-13607984D02*
X15358277Y-13598460D01*
X15358277Y-13598460D02*
X15348753Y-13579412D01*
X15348753Y-13579412D02*
X15348753Y-13503222D01*
X15348753Y-13503222D02*
X15358277Y-13484174D01*
X15358277Y-13484174D02*
X15377325Y-13474650D01*
X15377325Y-13474650D02*
X15415420Y-13474650D01*
X15415420Y-13474650D02*
X15434468Y-13484174D01*
X15434468Y-13484174D02*
X15443991Y-13503222D01*
X15443991Y-13503222D02*
X15443991Y-13522269D01*
X15443991Y-13522269D02*
X15348753Y-13541317D01*
X15520182Y-13598460D02*
X15539230Y-13607984D01*
X15539230Y-13607984D02*
X15577325Y-13607984D01*
X15577325Y-13607984D02*
X15596372Y-13598460D01*
X15596372Y-13598460D02*
X15605896Y-13579412D01*
X15605896Y-13579412D02*
X15605896Y-13569888D01*
X15605896Y-13569888D02*
X15596372Y-13550841D01*
X15596372Y-13550841D02*
X15577325Y-13541317D01*
X15577325Y-13541317D02*
X15548753Y-13541317D01*
X15548753Y-13541317D02*
X15529706Y-13531793D01*
X15529706Y-13531793D02*
X15520182Y-13512746D01*
X15520182Y-13512746D02*
X15520182Y-13503222D01*
X15520182Y-13503222D02*
X15529706Y-13484174D01*
X15529706Y-13484174D02*
X15548753Y-13474650D01*
X15548753Y-13474650D02*
X15577325Y-13474650D01*
X15577325Y-13474650D02*
X15596372Y-13484174D01*
X15672563Y-13684174D02*
X15682087Y-13674650D01*
X15682087Y-13674650D02*
X15701134Y-13646079D01*
X15701134Y-13646079D02*
X15710658Y-13627031D01*
X15710658Y-13627031D02*
X15720182Y-13598460D01*
X15720182Y-13598460D02*
X15729706Y-13550841D01*
X15729706Y-13550841D02*
X15729706Y-13512746D01*
X15729706Y-13512746D02*
X15720182Y-13465127D01*
X15720182Y-13465127D02*
X15710658Y-13436555D01*
X15710658Y-13436555D02*
X15701134Y-13417508D01*
X15701134Y-13417508D02*
X15682087Y-13388936D01*
X15682087Y-13388936D02*
X15672563Y-13379412D01*
D14*
X10777500Y-13720500D02*
X10897500Y-13840500D01*
X10897500Y-13720500D02*
X10777500Y-13840500D01*
X10879927Y-13822927D02*
X10879927Y-13738073D01*
X10795073Y-13738073D01*
X10795073Y-13822927D01*
X10879927Y-13822927D01*
D11*
X11263039Y-13871984D02*
X11148753Y-13871984D01*
X11205896Y-13871984D02*
X11205896Y-13671984D01*
X11205896Y-13671984D02*
X11186848Y-13700555D01*
X11186848Y-13700555D02*
X11167801Y-13719603D01*
X11167801Y-13719603D02*
X11148753Y-13729127D01*
X11348753Y-13852936D02*
X11358277Y-13862460D01*
X11358277Y-13862460D02*
X11348753Y-13871984D01*
X11348753Y-13871984D02*
X11339229Y-13862460D01*
X11339229Y-13862460D02*
X11348753Y-13852936D01*
X11348753Y-13852936D02*
X11348753Y-13871984D01*
X11434467Y-13691031D02*
X11443991Y-13681508D01*
X11443991Y-13681508D02*
X11463039Y-13671984D01*
X11463039Y-13671984D02*
X11510658Y-13671984D01*
X11510658Y-13671984D02*
X11529705Y-13681508D01*
X11529705Y-13681508D02*
X11539229Y-13691031D01*
X11539229Y-13691031D02*
X11548753Y-13710079D01*
X11548753Y-13710079D02*
X11548753Y-13729127D01*
X11548753Y-13729127D02*
X11539229Y-13757698D01*
X11539229Y-13757698D02*
X11424943Y-13871984D01*
X11424943Y-13871984D02*
X11548753Y-13871984D01*
X11672562Y-13671984D02*
X11691610Y-13671984D01*
X11691610Y-13671984D02*
X11710658Y-13681508D01*
X11710658Y-13681508D02*
X11720182Y-13691031D01*
X11720182Y-13691031D02*
X11729705Y-13710079D01*
X11729705Y-13710079D02*
X11739229Y-13748174D01*
X11739229Y-13748174D02*
X11739229Y-13795793D01*
X11739229Y-13795793D02*
X11729705Y-13833888D01*
X11729705Y-13833888D02*
X11720182Y-13852936D01*
X11720182Y-13852936D02*
X11710658Y-13862460D01*
X11710658Y-13862460D02*
X11691610Y-13871984D01*
X11691610Y-13871984D02*
X11672562Y-13871984D01*
X11672562Y-13871984D02*
X11653515Y-13862460D01*
X11653515Y-13862460D02*
X11643991Y-13852936D01*
X11643991Y-13852936D02*
X11634467Y-13833888D01*
X11634467Y-13833888D02*
X11624943Y-13795793D01*
X11624943Y-13795793D02*
X11624943Y-13748174D01*
X11624943Y-13748174D02*
X11634467Y-13710079D01*
X11634467Y-13710079D02*
X11643991Y-13691031D01*
X11643991Y-13691031D02*
X11653515Y-13681508D01*
X11653515Y-13681508D02*
X11672562Y-13671984D01*
X11863039Y-13671984D02*
X11882086Y-13671984D01*
X11882086Y-13671984D02*
X11901134Y-13681508D01*
X11901134Y-13681508D02*
X11910658Y-13691031D01*
X11910658Y-13691031D02*
X11920182Y-13710079D01*
X11920182Y-13710079D02*
X11929705Y-13748174D01*
X11929705Y-13748174D02*
X11929705Y-13795793D01*
X11929705Y-13795793D02*
X11920182Y-13833888D01*
X11920182Y-13833888D02*
X11910658Y-13852936D01*
X11910658Y-13852936D02*
X11901134Y-13862460D01*
X11901134Y-13862460D02*
X11882086Y-13871984D01*
X11882086Y-13871984D02*
X11863039Y-13871984D01*
X11863039Y-13871984D02*
X11843991Y-13862460D01*
X11843991Y-13862460D02*
X11834467Y-13852936D01*
X11834467Y-13852936D02*
X11824943Y-13833888D01*
X11824943Y-13833888D02*
X11815420Y-13795793D01*
X11815420Y-13795793D02*
X11815420Y-13748174D01*
X11815420Y-13748174D02*
X11824943Y-13710079D01*
X11824943Y-13710079D02*
X11834467Y-13691031D01*
X11834467Y-13691031D02*
X11843991Y-13681508D01*
X11843991Y-13681508D02*
X11863039Y-13671984D01*
X12015420Y-13871984D02*
X12015420Y-13738650D01*
X12015420Y-13757698D02*
X12024943Y-13748174D01*
X12024943Y-13748174D02*
X12043991Y-13738650D01*
X12043991Y-13738650D02*
X12072563Y-13738650D01*
X12072563Y-13738650D02*
X12091610Y-13748174D01*
X12091610Y-13748174D02*
X12101134Y-13767222D01*
X12101134Y-13767222D02*
X12101134Y-13871984D01*
X12101134Y-13767222D02*
X12110658Y-13748174D01*
X12110658Y-13748174D02*
X12129705Y-13738650D01*
X12129705Y-13738650D02*
X12158277Y-13738650D01*
X12158277Y-13738650D02*
X12177324Y-13748174D01*
X12177324Y-13748174D02*
X12186848Y-13767222D01*
X12186848Y-13767222D02*
X12186848Y-13871984D01*
X12282086Y-13871984D02*
X12282086Y-13738650D01*
X12282086Y-13757698D02*
X12291610Y-13748174D01*
X12291610Y-13748174D02*
X12310658Y-13738650D01*
X12310658Y-13738650D02*
X12339229Y-13738650D01*
X12339229Y-13738650D02*
X12358277Y-13748174D01*
X12358277Y-13748174D02*
X12367801Y-13767222D01*
X12367801Y-13767222D02*
X12367801Y-13871984D01*
X12367801Y-13767222D02*
X12377324Y-13748174D01*
X12377324Y-13748174D02*
X12396372Y-13738650D01*
X12396372Y-13738650D02*
X12424943Y-13738650D01*
X12424943Y-13738650D02*
X12443991Y-13748174D01*
X12443991Y-13748174D02*
X12453515Y-13767222D01*
X12453515Y-13767222D02*
X12453515Y-13871984D01*
X12843991Y-13662460D02*
X12672563Y-13919603D01*
X13101134Y-13671984D02*
X13120182Y-13671984D01*
X13120182Y-13671984D02*
X13139229Y-13681508D01*
X13139229Y-13681508D02*
X13148753Y-13691031D01*
X13148753Y-13691031D02*
X13158277Y-13710079D01*
X13158277Y-13710079D02*
X13167801Y-13748174D01*
X13167801Y-13748174D02*
X13167801Y-13795793D01*
X13167801Y-13795793D02*
X13158277Y-13833888D01*
X13158277Y-13833888D02*
X13148753Y-13852936D01*
X13148753Y-13852936D02*
X13139229Y-13862460D01*
X13139229Y-13862460D02*
X13120182Y-13871984D01*
X13120182Y-13871984D02*
X13101134Y-13871984D01*
X13101134Y-13871984D02*
X13082086Y-13862460D01*
X13082086Y-13862460D02*
X13072563Y-13852936D01*
X13072563Y-13852936D02*
X13063039Y-13833888D01*
X13063039Y-13833888D02*
X13053515Y-13795793D01*
X13053515Y-13795793D02*
X13053515Y-13748174D01*
X13053515Y-13748174D02*
X13063039Y-13710079D01*
X13063039Y-13710079D02*
X13072563Y-13691031D01*
X13072563Y-13691031D02*
X13082086Y-13681508D01*
X13082086Y-13681508D02*
X13101134Y-13671984D01*
X13253515Y-13852936D02*
X13263039Y-13862460D01*
X13263039Y-13862460D02*
X13253515Y-13871984D01*
X13253515Y-13871984D02*
X13243991Y-13862460D01*
X13243991Y-13862460D02*
X13253515Y-13852936D01*
X13253515Y-13852936D02*
X13253515Y-13871984D01*
X13386848Y-13671984D02*
X13405896Y-13671984D01*
X13405896Y-13671984D02*
X13424944Y-13681508D01*
X13424944Y-13681508D02*
X13434467Y-13691031D01*
X13434467Y-13691031D02*
X13443991Y-13710079D01*
X13443991Y-13710079D02*
X13453515Y-13748174D01*
X13453515Y-13748174D02*
X13453515Y-13795793D01*
X13453515Y-13795793D02*
X13443991Y-13833888D01*
X13443991Y-13833888D02*
X13434467Y-13852936D01*
X13434467Y-13852936D02*
X13424944Y-13862460D01*
X13424944Y-13862460D02*
X13405896Y-13871984D01*
X13405896Y-13871984D02*
X13386848Y-13871984D01*
X13386848Y-13871984D02*
X13367801Y-13862460D01*
X13367801Y-13862460D02*
X13358277Y-13852936D01*
X13358277Y-13852936D02*
X13348753Y-13833888D01*
X13348753Y-13833888D02*
X13339229Y-13795793D01*
X13339229Y-13795793D02*
X13339229Y-13748174D01*
X13339229Y-13748174D02*
X13348753Y-13710079D01*
X13348753Y-13710079D02*
X13358277Y-13691031D01*
X13358277Y-13691031D02*
X13367801Y-13681508D01*
X13367801Y-13681508D02*
X13386848Y-13671984D01*
X13624944Y-13738650D02*
X13624944Y-13871984D01*
X13577325Y-13662460D02*
X13529706Y-13805317D01*
X13529706Y-13805317D02*
X13653515Y-13805317D01*
X13710658Y-13671984D02*
X13843991Y-13671984D01*
X13843991Y-13671984D02*
X13758277Y-13871984D01*
X13910658Y-13691031D02*
X13920182Y-13681508D01*
X13920182Y-13681508D02*
X13939229Y-13671984D01*
X13939229Y-13671984D02*
X13986848Y-13671984D01*
X13986848Y-13671984D02*
X14005896Y-13681508D01*
X14005896Y-13681508D02*
X14015420Y-13691031D01*
X14015420Y-13691031D02*
X14024944Y-13710079D01*
X14024944Y-13710079D02*
X14024944Y-13729127D01*
X14024944Y-13729127D02*
X14015420Y-13757698D01*
X14015420Y-13757698D02*
X13901134Y-13871984D01*
X13901134Y-13871984D02*
X14024944Y-13871984D01*
X14101134Y-13671984D02*
X14101134Y-13710079D01*
X14177325Y-13671984D02*
X14177325Y-13710079D01*
X14472563Y-13948174D02*
X14463039Y-13938650D01*
X14463039Y-13938650D02*
X14443991Y-13910079D01*
X14443991Y-13910079D02*
X14434468Y-13891031D01*
X14434468Y-13891031D02*
X14424944Y-13862460D01*
X14424944Y-13862460D02*
X14415420Y-13814841D01*
X14415420Y-13814841D02*
X14415420Y-13776746D01*
X14415420Y-13776746D02*
X14424944Y-13729127D01*
X14424944Y-13729127D02*
X14434468Y-13700555D01*
X14434468Y-13700555D02*
X14443991Y-13681508D01*
X14443991Y-13681508D02*
X14463039Y-13652936D01*
X14463039Y-13652936D02*
X14472563Y-13643412D01*
X14653515Y-13871984D02*
X14539229Y-13871984D01*
X14596372Y-13871984D02*
X14596372Y-13671984D01*
X14596372Y-13671984D02*
X14577325Y-13700555D01*
X14577325Y-13700555D02*
X14558277Y-13719603D01*
X14558277Y-13719603D02*
X14539229Y-13729127D01*
X14729706Y-13691031D02*
X14739229Y-13681508D01*
X14739229Y-13681508D02*
X14758277Y-13671984D01*
X14758277Y-13671984D02*
X14805896Y-13671984D01*
X14805896Y-13671984D02*
X14824944Y-13681508D01*
X14824944Y-13681508D02*
X14834468Y-13691031D01*
X14834468Y-13691031D02*
X14843991Y-13710079D01*
X14843991Y-13710079D02*
X14843991Y-13729127D01*
X14843991Y-13729127D02*
X14834468Y-13757698D01*
X14834468Y-13757698D02*
X14720182Y-13871984D01*
X14720182Y-13871984D02*
X14843991Y-13871984D01*
X15082087Y-13871984D02*
X15082087Y-13671984D01*
X15167801Y-13871984D02*
X15167801Y-13767222D01*
X15167801Y-13767222D02*
X15158277Y-13748174D01*
X15158277Y-13748174D02*
X15139230Y-13738650D01*
X15139230Y-13738650D02*
X15110658Y-13738650D01*
X15110658Y-13738650D02*
X15091610Y-13748174D01*
X15091610Y-13748174D02*
X15082087Y-13757698D01*
X15291610Y-13871984D02*
X15272563Y-13862460D01*
X15272563Y-13862460D02*
X15263039Y-13852936D01*
X15263039Y-13852936D02*
X15253515Y-13833888D01*
X15253515Y-13833888D02*
X15253515Y-13776746D01*
X15253515Y-13776746D02*
X15263039Y-13757698D01*
X15263039Y-13757698D02*
X15272563Y-13748174D01*
X15272563Y-13748174D02*
X15291610Y-13738650D01*
X15291610Y-13738650D02*
X15320182Y-13738650D01*
X15320182Y-13738650D02*
X15339230Y-13748174D01*
X15339230Y-13748174D02*
X15348753Y-13757698D01*
X15348753Y-13757698D02*
X15358277Y-13776746D01*
X15358277Y-13776746D02*
X15358277Y-13833888D01*
X15358277Y-13833888D02*
X15348753Y-13852936D01*
X15348753Y-13852936D02*
X15339230Y-13862460D01*
X15339230Y-13862460D02*
X15320182Y-13871984D01*
X15320182Y-13871984D02*
X15291610Y-13871984D01*
X15472563Y-13871984D02*
X15453515Y-13862460D01*
X15453515Y-13862460D02*
X15443991Y-13843412D01*
X15443991Y-13843412D02*
X15443991Y-13671984D01*
X15624944Y-13862460D02*
X15605896Y-13871984D01*
X15605896Y-13871984D02*
X15567801Y-13871984D01*
X15567801Y-13871984D02*
X15548753Y-13862460D01*
X15548753Y-13862460D02*
X15539230Y-13843412D01*
X15539230Y-13843412D02*
X15539230Y-13767222D01*
X15539230Y-13767222D02*
X15548753Y-13748174D01*
X15548753Y-13748174D02*
X15567801Y-13738650D01*
X15567801Y-13738650D02*
X15605896Y-13738650D01*
X15605896Y-13738650D02*
X15624944Y-13748174D01*
X15624944Y-13748174D02*
X15634468Y-13767222D01*
X15634468Y-13767222D02*
X15634468Y-13786269D01*
X15634468Y-13786269D02*
X15539230Y-13805317D01*
X15710658Y-13862460D02*
X15729706Y-13871984D01*
X15729706Y-13871984D02*
X15767801Y-13871984D01*
X15767801Y-13871984D02*
X15786849Y-13862460D01*
X15786849Y-13862460D02*
X15796372Y-13843412D01*
X15796372Y-13843412D02*
X15796372Y-13833888D01*
X15796372Y-13833888D02*
X15786849Y-13814841D01*
X15786849Y-13814841D02*
X15767801Y-13805317D01*
X15767801Y-13805317D02*
X15739230Y-13805317D01*
X15739230Y-13805317D02*
X15720182Y-13795793D01*
X15720182Y-13795793D02*
X15710658Y-13776746D01*
X15710658Y-13776746D02*
X15710658Y-13767222D01*
X15710658Y-13767222D02*
X15720182Y-13748174D01*
X15720182Y-13748174D02*
X15739230Y-13738650D01*
X15739230Y-13738650D02*
X15767801Y-13738650D01*
X15767801Y-13738650D02*
X15786849Y-13748174D01*
X15863039Y-13948174D02*
X15872563Y-13938650D01*
X15872563Y-13938650D02*
X15891611Y-13910079D01*
X15891611Y-13910079D02*
X15901134Y-13891031D01*
X15901134Y-13891031D02*
X15910658Y-13862460D01*
X15910658Y-13862460D02*
X15920182Y-13814841D01*
X15920182Y-13814841D02*
X15920182Y-13776746D01*
X15920182Y-13776746D02*
X15910658Y-13729127D01*
X15910658Y-13729127D02*
X15901134Y-13700555D01*
X15901134Y-13700555D02*
X15891611Y-13681508D01*
X15891611Y-13681508D02*
X15872563Y-13652936D01*
X15872563Y-13652936D02*
X15863039Y-13643412D01*
D15*
X10747500Y-13969500D02*
X10897500Y-14119500D01*
X10897500Y-13969500D02*
X10747500Y-14119500D01*
X10822500Y-14119500D02*
X10897500Y-14044500D01*
X10822500Y-13969500D01*
X10747500Y-14044500D01*
X10822500Y-14119500D01*
D11*
X11263039Y-14135984D02*
X11148753Y-14135984D01*
X11205896Y-14135984D02*
X11205896Y-13935984D01*
X11205896Y-13935984D02*
X11186848Y-13964555D01*
X11186848Y-13964555D02*
X11167801Y-13983603D01*
X11167801Y-13983603D02*
X11148753Y-13993127D01*
X11348753Y-14116936D02*
X11358277Y-14126460D01*
X11358277Y-14126460D02*
X11348753Y-14135984D01*
X11348753Y-14135984D02*
X11339229Y-14126460D01*
X11339229Y-14126460D02*
X11348753Y-14116936D01*
X11348753Y-14116936D02*
X11348753Y-14135984D01*
X11539229Y-13935984D02*
X11443991Y-13935984D01*
X11443991Y-13935984D02*
X11434467Y-14031222D01*
X11434467Y-14031222D02*
X11443991Y-14021698D01*
X11443991Y-14021698D02*
X11463039Y-14012174D01*
X11463039Y-14012174D02*
X11510658Y-14012174D01*
X11510658Y-14012174D02*
X11529705Y-14021698D01*
X11529705Y-14021698D02*
X11539229Y-14031222D01*
X11539229Y-14031222D02*
X11548753Y-14050269D01*
X11548753Y-14050269D02*
X11548753Y-14097888D01*
X11548753Y-14097888D02*
X11539229Y-14116936D01*
X11539229Y-14116936D02*
X11529705Y-14126460D01*
X11529705Y-14126460D02*
X11510658Y-14135984D01*
X11510658Y-14135984D02*
X11463039Y-14135984D01*
X11463039Y-14135984D02*
X11443991Y-14126460D01*
X11443991Y-14126460D02*
X11434467Y-14116936D01*
X11672562Y-13935984D02*
X11691610Y-13935984D01*
X11691610Y-13935984D02*
X11710658Y-13945508D01*
X11710658Y-13945508D02*
X11720182Y-13955031D01*
X11720182Y-13955031D02*
X11729705Y-13974079D01*
X11729705Y-13974079D02*
X11739229Y-14012174D01*
X11739229Y-14012174D02*
X11739229Y-14059793D01*
X11739229Y-14059793D02*
X11729705Y-14097888D01*
X11729705Y-14097888D02*
X11720182Y-14116936D01*
X11720182Y-14116936D02*
X11710658Y-14126460D01*
X11710658Y-14126460D02*
X11691610Y-14135984D01*
X11691610Y-14135984D02*
X11672562Y-14135984D01*
X11672562Y-14135984D02*
X11653515Y-14126460D01*
X11653515Y-14126460D02*
X11643991Y-14116936D01*
X11643991Y-14116936D02*
X11634467Y-14097888D01*
X11634467Y-14097888D02*
X11624943Y-14059793D01*
X11624943Y-14059793D02*
X11624943Y-14012174D01*
X11624943Y-14012174D02*
X11634467Y-13974079D01*
X11634467Y-13974079D02*
X11643991Y-13955031D01*
X11643991Y-13955031D02*
X11653515Y-13945508D01*
X11653515Y-13945508D02*
X11672562Y-13935984D01*
X11863039Y-13935984D02*
X11882086Y-13935984D01*
X11882086Y-13935984D02*
X11901134Y-13945508D01*
X11901134Y-13945508D02*
X11910658Y-13955031D01*
X11910658Y-13955031D02*
X11920182Y-13974079D01*
X11920182Y-13974079D02*
X11929705Y-14012174D01*
X11929705Y-14012174D02*
X11929705Y-14059793D01*
X11929705Y-14059793D02*
X11920182Y-14097888D01*
X11920182Y-14097888D02*
X11910658Y-14116936D01*
X11910658Y-14116936D02*
X11901134Y-14126460D01*
X11901134Y-14126460D02*
X11882086Y-14135984D01*
X11882086Y-14135984D02*
X11863039Y-14135984D01*
X11863039Y-14135984D02*
X11843991Y-14126460D01*
X11843991Y-14126460D02*
X11834467Y-14116936D01*
X11834467Y-14116936D02*
X11824943Y-14097888D01*
X11824943Y-14097888D02*
X11815420Y-14059793D01*
X11815420Y-14059793D02*
X11815420Y-14012174D01*
X11815420Y-14012174D02*
X11824943Y-13974079D01*
X11824943Y-13974079D02*
X11834467Y-13955031D01*
X11834467Y-13955031D02*
X11843991Y-13945508D01*
X11843991Y-13945508D02*
X11863039Y-13935984D01*
X12015420Y-14135984D02*
X12015420Y-14002650D01*
X12015420Y-14021698D02*
X12024943Y-14012174D01*
X12024943Y-14012174D02*
X12043991Y-14002650D01*
X12043991Y-14002650D02*
X12072563Y-14002650D01*
X12072563Y-14002650D02*
X12091610Y-14012174D01*
X12091610Y-14012174D02*
X12101134Y-14031222D01*
X12101134Y-14031222D02*
X12101134Y-14135984D01*
X12101134Y-14031222D02*
X12110658Y-14012174D01*
X12110658Y-14012174D02*
X12129705Y-14002650D01*
X12129705Y-14002650D02*
X12158277Y-14002650D01*
X12158277Y-14002650D02*
X12177324Y-14012174D01*
X12177324Y-14012174D02*
X12186848Y-14031222D01*
X12186848Y-14031222D02*
X12186848Y-14135984D01*
X12282086Y-14135984D02*
X12282086Y-14002650D01*
X12282086Y-14021698D02*
X12291610Y-14012174D01*
X12291610Y-14012174D02*
X12310658Y-14002650D01*
X12310658Y-14002650D02*
X12339229Y-14002650D01*
X12339229Y-14002650D02*
X12358277Y-14012174D01*
X12358277Y-14012174D02*
X12367801Y-14031222D01*
X12367801Y-14031222D02*
X12367801Y-14135984D01*
X12367801Y-14031222D02*
X12377324Y-14012174D01*
X12377324Y-14012174D02*
X12396372Y-14002650D01*
X12396372Y-14002650D02*
X12424943Y-14002650D01*
X12424943Y-14002650D02*
X12443991Y-14012174D01*
X12443991Y-14012174D02*
X12453515Y-14031222D01*
X12453515Y-14031222D02*
X12453515Y-14135984D01*
X12843991Y-13926460D02*
X12672563Y-14183603D01*
X13101134Y-13935984D02*
X13120182Y-13935984D01*
X13120182Y-13935984D02*
X13139229Y-13945508D01*
X13139229Y-13945508D02*
X13148753Y-13955031D01*
X13148753Y-13955031D02*
X13158277Y-13974079D01*
X13158277Y-13974079D02*
X13167801Y-14012174D01*
X13167801Y-14012174D02*
X13167801Y-14059793D01*
X13167801Y-14059793D02*
X13158277Y-14097888D01*
X13158277Y-14097888D02*
X13148753Y-14116936D01*
X13148753Y-14116936D02*
X13139229Y-14126460D01*
X13139229Y-14126460D02*
X13120182Y-14135984D01*
X13120182Y-14135984D02*
X13101134Y-14135984D01*
X13101134Y-14135984D02*
X13082086Y-14126460D01*
X13082086Y-14126460D02*
X13072563Y-14116936D01*
X13072563Y-14116936D02*
X13063039Y-14097888D01*
X13063039Y-14097888D02*
X13053515Y-14059793D01*
X13053515Y-14059793D02*
X13053515Y-14012174D01*
X13053515Y-14012174D02*
X13063039Y-13974079D01*
X13063039Y-13974079D02*
X13072563Y-13955031D01*
X13072563Y-13955031D02*
X13082086Y-13945508D01*
X13082086Y-13945508D02*
X13101134Y-13935984D01*
X13253515Y-14116936D02*
X13263039Y-14126460D01*
X13263039Y-14126460D02*
X13253515Y-14135984D01*
X13253515Y-14135984D02*
X13243991Y-14126460D01*
X13243991Y-14126460D02*
X13253515Y-14116936D01*
X13253515Y-14116936D02*
X13253515Y-14135984D01*
X13386848Y-13935984D02*
X13405896Y-13935984D01*
X13405896Y-13935984D02*
X13424944Y-13945508D01*
X13424944Y-13945508D02*
X13434467Y-13955031D01*
X13434467Y-13955031D02*
X13443991Y-13974079D01*
X13443991Y-13974079D02*
X13453515Y-14012174D01*
X13453515Y-14012174D02*
X13453515Y-14059793D01*
X13453515Y-14059793D02*
X13443991Y-14097888D01*
X13443991Y-14097888D02*
X13434467Y-14116936D01*
X13434467Y-14116936D02*
X13424944Y-14126460D01*
X13424944Y-14126460D02*
X13405896Y-14135984D01*
X13405896Y-14135984D02*
X13386848Y-14135984D01*
X13386848Y-14135984D02*
X13367801Y-14126460D01*
X13367801Y-14126460D02*
X13358277Y-14116936D01*
X13358277Y-14116936D02*
X13348753Y-14097888D01*
X13348753Y-14097888D02*
X13339229Y-14059793D01*
X13339229Y-14059793D02*
X13339229Y-14012174D01*
X13339229Y-14012174D02*
X13348753Y-13974079D01*
X13348753Y-13974079D02*
X13358277Y-13955031D01*
X13358277Y-13955031D02*
X13367801Y-13945508D01*
X13367801Y-13945508D02*
X13386848Y-13935984D01*
X13634467Y-13935984D02*
X13539229Y-13935984D01*
X13539229Y-13935984D02*
X13529706Y-14031222D01*
X13529706Y-14031222D02*
X13539229Y-14021698D01*
X13539229Y-14021698D02*
X13558277Y-14012174D01*
X13558277Y-14012174D02*
X13605896Y-14012174D01*
X13605896Y-14012174D02*
X13624944Y-14021698D01*
X13624944Y-14021698D02*
X13634467Y-14031222D01*
X13634467Y-14031222D02*
X13643991Y-14050269D01*
X13643991Y-14050269D02*
X13643991Y-14097888D01*
X13643991Y-14097888D02*
X13634467Y-14116936D01*
X13634467Y-14116936D02*
X13624944Y-14126460D01*
X13624944Y-14126460D02*
X13605896Y-14135984D01*
X13605896Y-14135984D02*
X13558277Y-14135984D01*
X13558277Y-14135984D02*
X13539229Y-14126460D01*
X13539229Y-14126460D02*
X13529706Y-14116936D01*
X13739229Y-14135984D02*
X13777325Y-14135984D01*
X13777325Y-14135984D02*
X13796372Y-14126460D01*
X13796372Y-14126460D02*
X13805896Y-14116936D01*
X13805896Y-14116936D02*
X13824944Y-14088365D01*
X13824944Y-14088365D02*
X13834467Y-14050269D01*
X13834467Y-14050269D02*
X13834467Y-13974079D01*
X13834467Y-13974079D02*
X13824944Y-13955031D01*
X13824944Y-13955031D02*
X13815420Y-13945508D01*
X13815420Y-13945508D02*
X13796372Y-13935984D01*
X13796372Y-13935984D02*
X13758277Y-13935984D01*
X13758277Y-13935984D02*
X13739229Y-13945508D01*
X13739229Y-13945508D02*
X13729706Y-13955031D01*
X13729706Y-13955031D02*
X13720182Y-13974079D01*
X13720182Y-13974079D02*
X13720182Y-14021698D01*
X13720182Y-14021698D02*
X13729706Y-14040746D01*
X13729706Y-14040746D02*
X13739229Y-14050269D01*
X13739229Y-14050269D02*
X13758277Y-14059793D01*
X13758277Y-14059793D02*
X13796372Y-14059793D01*
X13796372Y-14059793D02*
X13815420Y-14050269D01*
X13815420Y-14050269D02*
X13824944Y-14040746D01*
X13824944Y-14040746D02*
X13834467Y-14021698D01*
X14024944Y-14135984D02*
X13910658Y-14135984D01*
X13967801Y-14135984D02*
X13967801Y-13935984D01*
X13967801Y-13935984D02*
X13948753Y-13964555D01*
X13948753Y-13964555D02*
X13929706Y-13983603D01*
X13929706Y-13983603D02*
X13910658Y-13993127D01*
X14101134Y-13935984D02*
X14101134Y-13974079D01*
X14177325Y-13935984D02*
X14177325Y-13974079D01*
X14472563Y-14212174D02*
X14463039Y-14202650D01*
X14463039Y-14202650D02*
X14443991Y-14174079D01*
X14443991Y-14174079D02*
X14434468Y-14155031D01*
X14434468Y-14155031D02*
X14424944Y-14126460D01*
X14424944Y-14126460D02*
X14415420Y-14078841D01*
X14415420Y-14078841D02*
X14415420Y-14040746D01*
X14415420Y-14040746D02*
X14424944Y-13993127D01*
X14424944Y-13993127D02*
X14434468Y-13964555D01*
X14434468Y-13964555D02*
X14443991Y-13945508D01*
X14443991Y-13945508D02*
X14463039Y-13916936D01*
X14463039Y-13916936D02*
X14472563Y-13907412D01*
X14643991Y-13935984D02*
X14548753Y-13935984D01*
X14548753Y-13935984D02*
X14539229Y-14031222D01*
X14539229Y-14031222D02*
X14548753Y-14021698D01*
X14548753Y-14021698D02*
X14567801Y-14012174D01*
X14567801Y-14012174D02*
X14615420Y-14012174D01*
X14615420Y-14012174D02*
X14634468Y-14021698D01*
X14634468Y-14021698D02*
X14643991Y-14031222D01*
X14643991Y-14031222D02*
X14653515Y-14050269D01*
X14653515Y-14050269D02*
X14653515Y-14097888D01*
X14653515Y-14097888D02*
X14643991Y-14116936D01*
X14643991Y-14116936D02*
X14634468Y-14126460D01*
X14634468Y-14126460D02*
X14615420Y-14135984D01*
X14615420Y-14135984D02*
X14567801Y-14135984D01*
X14567801Y-14135984D02*
X14548753Y-14126460D01*
X14548753Y-14126460D02*
X14539229Y-14116936D01*
X14891610Y-14135984D02*
X14891610Y-13935984D01*
X14977325Y-14135984D02*
X14977325Y-14031222D01*
X14977325Y-14031222D02*
X14967801Y-14012174D01*
X14967801Y-14012174D02*
X14948753Y-14002650D01*
X14948753Y-14002650D02*
X14920182Y-14002650D01*
X14920182Y-14002650D02*
X14901134Y-14012174D01*
X14901134Y-14012174D02*
X14891610Y-14021698D01*
X15101134Y-14135984D02*
X15082087Y-14126460D01*
X15082087Y-14126460D02*
X15072563Y-14116936D01*
X15072563Y-14116936D02*
X15063039Y-14097888D01*
X15063039Y-14097888D02*
X15063039Y-14040746D01*
X15063039Y-14040746D02*
X15072563Y-14021698D01*
X15072563Y-14021698D02*
X15082087Y-14012174D01*
X15082087Y-14012174D02*
X15101134Y-14002650D01*
X15101134Y-14002650D02*
X15129706Y-14002650D01*
X15129706Y-14002650D02*
X15148753Y-14012174D01*
X15148753Y-14012174D02*
X15158277Y-14021698D01*
X15158277Y-14021698D02*
X15167801Y-14040746D01*
X15167801Y-14040746D02*
X15167801Y-14097888D01*
X15167801Y-14097888D02*
X15158277Y-14116936D01*
X15158277Y-14116936D02*
X15148753Y-14126460D01*
X15148753Y-14126460D02*
X15129706Y-14135984D01*
X15129706Y-14135984D02*
X15101134Y-14135984D01*
X15282087Y-14135984D02*
X15263039Y-14126460D01*
X15263039Y-14126460D02*
X15253515Y-14107412D01*
X15253515Y-14107412D02*
X15253515Y-13935984D01*
X15434468Y-14126460D02*
X15415420Y-14135984D01*
X15415420Y-14135984D02*
X15377325Y-14135984D01*
X15377325Y-14135984D02*
X15358277Y-14126460D01*
X15358277Y-14126460D02*
X15348753Y-14107412D01*
X15348753Y-14107412D02*
X15348753Y-14031222D01*
X15348753Y-14031222D02*
X15358277Y-14012174D01*
X15358277Y-14012174D02*
X15377325Y-14002650D01*
X15377325Y-14002650D02*
X15415420Y-14002650D01*
X15415420Y-14002650D02*
X15434468Y-14012174D01*
X15434468Y-14012174D02*
X15443991Y-14031222D01*
X15443991Y-14031222D02*
X15443991Y-14050269D01*
X15443991Y-14050269D02*
X15348753Y-14069317D01*
X15520182Y-14126460D02*
X15539230Y-14135984D01*
X15539230Y-14135984D02*
X15577325Y-14135984D01*
X15577325Y-14135984D02*
X15596372Y-14126460D01*
X15596372Y-14126460D02*
X15605896Y-14107412D01*
X15605896Y-14107412D02*
X15605896Y-14097888D01*
X15605896Y-14097888D02*
X15596372Y-14078841D01*
X15596372Y-14078841D02*
X15577325Y-14069317D01*
X15577325Y-14069317D02*
X15548753Y-14069317D01*
X15548753Y-14069317D02*
X15529706Y-14059793D01*
X15529706Y-14059793D02*
X15520182Y-14040746D01*
X15520182Y-14040746D02*
X15520182Y-14031222D01*
X15520182Y-14031222D02*
X15529706Y-14012174D01*
X15529706Y-14012174D02*
X15548753Y-14002650D01*
X15548753Y-14002650D02*
X15577325Y-14002650D01*
X15577325Y-14002650D02*
X15596372Y-14012174D01*
X15672563Y-14212174D02*
X15682087Y-14202650D01*
X15682087Y-14202650D02*
X15701134Y-14174079D01*
X15701134Y-14174079D02*
X15710658Y-14155031D01*
X15710658Y-14155031D02*
X15720182Y-14126460D01*
X15720182Y-14126460D02*
X15729706Y-14078841D01*
X15729706Y-14078841D02*
X15729706Y-14040746D01*
X15729706Y-14040746D02*
X15720182Y-13993127D01*
X15720182Y-13993127D02*
X15710658Y-13964555D01*
X15710658Y-13964555D02*
X15701134Y-13945508D01*
X15701134Y-13945508D02*
X15682087Y-13916936D01*
X15682087Y-13916936D02*
X15672563Y-13907412D01*
M02*
