G04 #@! TF.GenerationSoftware,KiCad,Pcbnew,8.0.0*
G04 #@! TF.CreationDate,2025-01-04T20:09:01+01:00*
G04 #@! TF.ProjectId,inzynierka,696e7a79-6e69-4657-926b-612e6b696361,rev?*
G04 #@! TF.SameCoordinates,Original*
G04 #@! TF.FileFunction,Paste,Bot*
G04 #@! TF.FilePolarity,Positive*
%FSLAX46Y46*%
G04 Gerber Fmt 4.6, Leading zero omitted, Abs format (unit mm)*
G04 Created by KiCad (PCBNEW 8.0.0) date 2025-01-04 20:09:01*
%MOMM*%
%LPD*%
G01*
G04 APERTURE LIST*
G04 Aperture macros list*
%AMRoundRect*
0 Rectangle with rounded corners*
0 $1 Rounding radius*
0 $2 $3 $4 $5 $6 $7 $8 $9 X,Y pos of 4 corners*
0 Add a 4 corners polygon primitive as box body*
4,1,4,$2,$3,$4,$5,$6,$7,$8,$9,$2,$3,0*
0 Add four circle primitives for the rounded corners*
1,1,$1+$1,$2,$3*
1,1,$1+$1,$4,$5*
1,1,$1+$1,$6,$7*
1,1,$1+$1,$8,$9*
0 Add four rect primitives between the rounded corners*
20,1,$1+$1,$2,$3,$4,$5,0*
20,1,$1+$1,$4,$5,$6,$7,0*
20,1,$1+$1,$6,$7,$8,$9,0*
20,1,$1+$1,$8,$9,$2,$3,0*%
G04 Aperture macros list end*
%ADD10RoundRect,0.250000X-0.400000X-0.625000X0.400000X-0.625000X0.400000X0.625000X-0.400000X0.625000X0*%
%ADD11RoundRect,0.250000X-0.412500X-0.650000X0.412500X-0.650000X0.412500X0.650000X-0.412500X0.650000X0*%
%ADD12RoundRect,0.250000X0.400000X0.625000X-0.400000X0.625000X-0.400000X-0.625000X0.400000X-0.625000X0*%
%ADD13RoundRect,0.250000X0.412500X0.650000X-0.412500X0.650000X-0.412500X-0.650000X0.412500X-0.650000X0*%
%ADD14R,1.080000X1.090000*%
%ADD15RoundRect,0.250000X-0.650000X0.412500X-0.650000X-0.412500X0.650000X-0.412500X0.650000X0.412500X0*%
%ADD16RoundRect,0.250000X0.625000X-0.400000X0.625000X0.400000X-0.625000X0.400000X-0.625000X-0.400000X0*%
%ADD17RoundRect,0.150000X0.835000X0.150000X-0.835000X0.150000X-0.835000X-0.150000X0.835000X-0.150000X0*%
%ADD18RoundRect,0.250000X-0.625000X0.400000X-0.625000X-0.400000X0.625000X-0.400000X0.625000X0.400000X0*%
%ADD19RoundRect,0.250000X0.650000X-0.412500X0.650000X0.412500X-0.650000X0.412500X-0.650000X-0.412500X0*%
G04 APERTURE END LIST*
D10*
X154950000Y-85000000D03*
X158050000Y-85000000D03*
D11*
X120737500Y-94900000D03*
X123862500Y-94900000D03*
X112137500Y-100300000D03*
X115262500Y-100300000D03*
D12*
X117650000Y-88160000D03*
X114550000Y-88160000D03*
D13*
X142462500Y-84550000D03*
X139337500Y-84550000D03*
D10*
X154950000Y-88200000D03*
X158050000Y-88200000D03*
D12*
X150550000Y-102200000D03*
X147450000Y-102200000D03*
D11*
X147287500Y-84550000D03*
X150412500Y-84550000D03*
D14*
X123875000Y-100300000D03*
X120725000Y-100300000D03*
D15*
X150200000Y-106537500D03*
X150200000Y-109662500D03*
D10*
X172250000Y-99000000D03*
X175350000Y-99000000D03*
X154950000Y-91400000D03*
X158050000Y-91400000D03*
X168850000Y-105600000D03*
X171950000Y-105600000D03*
X175790000Y-84000000D03*
X178890000Y-84000000D03*
D16*
X151313333Y-97550000D03*
X151313333Y-94450000D03*
D17*
X158685000Y-100640000D03*
X158685000Y-101910000D03*
X158685000Y-103180000D03*
X158685000Y-104450000D03*
X158685000Y-105720000D03*
X158685000Y-106990000D03*
X158685000Y-108260000D03*
X153735000Y-108260000D03*
X153735000Y-106990000D03*
X153735000Y-105720000D03*
X153735000Y-104450000D03*
X153735000Y-103180000D03*
X153735000Y-101910000D03*
X153735000Y-100640000D03*
D15*
X143655000Y-106537500D03*
X143655000Y-109662500D03*
D11*
X124737500Y-104000000D03*
X127862500Y-104000000D03*
D14*
X123452500Y-88160000D03*
X126602500Y-88160000D03*
D10*
X175850000Y-105600000D03*
X178950000Y-105600000D03*
D12*
X175350000Y-109600000D03*
X172250000Y-109600000D03*
D11*
X148137500Y-92000000D03*
X151262500Y-92000000D03*
D18*
X148000000Y-94450000D03*
X148000000Y-97550000D03*
D16*
X137200000Y-109620000D03*
X137200000Y-106520000D03*
D10*
X112150000Y-94900000D03*
X115250000Y-94900000D03*
X168950000Y-84000000D03*
X172050000Y-84000000D03*
D18*
X158000000Y-94450000D03*
X158000000Y-97550000D03*
D15*
X146927500Y-106537500D03*
X146927500Y-109662500D03*
D11*
X124737500Y-109800000D03*
X127862500Y-109800000D03*
D10*
X124750000Y-106900000D03*
X127850000Y-106900000D03*
D18*
X140412500Y-106520000D03*
X140412500Y-109620000D03*
D19*
X154656666Y-97562500D03*
X154656666Y-94437500D03*
M02*
