G04 #@! TF.GenerationSoftware,KiCad,Pcbnew,8.0.0*
G04 #@! TF.CreationDate,2025-01-04T20:08:10+01:00*
G04 #@! TF.ProjectId,inzynierka,696e7a79-6e69-4657-926b-612e6b696361,rev?*
G04 #@! TF.SameCoordinates,Original*
G04 #@! TF.FileFunction,Soldermask,Bot*
G04 #@! TF.FilePolarity,Negative*
%FSLAX46Y46*%
G04 Gerber Fmt 4.6, Leading zero omitted, Abs format (unit mm)*
G04 Created by KiCad (PCBNEW 8.0.0) date 2025-01-04 20:08:10*
%MOMM*%
%LPD*%
G01*
G04 APERTURE LIST*
G04 Aperture macros list*
%AMRoundRect*
0 Rectangle with rounded corners*
0 $1 Rounding radius*
0 $2 $3 $4 $5 $6 $7 $8 $9 X,Y pos of 4 corners*
0 Add a 4 corners polygon primitive as box body*
4,1,4,$2,$3,$4,$5,$6,$7,$8,$9,$2,$3,0*
0 Add four circle primitives for the rounded corners*
1,1,$1+$1,$2,$3*
1,1,$1+$1,$4,$5*
1,1,$1+$1,$6,$7*
1,1,$1+$1,$8,$9*
0 Add four rect primitives between the rounded corners*
20,1,$1+$1,$2,$3,$4,$5,0*
20,1,$1+$1,$4,$5,$6,$7,0*
20,1,$1+$1,$6,$7,$8,$9,0*
20,1,$1+$1,$8,$9,$2,$3,0*%
G04 Aperture macros list end*
%ADD10C,0.001000*%
%ADD11R,2.400000X2.400000*%
%ADD12O,2.400000X2.400000*%
%ADD13R,1.600000X1.600000*%
%ADD14C,1.600000*%
%ADD15R,1.700000X1.700000*%
%ADD16O,1.700000X1.700000*%
%ADD17R,1.050000X1.500000*%
%ADD18O,1.050000X1.500000*%
%ADD19C,2.000000*%
%ADD20C,2.250000*%
%ADD21RoundRect,0.250000X-0.400000X-0.625000X0.400000X-0.625000X0.400000X0.625000X-0.400000X0.625000X0*%
%ADD22RoundRect,0.250000X-0.412500X-0.650000X0.412500X-0.650000X0.412500X0.650000X-0.412500X0.650000X0*%
%ADD23RoundRect,0.250000X0.400000X0.625000X-0.400000X0.625000X-0.400000X-0.625000X0.400000X-0.625000X0*%
%ADD24RoundRect,0.250000X0.412500X0.650000X-0.412500X0.650000X-0.412500X-0.650000X0.412500X-0.650000X0*%
%ADD25RoundRect,0.102000X-0.540000X-0.545000X0.540000X-0.545000X0.540000X0.545000X-0.540000X0.545000X0*%
%ADD26RoundRect,0.250000X-0.650000X0.412500X-0.650000X-0.412500X0.650000X-0.412500X0.650000X0.412500X0*%
%ADD27RoundRect,0.250000X0.625000X-0.400000X0.625000X0.400000X-0.625000X0.400000X-0.625000X-0.400000X0*%
%ADD28RoundRect,0.201000X0.886000X0.201000X-0.886000X0.201000X-0.886000X-0.201000X0.886000X-0.201000X0*%
%ADD29RoundRect,0.102000X0.540000X0.545000X-0.540000X0.545000X-0.540000X-0.545000X0.540000X-0.545000X0*%
%ADD30RoundRect,0.250000X-0.625000X0.400000X-0.625000X-0.400000X0.625000X-0.400000X0.625000X0.400000X0*%
%ADD31RoundRect,0.250000X0.650000X-0.412500X0.650000X0.412500X-0.650000X0.412500X-0.650000X-0.412500X0*%
%ADD32C,0.600000*%
%ADD33C,0.500000*%
G04 APERTURE END LIST*
D10*
X131132800Y-103739500D02*
X131163800Y-103743500D01*
X131195800Y-103748500D01*
X131225800Y-103755500D01*
X131256800Y-103763500D01*
X131286800Y-103773500D01*
X131315800Y-103785500D01*
X131344800Y-103798500D01*
X131372800Y-103812500D01*
X131399800Y-103828500D01*
X131425800Y-103846500D01*
X131451800Y-103865500D01*
X131475800Y-103885500D01*
X131498800Y-103906500D01*
X131520800Y-103928500D01*
X131541800Y-103952500D01*
X131561800Y-103977500D01*
X131579800Y-104002500D01*
X131596800Y-104029500D01*
X131612800Y-104057500D01*
X131626800Y-104085500D01*
X131638800Y-104114500D01*
X131649800Y-104143500D01*
X131659800Y-104173500D01*
X131667800Y-104204500D01*
X131673800Y-104235500D01*
X131678800Y-104266500D01*
X131681800Y-104297500D01*
X131682800Y-104329500D01*
X131682800Y-104357500D01*
X131682800Y-105357500D01*
X131682800Y-105385500D01*
X131681800Y-105417500D01*
X131678800Y-105448500D01*
X131673800Y-105479500D01*
X131667800Y-105510500D01*
X131659800Y-105541500D01*
X131649800Y-105571500D01*
X131638800Y-105600500D01*
X131626800Y-105629500D01*
X131612800Y-105657500D01*
X131596800Y-105685500D01*
X131579800Y-105712500D01*
X131561800Y-105737500D01*
X131541800Y-105762500D01*
X131520800Y-105786500D01*
X131498800Y-105808500D01*
X131475800Y-105829500D01*
X131451800Y-105849500D01*
X131425800Y-105868500D01*
X131399800Y-105886500D01*
X131372800Y-105902500D01*
X131344800Y-105916500D01*
X131315800Y-105929500D01*
X131286800Y-105941500D01*
X131256800Y-105951500D01*
X131225800Y-105959500D01*
X131195800Y-105966500D01*
X131163800Y-105971500D01*
X131132800Y-105975500D01*
X131097800Y-105977500D01*
X131062800Y-105975500D01*
X131031800Y-105971500D01*
X130999800Y-105966500D01*
X130969800Y-105959500D01*
X130938800Y-105951500D01*
X130908800Y-105941500D01*
X130879800Y-105929500D01*
X130850800Y-105916500D01*
X130822800Y-105902500D01*
X130795800Y-105886500D01*
X130769800Y-105868500D01*
X130743800Y-105849500D01*
X130719800Y-105829500D01*
X130696800Y-105808500D01*
X130674800Y-105786500D01*
X130653800Y-105762500D01*
X130633800Y-105737500D01*
X130615800Y-105712500D01*
X130598800Y-105685500D01*
X130582800Y-105657500D01*
X130568800Y-105629500D01*
X130556800Y-105600500D01*
X130545800Y-105571500D01*
X130535800Y-105541500D01*
X130527800Y-105510500D01*
X130521800Y-105479500D01*
X130516800Y-105448500D01*
X130513800Y-105417500D01*
X130512800Y-105385500D01*
X130512800Y-105357500D01*
X130512800Y-104357500D01*
X130512800Y-104329500D01*
X130513800Y-104297500D01*
X130516800Y-104266500D01*
X130521800Y-104235500D01*
X130527800Y-104204500D01*
X130535800Y-104173500D01*
X130545800Y-104143500D01*
X130556800Y-104114500D01*
X130568800Y-104085500D01*
X130582800Y-104057500D01*
X130598800Y-104029500D01*
X130615800Y-104002500D01*
X130633800Y-103977500D01*
X130653800Y-103952500D01*
X130674800Y-103928500D01*
X130696800Y-103906500D01*
X130719800Y-103885500D01*
X130743800Y-103865500D01*
X130769800Y-103846500D01*
X130795800Y-103828500D01*
X130822800Y-103812500D01*
X130850800Y-103798500D01*
X130879800Y-103785500D01*
X130908800Y-103773500D01*
X130938800Y-103763500D01*
X130969800Y-103755500D01*
X130999800Y-103748500D01*
X131031800Y-103743500D01*
X131062800Y-103739500D01*
X131097800Y-103737500D01*
X131132800Y-103739500D01*
G36*
X131132800Y-103739500D02*
G01*
X131163800Y-103743500D01*
X131195800Y-103748500D01*
X131225800Y-103755500D01*
X131256800Y-103763500D01*
X131286800Y-103773500D01*
X131315800Y-103785500D01*
X131344800Y-103798500D01*
X131372800Y-103812500D01*
X131399800Y-103828500D01*
X131425800Y-103846500D01*
X131451800Y-103865500D01*
X131475800Y-103885500D01*
X131498800Y-103906500D01*
X131520800Y-103928500D01*
X131541800Y-103952500D01*
X131561800Y-103977500D01*
X131579800Y-104002500D01*
X131596800Y-104029500D01*
X131612800Y-104057500D01*
X131626800Y-104085500D01*
X131638800Y-104114500D01*
X131649800Y-104143500D01*
X131659800Y-104173500D01*
X131667800Y-104204500D01*
X131673800Y-104235500D01*
X131678800Y-104266500D01*
X131681800Y-104297500D01*
X131682800Y-104329500D01*
X131682800Y-104357500D01*
X131682800Y-105357500D01*
X131682800Y-105385500D01*
X131681800Y-105417500D01*
X131678800Y-105448500D01*
X131673800Y-105479500D01*
X131667800Y-105510500D01*
X131659800Y-105541500D01*
X131649800Y-105571500D01*
X131638800Y-105600500D01*
X131626800Y-105629500D01*
X131612800Y-105657500D01*
X131596800Y-105685500D01*
X131579800Y-105712500D01*
X131561800Y-105737500D01*
X131541800Y-105762500D01*
X131520800Y-105786500D01*
X131498800Y-105808500D01*
X131475800Y-105829500D01*
X131451800Y-105849500D01*
X131425800Y-105868500D01*
X131399800Y-105886500D01*
X131372800Y-105902500D01*
X131344800Y-105916500D01*
X131315800Y-105929500D01*
X131286800Y-105941500D01*
X131256800Y-105951500D01*
X131225800Y-105959500D01*
X131195800Y-105966500D01*
X131163800Y-105971500D01*
X131132800Y-105975500D01*
X131097800Y-105977500D01*
X131062800Y-105975500D01*
X131031800Y-105971500D01*
X130999800Y-105966500D01*
X130969800Y-105959500D01*
X130938800Y-105951500D01*
X130908800Y-105941500D01*
X130879800Y-105929500D01*
X130850800Y-105916500D01*
X130822800Y-105902500D01*
X130795800Y-105886500D01*
X130769800Y-105868500D01*
X130743800Y-105849500D01*
X130719800Y-105829500D01*
X130696800Y-105808500D01*
X130674800Y-105786500D01*
X130653800Y-105762500D01*
X130633800Y-105737500D01*
X130615800Y-105712500D01*
X130598800Y-105685500D01*
X130582800Y-105657500D01*
X130568800Y-105629500D01*
X130556800Y-105600500D01*
X130545800Y-105571500D01*
X130535800Y-105541500D01*
X130527800Y-105510500D01*
X130521800Y-105479500D01*
X130516800Y-105448500D01*
X130513800Y-105417500D01*
X130512800Y-105385500D01*
X130512800Y-105357500D01*
X130512800Y-104357500D01*
X130512800Y-104329500D01*
X130513800Y-104297500D01*
X130516800Y-104266500D01*
X130521800Y-104235500D01*
X130527800Y-104204500D01*
X130535800Y-104173500D01*
X130545800Y-104143500D01*
X130556800Y-104114500D01*
X130568800Y-104085500D01*
X130582800Y-104057500D01*
X130598800Y-104029500D01*
X130615800Y-104002500D01*
X130633800Y-103977500D01*
X130653800Y-103952500D01*
X130674800Y-103928500D01*
X130696800Y-103906500D01*
X130719800Y-103885500D01*
X130743800Y-103865500D01*
X130769800Y-103846500D01*
X130795800Y-103828500D01*
X130822800Y-103812500D01*
X130850800Y-103798500D01*
X130879800Y-103785500D01*
X130908800Y-103773500D01*
X130938800Y-103763500D01*
X130969800Y-103755500D01*
X130999800Y-103748500D01*
X131031800Y-103743500D01*
X131062800Y-103739500D01*
X131097800Y-103737500D01*
X131132800Y-103739500D01*
G37*
X132402800Y-103739500D02*
X132433800Y-103743500D01*
X132465800Y-103748500D01*
X132495800Y-103755500D01*
X132526800Y-103763500D01*
X132556800Y-103773500D01*
X132585800Y-103785500D01*
X132614800Y-103798500D01*
X132642800Y-103812500D01*
X132669800Y-103828500D01*
X132695800Y-103846500D01*
X132721800Y-103865500D01*
X132745800Y-103885500D01*
X132768800Y-103906500D01*
X132790800Y-103928500D01*
X132811800Y-103952500D01*
X132831800Y-103977500D01*
X132849800Y-104002500D01*
X132866800Y-104029500D01*
X132882800Y-104057500D01*
X132896800Y-104085500D01*
X132908800Y-104114500D01*
X132919800Y-104143500D01*
X132929800Y-104173500D01*
X132937800Y-104204500D01*
X132943800Y-104235500D01*
X132948800Y-104266500D01*
X132951800Y-104297500D01*
X132952800Y-104329500D01*
X132952800Y-104357500D01*
X132952800Y-105357500D01*
X132952800Y-105385500D01*
X132951800Y-105417500D01*
X132948800Y-105448500D01*
X132943800Y-105479500D01*
X132937800Y-105510500D01*
X132929800Y-105541500D01*
X132919800Y-105571500D01*
X132908800Y-105600500D01*
X132896800Y-105629500D01*
X132882800Y-105657500D01*
X132866800Y-105685500D01*
X132849800Y-105712500D01*
X132831800Y-105737500D01*
X132811800Y-105762500D01*
X132790800Y-105786500D01*
X132768800Y-105808500D01*
X132745800Y-105829500D01*
X132721800Y-105849500D01*
X132695800Y-105868500D01*
X132669800Y-105886500D01*
X132642800Y-105902500D01*
X132614800Y-105916500D01*
X132585800Y-105929500D01*
X132556800Y-105941500D01*
X132526800Y-105951500D01*
X132495800Y-105959500D01*
X132465800Y-105966500D01*
X132433800Y-105971500D01*
X132402800Y-105975500D01*
X132367800Y-105977500D01*
X132332800Y-105975500D01*
X132301800Y-105971500D01*
X132269800Y-105966500D01*
X132239800Y-105959500D01*
X132208800Y-105951500D01*
X132178800Y-105941500D01*
X132149800Y-105929500D01*
X132120800Y-105916500D01*
X132092800Y-105902500D01*
X132065800Y-105886500D01*
X132039800Y-105868500D01*
X132013800Y-105849500D01*
X131989800Y-105829500D01*
X131966800Y-105808500D01*
X131944800Y-105786500D01*
X131923800Y-105762500D01*
X131903800Y-105737500D01*
X131885800Y-105712500D01*
X131868800Y-105685500D01*
X131852800Y-105657500D01*
X131838800Y-105629500D01*
X131826800Y-105600500D01*
X131815800Y-105571500D01*
X131805800Y-105541500D01*
X131797800Y-105510500D01*
X131791800Y-105479500D01*
X131786800Y-105448500D01*
X131783800Y-105417500D01*
X131782800Y-105385500D01*
X131782800Y-105357500D01*
X131782800Y-104357500D01*
X131782800Y-104329500D01*
X131783800Y-104297500D01*
X131786800Y-104266500D01*
X131791800Y-104235500D01*
X131797800Y-104204500D01*
X131805800Y-104173500D01*
X131815800Y-104143500D01*
X131826800Y-104114500D01*
X131838800Y-104085500D01*
X131852800Y-104057500D01*
X131868800Y-104029500D01*
X131885800Y-104002500D01*
X131903800Y-103977500D01*
X131923800Y-103952500D01*
X131944800Y-103928500D01*
X131966800Y-103906500D01*
X131989800Y-103885500D01*
X132013800Y-103865500D01*
X132039800Y-103846500D01*
X132065800Y-103828500D01*
X132092800Y-103812500D01*
X132120800Y-103798500D01*
X132149800Y-103785500D01*
X132178800Y-103773500D01*
X132208800Y-103763500D01*
X132239800Y-103755500D01*
X132269800Y-103748500D01*
X132301800Y-103743500D01*
X132332800Y-103739500D01*
X132367800Y-103737500D01*
X132402800Y-103739500D01*
G36*
X132402800Y-103739500D02*
G01*
X132433800Y-103743500D01*
X132465800Y-103748500D01*
X132495800Y-103755500D01*
X132526800Y-103763500D01*
X132556800Y-103773500D01*
X132585800Y-103785500D01*
X132614800Y-103798500D01*
X132642800Y-103812500D01*
X132669800Y-103828500D01*
X132695800Y-103846500D01*
X132721800Y-103865500D01*
X132745800Y-103885500D01*
X132768800Y-103906500D01*
X132790800Y-103928500D01*
X132811800Y-103952500D01*
X132831800Y-103977500D01*
X132849800Y-104002500D01*
X132866800Y-104029500D01*
X132882800Y-104057500D01*
X132896800Y-104085500D01*
X132908800Y-104114500D01*
X132919800Y-104143500D01*
X132929800Y-104173500D01*
X132937800Y-104204500D01*
X132943800Y-104235500D01*
X132948800Y-104266500D01*
X132951800Y-104297500D01*
X132952800Y-104329500D01*
X132952800Y-104357500D01*
X132952800Y-105357500D01*
X132952800Y-105385500D01*
X132951800Y-105417500D01*
X132948800Y-105448500D01*
X132943800Y-105479500D01*
X132937800Y-105510500D01*
X132929800Y-105541500D01*
X132919800Y-105571500D01*
X132908800Y-105600500D01*
X132896800Y-105629500D01*
X132882800Y-105657500D01*
X132866800Y-105685500D01*
X132849800Y-105712500D01*
X132831800Y-105737500D01*
X132811800Y-105762500D01*
X132790800Y-105786500D01*
X132768800Y-105808500D01*
X132745800Y-105829500D01*
X132721800Y-105849500D01*
X132695800Y-105868500D01*
X132669800Y-105886500D01*
X132642800Y-105902500D01*
X132614800Y-105916500D01*
X132585800Y-105929500D01*
X132556800Y-105941500D01*
X132526800Y-105951500D01*
X132495800Y-105959500D01*
X132465800Y-105966500D01*
X132433800Y-105971500D01*
X132402800Y-105975500D01*
X132367800Y-105977500D01*
X132332800Y-105975500D01*
X132301800Y-105971500D01*
X132269800Y-105966500D01*
X132239800Y-105959500D01*
X132208800Y-105951500D01*
X132178800Y-105941500D01*
X132149800Y-105929500D01*
X132120800Y-105916500D01*
X132092800Y-105902500D01*
X132065800Y-105886500D01*
X132039800Y-105868500D01*
X132013800Y-105849500D01*
X131989800Y-105829500D01*
X131966800Y-105808500D01*
X131944800Y-105786500D01*
X131923800Y-105762500D01*
X131903800Y-105737500D01*
X131885800Y-105712500D01*
X131868800Y-105685500D01*
X131852800Y-105657500D01*
X131838800Y-105629500D01*
X131826800Y-105600500D01*
X131815800Y-105571500D01*
X131805800Y-105541500D01*
X131797800Y-105510500D01*
X131791800Y-105479500D01*
X131786800Y-105448500D01*
X131783800Y-105417500D01*
X131782800Y-105385500D01*
X131782800Y-105357500D01*
X131782800Y-104357500D01*
X131782800Y-104329500D01*
X131783800Y-104297500D01*
X131786800Y-104266500D01*
X131791800Y-104235500D01*
X131797800Y-104204500D01*
X131805800Y-104173500D01*
X131815800Y-104143500D01*
X131826800Y-104114500D01*
X131838800Y-104085500D01*
X131852800Y-104057500D01*
X131868800Y-104029500D01*
X131885800Y-104002500D01*
X131903800Y-103977500D01*
X131923800Y-103952500D01*
X131944800Y-103928500D01*
X131966800Y-103906500D01*
X131989800Y-103885500D01*
X132013800Y-103865500D01*
X132039800Y-103846500D01*
X132065800Y-103828500D01*
X132092800Y-103812500D01*
X132120800Y-103798500D01*
X132149800Y-103785500D01*
X132178800Y-103773500D01*
X132208800Y-103763500D01*
X132239800Y-103755500D01*
X132269800Y-103748500D01*
X132301800Y-103743500D01*
X132332800Y-103739500D01*
X132367800Y-103737500D01*
X132402800Y-103739500D01*
G37*
X133672800Y-103739500D02*
X133703800Y-103743500D01*
X133735800Y-103748500D01*
X133765800Y-103755500D01*
X133796800Y-103763500D01*
X133826800Y-103773500D01*
X133855800Y-103785500D01*
X133884800Y-103798500D01*
X133912800Y-103812500D01*
X133939800Y-103828500D01*
X133965800Y-103846500D01*
X133991800Y-103865500D01*
X134015800Y-103885500D01*
X134038800Y-103906500D01*
X134060800Y-103928500D01*
X134081800Y-103952500D01*
X134101800Y-103977500D01*
X134119800Y-104002500D01*
X134136800Y-104029500D01*
X134152800Y-104057500D01*
X134166800Y-104085500D01*
X134178800Y-104114500D01*
X134189800Y-104143500D01*
X134199800Y-104173500D01*
X134207800Y-104204500D01*
X134213800Y-104235500D01*
X134218800Y-104266500D01*
X134221800Y-104297500D01*
X134222800Y-104329500D01*
X134222800Y-104357500D01*
X134222800Y-105357500D01*
X134222800Y-105385500D01*
X134221800Y-105417500D01*
X134218800Y-105448500D01*
X134213800Y-105479500D01*
X134207800Y-105510500D01*
X134199800Y-105541500D01*
X134189800Y-105571500D01*
X134178800Y-105600500D01*
X134166800Y-105629500D01*
X134152800Y-105657500D01*
X134136800Y-105685500D01*
X134119800Y-105712500D01*
X134101800Y-105737500D01*
X134081800Y-105762500D01*
X134060800Y-105786500D01*
X134038800Y-105808500D01*
X134015800Y-105829500D01*
X133991800Y-105849500D01*
X133965800Y-105868500D01*
X133939800Y-105886500D01*
X133912800Y-105902500D01*
X133884800Y-105916500D01*
X133855800Y-105929500D01*
X133826800Y-105941500D01*
X133796800Y-105951500D01*
X133765800Y-105959500D01*
X133735800Y-105966500D01*
X133703800Y-105971500D01*
X133672800Y-105975500D01*
X133637800Y-105977500D01*
X133602800Y-105975500D01*
X133571800Y-105971500D01*
X133539800Y-105966500D01*
X133509800Y-105959500D01*
X133478800Y-105951500D01*
X133448800Y-105941500D01*
X133419800Y-105929500D01*
X133390800Y-105916500D01*
X133362800Y-105902500D01*
X133335800Y-105886500D01*
X133309800Y-105868500D01*
X133283800Y-105849500D01*
X133259800Y-105829500D01*
X133236800Y-105808500D01*
X133214800Y-105786500D01*
X133193800Y-105762500D01*
X133173800Y-105737500D01*
X133155800Y-105712500D01*
X133138800Y-105685500D01*
X133122800Y-105657500D01*
X133108800Y-105629500D01*
X133096800Y-105600500D01*
X133085800Y-105571500D01*
X133075800Y-105541500D01*
X133067800Y-105510500D01*
X133061800Y-105479500D01*
X133056800Y-105448500D01*
X133053800Y-105417500D01*
X133052800Y-105385500D01*
X133052800Y-105357500D01*
X133052800Y-104357500D01*
X133052800Y-104329500D01*
X133053800Y-104297500D01*
X133056800Y-104266500D01*
X133061800Y-104235500D01*
X133067800Y-104204500D01*
X133075800Y-104173500D01*
X133085800Y-104143500D01*
X133096800Y-104114500D01*
X133108800Y-104085500D01*
X133122800Y-104057500D01*
X133138800Y-104029500D01*
X133155800Y-104002500D01*
X133173800Y-103977500D01*
X133193800Y-103952500D01*
X133214800Y-103928500D01*
X133236800Y-103906500D01*
X133259800Y-103885500D01*
X133283800Y-103865500D01*
X133309800Y-103846500D01*
X133335800Y-103828500D01*
X133362800Y-103812500D01*
X133390800Y-103798500D01*
X133419800Y-103785500D01*
X133448800Y-103773500D01*
X133478800Y-103763500D01*
X133509800Y-103755500D01*
X133539800Y-103748500D01*
X133571800Y-103743500D01*
X133602800Y-103739500D01*
X133637800Y-103737500D01*
X133672800Y-103739500D01*
G36*
X133672800Y-103739500D02*
G01*
X133703800Y-103743500D01*
X133735800Y-103748500D01*
X133765800Y-103755500D01*
X133796800Y-103763500D01*
X133826800Y-103773500D01*
X133855800Y-103785500D01*
X133884800Y-103798500D01*
X133912800Y-103812500D01*
X133939800Y-103828500D01*
X133965800Y-103846500D01*
X133991800Y-103865500D01*
X134015800Y-103885500D01*
X134038800Y-103906500D01*
X134060800Y-103928500D01*
X134081800Y-103952500D01*
X134101800Y-103977500D01*
X134119800Y-104002500D01*
X134136800Y-104029500D01*
X134152800Y-104057500D01*
X134166800Y-104085500D01*
X134178800Y-104114500D01*
X134189800Y-104143500D01*
X134199800Y-104173500D01*
X134207800Y-104204500D01*
X134213800Y-104235500D01*
X134218800Y-104266500D01*
X134221800Y-104297500D01*
X134222800Y-104329500D01*
X134222800Y-104357500D01*
X134222800Y-105357500D01*
X134222800Y-105385500D01*
X134221800Y-105417500D01*
X134218800Y-105448500D01*
X134213800Y-105479500D01*
X134207800Y-105510500D01*
X134199800Y-105541500D01*
X134189800Y-105571500D01*
X134178800Y-105600500D01*
X134166800Y-105629500D01*
X134152800Y-105657500D01*
X134136800Y-105685500D01*
X134119800Y-105712500D01*
X134101800Y-105737500D01*
X134081800Y-105762500D01*
X134060800Y-105786500D01*
X134038800Y-105808500D01*
X134015800Y-105829500D01*
X133991800Y-105849500D01*
X133965800Y-105868500D01*
X133939800Y-105886500D01*
X133912800Y-105902500D01*
X133884800Y-105916500D01*
X133855800Y-105929500D01*
X133826800Y-105941500D01*
X133796800Y-105951500D01*
X133765800Y-105959500D01*
X133735800Y-105966500D01*
X133703800Y-105971500D01*
X133672800Y-105975500D01*
X133637800Y-105977500D01*
X133602800Y-105975500D01*
X133571800Y-105971500D01*
X133539800Y-105966500D01*
X133509800Y-105959500D01*
X133478800Y-105951500D01*
X133448800Y-105941500D01*
X133419800Y-105929500D01*
X133390800Y-105916500D01*
X133362800Y-105902500D01*
X133335800Y-105886500D01*
X133309800Y-105868500D01*
X133283800Y-105849500D01*
X133259800Y-105829500D01*
X133236800Y-105808500D01*
X133214800Y-105786500D01*
X133193800Y-105762500D01*
X133173800Y-105737500D01*
X133155800Y-105712500D01*
X133138800Y-105685500D01*
X133122800Y-105657500D01*
X133108800Y-105629500D01*
X133096800Y-105600500D01*
X133085800Y-105571500D01*
X133075800Y-105541500D01*
X133067800Y-105510500D01*
X133061800Y-105479500D01*
X133056800Y-105448500D01*
X133053800Y-105417500D01*
X133052800Y-105385500D01*
X133052800Y-105357500D01*
X133052800Y-104357500D01*
X133052800Y-104329500D01*
X133053800Y-104297500D01*
X133056800Y-104266500D01*
X133061800Y-104235500D01*
X133067800Y-104204500D01*
X133075800Y-104173500D01*
X133085800Y-104143500D01*
X133096800Y-104114500D01*
X133108800Y-104085500D01*
X133122800Y-104057500D01*
X133138800Y-104029500D01*
X133155800Y-104002500D01*
X133173800Y-103977500D01*
X133193800Y-103952500D01*
X133214800Y-103928500D01*
X133236800Y-103906500D01*
X133259800Y-103885500D01*
X133283800Y-103865500D01*
X133309800Y-103846500D01*
X133335800Y-103828500D01*
X133362800Y-103812500D01*
X133390800Y-103798500D01*
X133419800Y-103785500D01*
X133448800Y-103773500D01*
X133478800Y-103763500D01*
X133509800Y-103755500D01*
X133539800Y-103748500D01*
X133571800Y-103743500D01*
X133602800Y-103739500D01*
X133637800Y-103737500D01*
X133672800Y-103739500D01*
G37*
D11*
X138250000Y-92900000D03*
D12*
X143330000Y-92900000D03*
D13*
X146400000Y-81780000D03*
D14*
X151400000Y-81780000D03*
D11*
X134350000Y-85770000D03*
D12*
X134350000Y-90850000D03*
D15*
X121600000Y-106525000D03*
D16*
X121600000Y-109065000D03*
D17*
X154330000Y-81200000D03*
D18*
X155600000Y-81200000D03*
X156870000Y-81200000D03*
D13*
X116200000Y-97600000D03*
D14*
X111200000Y-97600000D03*
D17*
X165000000Y-108800000D03*
D18*
X163730000Y-108800000D03*
X162460000Y-108800000D03*
D13*
X143200000Y-81780000D03*
D14*
X138200000Y-81780000D03*
D19*
X129230000Y-91750000D03*
X121610000Y-91750000D03*
X116530000Y-91750000D03*
X111450000Y-91750000D03*
X129230000Y-84130000D03*
X121610000Y-84130000D03*
X116530000Y-84130000D03*
X111450000Y-84130000D03*
D15*
X112040000Y-80100000D03*
D16*
X114580000Y-80100000D03*
X117120000Y-80100000D03*
X119660000Y-80100000D03*
X122200000Y-80100000D03*
X124740000Y-80100000D03*
X127280000Y-80100000D03*
X129820000Y-80100000D03*
X132360000Y-80100000D03*
X134900000Y-80100000D03*
D11*
X143300000Y-96860000D03*
D12*
X143300000Y-101940000D03*
D11*
X134150000Y-95940000D03*
D12*
X129070000Y-95940000D03*
D17*
X147680000Y-88500000D03*
D18*
X148950000Y-88500000D03*
X150220000Y-88500000D03*
D11*
X138800000Y-96860000D03*
D12*
X138800000Y-101940000D03*
D17*
X162530000Y-94360000D03*
D18*
X163800000Y-94360000D03*
X165070000Y-94360000D03*
D17*
X162530000Y-89560000D03*
D18*
X163800000Y-89560000D03*
X165070000Y-89560000D03*
D20*
X113640000Y-108280000D03*
X111100000Y-110820000D03*
X116180000Y-110820000D03*
X111100000Y-105740000D03*
X116180000Y-105740000D03*
D11*
X128480000Y-100340000D03*
D12*
X133560000Y-100340000D03*
D17*
X162460000Y-104700000D03*
D18*
X163730000Y-104700000D03*
X165000000Y-104700000D03*
D17*
X162500000Y-84700000D03*
D18*
X163770000Y-84700000D03*
X165040000Y-84700000D03*
D17*
X162500000Y-99200000D03*
D18*
X163770000Y-99200000D03*
X165040000Y-99200000D03*
D15*
X160300000Y-80100000D03*
D16*
X162840000Y-80100000D03*
X165380000Y-80100000D03*
X167920000Y-80100000D03*
X170460000Y-80100000D03*
X173000000Y-80100000D03*
X175540000Y-80100000D03*
X178080000Y-80100000D03*
D13*
X120000000Y-97600000D03*
D14*
X125000000Y-97600000D03*
D17*
X142300000Y-87800000D03*
D18*
X141030000Y-87800000D03*
X139760000Y-87800000D03*
D14*
X178900000Y-88500000D03*
X176360000Y-88500000D03*
X173820000Y-88500000D03*
X171280000Y-88500000D03*
X168740000Y-88500000D03*
X176360000Y-102500000D03*
X173820000Y-102500000D03*
X171280000Y-102500000D03*
D21*
X154950000Y-85000000D03*
X158050000Y-85000000D03*
D22*
X120737500Y-94900000D03*
X123862500Y-94900000D03*
X112137500Y-100300000D03*
X115262500Y-100300000D03*
D23*
X117650000Y-88160000D03*
X114550000Y-88160000D03*
D24*
X142462500Y-84550000D03*
X139337500Y-84550000D03*
D21*
X154950000Y-88200000D03*
X158050000Y-88200000D03*
D23*
X150550000Y-102200000D03*
X147450000Y-102200000D03*
D22*
X147287500Y-84550000D03*
X150412500Y-84550000D03*
D25*
X123875000Y-100300000D03*
X120725000Y-100300000D03*
D26*
X150200000Y-106537500D03*
X150200000Y-109662500D03*
D21*
X172250000Y-99000000D03*
X175350000Y-99000000D03*
X154950000Y-91400000D03*
X158050000Y-91400000D03*
X168850000Y-105600000D03*
X171950000Y-105600000D03*
X175790000Y-84000000D03*
X178890000Y-84000000D03*
D27*
X151313333Y-97550000D03*
X151313333Y-94450000D03*
D28*
X158685000Y-100640000D03*
X158685000Y-101910000D03*
X158685000Y-103180000D03*
X158685000Y-104450000D03*
X158685000Y-105720000D03*
X158685000Y-106990000D03*
X158685000Y-108260000D03*
X153735000Y-108260000D03*
X153735000Y-106990000D03*
X153735000Y-105720000D03*
X153735000Y-104450000D03*
X153735000Y-103180000D03*
X153735000Y-101910000D03*
X153735000Y-100640000D03*
D26*
X143655000Y-106537500D03*
X143655000Y-109662500D03*
D22*
X124737500Y-104000000D03*
X127862500Y-104000000D03*
D29*
X123452500Y-88160000D03*
X126602500Y-88160000D03*
D21*
X175850000Y-105600000D03*
X178950000Y-105600000D03*
D23*
X175350000Y-109600000D03*
X172250000Y-109600000D03*
D22*
X148137500Y-92000000D03*
X151262500Y-92000000D03*
D30*
X148000000Y-94450000D03*
X148000000Y-97550000D03*
D27*
X137200000Y-109620000D03*
X137200000Y-106520000D03*
D21*
X112150000Y-94900000D03*
X115250000Y-94900000D03*
X168950000Y-84000000D03*
X172050000Y-84000000D03*
D30*
X158000000Y-94450000D03*
X158000000Y-97550000D03*
D26*
X146927500Y-106537500D03*
X146927500Y-109662500D03*
D22*
X124737500Y-109800000D03*
X127862500Y-109800000D03*
D21*
X124750000Y-106900000D03*
X127850000Y-106900000D03*
D30*
X140412500Y-106520000D03*
X140412500Y-109620000D03*
D31*
X154656666Y-97562500D03*
X154656666Y-94437500D03*
D32*
X149700000Y-94450000D03*
X150600000Y-100400000D03*
X118500000Y-101900000D03*
X168600000Y-102200000D03*
X119580000Y-91360000D03*
D33*
X136170000Y-94950000D03*
D32*
X123100000Y-111800000D03*
X159730000Y-90400000D03*
X125460000Y-91570000D03*
X140780000Y-82330000D03*
X160780000Y-110360000D03*
X170400000Y-108400000D03*
X118440000Y-104960000D03*
X145700000Y-99000000D03*
X136800000Y-104600000D03*
D33*
X136840000Y-85990000D03*
D32*
X145000000Y-84400000D03*
X110800000Y-89200000D03*
X179890000Y-82430000D03*
X178770000Y-110190000D03*
X154740000Y-79430000D03*
X116400000Y-82400000D03*
D33*
X178900000Y-92350000D03*
X136740000Y-82370000D03*
D32*
X144630000Y-89930000D03*
X128180000Y-89080000D03*
X117800000Y-95100000D03*
X131610000Y-96990000D03*
X132300000Y-110400000D03*
D33*
X137050000Y-78860000D03*
D32*
X171510000Y-90920000D03*
X132200000Y-87800000D03*
X110030000Y-103040000D03*
X137070000Y-90320000D03*
X112790000Y-86020000D03*
X178250000Y-96250000D03*
X174370000Y-91040000D03*
X168420000Y-90630000D03*
X175800000Y-107800000D03*
D33*
X170560000Y-97360000D03*
D32*
X122600000Y-97600000D03*
X119160000Y-107420000D03*
X152580000Y-86550000D03*
X132400000Y-107470000D03*
X109960000Y-82110000D03*
X124010000Y-83700000D03*
X139530000Y-79600000D03*
X152930000Y-79800000D03*
X146380000Y-80120000D03*
X133750000Y-83190000D03*
X140870000Y-80580000D03*
X152000000Y-106390000D03*
X148150000Y-104450000D03*
X155200000Y-107000000D03*
X152100000Y-108200000D03*
X159400000Y-97600000D03*
X155200000Y-103200000D03*
X167150000Y-83260000D03*
M02*
