M48
; DRILL file {KiCad 8.0.0} date 2025-01-04T20:08:20+0100
; FORMAT={-:-/ absolute / metric / decimal}
; #@! TF.CreationDate,2025-01-04T20:08:20+01:00
; #@! TF.GenerationSoftware,Kicad,Pcbnew,8.0.0
; #@! TF.FileFunction,Plated,1,2,PTH
FMAT,2
METRIC
; #@! TA.AperFunction,Plated,PTH,ViaDrill
T1C0.300
; #@! TA.AperFunction,Plated,PTH,ComponentDrill
T2C0.750
; #@! TA.AperFunction,Plated,PTH,ComponentDrill
T3C0.800
; #@! TA.AperFunction,Plated,PTH,ComponentDrill
T4C0.850
; #@! TA.AperFunction,Plated,PTH,ComponentDrill
T5C0.900
; #@! TA.AperFunction,Plated,PTH,ComponentDrill
T6C1.000
; #@! TA.AperFunction,Plated,PTH,ComponentDrill
T7C1.100
; #@! TA.AperFunction,Plated,PTH,ComponentDrill
T8C1.200
; #@! TA.AperFunction,Plated,PTH,ComponentDrill
T9C1.500
%
G90
G05
T1
X109.96Y-82.11
X110.03Y-103.04
X110.8Y-89.2
X112.79Y-86.02
X116.4Y-82.4
X117.8Y-95.1
X118.44Y-104.96
X118.5Y-101.9
X119.16Y-107.42
X119.58Y-91.36
X122.6Y-97.6
X123.1Y-111.8
X124.01Y-83.7
X125.46Y-91.57
X128.18Y-89.08
X131.61Y-96.99
X132.2Y-87.8
X132.3Y-110.4
X132.4Y-107.47
X133.75Y-83.19
X136.17Y-94.95
X136.74Y-82.37
X136.8Y-104.6
X136.84Y-85.99
X137.05Y-78.86
X137.07Y-90.32
X139.53Y-79.6
X140.78Y-82.33
X140.87Y-80.58
X144.63Y-89.93
X145.0Y-84.4
X145.7Y-99.0
X146.38Y-80.12
X148.15Y-104.45
X149.7Y-94.45
X150.6Y-100.4
X152.0Y-106.39
X152.1Y-108.2
X152.58Y-86.55
X152.93Y-79.8
X154.74Y-79.43
X155.2Y-103.2
X155.2Y-107.0
X159.4Y-97.6
X159.73Y-90.4
X160.78Y-110.36
X167.15Y-83.26
X168.42Y-90.63
X168.6Y-102.2
X170.4Y-108.4
X170.56Y-97.36
X171.51Y-90.92
X174.37Y-91.04
X175.8Y-107.8
X178.25Y-96.25
X178.77Y-110.19
X178.9Y-92.35
X179.89Y-82.43
T2
X139.76Y-87.8
X141.03Y-87.8
X142.3Y-87.8
X147.68Y-88.5
X148.95Y-88.5
X150.22Y-88.5
X154.33Y-81.2
X155.6Y-81.2
X156.87Y-81.2
X162.46Y-104.7
X162.46Y-108.8
X162.5Y-84.7
X162.5Y-99.2
X162.53Y-89.56
X162.53Y-94.36
X163.73Y-104.7
X163.73Y-108.8
X163.77Y-84.7
X163.77Y-99.2
X163.8Y-89.56
X163.8Y-94.36
X165.0Y-104.7
X165.0Y-108.8
X165.04Y-84.7
X165.04Y-99.2
X165.07Y-89.56
X165.07Y-94.36
T3
X111.2Y-97.6
X116.2Y-97.6
X120.0Y-97.6
X125.0Y-97.6
X138.2Y-81.78
X143.2Y-81.78
X146.4Y-81.78
X151.4Y-81.78
T4
X131.098Y-104.858
X132.368Y-104.858
X133.638Y-104.858
T5
X168.74Y-88.5
X171.28Y-88.5
X171.28Y-102.5
X173.82Y-88.5
X173.82Y-102.5
X176.36Y-88.5
X176.36Y-102.5
X178.9Y-88.5
T6
X112.04Y-80.1
X114.58Y-80.1
X117.12Y-80.1
X119.66Y-80.1
X121.6Y-106.525
X121.6Y-109.065
X122.2Y-80.1
X124.74Y-80.1
X127.28Y-80.1
X129.82Y-80.1
X132.36Y-80.1
X134.9Y-80.1
X160.3Y-80.1
X162.84Y-80.1
X165.38Y-80.1
X167.92Y-80.1
X170.46Y-80.1
X173.0Y-80.1
X175.54Y-80.1
X178.08Y-80.1
T7
X111.45Y-84.13
X111.45Y-91.75
X116.53Y-84.13
X116.53Y-91.75
X121.61Y-84.13
X121.61Y-91.75
X129.23Y-84.13
X129.23Y-91.75
T8
X128.48Y-100.34
X129.07Y-95.94
X133.56Y-100.34
X134.15Y-95.94
X134.35Y-85.77
X134.35Y-90.85
X138.25Y-92.9
X138.8Y-96.86
X138.8Y-101.94
X143.3Y-96.86
X143.3Y-101.94
X143.33Y-92.9
T9
X111.1Y-105.74
X111.1Y-110.82
X113.64Y-108.28
X116.18Y-105.74
X116.18Y-110.82
M30
