G04 #@! TF.GenerationSoftware,KiCad,Pcbnew,8.0.0*
G04 #@! TF.CreationDate,2025-01-04T20:08:10+01:00*
G04 #@! TF.ProjectId,inzynierka,696e7a79-6e69-4657-926b-612e6b696361,rev?*
G04 #@! TF.SameCoordinates,Original*
G04 #@! TF.FileFunction,Legend,Top*
G04 #@! TF.FilePolarity,Positive*
%FSLAX46Y46*%
G04 Gerber Fmt 4.6, Leading zero omitted, Abs format (unit mm)*
G04 Created by KiCad (PCBNEW 8.0.0) date 2025-01-04 20:08:10*
%MOMM*%
%LPD*%
G01*
G04 APERTURE LIST*
%ADD10C,0.100000*%
%ADD11C,0.150000*%
%ADD12C,0.120000*%
%ADD13C,0.127000*%
%ADD14C,0.200000*%
%ADD15C,0.001000*%
%ADD16R,2.400000X2.400000*%
%ADD17O,2.400000X2.400000*%
%ADD18R,1.600000X1.600000*%
%ADD19C,1.600000*%
%ADD20R,1.700000X1.700000*%
%ADD21O,1.700000X1.700000*%
%ADD22R,1.050000X1.500000*%
%ADD23O,1.050000X1.500000*%
%ADD24C,2.000000*%
%ADD25C,2.250000*%
%ADD26C,0.600000*%
%ADD27C,0.500000*%
G04 APERTURE END LIST*
D10*
X166303884Y-111772419D02*
X166303884Y-110772419D01*
X166303884Y-110772419D02*
X166637217Y-111486704D01*
X166637217Y-111486704D02*
X166970550Y-110772419D01*
X166970550Y-110772419D02*
X166970550Y-111772419D01*
X167446741Y-111677180D02*
X167494360Y-111724800D01*
X167494360Y-111724800D02*
X167446741Y-111772419D01*
X167446741Y-111772419D02*
X167399122Y-111724800D01*
X167399122Y-111724800D02*
X167446741Y-111677180D01*
X167446741Y-111677180D02*
X167446741Y-111772419D01*
X167922931Y-111772419D02*
X167922931Y-110772419D01*
X167922931Y-110772419D02*
X168303883Y-110772419D01*
X168303883Y-110772419D02*
X168399121Y-110820038D01*
X168399121Y-110820038D02*
X168446740Y-110867657D01*
X168446740Y-110867657D02*
X168494359Y-110962895D01*
X168494359Y-110962895D02*
X168494359Y-111105752D01*
X168494359Y-111105752D02*
X168446740Y-111200990D01*
X168446740Y-111200990D02*
X168399121Y-111248609D01*
X168399121Y-111248609D02*
X168303883Y-111296228D01*
X168303883Y-111296228D02*
X167922931Y-111296228D01*
X169065788Y-111772419D02*
X168970550Y-111724800D01*
X168970550Y-111724800D02*
X168922931Y-111677180D01*
X168922931Y-111677180D02*
X168875312Y-111581942D01*
X168875312Y-111581942D02*
X168875312Y-111296228D01*
X168875312Y-111296228D02*
X168922931Y-111200990D01*
X168922931Y-111200990D02*
X168970550Y-111153371D01*
X168970550Y-111153371D02*
X169065788Y-111105752D01*
X169065788Y-111105752D02*
X169208645Y-111105752D01*
X169208645Y-111105752D02*
X169303883Y-111153371D01*
X169303883Y-111153371D02*
X169351502Y-111200990D01*
X169351502Y-111200990D02*
X169399121Y-111296228D01*
X169399121Y-111296228D02*
X169399121Y-111581942D01*
X169399121Y-111581942D02*
X169351502Y-111677180D01*
X169351502Y-111677180D02*
X169303883Y-111724800D01*
X169303883Y-111724800D02*
X169208645Y-111772419D01*
X169208645Y-111772419D02*
X169065788Y-111772419D01*
X169970550Y-111772419D02*
X169875312Y-111724800D01*
X169875312Y-111724800D02*
X169827693Y-111629561D01*
X169827693Y-111629561D02*
X169827693Y-110772419D01*
X170780074Y-111105752D02*
X170780074Y-111772419D01*
X170351503Y-111105752D02*
X170351503Y-111629561D01*
X170351503Y-111629561D02*
X170399122Y-111724800D01*
X170399122Y-111724800D02*
X170494360Y-111772419D01*
X170494360Y-111772419D02*
X170637217Y-111772419D01*
X170637217Y-111772419D02*
X170732455Y-111724800D01*
X170732455Y-111724800D02*
X170780074Y-111677180D01*
X171256265Y-111772419D02*
X171256265Y-110772419D01*
X171256265Y-111153371D02*
X171351503Y-111105752D01*
X171351503Y-111105752D02*
X171541979Y-111105752D01*
X171541979Y-111105752D02*
X171637217Y-111153371D01*
X171637217Y-111153371D02*
X171684836Y-111200990D01*
X171684836Y-111200990D02*
X171732455Y-111296228D01*
X171732455Y-111296228D02*
X171732455Y-111581942D01*
X171732455Y-111581942D02*
X171684836Y-111677180D01*
X171684836Y-111677180D02*
X171637217Y-111724800D01*
X171637217Y-111724800D02*
X171541979Y-111772419D01*
X171541979Y-111772419D02*
X171351503Y-111772419D01*
X171351503Y-111772419D02*
X171256265Y-111724800D01*
X172161027Y-111772419D02*
X172161027Y-111105752D01*
X172161027Y-110772419D02*
X172113408Y-110820038D01*
X172113408Y-110820038D02*
X172161027Y-110867657D01*
X172161027Y-110867657D02*
X172208646Y-110820038D01*
X172208646Y-110820038D02*
X172161027Y-110772419D01*
X172161027Y-110772419D02*
X172161027Y-110867657D01*
X172637217Y-111105752D02*
X172637217Y-111772419D01*
X172637217Y-111200990D02*
X172684836Y-111153371D01*
X172684836Y-111153371D02*
X172780074Y-111105752D01*
X172780074Y-111105752D02*
X172922931Y-111105752D01*
X172922931Y-111105752D02*
X173018169Y-111153371D01*
X173018169Y-111153371D02*
X173065788Y-111248609D01*
X173065788Y-111248609D02*
X173065788Y-111772419D01*
X173494360Y-111724800D02*
X173589598Y-111772419D01*
X173589598Y-111772419D02*
X173780074Y-111772419D01*
X173780074Y-111772419D02*
X173875312Y-111724800D01*
X173875312Y-111724800D02*
X173922931Y-111629561D01*
X173922931Y-111629561D02*
X173922931Y-111581942D01*
X173922931Y-111581942D02*
X173875312Y-111486704D01*
X173875312Y-111486704D02*
X173780074Y-111439085D01*
X173780074Y-111439085D02*
X173637217Y-111439085D01*
X173637217Y-111439085D02*
X173541979Y-111391466D01*
X173541979Y-111391466D02*
X173494360Y-111296228D01*
X173494360Y-111296228D02*
X173494360Y-111248609D01*
X173494360Y-111248609D02*
X173541979Y-111153371D01*
X173541979Y-111153371D02*
X173637217Y-111105752D01*
X173637217Y-111105752D02*
X173780074Y-111105752D01*
X173780074Y-111105752D02*
X173875312Y-111153371D01*
X174351503Y-111772419D02*
X174351503Y-110772419D01*
X174446741Y-111391466D02*
X174732455Y-111772419D01*
X174732455Y-111105752D02*
X174351503Y-111486704D01*
X175161027Y-111772419D02*
X175161027Y-111105752D01*
X175161027Y-110772419D02*
X175113408Y-110820038D01*
X175113408Y-110820038D02*
X175161027Y-110867657D01*
X175161027Y-110867657D02*
X175208646Y-110820038D01*
X175208646Y-110820038D02*
X175161027Y-110772419D01*
X175161027Y-110772419D02*
X175161027Y-110867657D01*
X176399122Y-111772419D02*
X176399122Y-110772419D01*
X176827693Y-111724800D02*
X176970550Y-111772419D01*
X176970550Y-111772419D02*
X177208645Y-111772419D01*
X177208645Y-111772419D02*
X177303883Y-111724800D01*
X177303883Y-111724800D02*
X177351502Y-111677180D01*
X177351502Y-111677180D02*
X177399121Y-111581942D01*
X177399121Y-111581942D02*
X177399121Y-111486704D01*
X177399121Y-111486704D02*
X177351502Y-111391466D01*
X177351502Y-111391466D02*
X177303883Y-111343847D01*
X177303883Y-111343847D02*
X177208645Y-111296228D01*
X177208645Y-111296228D02*
X177018169Y-111248609D01*
X177018169Y-111248609D02*
X176922931Y-111200990D01*
X176922931Y-111200990D02*
X176875312Y-111153371D01*
X176875312Y-111153371D02*
X176827693Y-111058133D01*
X176827693Y-111058133D02*
X176827693Y-110962895D01*
X176827693Y-110962895D02*
X176875312Y-110867657D01*
X176875312Y-110867657D02*
X176922931Y-110820038D01*
X176922931Y-110820038D02*
X177018169Y-110772419D01*
X177018169Y-110772419D02*
X177256264Y-110772419D01*
X177256264Y-110772419D02*
X177399121Y-110820038D01*
X177827693Y-111248609D02*
X178161026Y-111248609D01*
X178303883Y-111772419D02*
X177827693Y-111772419D01*
X177827693Y-111772419D02*
X177827693Y-110772419D01*
X177827693Y-110772419D02*
X178303883Y-110772419D01*
D11*
X136532295Y-94290475D02*
X135732295Y-94290475D01*
X135732295Y-94290475D02*
X135732295Y-94099999D01*
X135732295Y-94099999D02*
X135770390Y-93985713D01*
X135770390Y-93985713D02*
X135846580Y-93909523D01*
X135846580Y-93909523D02*
X135922771Y-93871428D01*
X135922771Y-93871428D02*
X136075152Y-93833332D01*
X136075152Y-93833332D02*
X136189438Y-93833332D01*
X136189438Y-93833332D02*
X136341819Y-93871428D01*
X136341819Y-93871428D02*
X136418009Y-93909523D01*
X136418009Y-93909523D02*
X136494200Y-93985713D01*
X136494200Y-93985713D02*
X136532295Y-94099999D01*
X136532295Y-94099999D02*
X136532295Y-94290475D01*
X135808485Y-93528571D02*
X135770390Y-93490475D01*
X135770390Y-93490475D02*
X135732295Y-93414285D01*
X135732295Y-93414285D02*
X135732295Y-93223809D01*
X135732295Y-93223809D02*
X135770390Y-93147618D01*
X135770390Y-93147618D02*
X135808485Y-93109523D01*
X135808485Y-93109523D02*
X135884676Y-93071428D01*
X135884676Y-93071428D02*
X135960866Y-93071428D01*
X135960866Y-93071428D02*
X136075152Y-93109523D01*
X136075152Y-93109523D02*
X136532295Y-93566666D01*
X136532295Y-93566666D02*
X136532295Y-93071428D01*
X139888095Y-94554819D02*
X139888095Y-93554819D01*
X140459523Y-94554819D02*
X140030952Y-93983390D01*
X140459523Y-93554819D02*
X139888095Y-94126247D01*
X144715714Y-85496104D02*
X144677618Y-85534200D01*
X144677618Y-85534200D02*
X144563333Y-85572295D01*
X144563333Y-85572295D02*
X144487142Y-85572295D01*
X144487142Y-85572295D02*
X144372856Y-85534200D01*
X144372856Y-85534200D02*
X144296666Y-85458009D01*
X144296666Y-85458009D02*
X144258571Y-85381819D01*
X144258571Y-85381819D02*
X144220475Y-85229438D01*
X144220475Y-85229438D02*
X144220475Y-85115152D01*
X144220475Y-85115152D02*
X144258571Y-84962771D01*
X144258571Y-84962771D02*
X144296666Y-84886580D01*
X144296666Y-84886580D02*
X144372856Y-84810390D01*
X144372856Y-84810390D02*
X144487142Y-84772295D01*
X144487142Y-84772295D02*
X144563333Y-84772295D01*
X144563333Y-84772295D02*
X144677618Y-84810390D01*
X144677618Y-84810390D02*
X144715714Y-84848485D01*
X145477618Y-85572295D02*
X145020475Y-85572295D01*
X145249047Y-85572295D02*
X145249047Y-84772295D01*
X145249047Y-84772295D02*
X145172856Y-84886580D01*
X145172856Y-84886580D02*
X145096666Y-84962771D01*
X145096666Y-84962771D02*
X145020475Y-85000866D01*
X145972857Y-84772295D02*
X146049047Y-84772295D01*
X146049047Y-84772295D02*
X146125238Y-84810390D01*
X146125238Y-84810390D02*
X146163333Y-84848485D01*
X146163333Y-84848485D02*
X146201428Y-84924676D01*
X146201428Y-84924676D02*
X146239523Y-85077057D01*
X146239523Y-85077057D02*
X146239523Y-85267533D01*
X146239523Y-85267533D02*
X146201428Y-85419914D01*
X146201428Y-85419914D02*
X146163333Y-85496104D01*
X146163333Y-85496104D02*
X146125238Y-85534200D01*
X146125238Y-85534200D02*
X146049047Y-85572295D01*
X146049047Y-85572295D02*
X145972857Y-85572295D01*
X145972857Y-85572295D02*
X145896666Y-85534200D01*
X145896666Y-85534200D02*
X145858571Y-85496104D01*
X145858571Y-85496104D02*
X145820476Y-85419914D01*
X145820476Y-85419914D02*
X145782380Y-85267533D01*
X145782380Y-85267533D02*
X145782380Y-85077057D01*
X145782380Y-85077057D02*
X145820476Y-84924676D01*
X145820476Y-84924676D02*
X145858571Y-84848485D01*
X145858571Y-84848485D02*
X145896666Y-84810390D01*
X145896666Y-84810390D02*
X145972857Y-84772295D01*
X137454820Y-89208093D02*
X136454820Y-89208093D01*
X136454820Y-89208093D02*
X136454820Y-88969998D01*
X136454820Y-88969998D02*
X136502439Y-88827141D01*
X136502439Y-88827141D02*
X136597677Y-88731903D01*
X136597677Y-88731903D02*
X136692915Y-88684284D01*
X136692915Y-88684284D02*
X136883391Y-88636665D01*
X136883391Y-88636665D02*
X137026248Y-88636665D01*
X137026248Y-88636665D02*
X137216724Y-88684284D01*
X137216724Y-88684284D02*
X137311962Y-88731903D01*
X137311962Y-88731903D02*
X137407201Y-88827141D01*
X137407201Y-88827141D02*
X137454820Y-88969998D01*
X137454820Y-88969998D02*
X137454820Y-89208093D01*
X136788153Y-87779522D02*
X137454820Y-87779522D01*
X136407201Y-88017617D02*
X137121486Y-88255712D01*
X137121486Y-88255712D02*
X137121486Y-87636665D01*
X133604819Y-87931904D02*
X132604819Y-87931904D01*
X133604819Y-87360476D02*
X133033390Y-87789047D01*
X132604819Y-87360476D02*
X133176247Y-87931904D01*
X121226666Y-111014819D02*
X121226666Y-111729104D01*
X121226666Y-111729104D02*
X121179047Y-111871961D01*
X121179047Y-111871961D02*
X121083809Y-111967200D01*
X121083809Y-111967200D02*
X120940952Y-112014819D01*
X120940952Y-112014819D02*
X120845714Y-112014819D01*
X122179047Y-111014819D02*
X121702857Y-111014819D01*
X121702857Y-111014819D02*
X121655238Y-111491009D01*
X121655238Y-111491009D02*
X121702857Y-111443390D01*
X121702857Y-111443390D02*
X121798095Y-111395771D01*
X121798095Y-111395771D02*
X122036190Y-111395771D01*
X122036190Y-111395771D02*
X122131428Y-111443390D01*
X122131428Y-111443390D02*
X122179047Y-111491009D01*
X122179047Y-111491009D02*
X122226666Y-111586247D01*
X122226666Y-111586247D02*
X122226666Y-111824342D01*
X122226666Y-111824342D02*
X122179047Y-111919580D01*
X122179047Y-111919580D02*
X122131428Y-111967200D01*
X122131428Y-111967200D02*
X122036190Y-112014819D01*
X122036190Y-112014819D02*
X121798095Y-112014819D01*
X121798095Y-112014819D02*
X121702857Y-111967200D01*
X121702857Y-111967200D02*
X121655238Y-111919580D01*
X155674761Y-84430057D02*
X155579523Y-84382438D01*
X155579523Y-84382438D02*
X155484285Y-84287200D01*
X155484285Y-84287200D02*
X155341428Y-84144342D01*
X155341428Y-84144342D02*
X155246190Y-84096723D01*
X155246190Y-84096723D02*
X155150952Y-84096723D01*
X155198571Y-84334819D02*
X155103333Y-84287200D01*
X155103333Y-84287200D02*
X155008095Y-84191961D01*
X155008095Y-84191961D02*
X154960476Y-84001485D01*
X154960476Y-84001485D02*
X154960476Y-83668152D01*
X154960476Y-83668152D02*
X155008095Y-83477676D01*
X155008095Y-83477676D02*
X155103333Y-83382438D01*
X155103333Y-83382438D02*
X155198571Y-83334819D01*
X155198571Y-83334819D02*
X155389047Y-83334819D01*
X155389047Y-83334819D02*
X155484285Y-83382438D01*
X155484285Y-83382438D02*
X155579523Y-83477676D01*
X155579523Y-83477676D02*
X155627142Y-83668152D01*
X155627142Y-83668152D02*
X155627142Y-84001485D01*
X155627142Y-84001485D02*
X155579523Y-84191961D01*
X155579523Y-84191961D02*
X155484285Y-84287200D01*
X155484285Y-84287200D02*
X155389047Y-84334819D01*
X155389047Y-84334819D02*
X155198571Y-84334819D01*
X156531904Y-83334819D02*
X156055714Y-83334819D01*
X156055714Y-83334819D02*
X156008095Y-83811009D01*
X156008095Y-83811009D02*
X156055714Y-83763390D01*
X156055714Y-83763390D02*
X156150952Y-83715771D01*
X156150952Y-83715771D02*
X156389047Y-83715771D01*
X156389047Y-83715771D02*
X156484285Y-83763390D01*
X156484285Y-83763390D02*
X156531904Y-83811009D01*
X156531904Y-83811009D02*
X156579523Y-83906247D01*
X156579523Y-83906247D02*
X156579523Y-84144342D01*
X156579523Y-84144342D02*
X156531904Y-84239580D01*
X156531904Y-84239580D02*
X156484285Y-84287200D01*
X156484285Y-84287200D02*
X156389047Y-84334819D01*
X156389047Y-84334819D02*
X156150952Y-84334819D01*
X156150952Y-84334819D02*
X156055714Y-84287200D01*
X156055714Y-84287200D02*
X156008095Y-84239580D01*
X109883333Y-95209580D02*
X109835714Y-95257200D01*
X109835714Y-95257200D02*
X109692857Y-95304819D01*
X109692857Y-95304819D02*
X109597619Y-95304819D01*
X109597619Y-95304819D02*
X109454762Y-95257200D01*
X109454762Y-95257200D02*
X109359524Y-95161961D01*
X109359524Y-95161961D02*
X109311905Y-95066723D01*
X109311905Y-95066723D02*
X109264286Y-94876247D01*
X109264286Y-94876247D02*
X109264286Y-94733390D01*
X109264286Y-94733390D02*
X109311905Y-94542914D01*
X109311905Y-94542914D02*
X109359524Y-94447676D01*
X109359524Y-94447676D02*
X109454762Y-94352438D01*
X109454762Y-94352438D02*
X109597619Y-94304819D01*
X109597619Y-94304819D02*
X109692857Y-94304819D01*
X109692857Y-94304819D02*
X109835714Y-94352438D01*
X109835714Y-94352438D02*
X109883333Y-94400057D01*
X110216667Y-94304819D02*
X110883333Y-94304819D01*
X110883333Y-94304819D02*
X110454762Y-95304819D01*
X160980057Y-108895238D02*
X160932438Y-108990476D01*
X160932438Y-108990476D02*
X160837200Y-109085714D01*
X160837200Y-109085714D02*
X160694342Y-109228571D01*
X160694342Y-109228571D02*
X160646723Y-109323809D01*
X160646723Y-109323809D02*
X160646723Y-109419047D01*
X160884819Y-109371428D02*
X160837200Y-109466666D01*
X160837200Y-109466666D02*
X160741961Y-109561904D01*
X160741961Y-109561904D02*
X160551485Y-109609523D01*
X160551485Y-109609523D02*
X160218152Y-109609523D01*
X160218152Y-109609523D02*
X160027676Y-109561904D01*
X160027676Y-109561904D02*
X159932438Y-109466666D01*
X159932438Y-109466666D02*
X159884819Y-109371428D01*
X159884819Y-109371428D02*
X159884819Y-109180952D01*
X159884819Y-109180952D02*
X159932438Y-109085714D01*
X159932438Y-109085714D02*
X160027676Y-108990476D01*
X160027676Y-108990476D02*
X160218152Y-108942857D01*
X160218152Y-108942857D02*
X160551485Y-108942857D01*
X160551485Y-108942857D02*
X160741961Y-108990476D01*
X160741961Y-108990476D02*
X160837200Y-109085714D01*
X160837200Y-109085714D02*
X160884819Y-109180952D01*
X160884819Y-109180952D02*
X160884819Y-109371428D01*
X160884819Y-107990476D02*
X160884819Y-108561904D01*
X160884819Y-108276190D02*
X159884819Y-108276190D01*
X159884819Y-108276190D02*
X160027676Y-108371428D01*
X160027676Y-108371428D02*
X160122914Y-108466666D01*
X160122914Y-108466666D02*
X160170533Y-108561904D01*
X137035714Y-85686104D02*
X136997618Y-85724200D01*
X136997618Y-85724200D02*
X136883333Y-85762295D01*
X136883333Y-85762295D02*
X136807142Y-85762295D01*
X136807142Y-85762295D02*
X136692856Y-85724200D01*
X136692856Y-85724200D02*
X136616666Y-85648009D01*
X136616666Y-85648009D02*
X136578571Y-85571819D01*
X136578571Y-85571819D02*
X136540475Y-85419438D01*
X136540475Y-85419438D02*
X136540475Y-85305152D01*
X136540475Y-85305152D02*
X136578571Y-85152771D01*
X136578571Y-85152771D02*
X136616666Y-85076580D01*
X136616666Y-85076580D02*
X136692856Y-85000390D01*
X136692856Y-85000390D02*
X136807142Y-84962295D01*
X136807142Y-84962295D02*
X136883333Y-84962295D01*
X136883333Y-84962295D02*
X136997618Y-85000390D01*
X136997618Y-85000390D02*
X137035714Y-85038485D01*
X137797618Y-85762295D02*
X137340475Y-85762295D01*
X137569047Y-85762295D02*
X137569047Y-84962295D01*
X137569047Y-84962295D02*
X137492856Y-85076580D01*
X137492856Y-85076580D02*
X137416666Y-85152771D01*
X137416666Y-85152771D02*
X137340475Y-85190866D01*
X138064285Y-84962295D02*
X138559523Y-84962295D01*
X138559523Y-84962295D02*
X138292857Y-85267057D01*
X138292857Y-85267057D02*
X138407142Y-85267057D01*
X138407142Y-85267057D02*
X138483333Y-85305152D01*
X138483333Y-85305152D02*
X138521428Y-85343247D01*
X138521428Y-85343247D02*
X138559523Y-85419438D01*
X138559523Y-85419438D02*
X138559523Y-85609914D01*
X138559523Y-85609914D02*
X138521428Y-85686104D01*
X138521428Y-85686104D02*
X138483333Y-85724200D01*
X138483333Y-85724200D02*
X138407142Y-85762295D01*
X138407142Y-85762295D02*
X138178571Y-85762295D01*
X138178571Y-85762295D02*
X138102380Y-85724200D01*
X138102380Y-85724200D02*
X138064285Y-85686104D01*
D10*
X130567419Y-88411904D02*
X131376942Y-88411904D01*
X131376942Y-88411904D02*
X131472180Y-88364285D01*
X131472180Y-88364285D02*
X131519800Y-88316666D01*
X131519800Y-88316666D02*
X131567419Y-88221428D01*
X131567419Y-88221428D02*
X131567419Y-88030952D01*
X131567419Y-88030952D02*
X131519800Y-87935714D01*
X131519800Y-87935714D02*
X131472180Y-87888095D01*
X131472180Y-87888095D02*
X131376942Y-87840476D01*
X131376942Y-87840476D02*
X130567419Y-87840476D01*
X130567419Y-86888095D02*
X130567419Y-87364285D01*
X130567419Y-87364285D02*
X131043609Y-87411904D01*
X131043609Y-87411904D02*
X130995990Y-87364285D01*
X130995990Y-87364285D02*
X130948371Y-87269047D01*
X130948371Y-87269047D02*
X130948371Y-87030952D01*
X130948371Y-87030952D02*
X130995990Y-86935714D01*
X130995990Y-86935714D02*
X131043609Y-86888095D01*
X131043609Y-86888095D02*
X131138847Y-86840476D01*
X131138847Y-86840476D02*
X131376942Y-86840476D01*
X131376942Y-86840476D02*
X131472180Y-86888095D01*
X131472180Y-86888095D02*
X131519800Y-86935714D01*
X131519800Y-86935714D02*
X131567419Y-87030952D01*
X131567419Y-87030952D02*
X131567419Y-87269047D01*
X131567419Y-87269047D02*
X131519800Y-87364285D01*
X131519800Y-87364285D02*
X131472180Y-87411904D01*
D11*
X111793333Y-81872295D02*
X111793333Y-82443723D01*
X111793333Y-82443723D02*
X111755238Y-82558009D01*
X111755238Y-82558009D02*
X111679047Y-82634200D01*
X111679047Y-82634200D02*
X111564762Y-82672295D01*
X111564762Y-82672295D02*
X111488571Y-82672295D01*
X112136190Y-81948485D02*
X112174286Y-81910390D01*
X112174286Y-81910390D02*
X112250476Y-81872295D01*
X112250476Y-81872295D02*
X112440952Y-81872295D01*
X112440952Y-81872295D02*
X112517143Y-81910390D01*
X112517143Y-81910390D02*
X112555238Y-81948485D01*
X112555238Y-81948485D02*
X112593333Y-82024676D01*
X112593333Y-82024676D02*
X112593333Y-82100866D01*
X112593333Y-82100866D02*
X112555238Y-82215152D01*
X112555238Y-82215152D02*
X112098095Y-82672295D01*
X112098095Y-82672295D02*
X112593333Y-82672295D01*
X142699524Y-104872295D02*
X142699524Y-104072295D01*
X142699524Y-104072295D02*
X142890000Y-104072295D01*
X142890000Y-104072295D02*
X143004286Y-104110390D01*
X143004286Y-104110390D02*
X143080476Y-104186580D01*
X143080476Y-104186580D02*
X143118571Y-104262771D01*
X143118571Y-104262771D02*
X143156667Y-104415152D01*
X143156667Y-104415152D02*
X143156667Y-104529438D01*
X143156667Y-104529438D02*
X143118571Y-104681819D01*
X143118571Y-104681819D02*
X143080476Y-104758009D01*
X143080476Y-104758009D02*
X143004286Y-104834200D01*
X143004286Y-104834200D02*
X142890000Y-104872295D01*
X142890000Y-104872295D02*
X142699524Y-104872295D01*
X143880476Y-104072295D02*
X143499524Y-104072295D01*
X143499524Y-104072295D02*
X143461428Y-104453247D01*
X143461428Y-104453247D02*
X143499524Y-104415152D01*
X143499524Y-104415152D02*
X143575714Y-104377057D01*
X143575714Y-104377057D02*
X143766190Y-104377057D01*
X143766190Y-104377057D02*
X143842381Y-104415152D01*
X143842381Y-104415152D02*
X143880476Y-104453247D01*
X143880476Y-104453247D02*
X143918571Y-104529438D01*
X143918571Y-104529438D02*
X143918571Y-104719914D01*
X143918571Y-104719914D02*
X143880476Y-104796104D01*
X143880476Y-104796104D02*
X143842381Y-104834200D01*
X143842381Y-104834200D02*
X143766190Y-104872295D01*
X143766190Y-104872295D02*
X143575714Y-104872295D01*
X143575714Y-104872295D02*
X143499524Y-104834200D01*
X143499524Y-104834200D02*
X143461428Y-104796104D01*
X142554819Y-99021904D02*
X141554819Y-99021904D01*
X142554819Y-98450476D02*
X141983390Y-98879047D01*
X141554819Y-98450476D02*
X142126247Y-99021904D01*
X131829524Y-108692295D02*
X131829524Y-107892295D01*
X131829524Y-107892295D02*
X132020000Y-107892295D01*
X132020000Y-107892295D02*
X132134286Y-107930390D01*
X132134286Y-107930390D02*
X132210476Y-108006580D01*
X132210476Y-108006580D02*
X132248571Y-108082771D01*
X132248571Y-108082771D02*
X132286667Y-108235152D01*
X132286667Y-108235152D02*
X132286667Y-108349438D01*
X132286667Y-108349438D02*
X132248571Y-108501819D01*
X132248571Y-108501819D02*
X132210476Y-108578009D01*
X132210476Y-108578009D02*
X132134286Y-108654200D01*
X132134286Y-108654200D02*
X132020000Y-108692295D01*
X132020000Y-108692295D02*
X131829524Y-108692295D01*
X132743809Y-108235152D02*
X132667619Y-108197057D01*
X132667619Y-108197057D02*
X132629524Y-108158961D01*
X132629524Y-108158961D02*
X132591428Y-108082771D01*
X132591428Y-108082771D02*
X132591428Y-108044676D01*
X132591428Y-108044676D02*
X132629524Y-107968485D01*
X132629524Y-107968485D02*
X132667619Y-107930390D01*
X132667619Y-107930390D02*
X132743809Y-107892295D01*
X132743809Y-107892295D02*
X132896190Y-107892295D01*
X132896190Y-107892295D02*
X132972381Y-107930390D01*
X132972381Y-107930390D02*
X133010476Y-107968485D01*
X133010476Y-107968485D02*
X133048571Y-108044676D01*
X133048571Y-108044676D02*
X133048571Y-108082771D01*
X133048571Y-108082771D02*
X133010476Y-108158961D01*
X133010476Y-108158961D02*
X132972381Y-108197057D01*
X132972381Y-108197057D02*
X132896190Y-108235152D01*
X132896190Y-108235152D02*
X132743809Y-108235152D01*
X132743809Y-108235152D02*
X132667619Y-108273247D01*
X132667619Y-108273247D02*
X132629524Y-108311342D01*
X132629524Y-108311342D02*
X132591428Y-108387533D01*
X132591428Y-108387533D02*
X132591428Y-108539914D01*
X132591428Y-108539914D02*
X132629524Y-108616104D01*
X132629524Y-108616104D02*
X132667619Y-108654200D01*
X132667619Y-108654200D02*
X132743809Y-108692295D01*
X132743809Y-108692295D02*
X132896190Y-108692295D01*
X132896190Y-108692295D02*
X132972381Y-108654200D01*
X132972381Y-108654200D02*
X133010476Y-108616104D01*
X133010476Y-108616104D02*
X133048571Y-108539914D01*
X133048571Y-108539914D02*
X133048571Y-108387533D01*
X133048571Y-108387533D02*
X133010476Y-108311342D01*
X133010476Y-108311342D02*
X132972381Y-108273247D01*
X132972381Y-108273247D02*
X132896190Y-108235152D01*
X130671905Y-93904819D02*
X130671905Y-92904819D01*
X130671905Y-92904819D02*
X130910000Y-92904819D01*
X130910000Y-92904819D02*
X131052857Y-92952438D01*
X131052857Y-92952438D02*
X131148095Y-93047676D01*
X131148095Y-93047676D02*
X131195714Y-93142914D01*
X131195714Y-93142914D02*
X131243333Y-93333390D01*
X131243333Y-93333390D02*
X131243333Y-93476247D01*
X131243333Y-93476247D02*
X131195714Y-93666723D01*
X131195714Y-93666723D02*
X131148095Y-93761961D01*
X131148095Y-93761961D02*
X131052857Y-93857200D01*
X131052857Y-93857200D02*
X130910000Y-93904819D01*
X130910000Y-93904819D02*
X130671905Y-93904819D01*
X132195714Y-93904819D02*
X131624286Y-93904819D01*
X131910000Y-93904819D02*
X131910000Y-92904819D01*
X131910000Y-92904819D02*
X131814762Y-93047676D01*
X131814762Y-93047676D02*
X131719524Y-93142914D01*
X131719524Y-93142914D02*
X131624286Y-93190533D01*
X131988095Y-95194819D02*
X131988095Y-94194819D01*
X132559523Y-95194819D02*
X132130952Y-94623390D01*
X132559523Y-94194819D02*
X131988095Y-94766247D01*
X148188095Y-90704819D02*
X148188095Y-91514342D01*
X148188095Y-91514342D02*
X148235714Y-91609580D01*
X148235714Y-91609580D02*
X148283333Y-91657200D01*
X148283333Y-91657200D02*
X148378571Y-91704819D01*
X148378571Y-91704819D02*
X148569047Y-91704819D01*
X148569047Y-91704819D02*
X148664285Y-91657200D01*
X148664285Y-91657200D02*
X148711904Y-91609580D01*
X148711904Y-91609580D02*
X148759523Y-91514342D01*
X148759523Y-91514342D02*
X148759523Y-90704819D01*
X149664285Y-90704819D02*
X149473809Y-90704819D01*
X149473809Y-90704819D02*
X149378571Y-90752438D01*
X149378571Y-90752438D02*
X149330952Y-90800057D01*
X149330952Y-90800057D02*
X149235714Y-90942914D01*
X149235714Y-90942914D02*
X149188095Y-91133390D01*
X149188095Y-91133390D02*
X149188095Y-91514342D01*
X149188095Y-91514342D02*
X149235714Y-91609580D01*
X149235714Y-91609580D02*
X149283333Y-91657200D01*
X149283333Y-91657200D02*
X149378571Y-91704819D01*
X149378571Y-91704819D02*
X149569047Y-91704819D01*
X149569047Y-91704819D02*
X149664285Y-91657200D01*
X149664285Y-91657200D02*
X149711904Y-91609580D01*
X149711904Y-91609580D02*
X149759523Y-91514342D01*
X149759523Y-91514342D02*
X149759523Y-91276247D01*
X149759523Y-91276247D02*
X149711904Y-91181009D01*
X149711904Y-91181009D02*
X149664285Y-91133390D01*
X149664285Y-91133390D02*
X149569047Y-91085771D01*
X149569047Y-91085771D02*
X149378571Y-91085771D01*
X149378571Y-91085771D02*
X149283333Y-91133390D01*
X149283333Y-91133390D02*
X149235714Y-91181009D01*
X149235714Y-91181009D02*
X149188095Y-91276247D01*
X138209524Y-95252295D02*
X138209524Y-94452295D01*
X138209524Y-94452295D02*
X138400000Y-94452295D01*
X138400000Y-94452295D02*
X138514286Y-94490390D01*
X138514286Y-94490390D02*
X138590476Y-94566580D01*
X138590476Y-94566580D02*
X138628571Y-94642771D01*
X138628571Y-94642771D02*
X138666667Y-94795152D01*
X138666667Y-94795152D02*
X138666667Y-94909438D01*
X138666667Y-94909438D02*
X138628571Y-95061819D01*
X138628571Y-95061819D02*
X138590476Y-95138009D01*
X138590476Y-95138009D02*
X138514286Y-95214200D01*
X138514286Y-95214200D02*
X138400000Y-95252295D01*
X138400000Y-95252295D02*
X138209524Y-95252295D01*
X138933333Y-94452295D02*
X139428571Y-94452295D01*
X139428571Y-94452295D02*
X139161905Y-94757057D01*
X139161905Y-94757057D02*
X139276190Y-94757057D01*
X139276190Y-94757057D02*
X139352381Y-94795152D01*
X139352381Y-94795152D02*
X139390476Y-94833247D01*
X139390476Y-94833247D02*
X139428571Y-94909438D01*
X139428571Y-94909438D02*
X139428571Y-95099914D01*
X139428571Y-95099914D02*
X139390476Y-95176104D01*
X139390476Y-95176104D02*
X139352381Y-95214200D01*
X139352381Y-95214200D02*
X139276190Y-95252295D01*
X139276190Y-95252295D02*
X139047619Y-95252295D01*
X139047619Y-95252295D02*
X138971428Y-95214200D01*
X138971428Y-95214200D02*
X138933333Y-95176104D01*
X138054819Y-99021904D02*
X137054819Y-99021904D01*
X138054819Y-98450476D02*
X137483390Y-98879047D01*
X137054819Y-98450476D02*
X137626247Y-99021904D01*
X160970057Y-94445238D02*
X160922438Y-94540476D01*
X160922438Y-94540476D02*
X160827200Y-94635714D01*
X160827200Y-94635714D02*
X160684342Y-94778571D01*
X160684342Y-94778571D02*
X160636723Y-94873809D01*
X160636723Y-94873809D02*
X160636723Y-94969047D01*
X160874819Y-94921428D02*
X160827200Y-95016666D01*
X160827200Y-95016666D02*
X160731961Y-95111904D01*
X160731961Y-95111904D02*
X160541485Y-95159523D01*
X160541485Y-95159523D02*
X160208152Y-95159523D01*
X160208152Y-95159523D02*
X160017676Y-95111904D01*
X160017676Y-95111904D02*
X159922438Y-95016666D01*
X159922438Y-95016666D02*
X159874819Y-94921428D01*
X159874819Y-94921428D02*
X159874819Y-94730952D01*
X159874819Y-94730952D02*
X159922438Y-94635714D01*
X159922438Y-94635714D02*
X160017676Y-94540476D01*
X160017676Y-94540476D02*
X160208152Y-94492857D01*
X160208152Y-94492857D02*
X160541485Y-94492857D01*
X160541485Y-94492857D02*
X160731961Y-94540476D01*
X160731961Y-94540476D02*
X160827200Y-94635714D01*
X160827200Y-94635714D02*
X160874819Y-94730952D01*
X160874819Y-94730952D02*
X160874819Y-94921428D01*
X159874819Y-94159523D02*
X159874819Y-93540476D01*
X159874819Y-93540476D02*
X160255771Y-93873809D01*
X160255771Y-93873809D02*
X160255771Y-93730952D01*
X160255771Y-93730952D02*
X160303390Y-93635714D01*
X160303390Y-93635714D02*
X160351009Y-93588095D01*
X160351009Y-93588095D02*
X160446247Y-93540476D01*
X160446247Y-93540476D02*
X160684342Y-93540476D01*
X160684342Y-93540476D02*
X160779580Y-93588095D01*
X160779580Y-93588095D02*
X160827200Y-93635714D01*
X160827200Y-93635714D02*
X160874819Y-93730952D01*
X160874819Y-93730952D02*
X160874819Y-94016666D01*
X160874819Y-94016666D02*
X160827200Y-94111904D01*
X160827200Y-94111904D02*
X160779580Y-94159523D01*
X159914819Y-90331904D02*
X160724342Y-90331904D01*
X160724342Y-90331904D02*
X160819580Y-90284285D01*
X160819580Y-90284285D02*
X160867200Y-90236666D01*
X160867200Y-90236666D02*
X160914819Y-90141428D01*
X160914819Y-90141428D02*
X160914819Y-89950952D01*
X160914819Y-89950952D02*
X160867200Y-89855714D01*
X160867200Y-89855714D02*
X160819580Y-89808095D01*
X160819580Y-89808095D02*
X160724342Y-89760476D01*
X160724342Y-89760476D02*
X159914819Y-89760476D01*
X160914819Y-88760476D02*
X160914819Y-89331904D01*
X160914819Y-89046190D02*
X159914819Y-89046190D01*
X159914819Y-89046190D02*
X160057676Y-89141428D01*
X160057676Y-89141428D02*
X160152914Y-89236666D01*
X160152914Y-89236666D02*
X160200533Y-89331904D01*
X118366666Y-111254819D02*
X118366666Y-111969104D01*
X118366666Y-111969104D02*
X118319047Y-112111961D01*
X118319047Y-112111961D02*
X118223809Y-112207200D01*
X118223809Y-112207200D02*
X118080952Y-112254819D01*
X118080952Y-112254819D02*
X117985714Y-112254819D01*
X119366666Y-112254819D02*
X118795238Y-112254819D01*
X119080952Y-112254819D02*
X119080952Y-111254819D01*
X119080952Y-111254819D02*
X118985714Y-111397676D01*
X118985714Y-111397676D02*
X118890476Y-111492914D01*
X118890476Y-111492914D02*
X118795238Y-111540533D01*
X126824819Y-101098094D02*
X125824819Y-101098094D01*
X125824819Y-101098094D02*
X125824819Y-100859999D01*
X125824819Y-100859999D02*
X125872438Y-100717142D01*
X125872438Y-100717142D02*
X125967676Y-100621904D01*
X125967676Y-100621904D02*
X126062914Y-100574285D01*
X126062914Y-100574285D02*
X126253390Y-100526666D01*
X126253390Y-100526666D02*
X126396247Y-100526666D01*
X126396247Y-100526666D02*
X126586723Y-100574285D01*
X126586723Y-100574285D02*
X126681961Y-100621904D01*
X126681961Y-100621904D02*
X126777200Y-100717142D01*
X126777200Y-100717142D02*
X126824819Y-100859999D01*
X126824819Y-100859999D02*
X126824819Y-101098094D01*
X125824819Y-99669523D02*
X125824819Y-99859999D01*
X125824819Y-99859999D02*
X125872438Y-99955237D01*
X125872438Y-99955237D02*
X125920057Y-100002856D01*
X125920057Y-100002856D02*
X126062914Y-100098094D01*
X126062914Y-100098094D02*
X126253390Y-100145713D01*
X126253390Y-100145713D02*
X126634342Y-100145713D01*
X126634342Y-100145713D02*
X126729580Y-100098094D01*
X126729580Y-100098094D02*
X126777200Y-100050475D01*
X126777200Y-100050475D02*
X126824819Y-99955237D01*
X126824819Y-99955237D02*
X126824819Y-99764761D01*
X126824819Y-99764761D02*
X126777200Y-99669523D01*
X126777200Y-99669523D02*
X126729580Y-99621904D01*
X126729580Y-99621904D02*
X126634342Y-99574285D01*
X126634342Y-99574285D02*
X126396247Y-99574285D01*
X126396247Y-99574285D02*
X126301009Y-99621904D01*
X126301009Y-99621904D02*
X126253390Y-99669523D01*
X126253390Y-99669523D02*
X126205771Y-99764761D01*
X126205771Y-99764761D02*
X126205771Y-99955237D01*
X126205771Y-99955237D02*
X126253390Y-100050475D01*
X126253390Y-100050475D02*
X126301009Y-100098094D01*
X126301009Y-100098094D02*
X126396247Y-100145713D01*
X130118095Y-101994819D02*
X130118095Y-100994819D01*
X130689523Y-101994819D02*
X130260952Y-101423390D01*
X130689523Y-100994819D02*
X130118095Y-101566247D01*
X160830057Y-104775238D02*
X160782438Y-104870476D01*
X160782438Y-104870476D02*
X160687200Y-104965714D01*
X160687200Y-104965714D02*
X160544342Y-105108571D01*
X160544342Y-105108571D02*
X160496723Y-105203809D01*
X160496723Y-105203809D02*
X160496723Y-105299047D01*
X160734819Y-105251428D02*
X160687200Y-105346666D01*
X160687200Y-105346666D02*
X160591961Y-105441904D01*
X160591961Y-105441904D02*
X160401485Y-105489523D01*
X160401485Y-105489523D02*
X160068152Y-105489523D01*
X160068152Y-105489523D02*
X159877676Y-105441904D01*
X159877676Y-105441904D02*
X159782438Y-105346666D01*
X159782438Y-105346666D02*
X159734819Y-105251428D01*
X159734819Y-105251428D02*
X159734819Y-105060952D01*
X159734819Y-105060952D02*
X159782438Y-104965714D01*
X159782438Y-104965714D02*
X159877676Y-104870476D01*
X159877676Y-104870476D02*
X160068152Y-104822857D01*
X160068152Y-104822857D02*
X160401485Y-104822857D01*
X160401485Y-104822857D02*
X160591961Y-104870476D01*
X160591961Y-104870476D02*
X160687200Y-104965714D01*
X160687200Y-104965714D02*
X160734819Y-105060952D01*
X160734819Y-105060952D02*
X160734819Y-105251428D01*
X159830057Y-104441904D02*
X159782438Y-104394285D01*
X159782438Y-104394285D02*
X159734819Y-104299047D01*
X159734819Y-104299047D02*
X159734819Y-104060952D01*
X159734819Y-104060952D02*
X159782438Y-103965714D01*
X159782438Y-103965714D02*
X159830057Y-103918095D01*
X159830057Y-103918095D02*
X159925295Y-103870476D01*
X159925295Y-103870476D02*
X160020533Y-103870476D01*
X160020533Y-103870476D02*
X160163390Y-103918095D01*
X160163390Y-103918095D02*
X160734819Y-104489523D01*
X160734819Y-104489523D02*
X160734819Y-103870476D01*
X159894819Y-85471904D02*
X160704342Y-85471904D01*
X160704342Y-85471904D02*
X160799580Y-85424285D01*
X160799580Y-85424285D02*
X160847200Y-85376666D01*
X160847200Y-85376666D02*
X160894819Y-85281428D01*
X160894819Y-85281428D02*
X160894819Y-85090952D01*
X160894819Y-85090952D02*
X160847200Y-84995714D01*
X160847200Y-84995714D02*
X160799580Y-84948095D01*
X160799580Y-84948095D02*
X160704342Y-84900476D01*
X160704342Y-84900476D02*
X159894819Y-84900476D01*
X159990057Y-84471904D02*
X159942438Y-84424285D01*
X159942438Y-84424285D02*
X159894819Y-84329047D01*
X159894819Y-84329047D02*
X159894819Y-84090952D01*
X159894819Y-84090952D02*
X159942438Y-83995714D01*
X159942438Y-83995714D02*
X159990057Y-83948095D01*
X159990057Y-83948095D02*
X160085295Y-83900476D01*
X160085295Y-83900476D02*
X160180533Y-83900476D01*
X160180533Y-83900476D02*
X160323390Y-83948095D01*
X160323390Y-83948095D02*
X160894819Y-84519523D01*
X160894819Y-84519523D02*
X160894819Y-83900476D01*
X160910057Y-99295238D02*
X160862438Y-99390476D01*
X160862438Y-99390476D02*
X160767200Y-99485714D01*
X160767200Y-99485714D02*
X160624342Y-99628571D01*
X160624342Y-99628571D02*
X160576723Y-99723809D01*
X160576723Y-99723809D02*
X160576723Y-99819047D01*
X160814819Y-99771428D02*
X160767200Y-99866666D01*
X160767200Y-99866666D02*
X160671961Y-99961904D01*
X160671961Y-99961904D02*
X160481485Y-100009523D01*
X160481485Y-100009523D02*
X160148152Y-100009523D01*
X160148152Y-100009523D02*
X159957676Y-99961904D01*
X159957676Y-99961904D02*
X159862438Y-99866666D01*
X159862438Y-99866666D02*
X159814819Y-99771428D01*
X159814819Y-99771428D02*
X159814819Y-99580952D01*
X159814819Y-99580952D02*
X159862438Y-99485714D01*
X159862438Y-99485714D02*
X159957676Y-99390476D01*
X159957676Y-99390476D02*
X160148152Y-99342857D01*
X160148152Y-99342857D02*
X160481485Y-99342857D01*
X160481485Y-99342857D02*
X160671961Y-99390476D01*
X160671961Y-99390476D02*
X160767200Y-99485714D01*
X160767200Y-99485714D02*
X160814819Y-99580952D01*
X160814819Y-99580952D02*
X160814819Y-99771428D01*
X160148152Y-98485714D02*
X160814819Y-98485714D01*
X159767200Y-98723809D02*
X160481485Y-98961904D01*
X160481485Y-98961904D02*
X160481485Y-98342857D01*
X160053333Y-81992295D02*
X160053333Y-82563723D01*
X160053333Y-82563723D02*
X160015238Y-82678009D01*
X160015238Y-82678009D02*
X159939047Y-82754200D01*
X159939047Y-82754200D02*
X159824762Y-82792295D01*
X159824762Y-82792295D02*
X159748571Y-82792295D01*
X160358095Y-81992295D02*
X160853333Y-81992295D01*
X160853333Y-81992295D02*
X160586667Y-82297057D01*
X160586667Y-82297057D02*
X160700952Y-82297057D01*
X160700952Y-82297057D02*
X160777143Y-82335152D01*
X160777143Y-82335152D02*
X160815238Y-82373247D01*
X160815238Y-82373247D02*
X160853333Y-82449438D01*
X160853333Y-82449438D02*
X160853333Y-82639914D01*
X160853333Y-82639914D02*
X160815238Y-82716104D01*
X160815238Y-82716104D02*
X160777143Y-82754200D01*
X160777143Y-82754200D02*
X160700952Y-82792295D01*
X160700952Y-82792295D02*
X160472381Y-82792295D01*
X160472381Y-82792295D02*
X160396190Y-82754200D01*
X160396190Y-82754200D02*
X160358095Y-82716104D01*
X117567142Y-94839580D02*
X117519523Y-94887200D01*
X117519523Y-94887200D02*
X117376666Y-94934819D01*
X117376666Y-94934819D02*
X117281428Y-94934819D01*
X117281428Y-94934819D02*
X117138571Y-94887200D01*
X117138571Y-94887200D02*
X117043333Y-94791961D01*
X117043333Y-94791961D02*
X116995714Y-94696723D01*
X116995714Y-94696723D02*
X116948095Y-94506247D01*
X116948095Y-94506247D02*
X116948095Y-94363390D01*
X116948095Y-94363390D02*
X116995714Y-94172914D01*
X116995714Y-94172914D02*
X117043333Y-94077676D01*
X117043333Y-94077676D02*
X117138571Y-93982438D01*
X117138571Y-93982438D02*
X117281428Y-93934819D01*
X117281428Y-93934819D02*
X117376666Y-93934819D01*
X117376666Y-93934819D02*
X117519523Y-93982438D01*
X117519523Y-93982438D02*
X117567142Y-94030057D01*
X118519523Y-94934819D02*
X117948095Y-94934819D01*
X118233809Y-94934819D02*
X118233809Y-93934819D01*
X118233809Y-93934819D02*
X118138571Y-94077676D01*
X118138571Y-94077676D02*
X118043333Y-94172914D01*
X118043333Y-94172914D02*
X117948095Y-94220533D01*
X119471904Y-94934819D02*
X118900476Y-94934819D01*
X119186190Y-94934819D02*
X119186190Y-93934819D01*
X119186190Y-93934819D02*
X119090952Y-94077676D01*
X119090952Y-94077676D02*
X118995714Y-94172914D01*
X118995714Y-94172914D02*
X118900476Y-94220533D01*
X143974819Y-88531904D02*
X144784342Y-88531904D01*
X144784342Y-88531904D02*
X144879580Y-88484285D01*
X144879580Y-88484285D02*
X144927200Y-88436666D01*
X144927200Y-88436666D02*
X144974819Y-88341428D01*
X144974819Y-88341428D02*
X144974819Y-88150952D01*
X144974819Y-88150952D02*
X144927200Y-88055714D01*
X144927200Y-88055714D02*
X144879580Y-88008095D01*
X144879580Y-88008095D02*
X144784342Y-87960476D01*
X144784342Y-87960476D02*
X143974819Y-87960476D01*
X143974819Y-87579523D02*
X143974819Y-86960476D01*
X143974819Y-86960476D02*
X144355771Y-87293809D01*
X144355771Y-87293809D02*
X144355771Y-87150952D01*
X144355771Y-87150952D02*
X144403390Y-87055714D01*
X144403390Y-87055714D02*
X144451009Y-87008095D01*
X144451009Y-87008095D02*
X144546247Y-86960476D01*
X144546247Y-86960476D02*
X144784342Y-86960476D01*
X144784342Y-86960476D02*
X144879580Y-87008095D01*
X144879580Y-87008095D02*
X144927200Y-87055714D01*
X144927200Y-87055714D02*
X144974819Y-87150952D01*
X144974819Y-87150952D02*
X144974819Y-87436666D01*
X144974819Y-87436666D02*
X144927200Y-87531904D01*
X144927200Y-87531904D02*
X144879580Y-87579523D01*
D12*
X141410000Y-92900000D02*
X139750000Y-92900000D01*
X145250000Y-92900000D02*
G75*
G02*
X141410000Y-92900000I-1920000J0D01*
G01*
X141410000Y-92900000D02*
G75*
G02*
X145250000Y-92900000I1920000J0D01*
G01*
X145025277Y-79745000D02*
X145725277Y-79745000D01*
X145375277Y-79395000D02*
X145375277Y-80095000D01*
X145438672Y-80720000D02*
G75*
G02*
X145438672Y-82840000I3461328J-1060000D01*
G01*
X134350000Y-88930000D02*
X134350000Y-87270000D01*
X136270000Y-90850000D02*
G75*
G02*
X132430000Y-90850000I-1920000J0D01*
G01*
X132430000Y-90850000D02*
G75*
G02*
X136270000Y-90850000I1920000J0D01*
G01*
X120270000Y-105195000D02*
X121600000Y-105195000D01*
X120270000Y-106525000D02*
X120270000Y-105195000D01*
X120270000Y-107795000D02*
X120270000Y-110395000D01*
X120270000Y-107795000D02*
X122930000Y-107795000D01*
X120270000Y-110395000D02*
X122930000Y-110395000D01*
X122930000Y-107795000D02*
X122930000Y-110395000D01*
X153800000Y-83050000D02*
X157400000Y-83050000D01*
X153761522Y-83038478D02*
G75*
G02*
X155600000Y-78600000I1838478J1838478D01*
G01*
X155600000Y-78600000D02*
G75*
G02*
X157438478Y-83038478I0J-2600000D01*
G01*
X116497262Y-99490000D02*
X116497262Y-98940000D01*
X116772262Y-99215000D02*
X116222262Y-99215000D01*
X111032924Y-96540000D02*
G75*
G02*
X116367076Y-96540000I2667076J-1060000D01*
G01*
X116367076Y-98660000D02*
G75*
G02*
X111032924Y-98660000I-2667076J1060000D01*
G01*
X165530000Y-106950000D02*
X161930000Y-106950000D01*
X163730000Y-111400000D02*
G75*
G02*
X161891522Y-106961522I0J2600000D01*
G01*
X165568478Y-106961522D02*
G75*
G02*
X163730000Y-111400000I-1838478J-1838478D01*
G01*
X144224723Y-84165000D02*
X144224723Y-83465000D01*
X144574723Y-83815000D02*
X143874723Y-83815000D01*
X144161328Y-82840000D02*
G75*
G02*
X144161328Y-80720000I-3461328J1060000D01*
G01*
D10*
X130440000Y-92940000D02*
X110200000Y-92940000D01*
X110200000Y-82850000D01*
X130440000Y-82850000D01*
X130440000Y-92940000D01*
D12*
X110710000Y-81430000D02*
X110710000Y-80100000D01*
X112040000Y-81430000D02*
X110710000Y-81430000D01*
X113310000Y-78770000D02*
X136230000Y-78770000D01*
X113310000Y-81430000D02*
X113310000Y-78770000D01*
X113310000Y-81430000D02*
X136230000Y-81430000D01*
X136230000Y-81430000D02*
X136230000Y-78770000D01*
X143300000Y-100020000D02*
X143300000Y-98360000D01*
X145220000Y-101940000D02*
G75*
G02*
X141380000Y-101940000I-1920000J0D01*
G01*
X141380000Y-101940000D02*
G75*
G02*
X145220000Y-101940000I1920000J0D01*
G01*
D13*
X129762800Y-104857500D02*
X130367800Y-103337500D01*
X130367800Y-103337500D02*
X134367800Y-103337500D01*
X134367800Y-103337500D02*
X134972800Y-104857500D01*
X132367800Y-107527500D02*
G75*
G02*
X129762800Y-104857500I32500J2637500D01*
G01*
X134972800Y-104857500D02*
G75*
G02*
X132367800Y-107527500I-2637500J-32500D01*
G01*
D14*
X136012200Y-104987500D02*
G75*
G02*
X135803400Y-104987500I-104400J0D01*
G01*
X135803400Y-104987500D02*
G75*
G02*
X136012200Y-104987500I104400J0D01*
G01*
D12*
X130990000Y-95940000D02*
X132650000Y-95940000D01*
X130990000Y-95940000D02*
G75*
G02*
X127150000Y-95940000I-1920000J0D01*
G01*
X127150000Y-95940000D02*
G75*
G02*
X130990000Y-95940000I1920000J0D01*
G01*
X147150000Y-90350000D02*
X150750000Y-90350000D01*
X147111522Y-90338478D02*
G75*
G02*
X148950000Y-85900000I1838478J1838478D01*
G01*
X148950000Y-85900000D02*
G75*
G02*
X150788478Y-90338478I0J-2600000D01*
G01*
X138800000Y-100020000D02*
X138800000Y-98360000D01*
X140720000Y-101940000D02*
G75*
G02*
X136880000Y-101940000I-1920000J0D01*
G01*
X136880000Y-101940000D02*
G75*
G02*
X140720000Y-101940000I1920000J0D01*
G01*
X162000000Y-96210000D02*
X165600000Y-96210000D01*
X161961522Y-96198478D02*
G75*
G02*
X163800000Y-91760000I1838478J1838478D01*
G01*
X163800000Y-91760000D02*
G75*
G02*
X165638478Y-96198478I0J-2600000D01*
G01*
X162000000Y-91410000D02*
X165600000Y-91410000D01*
X161961522Y-91398478D02*
G75*
G02*
X163800000Y-86960000I1838478J1838478D01*
G01*
X163800000Y-86960000D02*
G75*
G02*
X165638478Y-91398478I0J-2600000D01*
G01*
X109960000Y-110080000D02*
X109960000Y-106480000D01*
X112040000Y-104680000D02*
X115240000Y-104680000D01*
X112040000Y-111880000D02*
X115240000Y-111880000D01*
X116840000Y-109580000D02*
X116840000Y-106980000D01*
X131640000Y-100340000D02*
X129980000Y-100340000D01*
X135480000Y-100340000D02*
G75*
G02*
X131640000Y-100340000I-1920000J0D01*
G01*
X131640000Y-100340000D02*
G75*
G02*
X135480000Y-100340000I1920000J0D01*
G01*
X161930000Y-106550000D02*
X165530000Y-106550000D01*
X161891522Y-106538478D02*
G75*
G02*
X163730000Y-102100000I1838478J1838478D01*
G01*
X163730000Y-102100000D02*
G75*
G02*
X165568478Y-106538478I0J-2600000D01*
G01*
X161970000Y-86550000D02*
X165570000Y-86550000D01*
X161931522Y-86538478D02*
G75*
G02*
X163770000Y-82100000I1838478J1838478D01*
G01*
X163770000Y-82100000D02*
G75*
G02*
X165608478Y-86538478I0J-2600000D01*
G01*
X161970000Y-101050000D02*
X165570000Y-101050000D01*
X161931522Y-101038478D02*
G75*
G02*
X163770000Y-96600000I1838478J1838478D01*
G01*
X163770000Y-96600000D02*
G75*
G02*
X165608478Y-101038478I0J-2600000D01*
G01*
X158970000Y-81430000D02*
X158970000Y-80100000D01*
X160300000Y-81430000D02*
X158970000Y-81430000D01*
X161570000Y-78770000D02*
X179410000Y-78770000D01*
X161570000Y-81430000D02*
X161570000Y-78770000D01*
X161570000Y-81430000D02*
X179410000Y-81430000D01*
X179410000Y-81430000D02*
X179410000Y-78770000D01*
X118625277Y-95565000D02*
X119325277Y-95565000D01*
X118975277Y-95215000D02*
X118975277Y-95915000D01*
X119038672Y-96540000D02*
G75*
G02*
X119038672Y-98660000I3461328J-1060000D01*
G01*
X142830000Y-85950000D02*
X139230000Y-85950000D01*
X141030000Y-90400000D02*
G75*
G02*
X139191522Y-85961522I0J2600000D01*
G01*
X142868478Y-85961522D02*
G75*
G02*
X141030000Y-90400000I-1838478J-1838478D01*
G01*
D10*
X180320000Y-82000000D02*
X167320000Y-82000000D01*
X167320000Y-109000000D01*
X180320000Y-109000000D01*
X180320000Y-82000000D01*
%LPC*%
D15*
X131132800Y-103739500D02*
X131163800Y-103743500D01*
X131195800Y-103748500D01*
X131225800Y-103755500D01*
X131256800Y-103763500D01*
X131286800Y-103773500D01*
X131315800Y-103785500D01*
X131344800Y-103798500D01*
X131372800Y-103812500D01*
X131399800Y-103828500D01*
X131425800Y-103846500D01*
X131451800Y-103865500D01*
X131475800Y-103885500D01*
X131498800Y-103906500D01*
X131520800Y-103928500D01*
X131541800Y-103952500D01*
X131561800Y-103977500D01*
X131579800Y-104002500D01*
X131596800Y-104029500D01*
X131612800Y-104057500D01*
X131626800Y-104085500D01*
X131638800Y-104114500D01*
X131649800Y-104143500D01*
X131659800Y-104173500D01*
X131667800Y-104204500D01*
X131673800Y-104235500D01*
X131678800Y-104266500D01*
X131681800Y-104297500D01*
X131682800Y-104329500D01*
X131682800Y-104357500D01*
X131682800Y-105357500D01*
X131682800Y-105385500D01*
X131681800Y-105417500D01*
X131678800Y-105448500D01*
X131673800Y-105479500D01*
X131667800Y-105510500D01*
X131659800Y-105541500D01*
X131649800Y-105571500D01*
X131638800Y-105600500D01*
X131626800Y-105629500D01*
X131612800Y-105657500D01*
X131596800Y-105685500D01*
X131579800Y-105712500D01*
X131561800Y-105737500D01*
X131541800Y-105762500D01*
X131520800Y-105786500D01*
X131498800Y-105808500D01*
X131475800Y-105829500D01*
X131451800Y-105849500D01*
X131425800Y-105868500D01*
X131399800Y-105886500D01*
X131372800Y-105902500D01*
X131344800Y-105916500D01*
X131315800Y-105929500D01*
X131286800Y-105941500D01*
X131256800Y-105951500D01*
X131225800Y-105959500D01*
X131195800Y-105966500D01*
X131163800Y-105971500D01*
X131132800Y-105975500D01*
X131097800Y-105977500D01*
X131062800Y-105975500D01*
X131031800Y-105971500D01*
X130999800Y-105966500D01*
X130969800Y-105959500D01*
X130938800Y-105951500D01*
X130908800Y-105941500D01*
X130879800Y-105929500D01*
X130850800Y-105916500D01*
X130822800Y-105902500D01*
X130795800Y-105886500D01*
X130769800Y-105868500D01*
X130743800Y-105849500D01*
X130719800Y-105829500D01*
X130696800Y-105808500D01*
X130674800Y-105786500D01*
X130653800Y-105762500D01*
X130633800Y-105737500D01*
X130615800Y-105712500D01*
X130598800Y-105685500D01*
X130582800Y-105657500D01*
X130568800Y-105629500D01*
X130556800Y-105600500D01*
X130545800Y-105571500D01*
X130535800Y-105541500D01*
X130527800Y-105510500D01*
X130521800Y-105479500D01*
X130516800Y-105448500D01*
X130513800Y-105417500D01*
X130512800Y-105385500D01*
X130512800Y-105357500D01*
X130512800Y-104357500D01*
X130512800Y-104329500D01*
X130513800Y-104297500D01*
X130516800Y-104266500D01*
X130521800Y-104235500D01*
X130527800Y-104204500D01*
X130535800Y-104173500D01*
X130545800Y-104143500D01*
X130556800Y-104114500D01*
X130568800Y-104085500D01*
X130582800Y-104057500D01*
X130598800Y-104029500D01*
X130615800Y-104002500D01*
X130633800Y-103977500D01*
X130653800Y-103952500D01*
X130674800Y-103928500D01*
X130696800Y-103906500D01*
X130719800Y-103885500D01*
X130743800Y-103865500D01*
X130769800Y-103846500D01*
X130795800Y-103828500D01*
X130822800Y-103812500D01*
X130850800Y-103798500D01*
X130879800Y-103785500D01*
X130908800Y-103773500D01*
X130938800Y-103763500D01*
X130969800Y-103755500D01*
X130999800Y-103748500D01*
X131031800Y-103743500D01*
X131062800Y-103739500D01*
X131097800Y-103737500D01*
X131132800Y-103739500D01*
G36*
X131132800Y-103739500D02*
G01*
X131163800Y-103743500D01*
X131195800Y-103748500D01*
X131225800Y-103755500D01*
X131256800Y-103763500D01*
X131286800Y-103773500D01*
X131315800Y-103785500D01*
X131344800Y-103798500D01*
X131372800Y-103812500D01*
X131399800Y-103828500D01*
X131425800Y-103846500D01*
X131451800Y-103865500D01*
X131475800Y-103885500D01*
X131498800Y-103906500D01*
X131520800Y-103928500D01*
X131541800Y-103952500D01*
X131561800Y-103977500D01*
X131579800Y-104002500D01*
X131596800Y-104029500D01*
X131612800Y-104057500D01*
X131626800Y-104085500D01*
X131638800Y-104114500D01*
X131649800Y-104143500D01*
X131659800Y-104173500D01*
X131667800Y-104204500D01*
X131673800Y-104235500D01*
X131678800Y-104266500D01*
X131681800Y-104297500D01*
X131682800Y-104329500D01*
X131682800Y-104357500D01*
X131682800Y-105357500D01*
X131682800Y-105385500D01*
X131681800Y-105417500D01*
X131678800Y-105448500D01*
X131673800Y-105479500D01*
X131667800Y-105510500D01*
X131659800Y-105541500D01*
X131649800Y-105571500D01*
X131638800Y-105600500D01*
X131626800Y-105629500D01*
X131612800Y-105657500D01*
X131596800Y-105685500D01*
X131579800Y-105712500D01*
X131561800Y-105737500D01*
X131541800Y-105762500D01*
X131520800Y-105786500D01*
X131498800Y-105808500D01*
X131475800Y-105829500D01*
X131451800Y-105849500D01*
X131425800Y-105868500D01*
X131399800Y-105886500D01*
X131372800Y-105902500D01*
X131344800Y-105916500D01*
X131315800Y-105929500D01*
X131286800Y-105941500D01*
X131256800Y-105951500D01*
X131225800Y-105959500D01*
X131195800Y-105966500D01*
X131163800Y-105971500D01*
X131132800Y-105975500D01*
X131097800Y-105977500D01*
X131062800Y-105975500D01*
X131031800Y-105971500D01*
X130999800Y-105966500D01*
X130969800Y-105959500D01*
X130938800Y-105951500D01*
X130908800Y-105941500D01*
X130879800Y-105929500D01*
X130850800Y-105916500D01*
X130822800Y-105902500D01*
X130795800Y-105886500D01*
X130769800Y-105868500D01*
X130743800Y-105849500D01*
X130719800Y-105829500D01*
X130696800Y-105808500D01*
X130674800Y-105786500D01*
X130653800Y-105762500D01*
X130633800Y-105737500D01*
X130615800Y-105712500D01*
X130598800Y-105685500D01*
X130582800Y-105657500D01*
X130568800Y-105629500D01*
X130556800Y-105600500D01*
X130545800Y-105571500D01*
X130535800Y-105541500D01*
X130527800Y-105510500D01*
X130521800Y-105479500D01*
X130516800Y-105448500D01*
X130513800Y-105417500D01*
X130512800Y-105385500D01*
X130512800Y-105357500D01*
X130512800Y-104357500D01*
X130512800Y-104329500D01*
X130513800Y-104297500D01*
X130516800Y-104266500D01*
X130521800Y-104235500D01*
X130527800Y-104204500D01*
X130535800Y-104173500D01*
X130545800Y-104143500D01*
X130556800Y-104114500D01*
X130568800Y-104085500D01*
X130582800Y-104057500D01*
X130598800Y-104029500D01*
X130615800Y-104002500D01*
X130633800Y-103977500D01*
X130653800Y-103952500D01*
X130674800Y-103928500D01*
X130696800Y-103906500D01*
X130719800Y-103885500D01*
X130743800Y-103865500D01*
X130769800Y-103846500D01*
X130795800Y-103828500D01*
X130822800Y-103812500D01*
X130850800Y-103798500D01*
X130879800Y-103785500D01*
X130908800Y-103773500D01*
X130938800Y-103763500D01*
X130969800Y-103755500D01*
X130999800Y-103748500D01*
X131031800Y-103743500D01*
X131062800Y-103739500D01*
X131097800Y-103737500D01*
X131132800Y-103739500D01*
G37*
X132402800Y-103739500D02*
X132433800Y-103743500D01*
X132465800Y-103748500D01*
X132495800Y-103755500D01*
X132526800Y-103763500D01*
X132556800Y-103773500D01*
X132585800Y-103785500D01*
X132614800Y-103798500D01*
X132642800Y-103812500D01*
X132669800Y-103828500D01*
X132695800Y-103846500D01*
X132721800Y-103865500D01*
X132745800Y-103885500D01*
X132768800Y-103906500D01*
X132790800Y-103928500D01*
X132811800Y-103952500D01*
X132831800Y-103977500D01*
X132849800Y-104002500D01*
X132866800Y-104029500D01*
X132882800Y-104057500D01*
X132896800Y-104085500D01*
X132908800Y-104114500D01*
X132919800Y-104143500D01*
X132929800Y-104173500D01*
X132937800Y-104204500D01*
X132943800Y-104235500D01*
X132948800Y-104266500D01*
X132951800Y-104297500D01*
X132952800Y-104329500D01*
X132952800Y-104357500D01*
X132952800Y-105357500D01*
X132952800Y-105385500D01*
X132951800Y-105417500D01*
X132948800Y-105448500D01*
X132943800Y-105479500D01*
X132937800Y-105510500D01*
X132929800Y-105541500D01*
X132919800Y-105571500D01*
X132908800Y-105600500D01*
X132896800Y-105629500D01*
X132882800Y-105657500D01*
X132866800Y-105685500D01*
X132849800Y-105712500D01*
X132831800Y-105737500D01*
X132811800Y-105762500D01*
X132790800Y-105786500D01*
X132768800Y-105808500D01*
X132745800Y-105829500D01*
X132721800Y-105849500D01*
X132695800Y-105868500D01*
X132669800Y-105886500D01*
X132642800Y-105902500D01*
X132614800Y-105916500D01*
X132585800Y-105929500D01*
X132556800Y-105941500D01*
X132526800Y-105951500D01*
X132495800Y-105959500D01*
X132465800Y-105966500D01*
X132433800Y-105971500D01*
X132402800Y-105975500D01*
X132367800Y-105977500D01*
X132332800Y-105975500D01*
X132301800Y-105971500D01*
X132269800Y-105966500D01*
X132239800Y-105959500D01*
X132208800Y-105951500D01*
X132178800Y-105941500D01*
X132149800Y-105929500D01*
X132120800Y-105916500D01*
X132092800Y-105902500D01*
X132065800Y-105886500D01*
X132039800Y-105868500D01*
X132013800Y-105849500D01*
X131989800Y-105829500D01*
X131966800Y-105808500D01*
X131944800Y-105786500D01*
X131923800Y-105762500D01*
X131903800Y-105737500D01*
X131885800Y-105712500D01*
X131868800Y-105685500D01*
X131852800Y-105657500D01*
X131838800Y-105629500D01*
X131826800Y-105600500D01*
X131815800Y-105571500D01*
X131805800Y-105541500D01*
X131797800Y-105510500D01*
X131791800Y-105479500D01*
X131786800Y-105448500D01*
X131783800Y-105417500D01*
X131782800Y-105385500D01*
X131782800Y-105357500D01*
X131782800Y-104357500D01*
X131782800Y-104329500D01*
X131783800Y-104297500D01*
X131786800Y-104266500D01*
X131791800Y-104235500D01*
X131797800Y-104204500D01*
X131805800Y-104173500D01*
X131815800Y-104143500D01*
X131826800Y-104114500D01*
X131838800Y-104085500D01*
X131852800Y-104057500D01*
X131868800Y-104029500D01*
X131885800Y-104002500D01*
X131903800Y-103977500D01*
X131923800Y-103952500D01*
X131944800Y-103928500D01*
X131966800Y-103906500D01*
X131989800Y-103885500D01*
X132013800Y-103865500D01*
X132039800Y-103846500D01*
X132065800Y-103828500D01*
X132092800Y-103812500D01*
X132120800Y-103798500D01*
X132149800Y-103785500D01*
X132178800Y-103773500D01*
X132208800Y-103763500D01*
X132239800Y-103755500D01*
X132269800Y-103748500D01*
X132301800Y-103743500D01*
X132332800Y-103739500D01*
X132367800Y-103737500D01*
X132402800Y-103739500D01*
G36*
X132402800Y-103739500D02*
G01*
X132433800Y-103743500D01*
X132465800Y-103748500D01*
X132495800Y-103755500D01*
X132526800Y-103763500D01*
X132556800Y-103773500D01*
X132585800Y-103785500D01*
X132614800Y-103798500D01*
X132642800Y-103812500D01*
X132669800Y-103828500D01*
X132695800Y-103846500D01*
X132721800Y-103865500D01*
X132745800Y-103885500D01*
X132768800Y-103906500D01*
X132790800Y-103928500D01*
X132811800Y-103952500D01*
X132831800Y-103977500D01*
X132849800Y-104002500D01*
X132866800Y-104029500D01*
X132882800Y-104057500D01*
X132896800Y-104085500D01*
X132908800Y-104114500D01*
X132919800Y-104143500D01*
X132929800Y-104173500D01*
X132937800Y-104204500D01*
X132943800Y-104235500D01*
X132948800Y-104266500D01*
X132951800Y-104297500D01*
X132952800Y-104329500D01*
X132952800Y-104357500D01*
X132952800Y-105357500D01*
X132952800Y-105385500D01*
X132951800Y-105417500D01*
X132948800Y-105448500D01*
X132943800Y-105479500D01*
X132937800Y-105510500D01*
X132929800Y-105541500D01*
X132919800Y-105571500D01*
X132908800Y-105600500D01*
X132896800Y-105629500D01*
X132882800Y-105657500D01*
X132866800Y-105685500D01*
X132849800Y-105712500D01*
X132831800Y-105737500D01*
X132811800Y-105762500D01*
X132790800Y-105786500D01*
X132768800Y-105808500D01*
X132745800Y-105829500D01*
X132721800Y-105849500D01*
X132695800Y-105868500D01*
X132669800Y-105886500D01*
X132642800Y-105902500D01*
X132614800Y-105916500D01*
X132585800Y-105929500D01*
X132556800Y-105941500D01*
X132526800Y-105951500D01*
X132495800Y-105959500D01*
X132465800Y-105966500D01*
X132433800Y-105971500D01*
X132402800Y-105975500D01*
X132367800Y-105977500D01*
X132332800Y-105975500D01*
X132301800Y-105971500D01*
X132269800Y-105966500D01*
X132239800Y-105959500D01*
X132208800Y-105951500D01*
X132178800Y-105941500D01*
X132149800Y-105929500D01*
X132120800Y-105916500D01*
X132092800Y-105902500D01*
X132065800Y-105886500D01*
X132039800Y-105868500D01*
X132013800Y-105849500D01*
X131989800Y-105829500D01*
X131966800Y-105808500D01*
X131944800Y-105786500D01*
X131923800Y-105762500D01*
X131903800Y-105737500D01*
X131885800Y-105712500D01*
X131868800Y-105685500D01*
X131852800Y-105657500D01*
X131838800Y-105629500D01*
X131826800Y-105600500D01*
X131815800Y-105571500D01*
X131805800Y-105541500D01*
X131797800Y-105510500D01*
X131791800Y-105479500D01*
X131786800Y-105448500D01*
X131783800Y-105417500D01*
X131782800Y-105385500D01*
X131782800Y-105357500D01*
X131782800Y-104357500D01*
X131782800Y-104329500D01*
X131783800Y-104297500D01*
X131786800Y-104266500D01*
X131791800Y-104235500D01*
X131797800Y-104204500D01*
X131805800Y-104173500D01*
X131815800Y-104143500D01*
X131826800Y-104114500D01*
X131838800Y-104085500D01*
X131852800Y-104057500D01*
X131868800Y-104029500D01*
X131885800Y-104002500D01*
X131903800Y-103977500D01*
X131923800Y-103952500D01*
X131944800Y-103928500D01*
X131966800Y-103906500D01*
X131989800Y-103885500D01*
X132013800Y-103865500D01*
X132039800Y-103846500D01*
X132065800Y-103828500D01*
X132092800Y-103812500D01*
X132120800Y-103798500D01*
X132149800Y-103785500D01*
X132178800Y-103773500D01*
X132208800Y-103763500D01*
X132239800Y-103755500D01*
X132269800Y-103748500D01*
X132301800Y-103743500D01*
X132332800Y-103739500D01*
X132367800Y-103737500D01*
X132402800Y-103739500D01*
G37*
X133672800Y-103739500D02*
X133703800Y-103743500D01*
X133735800Y-103748500D01*
X133765800Y-103755500D01*
X133796800Y-103763500D01*
X133826800Y-103773500D01*
X133855800Y-103785500D01*
X133884800Y-103798500D01*
X133912800Y-103812500D01*
X133939800Y-103828500D01*
X133965800Y-103846500D01*
X133991800Y-103865500D01*
X134015800Y-103885500D01*
X134038800Y-103906500D01*
X134060800Y-103928500D01*
X134081800Y-103952500D01*
X134101800Y-103977500D01*
X134119800Y-104002500D01*
X134136800Y-104029500D01*
X134152800Y-104057500D01*
X134166800Y-104085500D01*
X134178800Y-104114500D01*
X134189800Y-104143500D01*
X134199800Y-104173500D01*
X134207800Y-104204500D01*
X134213800Y-104235500D01*
X134218800Y-104266500D01*
X134221800Y-104297500D01*
X134222800Y-104329500D01*
X134222800Y-104357500D01*
X134222800Y-105357500D01*
X134222800Y-105385500D01*
X134221800Y-105417500D01*
X134218800Y-105448500D01*
X134213800Y-105479500D01*
X134207800Y-105510500D01*
X134199800Y-105541500D01*
X134189800Y-105571500D01*
X134178800Y-105600500D01*
X134166800Y-105629500D01*
X134152800Y-105657500D01*
X134136800Y-105685500D01*
X134119800Y-105712500D01*
X134101800Y-105737500D01*
X134081800Y-105762500D01*
X134060800Y-105786500D01*
X134038800Y-105808500D01*
X134015800Y-105829500D01*
X133991800Y-105849500D01*
X133965800Y-105868500D01*
X133939800Y-105886500D01*
X133912800Y-105902500D01*
X133884800Y-105916500D01*
X133855800Y-105929500D01*
X133826800Y-105941500D01*
X133796800Y-105951500D01*
X133765800Y-105959500D01*
X133735800Y-105966500D01*
X133703800Y-105971500D01*
X133672800Y-105975500D01*
X133637800Y-105977500D01*
X133602800Y-105975500D01*
X133571800Y-105971500D01*
X133539800Y-105966500D01*
X133509800Y-105959500D01*
X133478800Y-105951500D01*
X133448800Y-105941500D01*
X133419800Y-105929500D01*
X133390800Y-105916500D01*
X133362800Y-105902500D01*
X133335800Y-105886500D01*
X133309800Y-105868500D01*
X133283800Y-105849500D01*
X133259800Y-105829500D01*
X133236800Y-105808500D01*
X133214800Y-105786500D01*
X133193800Y-105762500D01*
X133173800Y-105737500D01*
X133155800Y-105712500D01*
X133138800Y-105685500D01*
X133122800Y-105657500D01*
X133108800Y-105629500D01*
X133096800Y-105600500D01*
X133085800Y-105571500D01*
X133075800Y-105541500D01*
X133067800Y-105510500D01*
X133061800Y-105479500D01*
X133056800Y-105448500D01*
X133053800Y-105417500D01*
X133052800Y-105385500D01*
X133052800Y-105357500D01*
X133052800Y-104357500D01*
X133052800Y-104329500D01*
X133053800Y-104297500D01*
X133056800Y-104266500D01*
X133061800Y-104235500D01*
X133067800Y-104204500D01*
X133075800Y-104173500D01*
X133085800Y-104143500D01*
X133096800Y-104114500D01*
X133108800Y-104085500D01*
X133122800Y-104057500D01*
X133138800Y-104029500D01*
X133155800Y-104002500D01*
X133173800Y-103977500D01*
X133193800Y-103952500D01*
X133214800Y-103928500D01*
X133236800Y-103906500D01*
X133259800Y-103885500D01*
X133283800Y-103865500D01*
X133309800Y-103846500D01*
X133335800Y-103828500D01*
X133362800Y-103812500D01*
X133390800Y-103798500D01*
X133419800Y-103785500D01*
X133448800Y-103773500D01*
X133478800Y-103763500D01*
X133509800Y-103755500D01*
X133539800Y-103748500D01*
X133571800Y-103743500D01*
X133602800Y-103739500D01*
X133637800Y-103737500D01*
X133672800Y-103739500D01*
G36*
X133672800Y-103739500D02*
G01*
X133703800Y-103743500D01*
X133735800Y-103748500D01*
X133765800Y-103755500D01*
X133796800Y-103763500D01*
X133826800Y-103773500D01*
X133855800Y-103785500D01*
X133884800Y-103798500D01*
X133912800Y-103812500D01*
X133939800Y-103828500D01*
X133965800Y-103846500D01*
X133991800Y-103865500D01*
X134015800Y-103885500D01*
X134038800Y-103906500D01*
X134060800Y-103928500D01*
X134081800Y-103952500D01*
X134101800Y-103977500D01*
X134119800Y-104002500D01*
X134136800Y-104029500D01*
X134152800Y-104057500D01*
X134166800Y-104085500D01*
X134178800Y-104114500D01*
X134189800Y-104143500D01*
X134199800Y-104173500D01*
X134207800Y-104204500D01*
X134213800Y-104235500D01*
X134218800Y-104266500D01*
X134221800Y-104297500D01*
X134222800Y-104329500D01*
X134222800Y-104357500D01*
X134222800Y-105357500D01*
X134222800Y-105385500D01*
X134221800Y-105417500D01*
X134218800Y-105448500D01*
X134213800Y-105479500D01*
X134207800Y-105510500D01*
X134199800Y-105541500D01*
X134189800Y-105571500D01*
X134178800Y-105600500D01*
X134166800Y-105629500D01*
X134152800Y-105657500D01*
X134136800Y-105685500D01*
X134119800Y-105712500D01*
X134101800Y-105737500D01*
X134081800Y-105762500D01*
X134060800Y-105786500D01*
X134038800Y-105808500D01*
X134015800Y-105829500D01*
X133991800Y-105849500D01*
X133965800Y-105868500D01*
X133939800Y-105886500D01*
X133912800Y-105902500D01*
X133884800Y-105916500D01*
X133855800Y-105929500D01*
X133826800Y-105941500D01*
X133796800Y-105951500D01*
X133765800Y-105959500D01*
X133735800Y-105966500D01*
X133703800Y-105971500D01*
X133672800Y-105975500D01*
X133637800Y-105977500D01*
X133602800Y-105975500D01*
X133571800Y-105971500D01*
X133539800Y-105966500D01*
X133509800Y-105959500D01*
X133478800Y-105951500D01*
X133448800Y-105941500D01*
X133419800Y-105929500D01*
X133390800Y-105916500D01*
X133362800Y-105902500D01*
X133335800Y-105886500D01*
X133309800Y-105868500D01*
X133283800Y-105849500D01*
X133259800Y-105829500D01*
X133236800Y-105808500D01*
X133214800Y-105786500D01*
X133193800Y-105762500D01*
X133173800Y-105737500D01*
X133155800Y-105712500D01*
X133138800Y-105685500D01*
X133122800Y-105657500D01*
X133108800Y-105629500D01*
X133096800Y-105600500D01*
X133085800Y-105571500D01*
X133075800Y-105541500D01*
X133067800Y-105510500D01*
X133061800Y-105479500D01*
X133056800Y-105448500D01*
X133053800Y-105417500D01*
X133052800Y-105385500D01*
X133052800Y-105357500D01*
X133052800Y-104357500D01*
X133052800Y-104329500D01*
X133053800Y-104297500D01*
X133056800Y-104266500D01*
X133061800Y-104235500D01*
X133067800Y-104204500D01*
X133075800Y-104173500D01*
X133085800Y-104143500D01*
X133096800Y-104114500D01*
X133108800Y-104085500D01*
X133122800Y-104057500D01*
X133138800Y-104029500D01*
X133155800Y-104002500D01*
X133173800Y-103977500D01*
X133193800Y-103952500D01*
X133214800Y-103928500D01*
X133236800Y-103906500D01*
X133259800Y-103885500D01*
X133283800Y-103865500D01*
X133309800Y-103846500D01*
X133335800Y-103828500D01*
X133362800Y-103812500D01*
X133390800Y-103798500D01*
X133419800Y-103785500D01*
X133448800Y-103773500D01*
X133478800Y-103763500D01*
X133509800Y-103755500D01*
X133539800Y-103748500D01*
X133571800Y-103743500D01*
X133602800Y-103739500D01*
X133637800Y-103737500D01*
X133672800Y-103739500D01*
G37*
D16*
X138250000Y-92900000D03*
D17*
X143330000Y-92900000D03*
D18*
X146400000Y-81780000D03*
D19*
X151400000Y-81780000D03*
D16*
X134350000Y-85770000D03*
D17*
X134350000Y-90850000D03*
D20*
X121600000Y-106525000D03*
D21*
X121600000Y-109065000D03*
D22*
X154330000Y-81200000D03*
D23*
X155600000Y-81200000D03*
X156870000Y-81200000D03*
D18*
X116200000Y-97600000D03*
D19*
X111200000Y-97600000D03*
D22*
X165000000Y-108800000D03*
D23*
X163730000Y-108800000D03*
X162460000Y-108800000D03*
D18*
X143200000Y-81780000D03*
D19*
X138200000Y-81780000D03*
D24*
X129230000Y-91750000D03*
X121610000Y-91750000D03*
X116530000Y-91750000D03*
X111450000Y-91750000D03*
X129230000Y-84130000D03*
X121610000Y-84130000D03*
X116530000Y-84130000D03*
X111450000Y-84130000D03*
D20*
X112040000Y-80100000D03*
D21*
X114580000Y-80100000D03*
X117120000Y-80100000D03*
X119660000Y-80100000D03*
X122200000Y-80100000D03*
X124740000Y-80100000D03*
X127280000Y-80100000D03*
X129820000Y-80100000D03*
X132360000Y-80100000D03*
X134900000Y-80100000D03*
D16*
X143300000Y-96860000D03*
D17*
X143300000Y-101940000D03*
D16*
X134150000Y-95940000D03*
D17*
X129070000Y-95940000D03*
D22*
X147680000Y-88500000D03*
D23*
X148950000Y-88500000D03*
X150220000Y-88500000D03*
D16*
X138800000Y-96860000D03*
D17*
X138800000Y-101940000D03*
D22*
X162530000Y-94360000D03*
D23*
X163800000Y-94360000D03*
X165070000Y-94360000D03*
D22*
X162530000Y-89560000D03*
D23*
X163800000Y-89560000D03*
X165070000Y-89560000D03*
D25*
X113640000Y-108280000D03*
X111100000Y-110820000D03*
X116180000Y-110820000D03*
X111100000Y-105740000D03*
X116180000Y-105740000D03*
D16*
X128480000Y-100340000D03*
D17*
X133560000Y-100340000D03*
D22*
X162460000Y-104700000D03*
D23*
X163730000Y-104700000D03*
X165000000Y-104700000D03*
D22*
X162500000Y-84700000D03*
D23*
X163770000Y-84700000D03*
X165040000Y-84700000D03*
D22*
X162500000Y-99200000D03*
D23*
X163770000Y-99200000D03*
X165040000Y-99200000D03*
D20*
X160300000Y-80100000D03*
D21*
X162840000Y-80100000D03*
X165380000Y-80100000D03*
X167920000Y-80100000D03*
X170460000Y-80100000D03*
X173000000Y-80100000D03*
X175540000Y-80100000D03*
X178080000Y-80100000D03*
D18*
X120000000Y-97600000D03*
D19*
X125000000Y-97600000D03*
D22*
X142300000Y-87800000D03*
D23*
X141030000Y-87800000D03*
X139760000Y-87800000D03*
D19*
X178900000Y-88500000D03*
X176360000Y-88500000D03*
X173820000Y-88500000D03*
X171280000Y-88500000D03*
X168740000Y-88500000D03*
X176360000Y-102500000D03*
X173820000Y-102500000D03*
X171280000Y-102500000D03*
D26*
X149700000Y-94450000D03*
X150600000Y-100400000D03*
X118500000Y-101900000D03*
X168600000Y-102200000D03*
X119580000Y-91360000D03*
D27*
X136170000Y-94950000D03*
D26*
X123100000Y-111800000D03*
X159730000Y-90400000D03*
X125460000Y-91570000D03*
X140780000Y-82330000D03*
X160780000Y-110360000D03*
X170400000Y-108400000D03*
X118440000Y-104960000D03*
X145700000Y-99000000D03*
X136800000Y-104600000D03*
D27*
X136840000Y-85990000D03*
D26*
X145000000Y-84400000D03*
X110800000Y-89200000D03*
X179890000Y-82430000D03*
X178770000Y-110190000D03*
X154740000Y-79430000D03*
X116400000Y-82400000D03*
D27*
X178900000Y-92350000D03*
X136740000Y-82370000D03*
D26*
X144630000Y-89930000D03*
X128180000Y-89080000D03*
X117800000Y-95100000D03*
X131610000Y-96990000D03*
X132300000Y-110400000D03*
D27*
X137050000Y-78860000D03*
D26*
X171510000Y-90920000D03*
X132200000Y-87800000D03*
X110030000Y-103040000D03*
X137070000Y-90320000D03*
X112790000Y-86020000D03*
X178250000Y-96250000D03*
X174370000Y-91040000D03*
X168420000Y-90630000D03*
X175800000Y-107800000D03*
D27*
X170560000Y-97360000D03*
D26*
X122600000Y-97600000D03*
X119160000Y-107420000D03*
X152580000Y-86550000D03*
X132400000Y-107470000D03*
X109960000Y-82110000D03*
X124010000Y-83700000D03*
X139530000Y-79600000D03*
X152930000Y-79800000D03*
X146380000Y-80120000D03*
X133750000Y-83190000D03*
X140870000Y-80580000D03*
X152000000Y-106390000D03*
X148150000Y-104450000D03*
X155200000Y-107000000D03*
X152100000Y-108200000D03*
X159400000Y-97600000D03*
X155200000Y-103200000D03*
X167150000Y-83260000D03*
%LPD*%
M02*
