G04 #@! TF.GenerationSoftware,KiCad,Pcbnew,8.0.0*
G04 #@! TF.CreationDate,2025-01-04T20:02:43+01:00*
G04 #@! TF.ProjectId,ina2137,696e6132-3133-4372-9e6b-696361645f70,rev?*
G04 #@! TF.SameCoordinates,Original*
G04 #@! TF.FileFunction,Paste,Bot*
G04 #@! TF.FilePolarity,Positive*
%FSLAX46Y46*%
G04 Gerber Fmt 4.6, Leading zero omitted, Abs format (unit mm)*
G04 Created by KiCad (PCBNEW 8.0.0) date 2025-01-04 20:02:43*
%MOMM*%
%LPD*%
G01*
G04 APERTURE LIST*
G04 Aperture macros list*
%AMRoundRect*
0 Rectangle with rounded corners*
0 $1 Rounding radius*
0 $2 $3 $4 $5 $6 $7 $8 $9 X,Y pos of 4 corners*
0 Add a 4 corners polygon primitive as box body*
4,1,4,$2,$3,$4,$5,$6,$7,$8,$9,$2,$3,0*
0 Add four circle primitives for the rounded corners*
1,1,$1+$1,$2,$3*
1,1,$1+$1,$4,$5*
1,1,$1+$1,$6,$7*
1,1,$1+$1,$8,$9*
0 Add four rect primitives between the rounded corners*
20,1,$1+$1,$2,$3,$4,$5,0*
20,1,$1+$1,$4,$5,$6,$7,0*
20,1,$1+$1,$6,$7,$8,$9,0*
20,1,$1+$1,$8,$9,$2,$3,0*%
G04 Aperture macros list end*
%ADD10RoundRect,0.250000X-0.400000X-0.625000X0.400000X-0.625000X0.400000X0.625000X-0.400000X0.625000X0*%
%ADD11RoundRect,0.250000X0.412500X0.650000X-0.412500X0.650000X-0.412500X-0.650000X0.412500X-0.650000X0*%
%ADD12RoundRect,0.150000X-0.835000X-0.150000X0.835000X-0.150000X0.835000X0.150000X-0.835000X0.150000X0*%
%ADD13RoundRect,0.250000X-0.625000X0.400000X-0.625000X-0.400000X0.625000X-0.400000X0.625000X0.400000X0*%
%ADD14RoundRect,0.250000X-0.650000X0.412500X-0.650000X-0.412500X0.650000X-0.412500X0.650000X0.412500X0*%
%ADD15RoundRect,0.250000X0.650000X-0.412500X0.650000X0.412500X-0.650000X0.412500X-0.650000X-0.412500X0*%
%ADD16RoundRect,0.250000X-0.412500X-0.650000X0.412500X-0.650000X0.412500X0.650000X-0.412500X0.650000X0*%
%ADD17RoundRect,0.250000X0.400000X0.625000X-0.400000X0.625000X-0.400000X-0.625000X0.400000X-0.625000X0*%
%ADD18R,1.080000X1.090000*%
G04 APERTURE END LIST*
D10*
X122750000Y-94000000D03*
X125850000Y-94000000D03*
D11*
X151262500Y-84600000D03*
X148137500Y-84600000D03*
D12*
X133600000Y-99110000D03*
X133600000Y-97840000D03*
X133600000Y-96570000D03*
X133600000Y-95300000D03*
X133600000Y-94030000D03*
X133600000Y-92760000D03*
X133600000Y-91490000D03*
X138550000Y-91490000D03*
X138550000Y-92760000D03*
X138550000Y-94030000D03*
X138550000Y-95300000D03*
X138550000Y-96570000D03*
X138550000Y-97840000D03*
X138550000Y-99110000D03*
X146650000Y-99110000D03*
X146650000Y-97840000D03*
X146650000Y-96570000D03*
X146650000Y-95300000D03*
X146650000Y-94030000D03*
X146650000Y-92760000D03*
X146650000Y-91490000D03*
X151600000Y-91490000D03*
X151600000Y-92760000D03*
X151600000Y-94030000D03*
X151600000Y-95300000D03*
X151600000Y-96570000D03*
X151600000Y-97840000D03*
X151600000Y-99110000D03*
D13*
X155610000Y-98050000D03*
X155610000Y-101150000D03*
D14*
X142700000Y-98037500D03*
X142700000Y-101162500D03*
D15*
X144000000Y-109162500D03*
X144000000Y-106037500D03*
D13*
X136000000Y-106050000D03*
X136000000Y-109150000D03*
D10*
X112750000Y-102000000D03*
X115850000Y-102000000D03*
D13*
X140000000Y-106050000D03*
X140000000Y-109150000D03*
D11*
X125862500Y-102000000D03*
X122737500Y-102000000D03*
D15*
X142700000Y-94700000D03*
X142700000Y-91575000D03*
D11*
X115862500Y-94000000D03*
X112737500Y-94000000D03*
D16*
X140137500Y-84600000D03*
X143262500Y-84600000D03*
D13*
X153900000Y-105600000D03*
X153900000Y-108700000D03*
D14*
X155610000Y-91775000D03*
X155610000Y-94900000D03*
D17*
X115850000Y-98000000D03*
X112750000Y-98000000D03*
D16*
X158277550Y-89490000D03*
X161402550Y-89490000D03*
D18*
X161415050Y-93672500D03*
X158265050Y-93672500D03*
D15*
X129800000Y-101162500D03*
X129800000Y-98037500D03*
D17*
X125850000Y-98000000D03*
X122750000Y-98000000D03*
M02*
