M48
; DRILL file {KiCad 8.0.0} date 2025-01-04T20:03:59+0100
; FORMAT={-:-/ absolute / metric / decimal}
; #@! TF.CreationDate,2025-01-04T20:03:59+01:00
; #@! TF.GenerationSoftware,Kicad,Pcbnew,8.0.0
; #@! TF.FileFunction,Plated,1,2,PTH
FMAT,2
METRIC
; #@! TA.AperFunction,Plated,PTH,ViaDrill
T1C0.300
; #@! TA.AperFunction,Plated,PTH,ComponentDrill
T2C0.750
; #@! TA.AperFunction,Plated,PTH,ComponentDrill
T3C0.800
; #@! TA.AperFunction,Plated,PTH,ComponentDrill
T4C0.850
; #@! TA.AperFunction,Plated,PTH,ComponentDrill
T5C1.000
; #@! TA.AperFunction,Plated,PTH,ComponentDrill
T6C1.400
; #@! TA.AperFunction,Plated,PTH,ComponentDrill
T7C1.500
%
G90
G05
T1
X110.44Y-82.5
X118.44Y-94.03
X119.24Y-111.62
X127.4Y-95.91
X129.0Y-94.03
X131.9Y-92.8
X131.9Y-97.9
X140.2Y-97.9
X140.59Y-94.03
X141.26Y-86.73
X142.65Y-95.862
X144.9Y-96.6
X145.0Y-97.9
X146.66Y-90.61
X150.0Y-94.0
X153.2Y-99.1
X153.22Y-92.8
X153.91Y-111.31
X177.88Y-83.31
X179.11Y-111.32
T2
X140.11Y-88.69
X141.38Y-88.69
X142.65Y-88.69
X148.51Y-88.0
X149.78Y-88.0
X151.05Y-88.0
T3
X139.22Y-82.15
X144.22Y-82.15
X147.29Y-104.27
X147.29Y-109.27
X147.3Y-82.15
X152.3Y-82.15
X157.47Y-87.09
X162.47Y-87.09
T4
X132.71Y-105.148
X132.71Y-106.418
X132.71Y-107.688
X158.498Y-96.557
X159.768Y-96.557
X161.038Y-96.557
T5
X112.04Y-80.1
X114.58Y-80.1
X117.12Y-80.1
X119.66Y-80.1
X122.2Y-80.1
X124.74Y-80.1
X127.28Y-80.1
X129.82Y-80.1
X132.36Y-80.1
X134.9Y-80.1
X160.3Y-80.1
X162.84Y-80.1
X165.38Y-80.1
X167.92Y-80.1
X170.46Y-80.1
X173.0Y-80.1
X175.54Y-80.1
X178.08Y-80.1
T6
X113.82Y-85.7
X114.32Y-90.27
X118.9Y-85.7
X119.4Y-90.27
X124.18Y-90.27
X124.74Y-85.59
X129.26Y-90.27
X129.82Y-85.59
X159.84Y-103.62
X159.84Y-108.7
X164.4Y-103.22
X164.4Y-108.3
T7
X111.6Y-105.36
X111.6Y-110.44
X114.14Y-107.9
X116.68Y-105.36
X116.68Y-110.44
M30
