G04 #@! TF.GenerationSoftware,KiCad,Pcbnew,8.0.0*
G04 #@! TF.CreationDate,2025-01-04T20:02:43+01:00*
G04 #@! TF.ProjectId,ina2137,696e6132-3133-4372-9e6b-696361645f70,rev?*
G04 #@! TF.SameCoordinates,Original*
G04 #@! TF.FileFunction,Legend,Bot*
G04 #@! TF.FilePolarity,Positive*
%FSLAX46Y46*%
G04 Gerber Fmt 4.6, Leading zero omitted, Abs format (unit mm)*
G04 Created by KiCad (PCBNEW 8.0.0) date 2025-01-04 20:02:43*
%MOMM*%
%LPD*%
G01*
G04 APERTURE LIST*
G04 Aperture macros list*
%AMRoundRect*
0 Rectangle with rounded corners*
0 $1 Rounding radius*
0 $2 $3 $4 $5 $6 $7 $8 $9 X,Y pos of 4 corners*
0 Add a 4 corners polygon primitive as box body*
4,1,4,$2,$3,$4,$5,$6,$7,$8,$9,$2,$3,0*
0 Add four circle primitives for the rounded corners*
1,1,$1+$1,$2,$3*
1,1,$1+$1,$4,$5*
1,1,$1+$1,$6,$7*
1,1,$1+$1,$8,$9*
0 Add four rect primitives between the rounded corners*
20,1,$1+$1,$2,$3,$4,$5,0*
20,1,$1+$1,$4,$5,$6,$7,0*
20,1,$1+$1,$6,$7,$8,$9,0*
20,1,$1+$1,$8,$9,$2,$3,0*%
G04 Aperture macros list end*
%ADD10C,0.150000*%
%ADD11C,0.120000*%
%ADD12C,0.127000*%
%ADD13C,0.200000*%
%ADD14C,0.001000*%
%ADD15C,2.250000*%
%ADD16R,2.800000X2.800000*%
%ADD17O,2.800000X2.800000*%
%ADD18R,1.600000X1.600000*%
%ADD19C,1.600000*%
%ADD20R,1.700000X1.700000*%
%ADD21O,1.700000X1.700000*%
%ADD22R,1.050000X1.500000*%
%ADD23O,1.050000X1.500000*%
%ADD24RoundRect,0.250000X-0.400000X-0.625000X0.400000X-0.625000X0.400000X0.625000X-0.400000X0.625000X0*%
%ADD25RoundRect,0.250000X0.412500X0.650000X-0.412500X0.650000X-0.412500X-0.650000X0.412500X-0.650000X0*%
%ADD26RoundRect,0.201000X-0.886000X-0.201000X0.886000X-0.201000X0.886000X0.201000X-0.886000X0.201000X0*%
%ADD27RoundRect,0.250000X-0.625000X0.400000X-0.625000X-0.400000X0.625000X-0.400000X0.625000X0.400000X0*%
%ADD28RoundRect,0.250000X-0.650000X0.412500X-0.650000X-0.412500X0.650000X-0.412500X0.650000X0.412500X0*%
%ADD29RoundRect,0.250000X0.650000X-0.412500X0.650000X0.412500X-0.650000X0.412500X-0.650000X-0.412500X0*%
%ADD30RoundRect,0.250000X-0.412500X-0.650000X0.412500X-0.650000X0.412500X0.650000X-0.412500X0.650000X0*%
%ADD31RoundRect,0.250000X0.400000X0.625000X-0.400000X0.625000X-0.400000X-0.625000X0.400000X-0.625000X0*%
%ADD32RoundRect,0.102000X-0.540000X-0.545000X0.540000X-0.545000X0.540000X0.545000X-0.540000X0.545000X0*%
%ADD33C,0.600000*%
G04 APERTURE END LIST*
D10*
X121724819Y-93833333D02*
X121248628Y-93500000D01*
X121724819Y-93261905D02*
X120724819Y-93261905D01*
X120724819Y-93261905D02*
X120724819Y-93642857D01*
X120724819Y-93642857D02*
X120772438Y-93738095D01*
X120772438Y-93738095D02*
X120820057Y-93785714D01*
X120820057Y-93785714D02*
X120915295Y-93833333D01*
X120915295Y-93833333D02*
X121058152Y-93833333D01*
X121058152Y-93833333D02*
X121153390Y-93785714D01*
X121153390Y-93785714D02*
X121201009Y-93738095D01*
X121201009Y-93738095D02*
X121248628Y-93642857D01*
X121248628Y-93642857D02*
X121248628Y-93261905D01*
X120820057Y-94214286D02*
X120772438Y-94261905D01*
X120772438Y-94261905D02*
X120724819Y-94357143D01*
X120724819Y-94357143D02*
X120724819Y-94595238D01*
X120724819Y-94595238D02*
X120772438Y-94690476D01*
X120772438Y-94690476D02*
X120820057Y-94738095D01*
X120820057Y-94738095D02*
X120915295Y-94785714D01*
X120915295Y-94785714D02*
X121010533Y-94785714D01*
X121010533Y-94785714D02*
X121153390Y-94738095D01*
X121153390Y-94738095D02*
X121724819Y-94166667D01*
X121724819Y-94166667D02*
X121724819Y-94785714D01*
X147022080Y-84283333D02*
X147069700Y-84235714D01*
X147069700Y-84235714D02*
X147117319Y-84092857D01*
X147117319Y-84092857D02*
X147117319Y-83997619D01*
X147117319Y-83997619D02*
X147069700Y-83854762D01*
X147069700Y-83854762D02*
X146974461Y-83759524D01*
X146974461Y-83759524D02*
X146879223Y-83711905D01*
X146879223Y-83711905D02*
X146688747Y-83664286D01*
X146688747Y-83664286D02*
X146545890Y-83664286D01*
X146545890Y-83664286D02*
X146355414Y-83711905D01*
X146355414Y-83711905D02*
X146260176Y-83759524D01*
X146260176Y-83759524D02*
X146164938Y-83854762D01*
X146164938Y-83854762D02*
X146117319Y-83997619D01*
X146117319Y-83997619D02*
X146117319Y-84092857D01*
X146117319Y-84092857D02*
X146164938Y-84235714D01*
X146164938Y-84235714D02*
X146212557Y-84283333D01*
X146117319Y-85140476D02*
X146117319Y-84950000D01*
X146117319Y-84950000D02*
X146164938Y-84854762D01*
X146164938Y-84854762D02*
X146212557Y-84807143D01*
X146212557Y-84807143D02*
X146355414Y-84711905D01*
X146355414Y-84711905D02*
X146545890Y-84664286D01*
X146545890Y-84664286D02*
X146926842Y-84664286D01*
X146926842Y-84664286D02*
X147022080Y-84711905D01*
X147022080Y-84711905D02*
X147069700Y-84759524D01*
X147069700Y-84759524D02*
X147117319Y-84854762D01*
X147117319Y-84854762D02*
X147117319Y-85045238D01*
X147117319Y-85045238D02*
X147069700Y-85140476D01*
X147069700Y-85140476D02*
X147022080Y-85188095D01*
X147022080Y-85188095D02*
X146926842Y-85235714D01*
X146926842Y-85235714D02*
X146688747Y-85235714D01*
X146688747Y-85235714D02*
X146593509Y-85188095D01*
X146593509Y-85188095D02*
X146545890Y-85140476D01*
X146545890Y-85140476D02*
X146498271Y-85045238D01*
X146498271Y-85045238D02*
X146498271Y-84854762D01*
X146498271Y-84854762D02*
X146545890Y-84759524D01*
X146545890Y-84759524D02*
X146593509Y-84711905D01*
X146593509Y-84711905D02*
X146688747Y-84664286D01*
X136821904Y-89364819D02*
X136821904Y-90174342D01*
X136821904Y-90174342D02*
X136774285Y-90269580D01*
X136774285Y-90269580D02*
X136726666Y-90317200D01*
X136726666Y-90317200D02*
X136631428Y-90364819D01*
X136631428Y-90364819D02*
X136440952Y-90364819D01*
X136440952Y-90364819D02*
X136345714Y-90317200D01*
X136345714Y-90317200D02*
X136298095Y-90269580D01*
X136298095Y-90269580D02*
X136250476Y-90174342D01*
X136250476Y-90174342D02*
X136250476Y-89364819D01*
X135250476Y-90364819D02*
X135821904Y-90364819D01*
X135536190Y-90364819D02*
X135536190Y-89364819D01*
X135536190Y-89364819D02*
X135631428Y-89507676D01*
X135631428Y-89507676D02*
X135726666Y-89602914D01*
X135726666Y-89602914D02*
X135821904Y-89650533D01*
X149951904Y-89424819D02*
X149951904Y-90234342D01*
X149951904Y-90234342D02*
X149904285Y-90329580D01*
X149904285Y-90329580D02*
X149856666Y-90377200D01*
X149856666Y-90377200D02*
X149761428Y-90424819D01*
X149761428Y-90424819D02*
X149570952Y-90424819D01*
X149570952Y-90424819D02*
X149475714Y-90377200D01*
X149475714Y-90377200D02*
X149428095Y-90329580D01*
X149428095Y-90329580D02*
X149380476Y-90234342D01*
X149380476Y-90234342D02*
X149380476Y-89424819D01*
X148951904Y-89520057D02*
X148904285Y-89472438D01*
X148904285Y-89472438D02*
X148809047Y-89424819D01*
X148809047Y-89424819D02*
X148570952Y-89424819D01*
X148570952Y-89424819D02*
X148475714Y-89472438D01*
X148475714Y-89472438D02*
X148428095Y-89520057D01*
X148428095Y-89520057D02*
X148380476Y-89615295D01*
X148380476Y-89615295D02*
X148380476Y-89710533D01*
X148380476Y-89710533D02*
X148428095Y-89853390D01*
X148428095Y-89853390D02*
X148999523Y-90424819D01*
X148999523Y-90424819D02*
X148380476Y-90424819D01*
X154244819Y-99433333D02*
X153768628Y-99100000D01*
X154244819Y-98861905D02*
X153244819Y-98861905D01*
X153244819Y-98861905D02*
X153244819Y-99242857D01*
X153244819Y-99242857D02*
X153292438Y-99338095D01*
X153292438Y-99338095D02*
X153340057Y-99385714D01*
X153340057Y-99385714D02*
X153435295Y-99433333D01*
X153435295Y-99433333D02*
X153578152Y-99433333D01*
X153578152Y-99433333D02*
X153673390Y-99385714D01*
X153673390Y-99385714D02*
X153721009Y-99338095D01*
X153721009Y-99338095D02*
X153768628Y-99242857D01*
X153768628Y-99242857D02*
X153768628Y-98861905D01*
X154244819Y-99909524D02*
X154244819Y-100100000D01*
X154244819Y-100100000D02*
X154197200Y-100195238D01*
X154197200Y-100195238D02*
X154149580Y-100242857D01*
X154149580Y-100242857D02*
X154006723Y-100338095D01*
X154006723Y-100338095D02*
X153816247Y-100385714D01*
X153816247Y-100385714D02*
X153435295Y-100385714D01*
X153435295Y-100385714D02*
X153340057Y-100338095D01*
X153340057Y-100338095D02*
X153292438Y-100290476D01*
X153292438Y-100290476D02*
X153244819Y-100195238D01*
X153244819Y-100195238D02*
X153244819Y-100004762D01*
X153244819Y-100004762D02*
X153292438Y-99909524D01*
X153292438Y-99909524D02*
X153340057Y-99861905D01*
X153340057Y-99861905D02*
X153435295Y-99814286D01*
X153435295Y-99814286D02*
X153673390Y-99814286D01*
X153673390Y-99814286D02*
X153768628Y-99861905D01*
X153768628Y-99861905D02*
X153816247Y-99909524D01*
X153816247Y-99909524D02*
X153863866Y-100004762D01*
X153863866Y-100004762D02*
X153863866Y-100195238D01*
X153863866Y-100195238D02*
X153816247Y-100290476D01*
X153816247Y-100290476D02*
X153768628Y-100338095D01*
X153768628Y-100338095D02*
X153673390Y-100385714D01*
X141279580Y-98999642D02*
X141327200Y-98952023D01*
X141327200Y-98952023D02*
X141374819Y-98809166D01*
X141374819Y-98809166D02*
X141374819Y-98713928D01*
X141374819Y-98713928D02*
X141327200Y-98571071D01*
X141327200Y-98571071D02*
X141231961Y-98475833D01*
X141231961Y-98475833D02*
X141136723Y-98428214D01*
X141136723Y-98428214D02*
X140946247Y-98380595D01*
X140946247Y-98380595D02*
X140803390Y-98380595D01*
X140803390Y-98380595D02*
X140612914Y-98428214D01*
X140612914Y-98428214D02*
X140517676Y-98475833D01*
X140517676Y-98475833D02*
X140422438Y-98571071D01*
X140422438Y-98571071D02*
X140374819Y-98713928D01*
X140374819Y-98713928D02*
X140374819Y-98809166D01*
X140374819Y-98809166D02*
X140422438Y-98952023D01*
X140422438Y-98952023D02*
X140470057Y-98999642D01*
X141374819Y-99952023D02*
X141374819Y-99380595D01*
X141374819Y-99666309D02*
X140374819Y-99666309D01*
X140374819Y-99666309D02*
X140517676Y-99571071D01*
X140517676Y-99571071D02*
X140612914Y-99475833D01*
X140612914Y-99475833D02*
X140660533Y-99380595D01*
X141374819Y-100904404D02*
X141374819Y-100332976D01*
X141374819Y-100618690D02*
X140374819Y-100618690D01*
X140374819Y-100618690D02*
X140517676Y-100523452D01*
X140517676Y-100523452D02*
X140612914Y-100428214D01*
X140612914Y-100428214D02*
X140660533Y-100332976D01*
X144216666Y-104792080D02*
X144264285Y-104839700D01*
X144264285Y-104839700D02*
X144407142Y-104887319D01*
X144407142Y-104887319D02*
X144502380Y-104887319D01*
X144502380Y-104887319D02*
X144645237Y-104839700D01*
X144645237Y-104839700D02*
X144740475Y-104744461D01*
X144740475Y-104744461D02*
X144788094Y-104649223D01*
X144788094Y-104649223D02*
X144835713Y-104458747D01*
X144835713Y-104458747D02*
X144835713Y-104315890D01*
X144835713Y-104315890D02*
X144788094Y-104125414D01*
X144788094Y-104125414D02*
X144740475Y-104030176D01*
X144740475Y-104030176D02*
X144645237Y-103934938D01*
X144645237Y-103934938D02*
X144502380Y-103887319D01*
X144502380Y-103887319D02*
X144407142Y-103887319D01*
X144407142Y-103887319D02*
X144264285Y-103934938D01*
X144264285Y-103934938D02*
X144216666Y-103982557D01*
X143883332Y-103887319D02*
X143264285Y-103887319D01*
X143264285Y-103887319D02*
X143597618Y-104268271D01*
X143597618Y-104268271D02*
X143454761Y-104268271D01*
X143454761Y-104268271D02*
X143359523Y-104315890D01*
X143359523Y-104315890D02*
X143311904Y-104363509D01*
X143311904Y-104363509D02*
X143264285Y-104458747D01*
X143264285Y-104458747D02*
X143264285Y-104696842D01*
X143264285Y-104696842D02*
X143311904Y-104792080D01*
X143311904Y-104792080D02*
X143359523Y-104839700D01*
X143359523Y-104839700D02*
X143454761Y-104887319D01*
X143454761Y-104887319D02*
X143740475Y-104887319D01*
X143740475Y-104887319D02*
X143835713Y-104839700D01*
X143835713Y-104839700D02*
X143883332Y-104792080D01*
X136136666Y-104904819D02*
X136469999Y-104428628D01*
X136708094Y-104904819D02*
X136708094Y-103904819D01*
X136708094Y-103904819D02*
X136327142Y-103904819D01*
X136327142Y-103904819D02*
X136231904Y-103952438D01*
X136231904Y-103952438D02*
X136184285Y-104000057D01*
X136184285Y-104000057D02*
X136136666Y-104095295D01*
X136136666Y-104095295D02*
X136136666Y-104238152D01*
X136136666Y-104238152D02*
X136184285Y-104333390D01*
X136184285Y-104333390D02*
X136231904Y-104381009D01*
X136231904Y-104381009D02*
X136327142Y-104428628D01*
X136327142Y-104428628D02*
X136708094Y-104428628D01*
X135279523Y-103904819D02*
X135469999Y-103904819D01*
X135469999Y-103904819D02*
X135565237Y-103952438D01*
X135565237Y-103952438D02*
X135612856Y-104000057D01*
X135612856Y-104000057D02*
X135708094Y-104142914D01*
X135708094Y-104142914D02*
X135755713Y-104333390D01*
X135755713Y-104333390D02*
X135755713Y-104714342D01*
X135755713Y-104714342D02*
X135708094Y-104809580D01*
X135708094Y-104809580D02*
X135660475Y-104857200D01*
X135660475Y-104857200D02*
X135565237Y-104904819D01*
X135565237Y-104904819D02*
X135374761Y-104904819D01*
X135374761Y-104904819D02*
X135279523Y-104857200D01*
X135279523Y-104857200D02*
X135231904Y-104809580D01*
X135231904Y-104809580D02*
X135184285Y-104714342D01*
X135184285Y-104714342D02*
X135184285Y-104476247D01*
X135184285Y-104476247D02*
X135231904Y-104381009D01*
X135231904Y-104381009D02*
X135279523Y-104333390D01*
X135279523Y-104333390D02*
X135374761Y-104285771D01*
X135374761Y-104285771D02*
X135565237Y-104285771D01*
X135565237Y-104285771D02*
X135660475Y-104333390D01*
X135660475Y-104333390D02*
X135708094Y-104381009D01*
X135708094Y-104381009D02*
X135755713Y-104476247D01*
X111714819Y-101853333D02*
X111238628Y-101520000D01*
X111714819Y-101281905D02*
X110714819Y-101281905D01*
X110714819Y-101281905D02*
X110714819Y-101662857D01*
X110714819Y-101662857D02*
X110762438Y-101758095D01*
X110762438Y-101758095D02*
X110810057Y-101805714D01*
X110810057Y-101805714D02*
X110905295Y-101853333D01*
X110905295Y-101853333D02*
X111048152Y-101853333D01*
X111048152Y-101853333D02*
X111143390Y-101805714D01*
X111143390Y-101805714D02*
X111191009Y-101758095D01*
X111191009Y-101758095D02*
X111238628Y-101662857D01*
X111238628Y-101662857D02*
X111238628Y-101281905D01*
X111048152Y-102710476D02*
X111714819Y-102710476D01*
X110667200Y-102472381D02*
X111381485Y-102234286D01*
X111381485Y-102234286D02*
X111381485Y-102853333D01*
X140156666Y-104924819D02*
X140489999Y-104448628D01*
X140728094Y-104924819D02*
X140728094Y-103924819D01*
X140728094Y-103924819D02*
X140347142Y-103924819D01*
X140347142Y-103924819D02*
X140251904Y-103972438D01*
X140251904Y-103972438D02*
X140204285Y-104020057D01*
X140204285Y-104020057D02*
X140156666Y-104115295D01*
X140156666Y-104115295D02*
X140156666Y-104258152D01*
X140156666Y-104258152D02*
X140204285Y-104353390D01*
X140204285Y-104353390D02*
X140251904Y-104401009D01*
X140251904Y-104401009D02*
X140347142Y-104448628D01*
X140347142Y-104448628D02*
X140728094Y-104448628D01*
X139251904Y-103924819D02*
X139728094Y-103924819D01*
X139728094Y-103924819D02*
X139775713Y-104401009D01*
X139775713Y-104401009D02*
X139728094Y-104353390D01*
X139728094Y-104353390D02*
X139632856Y-104305771D01*
X139632856Y-104305771D02*
X139394761Y-104305771D01*
X139394761Y-104305771D02*
X139299523Y-104353390D01*
X139299523Y-104353390D02*
X139251904Y-104401009D01*
X139251904Y-104401009D02*
X139204285Y-104496247D01*
X139204285Y-104496247D02*
X139204285Y-104734342D01*
X139204285Y-104734342D02*
X139251904Y-104829580D01*
X139251904Y-104829580D02*
X139299523Y-104877200D01*
X139299523Y-104877200D02*
X139394761Y-104924819D01*
X139394761Y-104924819D02*
X139632856Y-104924819D01*
X139632856Y-104924819D02*
X139728094Y-104877200D01*
X139728094Y-104877200D02*
X139775713Y-104829580D01*
X121612080Y-101853333D02*
X121659700Y-101805714D01*
X121659700Y-101805714D02*
X121707319Y-101662857D01*
X121707319Y-101662857D02*
X121707319Y-101567619D01*
X121707319Y-101567619D02*
X121659700Y-101424762D01*
X121659700Y-101424762D02*
X121564461Y-101329524D01*
X121564461Y-101329524D02*
X121469223Y-101281905D01*
X121469223Y-101281905D02*
X121278747Y-101234286D01*
X121278747Y-101234286D02*
X121135890Y-101234286D01*
X121135890Y-101234286D02*
X120945414Y-101281905D01*
X120945414Y-101281905D02*
X120850176Y-101329524D01*
X120850176Y-101329524D02*
X120754938Y-101424762D01*
X120754938Y-101424762D02*
X120707319Y-101567619D01*
X120707319Y-101567619D02*
X120707319Y-101662857D01*
X120707319Y-101662857D02*
X120754938Y-101805714D01*
X120754938Y-101805714D02*
X120802557Y-101853333D01*
X121707319Y-102805714D02*
X121707319Y-102234286D01*
X121707319Y-102520000D02*
X120707319Y-102520000D01*
X120707319Y-102520000D02*
X120850176Y-102424762D01*
X120850176Y-102424762D02*
X120945414Y-102329524D01*
X120945414Y-102329524D02*
X120993033Y-102234286D01*
X141239580Y-92697142D02*
X141287200Y-92649523D01*
X141287200Y-92649523D02*
X141334819Y-92506666D01*
X141334819Y-92506666D02*
X141334819Y-92411428D01*
X141334819Y-92411428D02*
X141287200Y-92268571D01*
X141287200Y-92268571D02*
X141191961Y-92173333D01*
X141191961Y-92173333D02*
X141096723Y-92125714D01*
X141096723Y-92125714D02*
X140906247Y-92078095D01*
X140906247Y-92078095D02*
X140763390Y-92078095D01*
X140763390Y-92078095D02*
X140572914Y-92125714D01*
X140572914Y-92125714D02*
X140477676Y-92173333D01*
X140477676Y-92173333D02*
X140382438Y-92268571D01*
X140382438Y-92268571D02*
X140334819Y-92411428D01*
X140334819Y-92411428D02*
X140334819Y-92506666D01*
X140334819Y-92506666D02*
X140382438Y-92649523D01*
X140382438Y-92649523D02*
X140430057Y-92697142D01*
X141334819Y-93649523D02*
X141334819Y-93078095D01*
X141334819Y-93363809D02*
X140334819Y-93363809D01*
X140334819Y-93363809D02*
X140477676Y-93268571D01*
X140477676Y-93268571D02*
X140572914Y-93173333D01*
X140572914Y-93173333D02*
X140620533Y-93078095D01*
X140430057Y-94030476D02*
X140382438Y-94078095D01*
X140382438Y-94078095D02*
X140334819Y-94173333D01*
X140334819Y-94173333D02*
X140334819Y-94411428D01*
X140334819Y-94411428D02*
X140382438Y-94506666D01*
X140382438Y-94506666D02*
X140430057Y-94554285D01*
X140430057Y-94554285D02*
X140525295Y-94601904D01*
X140525295Y-94601904D02*
X140620533Y-94601904D01*
X140620533Y-94601904D02*
X140763390Y-94554285D01*
X140763390Y-94554285D02*
X141334819Y-93982857D01*
X141334819Y-93982857D02*
X141334819Y-94601904D01*
X111582080Y-93853333D02*
X111629700Y-93805714D01*
X111629700Y-93805714D02*
X111677319Y-93662857D01*
X111677319Y-93662857D02*
X111677319Y-93567619D01*
X111677319Y-93567619D02*
X111629700Y-93424762D01*
X111629700Y-93424762D02*
X111534461Y-93329524D01*
X111534461Y-93329524D02*
X111439223Y-93281905D01*
X111439223Y-93281905D02*
X111248747Y-93234286D01*
X111248747Y-93234286D02*
X111105890Y-93234286D01*
X111105890Y-93234286D02*
X110915414Y-93281905D01*
X110915414Y-93281905D02*
X110820176Y-93329524D01*
X110820176Y-93329524D02*
X110724938Y-93424762D01*
X110724938Y-93424762D02*
X110677319Y-93567619D01*
X110677319Y-93567619D02*
X110677319Y-93662857D01*
X110677319Y-93662857D02*
X110724938Y-93805714D01*
X110724938Y-93805714D02*
X110772557Y-93853333D01*
X110772557Y-94234286D02*
X110724938Y-94281905D01*
X110724938Y-94281905D02*
X110677319Y-94377143D01*
X110677319Y-94377143D02*
X110677319Y-94615238D01*
X110677319Y-94615238D02*
X110724938Y-94710476D01*
X110724938Y-94710476D02*
X110772557Y-94758095D01*
X110772557Y-94758095D02*
X110867795Y-94805714D01*
X110867795Y-94805714D02*
X110963033Y-94805714D01*
X110963033Y-94805714D02*
X111105890Y-94758095D01*
X111105890Y-94758095D02*
X111677319Y-94186667D01*
X111677319Y-94186667D02*
X111677319Y-94805714D01*
X139012080Y-84443333D02*
X139059700Y-84395714D01*
X139059700Y-84395714D02*
X139107319Y-84252857D01*
X139107319Y-84252857D02*
X139107319Y-84157619D01*
X139107319Y-84157619D02*
X139059700Y-84014762D01*
X139059700Y-84014762D02*
X138964461Y-83919524D01*
X138964461Y-83919524D02*
X138869223Y-83871905D01*
X138869223Y-83871905D02*
X138678747Y-83824286D01*
X138678747Y-83824286D02*
X138535890Y-83824286D01*
X138535890Y-83824286D02*
X138345414Y-83871905D01*
X138345414Y-83871905D02*
X138250176Y-83919524D01*
X138250176Y-83919524D02*
X138154938Y-84014762D01*
X138154938Y-84014762D02*
X138107319Y-84157619D01*
X138107319Y-84157619D02*
X138107319Y-84252857D01*
X138107319Y-84252857D02*
X138154938Y-84395714D01*
X138154938Y-84395714D02*
X138202557Y-84443333D01*
X138440652Y-85300476D02*
X139107319Y-85300476D01*
X138059700Y-85062381D02*
X138773985Y-84824286D01*
X138773985Y-84824286D02*
X138773985Y-85443333D01*
X152534819Y-106983333D02*
X152058628Y-106650000D01*
X152534819Y-106411905D02*
X151534819Y-106411905D01*
X151534819Y-106411905D02*
X151534819Y-106792857D01*
X151534819Y-106792857D02*
X151582438Y-106888095D01*
X151582438Y-106888095D02*
X151630057Y-106935714D01*
X151630057Y-106935714D02*
X151725295Y-106983333D01*
X151725295Y-106983333D02*
X151868152Y-106983333D01*
X151868152Y-106983333D02*
X151963390Y-106935714D01*
X151963390Y-106935714D02*
X152011009Y-106888095D01*
X152011009Y-106888095D02*
X152058628Y-106792857D01*
X152058628Y-106792857D02*
X152058628Y-106411905D01*
X151534819Y-107316667D02*
X151534819Y-107983333D01*
X151534819Y-107983333D02*
X152534819Y-107554762D01*
X156242857Y-90587080D02*
X156290476Y-90634700D01*
X156290476Y-90634700D02*
X156433333Y-90682319D01*
X156433333Y-90682319D02*
X156528571Y-90682319D01*
X156528571Y-90682319D02*
X156671428Y-90634700D01*
X156671428Y-90634700D02*
X156766666Y-90539461D01*
X156766666Y-90539461D02*
X156814285Y-90444223D01*
X156814285Y-90444223D02*
X156861904Y-90253747D01*
X156861904Y-90253747D02*
X156861904Y-90110890D01*
X156861904Y-90110890D02*
X156814285Y-89920414D01*
X156814285Y-89920414D02*
X156766666Y-89825176D01*
X156766666Y-89825176D02*
X156671428Y-89729938D01*
X156671428Y-89729938D02*
X156528571Y-89682319D01*
X156528571Y-89682319D02*
X156433333Y-89682319D01*
X156433333Y-89682319D02*
X156290476Y-89729938D01*
X156290476Y-89729938D02*
X156242857Y-89777557D01*
X155290476Y-90682319D02*
X155861904Y-90682319D01*
X155576190Y-90682319D02*
X155576190Y-89682319D01*
X155576190Y-89682319D02*
X155671428Y-89825176D01*
X155671428Y-89825176D02*
X155766666Y-89920414D01*
X155766666Y-89920414D02*
X155861904Y-89968033D01*
X154957142Y-89682319D02*
X154338095Y-89682319D01*
X154338095Y-89682319D02*
X154671428Y-90063271D01*
X154671428Y-90063271D02*
X154528571Y-90063271D01*
X154528571Y-90063271D02*
X154433333Y-90110890D01*
X154433333Y-90110890D02*
X154385714Y-90158509D01*
X154385714Y-90158509D02*
X154338095Y-90253747D01*
X154338095Y-90253747D02*
X154338095Y-90491842D01*
X154338095Y-90491842D02*
X154385714Y-90587080D01*
X154385714Y-90587080D02*
X154433333Y-90634700D01*
X154433333Y-90634700D02*
X154528571Y-90682319D01*
X154528571Y-90682319D02*
X154814285Y-90682319D01*
X154814285Y-90682319D02*
X154909523Y-90634700D01*
X154909523Y-90634700D02*
X154957142Y-90587080D01*
X111704819Y-97843333D02*
X111228628Y-97510000D01*
X111704819Y-97271905D02*
X110704819Y-97271905D01*
X110704819Y-97271905D02*
X110704819Y-97652857D01*
X110704819Y-97652857D02*
X110752438Y-97748095D01*
X110752438Y-97748095D02*
X110800057Y-97795714D01*
X110800057Y-97795714D02*
X110895295Y-97843333D01*
X110895295Y-97843333D02*
X111038152Y-97843333D01*
X111038152Y-97843333D02*
X111133390Y-97795714D01*
X111133390Y-97795714D02*
X111181009Y-97748095D01*
X111181009Y-97748095D02*
X111228628Y-97652857D01*
X111228628Y-97652857D02*
X111228628Y-97271905D01*
X110704819Y-98176667D02*
X110704819Y-98795714D01*
X110704819Y-98795714D02*
X111085771Y-98462381D01*
X111085771Y-98462381D02*
X111085771Y-98605238D01*
X111085771Y-98605238D02*
X111133390Y-98700476D01*
X111133390Y-98700476D02*
X111181009Y-98748095D01*
X111181009Y-98748095D02*
X111276247Y-98795714D01*
X111276247Y-98795714D02*
X111514342Y-98795714D01*
X111514342Y-98795714D02*
X111609580Y-98748095D01*
X111609580Y-98748095D02*
X111657200Y-98700476D01*
X111657200Y-98700476D02*
X111704819Y-98605238D01*
X111704819Y-98605238D02*
X111704819Y-98319524D01*
X111704819Y-98319524D02*
X111657200Y-98224286D01*
X111657200Y-98224286D02*
X111609580Y-98176667D01*
X160126667Y-91969579D02*
X160174286Y-92017199D01*
X160174286Y-92017199D02*
X160317143Y-92064818D01*
X160317143Y-92064818D02*
X160412381Y-92064818D01*
X160412381Y-92064818D02*
X160555238Y-92017199D01*
X160555238Y-92017199D02*
X160650476Y-91921960D01*
X160650476Y-91921960D02*
X160698095Y-91826722D01*
X160698095Y-91826722D02*
X160745714Y-91636246D01*
X160745714Y-91636246D02*
X160745714Y-91493389D01*
X160745714Y-91493389D02*
X160698095Y-91302913D01*
X160698095Y-91302913D02*
X160650476Y-91207675D01*
X160650476Y-91207675D02*
X160555238Y-91112437D01*
X160555238Y-91112437D02*
X160412381Y-91064818D01*
X160412381Y-91064818D02*
X160317143Y-91064818D01*
X160317143Y-91064818D02*
X160174286Y-91112437D01*
X160174286Y-91112437D02*
X160126667Y-91160056D01*
X159650476Y-92064818D02*
X159460000Y-92064818D01*
X159460000Y-92064818D02*
X159364762Y-92017199D01*
X159364762Y-92017199D02*
X159317143Y-91969579D01*
X159317143Y-91969579D02*
X159221905Y-91826722D01*
X159221905Y-91826722D02*
X159174286Y-91636246D01*
X159174286Y-91636246D02*
X159174286Y-91255294D01*
X159174286Y-91255294D02*
X159221905Y-91160056D01*
X159221905Y-91160056D02*
X159269524Y-91112437D01*
X159269524Y-91112437D02*
X159364762Y-91064818D01*
X159364762Y-91064818D02*
X159555238Y-91064818D01*
X159555238Y-91064818D02*
X159650476Y-91112437D01*
X159650476Y-91112437D02*
X159698095Y-91160056D01*
X159698095Y-91160056D02*
X159745714Y-91255294D01*
X159745714Y-91255294D02*
X159745714Y-91493389D01*
X159745714Y-91493389D02*
X159698095Y-91588627D01*
X159698095Y-91588627D02*
X159650476Y-91636246D01*
X159650476Y-91636246D02*
X159555238Y-91683865D01*
X159555238Y-91683865D02*
X159364762Y-91683865D01*
X159364762Y-91683865D02*
X159269524Y-91636246D01*
X159269524Y-91636246D02*
X159221905Y-91588627D01*
X159221905Y-91588627D02*
X159174286Y-91493389D01*
X163407719Y-92921955D02*
X162407719Y-92921955D01*
X162407719Y-92921955D02*
X162407719Y-93160050D01*
X162407719Y-93160050D02*
X162455338Y-93302907D01*
X162455338Y-93302907D02*
X162550576Y-93398145D01*
X162550576Y-93398145D02*
X162645814Y-93445764D01*
X162645814Y-93445764D02*
X162836290Y-93493383D01*
X162836290Y-93493383D02*
X162979147Y-93493383D01*
X162979147Y-93493383D02*
X163169623Y-93445764D01*
X163169623Y-93445764D02*
X163264861Y-93398145D01*
X163264861Y-93398145D02*
X163360100Y-93302907D01*
X163360100Y-93302907D02*
X163407719Y-93160050D01*
X163407719Y-93160050D02*
X163407719Y-92921955D01*
X163407719Y-93969574D02*
X163407719Y-94160050D01*
X163407719Y-94160050D02*
X163360100Y-94255288D01*
X163360100Y-94255288D02*
X163312480Y-94302907D01*
X163312480Y-94302907D02*
X163169623Y-94398145D01*
X163169623Y-94398145D02*
X162979147Y-94445764D01*
X162979147Y-94445764D02*
X162598195Y-94445764D01*
X162598195Y-94445764D02*
X162502957Y-94398145D01*
X162502957Y-94398145D02*
X162455338Y-94350526D01*
X162455338Y-94350526D02*
X162407719Y-94255288D01*
X162407719Y-94255288D02*
X162407719Y-94064812D01*
X162407719Y-94064812D02*
X162455338Y-93969574D01*
X162455338Y-93969574D02*
X162502957Y-93921955D01*
X162502957Y-93921955D02*
X162598195Y-93874336D01*
X162598195Y-93874336D02*
X162836290Y-93874336D01*
X162836290Y-93874336D02*
X162931528Y-93921955D01*
X162931528Y-93921955D02*
X162979147Y-93969574D01*
X162979147Y-93969574D02*
X163026766Y-94064812D01*
X163026766Y-94064812D02*
X163026766Y-94255288D01*
X163026766Y-94255288D02*
X162979147Y-94350526D01*
X162979147Y-94350526D02*
X162931528Y-94398145D01*
X162931528Y-94398145D02*
X162836290Y-94445764D01*
X128369580Y-98947142D02*
X128417200Y-98899523D01*
X128417200Y-98899523D02*
X128464819Y-98756666D01*
X128464819Y-98756666D02*
X128464819Y-98661428D01*
X128464819Y-98661428D02*
X128417200Y-98518571D01*
X128417200Y-98518571D02*
X128321961Y-98423333D01*
X128321961Y-98423333D02*
X128226723Y-98375714D01*
X128226723Y-98375714D02*
X128036247Y-98328095D01*
X128036247Y-98328095D02*
X127893390Y-98328095D01*
X127893390Y-98328095D02*
X127702914Y-98375714D01*
X127702914Y-98375714D02*
X127607676Y-98423333D01*
X127607676Y-98423333D02*
X127512438Y-98518571D01*
X127512438Y-98518571D02*
X127464819Y-98661428D01*
X127464819Y-98661428D02*
X127464819Y-98756666D01*
X127464819Y-98756666D02*
X127512438Y-98899523D01*
X127512438Y-98899523D02*
X127560057Y-98947142D01*
X128464819Y-99899523D02*
X128464819Y-99328095D01*
X128464819Y-99613809D02*
X127464819Y-99613809D01*
X127464819Y-99613809D02*
X127607676Y-99518571D01*
X127607676Y-99518571D02*
X127702914Y-99423333D01*
X127702914Y-99423333D02*
X127750533Y-99328095D01*
X127798152Y-100756666D02*
X128464819Y-100756666D01*
X127417200Y-100518571D02*
X128131485Y-100280476D01*
X128131485Y-100280476D02*
X128131485Y-100899523D01*
X121714819Y-97863333D02*
X121238628Y-97530000D01*
X121714819Y-97291905D02*
X120714819Y-97291905D01*
X120714819Y-97291905D02*
X120714819Y-97672857D01*
X120714819Y-97672857D02*
X120762438Y-97768095D01*
X120762438Y-97768095D02*
X120810057Y-97815714D01*
X120810057Y-97815714D02*
X120905295Y-97863333D01*
X120905295Y-97863333D02*
X121048152Y-97863333D01*
X121048152Y-97863333D02*
X121143390Y-97815714D01*
X121143390Y-97815714D02*
X121191009Y-97768095D01*
X121191009Y-97768095D02*
X121238628Y-97672857D01*
X121238628Y-97672857D02*
X121238628Y-97291905D01*
X121714819Y-98815714D02*
X121714819Y-98244286D01*
X121714819Y-98530000D02*
X120714819Y-98530000D01*
X120714819Y-98530000D02*
X120857676Y-98434762D01*
X120857676Y-98434762D02*
X120952914Y-98339524D01*
X120952914Y-98339524D02*
X121000533Y-98244286D01*
D11*
X125027064Y-93090000D02*
X123572936Y-93090000D01*
X125027064Y-94910000D02*
X123572936Y-94910000D01*
X148988748Y-83690000D02*
X150411252Y-83690000D01*
X148988748Y-85510000D02*
X150411252Y-85510000D01*
D12*
X137245000Y-90975000D02*
X134905000Y-90975000D01*
X137245000Y-99625000D02*
X134905000Y-99625000D01*
D13*
X132125000Y-99400000D02*
G75*
G02*
X131925000Y-99400000I-100000J0D01*
G01*
X131925000Y-99400000D02*
G75*
G02*
X132125000Y-99400000I100000J0D01*
G01*
D12*
X150295000Y-90975000D02*
X147955000Y-90975000D01*
X150295000Y-99625000D02*
X147955000Y-99625000D01*
D13*
X145175000Y-99400000D02*
G75*
G02*
X144975000Y-99400000I-100000J0D01*
G01*
X144975000Y-99400000D02*
G75*
G02*
X145175000Y-99400000I100000J0D01*
G01*
D11*
X154700000Y-100327064D02*
X154700000Y-98872936D01*
X156520000Y-100327064D02*
X156520000Y-98872936D01*
X141790000Y-100311252D02*
X141790000Y-98888748D01*
X143610000Y-100311252D02*
X143610000Y-98888748D01*
X143090000Y-106888748D02*
X143090000Y-108311252D01*
X144910000Y-106888748D02*
X144910000Y-108311252D01*
X135090000Y-108327064D02*
X135090000Y-106872936D01*
X136910000Y-108327064D02*
X136910000Y-106872936D01*
X115027064Y-101090000D02*
X113572936Y-101090000D01*
X115027064Y-102910000D02*
X113572936Y-102910000D01*
X139090000Y-108327064D02*
X139090000Y-106872936D01*
X140910000Y-108327064D02*
X140910000Y-106872936D01*
X123588748Y-101090000D02*
X125011252Y-101090000D01*
X123588748Y-102910000D02*
X125011252Y-102910000D01*
X141790000Y-92426248D02*
X141790000Y-93848752D01*
X143610000Y-92426248D02*
X143610000Y-93848752D01*
X113588748Y-93090000D02*
X115011252Y-93090000D01*
X113588748Y-94910000D02*
X115011252Y-94910000D01*
X142411252Y-83690000D02*
X140988748Y-83690000D01*
X142411252Y-85510000D02*
X140988748Y-85510000D01*
X152990000Y-107877064D02*
X152990000Y-106422936D01*
X154810000Y-107877064D02*
X154810000Y-106422936D01*
X154700000Y-94048752D02*
X154700000Y-92626248D01*
X156520000Y-94048752D02*
X156520000Y-92626248D01*
X113572936Y-97090000D02*
X115027064Y-97090000D01*
X113572936Y-98910000D02*
X115027064Y-98910000D01*
X160551302Y-88580000D02*
X159128798Y-88580000D01*
X160551302Y-90400000D02*
X159128798Y-90400000D01*
D12*
X158465050Y-92777500D02*
X158465050Y-92772500D01*
X158465050Y-92807500D02*
X158465050Y-92772500D01*
X158465050Y-94537500D02*
X158465050Y-94572500D01*
X158465050Y-94567500D02*
X158465050Y-94572500D01*
X158465050Y-94572500D02*
X161215050Y-94572500D01*
X158465050Y-94572500D02*
X161215050Y-94572500D01*
X161215050Y-92772500D02*
X158465050Y-92772500D01*
X161215050Y-92772500D02*
X158465050Y-92772500D01*
X161215050Y-92777500D02*
X161215050Y-92772500D01*
X161215050Y-92807500D02*
X161215050Y-92772500D01*
X161215050Y-94572500D02*
X161215050Y-94537500D01*
X161215050Y-94572500D02*
X161215050Y-94567500D01*
D13*
X156925050Y-93672500D02*
G75*
G02*
X156725050Y-93672500I-100000J0D01*
G01*
X156725050Y-93672500D02*
G75*
G02*
X156925050Y-93672500I100000J0D01*
G01*
D11*
X128890000Y-98888748D02*
X128890000Y-100311252D01*
X130710000Y-98888748D02*
X130710000Y-100311252D01*
X123572936Y-97090000D02*
X125027064Y-97090000D01*
X123572936Y-98910000D02*
X125027064Y-98910000D01*
%LPC*%
D14*
X133270000Y-104563661D02*
X133301000Y-104566661D01*
X133332000Y-104571661D01*
X133363000Y-104577661D01*
X133394000Y-104585661D01*
X133424000Y-104595661D01*
X133453000Y-104606661D01*
X133482000Y-104618661D01*
X133510000Y-104632661D01*
X133538000Y-104648661D01*
X133565000Y-104665661D01*
X133590000Y-104683661D01*
X133615000Y-104703661D01*
X133639000Y-104724661D01*
X133661000Y-104746661D01*
X133682000Y-104769661D01*
X133702000Y-104793661D01*
X133721000Y-104819661D01*
X133739000Y-104845661D01*
X133755000Y-104872661D01*
X133769000Y-104900661D01*
X133782000Y-104929661D01*
X133794000Y-104958661D01*
X133804000Y-104988661D01*
X133812000Y-105019661D01*
X133819000Y-105049661D01*
X133824000Y-105081661D01*
X133828000Y-105112661D01*
X133830000Y-105147661D01*
X133828000Y-105182661D01*
X133824000Y-105213661D01*
X133819000Y-105245661D01*
X133812000Y-105275661D01*
X133804000Y-105306661D01*
X133794000Y-105336661D01*
X133782000Y-105365661D01*
X133769000Y-105394661D01*
X133755000Y-105422661D01*
X133739000Y-105449661D01*
X133721000Y-105475661D01*
X133702000Y-105501661D01*
X133682000Y-105525661D01*
X133661000Y-105548661D01*
X133639000Y-105570661D01*
X133615000Y-105591661D01*
X133590000Y-105611661D01*
X133565000Y-105629661D01*
X133538000Y-105646661D01*
X133510000Y-105662661D01*
X133482000Y-105676661D01*
X133453000Y-105688661D01*
X133424000Y-105699661D01*
X133394000Y-105709661D01*
X133363000Y-105717661D01*
X133332000Y-105723661D01*
X133301000Y-105728661D01*
X133270000Y-105731661D01*
X133238000Y-105732661D01*
X133210000Y-105732661D01*
X132210000Y-105732661D01*
X132182000Y-105732661D01*
X132150000Y-105731661D01*
X132119000Y-105728661D01*
X132088000Y-105723661D01*
X132057000Y-105717661D01*
X132026000Y-105709661D01*
X131996000Y-105699661D01*
X131967000Y-105688661D01*
X131938000Y-105676661D01*
X131910000Y-105662661D01*
X131882000Y-105646661D01*
X131855000Y-105629661D01*
X131830000Y-105611661D01*
X131805000Y-105591661D01*
X131781000Y-105570661D01*
X131759000Y-105548661D01*
X131738000Y-105525661D01*
X131718000Y-105501661D01*
X131699000Y-105475661D01*
X131681000Y-105449661D01*
X131665000Y-105422661D01*
X131651000Y-105394661D01*
X131638000Y-105365661D01*
X131626000Y-105336661D01*
X131616000Y-105306661D01*
X131608000Y-105275661D01*
X131601000Y-105245661D01*
X131596000Y-105213661D01*
X131592000Y-105182661D01*
X131590000Y-105147661D01*
X131592000Y-105112661D01*
X131596000Y-105081661D01*
X131601000Y-105049661D01*
X131608000Y-105019661D01*
X131616000Y-104988661D01*
X131626000Y-104958661D01*
X131638000Y-104929661D01*
X131651000Y-104900661D01*
X131665000Y-104872661D01*
X131681000Y-104845661D01*
X131699000Y-104819661D01*
X131718000Y-104793661D01*
X131738000Y-104769661D01*
X131759000Y-104746661D01*
X131781000Y-104724661D01*
X131805000Y-104703661D01*
X131830000Y-104683661D01*
X131855000Y-104665661D01*
X131882000Y-104648661D01*
X131910000Y-104632661D01*
X131938000Y-104618661D01*
X131967000Y-104606661D01*
X131996000Y-104595661D01*
X132026000Y-104585661D01*
X132057000Y-104577661D01*
X132088000Y-104571661D01*
X132119000Y-104566661D01*
X132150000Y-104563661D01*
X132182000Y-104562661D01*
X132210000Y-104562661D01*
X133210000Y-104562661D01*
X133238000Y-104562661D01*
X133270000Y-104563661D01*
G36*
X133270000Y-104563661D02*
G01*
X133301000Y-104566661D01*
X133332000Y-104571661D01*
X133363000Y-104577661D01*
X133394000Y-104585661D01*
X133424000Y-104595661D01*
X133453000Y-104606661D01*
X133482000Y-104618661D01*
X133510000Y-104632661D01*
X133538000Y-104648661D01*
X133565000Y-104665661D01*
X133590000Y-104683661D01*
X133615000Y-104703661D01*
X133639000Y-104724661D01*
X133661000Y-104746661D01*
X133682000Y-104769661D01*
X133702000Y-104793661D01*
X133721000Y-104819661D01*
X133739000Y-104845661D01*
X133755000Y-104872661D01*
X133769000Y-104900661D01*
X133782000Y-104929661D01*
X133794000Y-104958661D01*
X133804000Y-104988661D01*
X133812000Y-105019661D01*
X133819000Y-105049661D01*
X133824000Y-105081661D01*
X133828000Y-105112661D01*
X133830000Y-105147661D01*
X133828000Y-105182661D01*
X133824000Y-105213661D01*
X133819000Y-105245661D01*
X133812000Y-105275661D01*
X133804000Y-105306661D01*
X133794000Y-105336661D01*
X133782000Y-105365661D01*
X133769000Y-105394661D01*
X133755000Y-105422661D01*
X133739000Y-105449661D01*
X133721000Y-105475661D01*
X133702000Y-105501661D01*
X133682000Y-105525661D01*
X133661000Y-105548661D01*
X133639000Y-105570661D01*
X133615000Y-105591661D01*
X133590000Y-105611661D01*
X133565000Y-105629661D01*
X133538000Y-105646661D01*
X133510000Y-105662661D01*
X133482000Y-105676661D01*
X133453000Y-105688661D01*
X133424000Y-105699661D01*
X133394000Y-105709661D01*
X133363000Y-105717661D01*
X133332000Y-105723661D01*
X133301000Y-105728661D01*
X133270000Y-105731661D01*
X133238000Y-105732661D01*
X133210000Y-105732661D01*
X132210000Y-105732661D01*
X132182000Y-105732661D01*
X132150000Y-105731661D01*
X132119000Y-105728661D01*
X132088000Y-105723661D01*
X132057000Y-105717661D01*
X132026000Y-105709661D01*
X131996000Y-105699661D01*
X131967000Y-105688661D01*
X131938000Y-105676661D01*
X131910000Y-105662661D01*
X131882000Y-105646661D01*
X131855000Y-105629661D01*
X131830000Y-105611661D01*
X131805000Y-105591661D01*
X131781000Y-105570661D01*
X131759000Y-105548661D01*
X131738000Y-105525661D01*
X131718000Y-105501661D01*
X131699000Y-105475661D01*
X131681000Y-105449661D01*
X131665000Y-105422661D01*
X131651000Y-105394661D01*
X131638000Y-105365661D01*
X131626000Y-105336661D01*
X131616000Y-105306661D01*
X131608000Y-105275661D01*
X131601000Y-105245661D01*
X131596000Y-105213661D01*
X131592000Y-105182661D01*
X131590000Y-105147661D01*
X131592000Y-105112661D01*
X131596000Y-105081661D01*
X131601000Y-105049661D01*
X131608000Y-105019661D01*
X131616000Y-104988661D01*
X131626000Y-104958661D01*
X131638000Y-104929661D01*
X131651000Y-104900661D01*
X131665000Y-104872661D01*
X131681000Y-104845661D01*
X131699000Y-104819661D01*
X131718000Y-104793661D01*
X131738000Y-104769661D01*
X131759000Y-104746661D01*
X131781000Y-104724661D01*
X131805000Y-104703661D01*
X131830000Y-104683661D01*
X131855000Y-104665661D01*
X131882000Y-104648661D01*
X131910000Y-104632661D01*
X131938000Y-104618661D01*
X131967000Y-104606661D01*
X131996000Y-104595661D01*
X132026000Y-104585661D01*
X132057000Y-104577661D01*
X132088000Y-104571661D01*
X132119000Y-104566661D01*
X132150000Y-104563661D01*
X132182000Y-104562661D01*
X132210000Y-104562661D01*
X133210000Y-104562661D01*
X133238000Y-104562661D01*
X133270000Y-104563661D01*
G37*
X133270000Y-105833661D02*
X133301000Y-105836661D01*
X133332000Y-105841661D01*
X133363000Y-105847661D01*
X133394000Y-105855661D01*
X133424000Y-105865661D01*
X133453000Y-105876661D01*
X133482000Y-105888661D01*
X133510000Y-105902661D01*
X133538000Y-105918661D01*
X133565000Y-105935661D01*
X133590000Y-105953661D01*
X133615000Y-105973661D01*
X133639000Y-105994661D01*
X133661000Y-106016661D01*
X133682000Y-106039661D01*
X133702000Y-106063661D01*
X133721000Y-106089661D01*
X133739000Y-106115661D01*
X133755000Y-106142661D01*
X133769000Y-106170661D01*
X133782000Y-106199661D01*
X133794000Y-106228661D01*
X133804000Y-106258661D01*
X133812000Y-106289661D01*
X133819000Y-106319661D01*
X133824000Y-106351661D01*
X133828000Y-106382661D01*
X133830000Y-106417661D01*
X133828000Y-106452661D01*
X133824000Y-106483661D01*
X133819000Y-106515661D01*
X133812000Y-106545661D01*
X133804000Y-106576661D01*
X133794000Y-106606661D01*
X133782000Y-106635661D01*
X133769000Y-106664661D01*
X133755000Y-106692661D01*
X133739000Y-106719661D01*
X133721000Y-106745661D01*
X133702000Y-106771661D01*
X133682000Y-106795661D01*
X133661000Y-106818661D01*
X133639000Y-106840661D01*
X133615000Y-106861661D01*
X133590000Y-106881661D01*
X133565000Y-106899661D01*
X133538000Y-106916661D01*
X133510000Y-106932661D01*
X133482000Y-106946661D01*
X133453000Y-106958661D01*
X133424000Y-106969661D01*
X133394000Y-106979661D01*
X133363000Y-106987661D01*
X133332000Y-106993661D01*
X133301000Y-106998661D01*
X133270000Y-107001661D01*
X133238000Y-107002661D01*
X133210000Y-107002661D01*
X132210000Y-107002661D01*
X132182000Y-107002661D01*
X132150000Y-107001661D01*
X132119000Y-106998661D01*
X132088000Y-106993661D01*
X132057000Y-106987661D01*
X132026000Y-106979661D01*
X131996000Y-106969661D01*
X131967000Y-106958661D01*
X131938000Y-106946661D01*
X131910000Y-106932661D01*
X131882000Y-106916661D01*
X131855000Y-106899661D01*
X131830000Y-106881661D01*
X131805000Y-106861661D01*
X131781000Y-106840661D01*
X131759000Y-106818661D01*
X131738000Y-106795661D01*
X131718000Y-106771661D01*
X131699000Y-106745661D01*
X131681000Y-106719661D01*
X131665000Y-106692661D01*
X131651000Y-106664661D01*
X131638000Y-106635661D01*
X131626000Y-106606661D01*
X131616000Y-106576661D01*
X131608000Y-106545661D01*
X131601000Y-106515661D01*
X131596000Y-106483661D01*
X131592000Y-106452661D01*
X131590000Y-106417661D01*
X131592000Y-106382661D01*
X131596000Y-106351661D01*
X131601000Y-106319661D01*
X131608000Y-106289661D01*
X131616000Y-106258661D01*
X131626000Y-106228661D01*
X131638000Y-106199661D01*
X131651000Y-106170661D01*
X131665000Y-106142661D01*
X131681000Y-106115661D01*
X131699000Y-106089661D01*
X131718000Y-106063661D01*
X131738000Y-106039661D01*
X131759000Y-106016661D01*
X131781000Y-105994661D01*
X131805000Y-105973661D01*
X131830000Y-105953661D01*
X131855000Y-105935661D01*
X131882000Y-105918661D01*
X131910000Y-105902661D01*
X131938000Y-105888661D01*
X131967000Y-105876661D01*
X131996000Y-105865661D01*
X132026000Y-105855661D01*
X132057000Y-105847661D01*
X132088000Y-105841661D01*
X132119000Y-105836661D01*
X132150000Y-105833661D01*
X132182000Y-105832661D01*
X132210000Y-105832661D01*
X133210000Y-105832661D01*
X133238000Y-105832661D01*
X133270000Y-105833661D01*
G36*
X133270000Y-105833661D02*
G01*
X133301000Y-105836661D01*
X133332000Y-105841661D01*
X133363000Y-105847661D01*
X133394000Y-105855661D01*
X133424000Y-105865661D01*
X133453000Y-105876661D01*
X133482000Y-105888661D01*
X133510000Y-105902661D01*
X133538000Y-105918661D01*
X133565000Y-105935661D01*
X133590000Y-105953661D01*
X133615000Y-105973661D01*
X133639000Y-105994661D01*
X133661000Y-106016661D01*
X133682000Y-106039661D01*
X133702000Y-106063661D01*
X133721000Y-106089661D01*
X133739000Y-106115661D01*
X133755000Y-106142661D01*
X133769000Y-106170661D01*
X133782000Y-106199661D01*
X133794000Y-106228661D01*
X133804000Y-106258661D01*
X133812000Y-106289661D01*
X133819000Y-106319661D01*
X133824000Y-106351661D01*
X133828000Y-106382661D01*
X133830000Y-106417661D01*
X133828000Y-106452661D01*
X133824000Y-106483661D01*
X133819000Y-106515661D01*
X133812000Y-106545661D01*
X133804000Y-106576661D01*
X133794000Y-106606661D01*
X133782000Y-106635661D01*
X133769000Y-106664661D01*
X133755000Y-106692661D01*
X133739000Y-106719661D01*
X133721000Y-106745661D01*
X133702000Y-106771661D01*
X133682000Y-106795661D01*
X133661000Y-106818661D01*
X133639000Y-106840661D01*
X133615000Y-106861661D01*
X133590000Y-106881661D01*
X133565000Y-106899661D01*
X133538000Y-106916661D01*
X133510000Y-106932661D01*
X133482000Y-106946661D01*
X133453000Y-106958661D01*
X133424000Y-106969661D01*
X133394000Y-106979661D01*
X133363000Y-106987661D01*
X133332000Y-106993661D01*
X133301000Y-106998661D01*
X133270000Y-107001661D01*
X133238000Y-107002661D01*
X133210000Y-107002661D01*
X132210000Y-107002661D01*
X132182000Y-107002661D01*
X132150000Y-107001661D01*
X132119000Y-106998661D01*
X132088000Y-106993661D01*
X132057000Y-106987661D01*
X132026000Y-106979661D01*
X131996000Y-106969661D01*
X131967000Y-106958661D01*
X131938000Y-106946661D01*
X131910000Y-106932661D01*
X131882000Y-106916661D01*
X131855000Y-106899661D01*
X131830000Y-106881661D01*
X131805000Y-106861661D01*
X131781000Y-106840661D01*
X131759000Y-106818661D01*
X131738000Y-106795661D01*
X131718000Y-106771661D01*
X131699000Y-106745661D01*
X131681000Y-106719661D01*
X131665000Y-106692661D01*
X131651000Y-106664661D01*
X131638000Y-106635661D01*
X131626000Y-106606661D01*
X131616000Y-106576661D01*
X131608000Y-106545661D01*
X131601000Y-106515661D01*
X131596000Y-106483661D01*
X131592000Y-106452661D01*
X131590000Y-106417661D01*
X131592000Y-106382661D01*
X131596000Y-106351661D01*
X131601000Y-106319661D01*
X131608000Y-106289661D01*
X131616000Y-106258661D01*
X131626000Y-106228661D01*
X131638000Y-106199661D01*
X131651000Y-106170661D01*
X131665000Y-106142661D01*
X131681000Y-106115661D01*
X131699000Y-106089661D01*
X131718000Y-106063661D01*
X131738000Y-106039661D01*
X131759000Y-106016661D01*
X131781000Y-105994661D01*
X131805000Y-105973661D01*
X131830000Y-105953661D01*
X131855000Y-105935661D01*
X131882000Y-105918661D01*
X131910000Y-105902661D01*
X131938000Y-105888661D01*
X131967000Y-105876661D01*
X131996000Y-105865661D01*
X132026000Y-105855661D01*
X132057000Y-105847661D01*
X132088000Y-105841661D01*
X132119000Y-105836661D01*
X132150000Y-105833661D01*
X132182000Y-105832661D01*
X132210000Y-105832661D01*
X133210000Y-105832661D01*
X133238000Y-105832661D01*
X133270000Y-105833661D01*
G37*
X133270000Y-107103661D02*
X133301000Y-107106661D01*
X133332000Y-107111661D01*
X133363000Y-107117661D01*
X133394000Y-107125661D01*
X133424000Y-107135661D01*
X133453000Y-107146661D01*
X133482000Y-107158661D01*
X133510000Y-107172661D01*
X133538000Y-107188661D01*
X133565000Y-107205661D01*
X133590000Y-107223661D01*
X133615000Y-107243661D01*
X133639000Y-107264661D01*
X133661000Y-107286661D01*
X133682000Y-107309661D01*
X133702000Y-107333661D01*
X133721000Y-107359661D01*
X133739000Y-107385661D01*
X133755000Y-107412661D01*
X133769000Y-107440661D01*
X133782000Y-107469661D01*
X133794000Y-107498661D01*
X133804000Y-107528661D01*
X133812000Y-107559661D01*
X133819000Y-107589661D01*
X133824000Y-107621661D01*
X133828000Y-107652661D01*
X133830000Y-107687661D01*
X133828000Y-107722661D01*
X133824000Y-107753661D01*
X133819000Y-107785661D01*
X133812000Y-107815661D01*
X133804000Y-107846661D01*
X133794000Y-107876661D01*
X133782000Y-107905661D01*
X133769000Y-107934661D01*
X133755000Y-107962661D01*
X133739000Y-107989661D01*
X133721000Y-108015661D01*
X133702000Y-108041661D01*
X133682000Y-108065661D01*
X133661000Y-108088661D01*
X133639000Y-108110661D01*
X133615000Y-108131661D01*
X133590000Y-108151661D01*
X133565000Y-108169661D01*
X133538000Y-108186661D01*
X133510000Y-108202661D01*
X133482000Y-108216661D01*
X133453000Y-108228661D01*
X133424000Y-108239661D01*
X133394000Y-108249661D01*
X133363000Y-108257661D01*
X133332000Y-108263661D01*
X133301000Y-108268661D01*
X133270000Y-108271661D01*
X133238000Y-108272661D01*
X133210000Y-108272661D01*
X132210000Y-108272661D01*
X132182000Y-108272661D01*
X132150000Y-108271661D01*
X132119000Y-108268661D01*
X132088000Y-108263661D01*
X132057000Y-108257661D01*
X132026000Y-108249661D01*
X131996000Y-108239661D01*
X131967000Y-108228661D01*
X131938000Y-108216661D01*
X131910000Y-108202661D01*
X131882000Y-108186661D01*
X131855000Y-108169661D01*
X131830000Y-108151661D01*
X131805000Y-108131661D01*
X131781000Y-108110661D01*
X131759000Y-108088661D01*
X131738000Y-108065661D01*
X131718000Y-108041661D01*
X131699000Y-108015661D01*
X131681000Y-107989661D01*
X131665000Y-107962661D01*
X131651000Y-107934661D01*
X131638000Y-107905661D01*
X131626000Y-107876661D01*
X131616000Y-107846661D01*
X131608000Y-107815661D01*
X131601000Y-107785661D01*
X131596000Y-107753661D01*
X131592000Y-107722661D01*
X131590000Y-107687661D01*
X131592000Y-107652661D01*
X131596000Y-107621661D01*
X131601000Y-107589661D01*
X131608000Y-107559661D01*
X131616000Y-107528661D01*
X131626000Y-107498661D01*
X131638000Y-107469661D01*
X131651000Y-107440661D01*
X131665000Y-107412661D01*
X131681000Y-107385661D01*
X131699000Y-107359661D01*
X131718000Y-107333661D01*
X131738000Y-107309661D01*
X131759000Y-107286661D01*
X131781000Y-107264661D01*
X131805000Y-107243661D01*
X131830000Y-107223661D01*
X131855000Y-107205661D01*
X131882000Y-107188661D01*
X131910000Y-107172661D01*
X131938000Y-107158661D01*
X131967000Y-107146661D01*
X131996000Y-107135661D01*
X132026000Y-107125661D01*
X132057000Y-107117661D01*
X132088000Y-107111661D01*
X132119000Y-107106661D01*
X132150000Y-107103661D01*
X132182000Y-107102661D01*
X132210000Y-107102661D01*
X133210000Y-107102661D01*
X133238000Y-107102661D01*
X133270000Y-107103661D01*
G36*
X133270000Y-107103661D02*
G01*
X133301000Y-107106661D01*
X133332000Y-107111661D01*
X133363000Y-107117661D01*
X133394000Y-107125661D01*
X133424000Y-107135661D01*
X133453000Y-107146661D01*
X133482000Y-107158661D01*
X133510000Y-107172661D01*
X133538000Y-107188661D01*
X133565000Y-107205661D01*
X133590000Y-107223661D01*
X133615000Y-107243661D01*
X133639000Y-107264661D01*
X133661000Y-107286661D01*
X133682000Y-107309661D01*
X133702000Y-107333661D01*
X133721000Y-107359661D01*
X133739000Y-107385661D01*
X133755000Y-107412661D01*
X133769000Y-107440661D01*
X133782000Y-107469661D01*
X133794000Y-107498661D01*
X133804000Y-107528661D01*
X133812000Y-107559661D01*
X133819000Y-107589661D01*
X133824000Y-107621661D01*
X133828000Y-107652661D01*
X133830000Y-107687661D01*
X133828000Y-107722661D01*
X133824000Y-107753661D01*
X133819000Y-107785661D01*
X133812000Y-107815661D01*
X133804000Y-107846661D01*
X133794000Y-107876661D01*
X133782000Y-107905661D01*
X133769000Y-107934661D01*
X133755000Y-107962661D01*
X133739000Y-107989661D01*
X133721000Y-108015661D01*
X133702000Y-108041661D01*
X133682000Y-108065661D01*
X133661000Y-108088661D01*
X133639000Y-108110661D01*
X133615000Y-108131661D01*
X133590000Y-108151661D01*
X133565000Y-108169661D01*
X133538000Y-108186661D01*
X133510000Y-108202661D01*
X133482000Y-108216661D01*
X133453000Y-108228661D01*
X133424000Y-108239661D01*
X133394000Y-108249661D01*
X133363000Y-108257661D01*
X133332000Y-108263661D01*
X133301000Y-108268661D01*
X133270000Y-108271661D01*
X133238000Y-108272661D01*
X133210000Y-108272661D01*
X132210000Y-108272661D01*
X132182000Y-108272661D01*
X132150000Y-108271661D01*
X132119000Y-108268661D01*
X132088000Y-108263661D01*
X132057000Y-108257661D01*
X132026000Y-108249661D01*
X131996000Y-108239661D01*
X131967000Y-108228661D01*
X131938000Y-108216661D01*
X131910000Y-108202661D01*
X131882000Y-108186661D01*
X131855000Y-108169661D01*
X131830000Y-108151661D01*
X131805000Y-108131661D01*
X131781000Y-108110661D01*
X131759000Y-108088661D01*
X131738000Y-108065661D01*
X131718000Y-108041661D01*
X131699000Y-108015661D01*
X131681000Y-107989661D01*
X131665000Y-107962661D01*
X131651000Y-107934661D01*
X131638000Y-107905661D01*
X131626000Y-107876661D01*
X131616000Y-107846661D01*
X131608000Y-107815661D01*
X131601000Y-107785661D01*
X131596000Y-107753661D01*
X131592000Y-107722661D01*
X131590000Y-107687661D01*
X131592000Y-107652661D01*
X131596000Y-107621661D01*
X131601000Y-107589661D01*
X131608000Y-107559661D01*
X131616000Y-107528661D01*
X131626000Y-107498661D01*
X131638000Y-107469661D01*
X131651000Y-107440661D01*
X131665000Y-107412661D01*
X131681000Y-107385661D01*
X131699000Y-107359661D01*
X131718000Y-107333661D01*
X131738000Y-107309661D01*
X131759000Y-107286661D01*
X131781000Y-107264661D01*
X131805000Y-107243661D01*
X131830000Y-107223661D01*
X131855000Y-107205661D01*
X131882000Y-107188661D01*
X131910000Y-107172661D01*
X131938000Y-107158661D01*
X131967000Y-107146661D01*
X131996000Y-107135661D01*
X132026000Y-107125661D01*
X132057000Y-107117661D01*
X132088000Y-107111661D01*
X132119000Y-107106661D01*
X132150000Y-107103661D01*
X132182000Y-107102661D01*
X132210000Y-107102661D01*
X133210000Y-107102661D01*
X133238000Y-107102661D01*
X133270000Y-107103661D01*
G37*
X158532800Y-95439500D02*
X158563800Y-95443500D01*
X158595800Y-95448500D01*
X158625800Y-95455500D01*
X158656800Y-95463500D01*
X158686800Y-95473500D01*
X158715800Y-95485500D01*
X158744800Y-95498500D01*
X158772800Y-95512500D01*
X158799800Y-95528500D01*
X158825800Y-95546500D01*
X158851800Y-95565500D01*
X158875800Y-95585500D01*
X158898800Y-95606500D01*
X158920800Y-95628500D01*
X158941800Y-95652500D01*
X158961800Y-95677500D01*
X158979800Y-95702500D01*
X158996800Y-95729500D01*
X159012800Y-95757500D01*
X159026800Y-95785500D01*
X159038800Y-95814500D01*
X159049800Y-95843500D01*
X159059800Y-95873500D01*
X159067800Y-95904500D01*
X159073800Y-95935500D01*
X159078800Y-95966500D01*
X159081800Y-95997500D01*
X159082800Y-96029500D01*
X159082800Y-96057500D01*
X159082800Y-97057500D01*
X159082800Y-97085500D01*
X159081800Y-97117500D01*
X159078800Y-97148500D01*
X159073800Y-97179500D01*
X159067800Y-97210500D01*
X159059800Y-97241500D01*
X159049800Y-97271500D01*
X159038800Y-97300500D01*
X159026800Y-97329500D01*
X159012800Y-97357500D01*
X158996800Y-97385500D01*
X158979800Y-97412500D01*
X158961800Y-97437500D01*
X158941800Y-97462500D01*
X158920800Y-97486500D01*
X158898800Y-97508500D01*
X158875800Y-97529500D01*
X158851800Y-97549500D01*
X158825800Y-97568500D01*
X158799800Y-97586500D01*
X158772800Y-97602500D01*
X158744800Y-97616500D01*
X158715800Y-97629500D01*
X158686800Y-97641500D01*
X158656800Y-97651500D01*
X158625800Y-97659500D01*
X158595800Y-97666500D01*
X158563800Y-97671500D01*
X158532800Y-97675500D01*
X158497800Y-97677500D01*
X158462800Y-97675500D01*
X158431800Y-97671500D01*
X158399800Y-97666500D01*
X158369800Y-97659500D01*
X158338800Y-97651500D01*
X158308800Y-97641500D01*
X158279800Y-97629500D01*
X158250800Y-97616500D01*
X158222800Y-97602500D01*
X158195800Y-97586500D01*
X158169800Y-97568500D01*
X158143800Y-97549500D01*
X158119800Y-97529500D01*
X158096800Y-97508500D01*
X158074800Y-97486500D01*
X158053800Y-97462500D01*
X158033800Y-97437500D01*
X158015800Y-97412500D01*
X157998800Y-97385500D01*
X157982800Y-97357500D01*
X157968800Y-97329500D01*
X157956800Y-97300500D01*
X157945800Y-97271500D01*
X157935800Y-97241500D01*
X157927800Y-97210500D01*
X157921800Y-97179500D01*
X157916800Y-97148500D01*
X157913800Y-97117500D01*
X157912800Y-97085500D01*
X157912800Y-97057500D01*
X157912800Y-96057500D01*
X157912800Y-96029500D01*
X157913800Y-95997500D01*
X157916800Y-95966500D01*
X157921800Y-95935500D01*
X157927800Y-95904500D01*
X157935800Y-95873500D01*
X157945800Y-95843500D01*
X157956800Y-95814500D01*
X157968800Y-95785500D01*
X157982800Y-95757500D01*
X157998800Y-95729500D01*
X158015800Y-95702500D01*
X158033800Y-95677500D01*
X158053800Y-95652500D01*
X158074800Y-95628500D01*
X158096800Y-95606500D01*
X158119800Y-95585500D01*
X158143800Y-95565500D01*
X158169800Y-95546500D01*
X158195800Y-95528500D01*
X158222800Y-95512500D01*
X158250800Y-95498500D01*
X158279800Y-95485500D01*
X158308800Y-95473500D01*
X158338800Y-95463500D01*
X158369800Y-95455500D01*
X158399800Y-95448500D01*
X158431800Y-95443500D01*
X158462800Y-95439500D01*
X158497800Y-95437500D01*
X158532800Y-95439500D01*
G36*
X158532800Y-95439500D02*
G01*
X158563800Y-95443500D01*
X158595800Y-95448500D01*
X158625800Y-95455500D01*
X158656800Y-95463500D01*
X158686800Y-95473500D01*
X158715800Y-95485500D01*
X158744800Y-95498500D01*
X158772800Y-95512500D01*
X158799800Y-95528500D01*
X158825800Y-95546500D01*
X158851800Y-95565500D01*
X158875800Y-95585500D01*
X158898800Y-95606500D01*
X158920800Y-95628500D01*
X158941800Y-95652500D01*
X158961800Y-95677500D01*
X158979800Y-95702500D01*
X158996800Y-95729500D01*
X159012800Y-95757500D01*
X159026800Y-95785500D01*
X159038800Y-95814500D01*
X159049800Y-95843500D01*
X159059800Y-95873500D01*
X159067800Y-95904500D01*
X159073800Y-95935500D01*
X159078800Y-95966500D01*
X159081800Y-95997500D01*
X159082800Y-96029500D01*
X159082800Y-96057500D01*
X159082800Y-97057500D01*
X159082800Y-97085500D01*
X159081800Y-97117500D01*
X159078800Y-97148500D01*
X159073800Y-97179500D01*
X159067800Y-97210500D01*
X159059800Y-97241500D01*
X159049800Y-97271500D01*
X159038800Y-97300500D01*
X159026800Y-97329500D01*
X159012800Y-97357500D01*
X158996800Y-97385500D01*
X158979800Y-97412500D01*
X158961800Y-97437500D01*
X158941800Y-97462500D01*
X158920800Y-97486500D01*
X158898800Y-97508500D01*
X158875800Y-97529500D01*
X158851800Y-97549500D01*
X158825800Y-97568500D01*
X158799800Y-97586500D01*
X158772800Y-97602500D01*
X158744800Y-97616500D01*
X158715800Y-97629500D01*
X158686800Y-97641500D01*
X158656800Y-97651500D01*
X158625800Y-97659500D01*
X158595800Y-97666500D01*
X158563800Y-97671500D01*
X158532800Y-97675500D01*
X158497800Y-97677500D01*
X158462800Y-97675500D01*
X158431800Y-97671500D01*
X158399800Y-97666500D01*
X158369800Y-97659500D01*
X158338800Y-97651500D01*
X158308800Y-97641500D01*
X158279800Y-97629500D01*
X158250800Y-97616500D01*
X158222800Y-97602500D01*
X158195800Y-97586500D01*
X158169800Y-97568500D01*
X158143800Y-97549500D01*
X158119800Y-97529500D01*
X158096800Y-97508500D01*
X158074800Y-97486500D01*
X158053800Y-97462500D01*
X158033800Y-97437500D01*
X158015800Y-97412500D01*
X157998800Y-97385500D01*
X157982800Y-97357500D01*
X157968800Y-97329500D01*
X157956800Y-97300500D01*
X157945800Y-97271500D01*
X157935800Y-97241500D01*
X157927800Y-97210500D01*
X157921800Y-97179500D01*
X157916800Y-97148500D01*
X157913800Y-97117500D01*
X157912800Y-97085500D01*
X157912800Y-97057500D01*
X157912800Y-96057500D01*
X157912800Y-96029500D01*
X157913800Y-95997500D01*
X157916800Y-95966500D01*
X157921800Y-95935500D01*
X157927800Y-95904500D01*
X157935800Y-95873500D01*
X157945800Y-95843500D01*
X157956800Y-95814500D01*
X157968800Y-95785500D01*
X157982800Y-95757500D01*
X157998800Y-95729500D01*
X158015800Y-95702500D01*
X158033800Y-95677500D01*
X158053800Y-95652500D01*
X158074800Y-95628500D01*
X158096800Y-95606500D01*
X158119800Y-95585500D01*
X158143800Y-95565500D01*
X158169800Y-95546500D01*
X158195800Y-95528500D01*
X158222800Y-95512500D01*
X158250800Y-95498500D01*
X158279800Y-95485500D01*
X158308800Y-95473500D01*
X158338800Y-95463500D01*
X158369800Y-95455500D01*
X158399800Y-95448500D01*
X158431800Y-95443500D01*
X158462800Y-95439500D01*
X158497800Y-95437500D01*
X158532800Y-95439500D01*
G37*
X159802800Y-95439500D02*
X159833800Y-95443500D01*
X159865800Y-95448500D01*
X159895800Y-95455500D01*
X159926800Y-95463500D01*
X159956800Y-95473500D01*
X159985800Y-95485500D01*
X160014800Y-95498500D01*
X160042800Y-95512500D01*
X160069800Y-95528500D01*
X160095800Y-95546500D01*
X160121800Y-95565500D01*
X160145800Y-95585500D01*
X160168800Y-95606500D01*
X160190800Y-95628500D01*
X160211800Y-95652500D01*
X160231800Y-95677500D01*
X160249800Y-95702500D01*
X160266800Y-95729500D01*
X160282800Y-95757500D01*
X160296800Y-95785500D01*
X160308800Y-95814500D01*
X160319800Y-95843500D01*
X160329800Y-95873500D01*
X160337800Y-95904500D01*
X160343800Y-95935500D01*
X160348800Y-95966500D01*
X160351800Y-95997500D01*
X160352800Y-96029500D01*
X160352800Y-96057500D01*
X160352800Y-97057500D01*
X160352800Y-97085500D01*
X160351800Y-97117500D01*
X160348800Y-97148500D01*
X160343800Y-97179500D01*
X160337800Y-97210500D01*
X160329800Y-97241500D01*
X160319800Y-97271500D01*
X160308800Y-97300500D01*
X160296800Y-97329500D01*
X160282800Y-97357500D01*
X160266800Y-97385500D01*
X160249800Y-97412500D01*
X160231800Y-97437500D01*
X160211800Y-97462500D01*
X160190800Y-97486500D01*
X160168800Y-97508500D01*
X160145800Y-97529500D01*
X160121800Y-97549500D01*
X160095800Y-97568500D01*
X160069800Y-97586500D01*
X160042800Y-97602500D01*
X160014800Y-97616500D01*
X159985800Y-97629500D01*
X159956800Y-97641500D01*
X159926800Y-97651500D01*
X159895800Y-97659500D01*
X159865800Y-97666500D01*
X159833800Y-97671500D01*
X159802800Y-97675500D01*
X159767800Y-97677500D01*
X159732800Y-97675500D01*
X159701800Y-97671500D01*
X159669800Y-97666500D01*
X159639800Y-97659500D01*
X159608800Y-97651500D01*
X159578800Y-97641500D01*
X159549800Y-97629500D01*
X159520800Y-97616500D01*
X159492800Y-97602500D01*
X159465800Y-97586500D01*
X159439800Y-97568500D01*
X159413800Y-97549500D01*
X159389800Y-97529500D01*
X159366800Y-97508500D01*
X159344800Y-97486500D01*
X159323800Y-97462500D01*
X159303800Y-97437500D01*
X159285800Y-97412500D01*
X159268800Y-97385500D01*
X159252800Y-97357500D01*
X159238800Y-97329500D01*
X159226800Y-97300500D01*
X159215800Y-97271500D01*
X159205800Y-97241500D01*
X159197800Y-97210500D01*
X159191800Y-97179500D01*
X159186800Y-97148500D01*
X159183800Y-97117500D01*
X159182800Y-97085500D01*
X159182800Y-97057500D01*
X159182800Y-96057500D01*
X159182800Y-96029500D01*
X159183800Y-95997500D01*
X159186800Y-95966500D01*
X159191800Y-95935500D01*
X159197800Y-95904500D01*
X159205800Y-95873500D01*
X159215800Y-95843500D01*
X159226800Y-95814500D01*
X159238800Y-95785500D01*
X159252800Y-95757500D01*
X159268800Y-95729500D01*
X159285800Y-95702500D01*
X159303800Y-95677500D01*
X159323800Y-95652500D01*
X159344800Y-95628500D01*
X159366800Y-95606500D01*
X159389800Y-95585500D01*
X159413800Y-95565500D01*
X159439800Y-95546500D01*
X159465800Y-95528500D01*
X159492800Y-95512500D01*
X159520800Y-95498500D01*
X159549800Y-95485500D01*
X159578800Y-95473500D01*
X159608800Y-95463500D01*
X159639800Y-95455500D01*
X159669800Y-95448500D01*
X159701800Y-95443500D01*
X159732800Y-95439500D01*
X159767800Y-95437500D01*
X159802800Y-95439500D01*
G36*
X159802800Y-95439500D02*
G01*
X159833800Y-95443500D01*
X159865800Y-95448500D01*
X159895800Y-95455500D01*
X159926800Y-95463500D01*
X159956800Y-95473500D01*
X159985800Y-95485500D01*
X160014800Y-95498500D01*
X160042800Y-95512500D01*
X160069800Y-95528500D01*
X160095800Y-95546500D01*
X160121800Y-95565500D01*
X160145800Y-95585500D01*
X160168800Y-95606500D01*
X160190800Y-95628500D01*
X160211800Y-95652500D01*
X160231800Y-95677500D01*
X160249800Y-95702500D01*
X160266800Y-95729500D01*
X160282800Y-95757500D01*
X160296800Y-95785500D01*
X160308800Y-95814500D01*
X160319800Y-95843500D01*
X160329800Y-95873500D01*
X160337800Y-95904500D01*
X160343800Y-95935500D01*
X160348800Y-95966500D01*
X160351800Y-95997500D01*
X160352800Y-96029500D01*
X160352800Y-96057500D01*
X160352800Y-97057500D01*
X160352800Y-97085500D01*
X160351800Y-97117500D01*
X160348800Y-97148500D01*
X160343800Y-97179500D01*
X160337800Y-97210500D01*
X160329800Y-97241500D01*
X160319800Y-97271500D01*
X160308800Y-97300500D01*
X160296800Y-97329500D01*
X160282800Y-97357500D01*
X160266800Y-97385500D01*
X160249800Y-97412500D01*
X160231800Y-97437500D01*
X160211800Y-97462500D01*
X160190800Y-97486500D01*
X160168800Y-97508500D01*
X160145800Y-97529500D01*
X160121800Y-97549500D01*
X160095800Y-97568500D01*
X160069800Y-97586500D01*
X160042800Y-97602500D01*
X160014800Y-97616500D01*
X159985800Y-97629500D01*
X159956800Y-97641500D01*
X159926800Y-97651500D01*
X159895800Y-97659500D01*
X159865800Y-97666500D01*
X159833800Y-97671500D01*
X159802800Y-97675500D01*
X159767800Y-97677500D01*
X159732800Y-97675500D01*
X159701800Y-97671500D01*
X159669800Y-97666500D01*
X159639800Y-97659500D01*
X159608800Y-97651500D01*
X159578800Y-97641500D01*
X159549800Y-97629500D01*
X159520800Y-97616500D01*
X159492800Y-97602500D01*
X159465800Y-97586500D01*
X159439800Y-97568500D01*
X159413800Y-97549500D01*
X159389800Y-97529500D01*
X159366800Y-97508500D01*
X159344800Y-97486500D01*
X159323800Y-97462500D01*
X159303800Y-97437500D01*
X159285800Y-97412500D01*
X159268800Y-97385500D01*
X159252800Y-97357500D01*
X159238800Y-97329500D01*
X159226800Y-97300500D01*
X159215800Y-97271500D01*
X159205800Y-97241500D01*
X159197800Y-97210500D01*
X159191800Y-97179500D01*
X159186800Y-97148500D01*
X159183800Y-97117500D01*
X159182800Y-97085500D01*
X159182800Y-97057500D01*
X159182800Y-96057500D01*
X159182800Y-96029500D01*
X159183800Y-95997500D01*
X159186800Y-95966500D01*
X159191800Y-95935500D01*
X159197800Y-95904500D01*
X159205800Y-95873500D01*
X159215800Y-95843500D01*
X159226800Y-95814500D01*
X159238800Y-95785500D01*
X159252800Y-95757500D01*
X159268800Y-95729500D01*
X159285800Y-95702500D01*
X159303800Y-95677500D01*
X159323800Y-95652500D01*
X159344800Y-95628500D01*
X159366800Y-95606500D01*
X159389800Y-95585500D01*
X159413800Y-95565500D01*
X159439800Y-95546500D01*
X159465800Y-95528500D01*
X159492800Y-95512500D01*
X159520800Y-95498500D01*
X159549800Y-95485500D01*
X159578800Y-95473500D01*
X159608800Y-95463500D01*
X159639800Y-95455500D01*
X159669800Y-95448500D01*
X159701800Y-95443500D01*
X159732800Y-95439500D01*
X159767800Y-95437500D01*
X159802800Y-95439500D01*
G37*
X161072800Y-95439500D02*
X161103800Y-95443500D01*
X161135800Y-95448500D01*
X161165800Y-95455500D01*
X161196800Y-95463500D01*
X161226800Y-95473500D01*
X161255800Y-95485500D01*
X161284800Y-95498500D01*
X161312800Y-95512500D01*
X161339800Y-95528500D01*
X161365800Y-95546500D01*
X161391800Y-95565500D01*
X161415800Y-95585500D01*
X161438800Y-95606500D01*
X161460800Y-95628500D01*
X161481800Y-95652500D01*
X161501800Y-95677500D01*
X161519800Y-95702500D01*
X161536800Y-95729500D01*
X161552800Y-95757500D01*
X161566800Y-95785500D01*
X161578800Y-95814500D01*
X161589800Y-95843500D01*
X161599800Y-95873500D01*
X161607800Y-95904500D01*
X161613800Y-95935500D01*
X161618800Y-95966500D01*
X161621800Y-95997500D01*
X161622800Y-96029500D01*
X161622800Y-96057500D01*
X161622800Y-97057500D01*
X161622800Y-97085500D01*
X161621800Y-97117500D01*
X161618800Y-97148500D01*
X161613800Y-97179500D01*
X161607800Y-97210500D01*
X161599800Y-97241500D01*
X161589800Y-97271500D01*
X161578800Y-97300500D01*
X161566800Y-97329500D01*
X161552800Y-97357500D01*
X161536800Y-97385500D01*
X161519800Y-97412500D01*
X161501800Y-97437500D01*
X161481800Y-97462500D01*
X161460800Y-97486500D01*
X161438800Y-97508500D01*
X161415800Y-97529500D01*
X161391800Y-97549500D01*
X161365800Y-97568500D01*
X161339800Y-97586500D01*
X161312800Y-97602500D01*
X161284800Y-97616500D01*
X161255800Y-97629500D01*
X161226800Y-97641500D01*
X161196800Y-97651500D01*
X161165800Y-97659500D01*
X161135800Y-97666500D01*
X161103800Y-97671500D01*
X161072800Y-97675500D01*
X161037800Y-97677500D01*
X161002800Y-97675500D01*
X160971800Y-97671500D01*
X160939800Y-97666500D01*
X160909800Y-97659500D01*
X160878800Y-97651500D01*
X160848800Y-97641500D01*
X160819800Y-97629500D01*
X160790800Y-97616500D01*
X160762800Y-97602500D01*
X160735800Y-97586500D01*
X160709800Y-97568500D01*
X160683800Y-97549500D01*
X160659800Y-97529500D01*
X160636800Y-97508500D01*
X160614800Y-97486500D01*
X160593800Y-97462500D01*
X160573800Y-97437500D01*
X160555800Y-97412500D01*
X160538800Y-97385500D01*
X160522800Y-97357500D01*
X160508800Y-97329500D01*
X160496800Y-97300500D01*
X160485800Y-97271500D01*
X160475800Y-97241500D01*
X160467800Y-97210500D01*
X160461800Y-97179500D01*
X160456800Y-97148500D01*
X160453800Y-97117500D01*
X160452800Y-97085500D01*
X160452800Y-97057500D01*
X160452800Y-96057500D01*
X160452800Y-96029500D01*
X160453800Y-95997500D01*
X160456800Y-95966500D01*
X160461800Y-95935500D01*
X160467800Y-95904500D01*
X160475800Y-95873500D01*
X160485800Y-95843500D01*
X160496800Y-95814500D01*
X160508800Y-95785500D01*
X160522800Y-95757500D01*
X160538800Y-95729500D01*
X160555800Y-95702500D01*
X160573800Y-95677500D01*
X160593800Y-95652500D01*
X160614800Y-95628500D01*
X160636800Y-95606500D01*
X160659800Y-95585500D01*
X160683800Y-95565500D01*
X160709800Y-95546500D01*
X160735800Y-95528500D01*
X160762800Y-95512500D01*
X160790800Y-95498500D01*
X160819800Y-95485500D01*
X160848800Y-95473500D01*
X160878800Y-95463500D01*
X160909800Y-95455500D01*
X160939800Y-95448500D01*
X160971800Y-95443500D01*
X161002800Y-95439500D01*
X161037800Y-95437500D01*
X161072800Y-95439500D01*
G36*
X161072800Y-95439500D02*
G01*
X161103800Y-95443500D01*
X161135800Y-95448500D01*
X161165800Y-95455500D01*
X161196800Y-95463500D01*
X161226800Y-95473500D01*
X161255800Y-95485500D01*
X161284800Y-95498500D01*
X161312800Y-95512500D01*
X161339800Y-95528500D01*
X161365800Y-95546500D01*
X161391800Y-95565500D01*
X161415800Y-95585500D01*
X161438800Y-95606500D01*
X161460800Y-95628500D01*
X161481800Y-95652500D01*
X161501800Y-95677500D01*
X161519800Y-95702500D01*
X161536800Y-95729500D01*
X161552800Y-95757500D01*
X161566800Y-95785500D01*
X161578800Y-95814500D01*
X161589800Y-95843500D01*
X161599800Y-95873500D01*
X161607800Y-95904500D01*
X161613800Y-95935500D01*
X161618800Y-95966500D01*
X161621800Y-95997500D01*
X161622800Y-96029500D01*
X161622800Y-96057500D01*
X161622800Y-97057500D01*
X161622800Y-97085500D01*
X161621800Y-97117500D01*
X161618800Y-97148500D01*
X161613800Y-97179500D01*
X161607800Y-97210500D01*
X161599800Y-97241500D01*
X161589800Y-97271500D01*
X161578800Y-97300500D01*
X161566800Y-97329500D01*
X161552800Y-97357500D01*
X161536800Y-97385500D01*
X161519800Y-97412500D01*
X161501800Y-97437500D01*
X161481800Y-97462500D01*
X161460800Y-97486500D01*
X161438800Y-97508500D01*
X161415800Y-97529500D01*
X161391800Y-97549500D01*
X161365800Y-97568500D01*
X161339800Y-97586500D01*
X161312800Y-97602500D01*
X161284800Y-97616500D01*
X161255800Y-97629500D01*
X161226800Y-97641500D01*
X161196800Y-97651500D01*
X161165800Y-97659500D01*
X161135800Y-97666500D01*
X161103800Y-97671500D01*
X161072800Y-97675500D01*
X161037800Y-97677500D01*
X161002800Y-97675500D01*
X160971800Y-97671500D01*
X160939800Y-97666500D01*
X160909800Y-97659500D01*
X160878800Y-97651500D01*
X160848800Y-97641500D01*
X160819800Y-97629500D01*
X160790800Y-97616500D01*
X160762800Y-97602500D01*
X160735800Y-97586500D01*
X160709800Y-97568500D01*
X160683800Y-97549500D01*
X160659800Y-97529500D01*
X160636800Y-97508500D01*
X160614800Y-97486500D01*
X160593800Y-97462500D01*
X160573800Y-97437500D01*
X160555800Y-97412500D01*
X160538800Y-97385500D01*
X160522800Y-97357500D01*
X160508800Y-97329500D01*
X160496800Y-97300500D01*
X160485800Y-97271500D01*
X160475800Y-97241500D01*
X160467800Y-97210500D01*
X160461800Y-97179500D01*
X160456800Y-97148500D01*
X160453800Y-97117500D01*
X160452800Y-97085500D01*
X160452800Y-97057500D01*
X160452800Y-96057500D01*
X160452800Y-96029500D01*
X160453800Y-95997500D01*
X160456800Y-95966500D01*
X160461800Y-95935500D01*
X160467800Y-95904500D01*
X160475800Y-95873500D01*
X160485800Y-95843500D01*
X160496800Y-95814500D01*
X160508800Y-95785500D01*
X160522800Y-95757500D01*
X160538800Y-95729500D01*
X160555800Y-95702500D01*
X160573800Y-95677500D01*
X160593800Y-95652500D01*
X160614800Y-95628500D01*
X160636800Y-95606500D01*
X160659800Y-95585500D01*
X160683800Y-95565500D01*
X160709800Y-95546500D01*
X160735800Y-95528500D01*
X160762800Y-95512500D01*
X160790800Y-95498500D01*
X160819800Y-95485500D01*
X160848800Y-95473500D01*
X160878800Y-95463500D01*
X160909800Y-95455500D01*
X160939800Y-95448500D01*
X160971800Y-95443500D01*
X161002800Y-95439500D01*
X161037800Y-95437500D01*
X161072800Y-95439500D01*
G37*
D15*
X114140000Y-107900000D03*
X111600000Y-110440000D03*
X116680000Y-110440000D03*
X111600000Y-105360000D03*
X116680000Y-105360000D03*
D16*
X124740000Y-85590000D03*
D17*
X129820000Y-85590000D03*
D18*
X139220000Y-82150000D03*
D19*
X144220000Y-82150000D03*
D20*
X112040000Y-80100000D03*
D21*
X114580000Y-80100000D03*
X117120000Y-80100000D03*
X119660000Y-80100000D03*
X122200000Y-80100000D03*
X124740000Y-80100000D03*
X127280000Y-80100000D03*
X129820000Y-80100000D03*
X132360000Y-80100000D03*
X134900000Y-80100000D03*
D16*
X114320000Y-90270000D03*
D17*
X119400000Y-90270000D03*
D20*
X160300000Y-80100000D03*
D21*
X162840000Y-80100000D03*
X165380000Y-80100000D03*
X167920000Y-80100000D03*
X170460000Y-80100000D03*
X173000000Y-80100000D03*
X175540000Y-80100000D03*
X178080000Y-80100000D03*
D16*
X129260101Y-90270000D03*
D17*
X124180101Y-90270000D03*
D16*
X164400000Y-108300000D03*
D17*
X164400000Y-103220000D03*
D18*
X152300000Y-82150000D03*
D19*
X147300000Y-82150000D03*
D18*
X157470000Y-87090000D03*
D19*
X162470000Y-87090000D03*
D16*
X159840050Y-103620000D03*
D17*
X159840050Y-108700000D03*
D22*
X140110000Y-88690000D03*
D23*
X141380000Y-88690000D03*
X142650000Y-88690000D03*
D16*
X118900000Y-85700000D03*
D17*
X113820000Y-85700000D03*
D22*
X151050000Y-88000000D03*
D23*
X149780000Y-88000000D03*
X148510000Y-88000000D03*
D18*
X147290000Y-109270000D03*
D19*
X147290000Y-104270000D03*
D24*
X122750000Y-94000000D03*
X125850000Y-94000000D03*
D25*
X151262500Y-84600000D03*
X148137500Y-84600000D03*
D26*
X133600000Y-99110000D03*
X133600000Y-97840000D03*
X133600000Y-96570000D03*
X133600000Y-95300000D03*
X133600000Y-94030000D03*
X133600000Y-92760000D03*
X133600000Y-91490000D03*
X138550000Y-91490000D03*
X138550000Y-92760000D03*
X138550000Y-94030000D03*
X138550000Y-95300000D03*
X138550000Y-96570000D03*
X138550000Y-97840000D03*
X138550000Y-99110000D03*
X146650000Y-99110000D03*
X146650000Y-97840000D03*
X146650000Y-96570000D03*
X146650000Y-95300000D03*
X146650000Y-94030000D03*
X146650000Y-92760000D03*
X146650000Y-91490000D03*
X151600000Y-91490000D03*
X151600000Y-92760000D03*
X151600000Y-94030000D03*
X151600000Y-95300000D03*
X151600000Y-96570000D03*
X151600000Y-97840000D03*
X151600000Y-99110000D03*
D27*
X155610000Y-98050000D03*
X155610000Y-101150000D03*
D28*
X142700000Y-98037500D03*
X142700000Y-101162500D03*
D29*
X144000000Y-109162500D03*
X144000000Y-106037500D03*
D27*
X136000000Y-106050000D03*
X136000000Y-109150000D03*
D24*
X112750000Y-102000000D03*
X115850000Y-102000000D03*
D27*
X140000000Y-106050000D03*
X140000000Y-109150000D03*
D25*
X125862500Y-102000000D03*
X122737500Y-102000000D03*
D29*
X142700000Y-94700000D03*
X142700000Y-91575000D03*
D25*
X115862500Y-94000000D03*
X112737500Y-94000000D03*
D30*
X140137500Y-84600000D03*
X143262500Y-84600000D03*
D27*
X153900000Y-105600000D03*
X153900000Y-108700000D03*
D28*
X155610000Y-91775000D03*
X155610000Y-94900000D03*
D31*
X115850000Y-98000000D03*
X112750000Y-98000000D03*
D30*
X158277550Y-89490000D03*
X161402550Y-89490000D03*
D32*
X161415050Y-93672500D03*
X158265050Y-93672500D03*
D29*
X129800000Y-101162500D03*
X129800000Y-98037500D03*
D31*
X125850000Y-98000000D03*
X122750000Y-98000000D03*
D33*
X177880000Y-83310000D03*
X110440000Y-82500000D03*
X119240000Y-111620000D03*
X179110000Y-111320000D03*
X141260000Y-86730000D03*
X146660000Y-90610000D03*
X127400000Y-95910000D03*
X118440000Y-94030000D03*
X129000000Y-94030000D03*
X150000000Y-94000000D03*
X142650000Y-95862500D03*
X153910000Y-111310000D03*
X145000000Y-97900000D03*
X140200000Y-97900000D03*
X144900000Y-96600000D03*
X140590000Y-94030000D03*
X131900000Y-97900000D03*
X131900000Y-92800000D03*
X153220000Y-92800000D03*
X153200000Y-99100000D03*
%LPD*%
M02*
