M48
; DRILL file {KiCad 8.0.0} date 2025-01-04T20:19:25+0100
; FORMAT={-:-/ absolute / metric / decimal}
; #@! TF.CreationDate,2025-01-04T20:19:25+01:00
; #@! TF.GenerationSoftware,Kicad,Pcbnew,8.0.0
; #@! TF.FileFunction,Plated,1,2,PTH
FMAT,2
METRIC
; #@! TA.AperFunction,Plated,PTH,ViaDrill
T1C0.300
; #@! TA.AperFunction,Plated,PTH,ComponentDrill
T2C0.900
; #@! TA.AperFunction,Plated,PTH,ComponentDrill
T3C1.000
; #@! TA.AperFunction,Plated,PTH,ViaDrill
T4C3.200
%
G90
G05
T1
X49.24Y-67.73
X49.24Y-80.28
X49.6Y-119.3
X49.63Y-124.49
X50.0Y-88.4
X50.4Y-104.5
X50.49Y-94.34
X52.1Y-73.5
X53.9Y-131.0
X55.1Y-62.9
X56.94Y-101.29
X57.0Y-119.29
X59.76Y-99.38
X61.43Y-122.48
X63.03Y-69.77
X64.76Y-76.0
X71.51Y-79.23
X72.63Y-121.54
X72.74Y-90.29
X74.01Y-106.43
X77.03Y-86.06
X77.82Y-98.34
X79.15Y-63.03
X82.0Y-67.23
X83.42Y-111.55
X84.08Y-73.77
X85.96Y-68.19
X86.08Y-115.09
X89.05Y-103.4
X89.77Y-124.69
X91.15Y-131.13
X93.24Y-83.88
X93.24Y-96.69
X94.07Y-74.62
X96.08Y-68.52
X98.58Y-62.87
X101.53Y-85.6
X101.67Y-95.52
X101.99Y-101.04
X102.26Y-122.85
X102.98Y-110.37
X103.11Y-108.07
X103.83Y-67.27
X106.46Y-114.84
X110.03Y-90.39
X111.13Y-131.92
X111.22Y-62.14
X113.12Y-123.31
X113.98Y-101.63
X113.98Y-105.44
X120.81Y-61.94
X121.11Y-129.62
X121.97Y-94.34
X123.11Y-124.69
X124.27Y-100.51
X125.0Y-120.4
X130.44Y-107.92
X130.83Y-104.51
X130.97Y-110.1
X132.41Y-114.84
X132.9Y-119.17
X134.28Y-90.79
X134.8Y-66.48
X138.06Y-84.55
X139.01Y-62.34
X142.27Y-100.45
X142.66Y-95.45
X149.0Y-121.8
X149.1Y-96.64
X149.17Y-62.01
X149.63Y-129.42
X150.61Y-83.17
X154.06Y-127.38
X154.84Y-87.57
X158.43Y-110.24
X158.85Y-91.77
X159.09Y-101.56
X159.61Y-108.4
X160.03Y-120.94
X160.66Y-114.7
X162.31Y-82.12
X163.36Y-101.56
X165.48Y-85.4
X166.31Y-122.72
X168.68Y-105.24
X169.8Y-108.4
X169.99Y-62.41
X170.65Y-101.96
X170.87Y-89.14
X170.98Y-94.21
X176.0Y-113.1
X176.1Y-66.4
X181.86Y-122.8
X183.09Y-89.8
X183.4Y-80.15
X183.81Y-99.19
X183.81Y-104.19
X184.73Y-62.21
X184.84Y-77.91
X186.7Y-124.16
X190.0Y-113.8
X192.49Y-71.4
X195.16Y-100.25
X196.67Y-102.29
X197.09Y-119.82
X197.81Y-61.81
X198.33Y-77.45
X198.57Y-95.98
X198.97Y-108.73
X199.16Y-92.04
X200.35Y-123.57
X200.61Y-132.05
X204.94Y-113.0
X206.29Y-65.47
X208.62Y-60.7
X212.5Y-83.0
X212.7Y-123.2
X212.8Y-69.9
X212.8Y-105.0
T2
X62.0Y-101.64
X62.0Y-124.5
X63.12Y-74.94
X63.12Y-77.48
X63.12Y-80.02
X63.12Y-82.56
X63.12Y-85.1
X63.12Y-87.64
X63.12Y-90.18
X63.12Y-92.72
X63.12Y-95.26
X63.12Y-97.8
X64.54Y-101.64
X64.54Y-124.5
X66.62Y-68.81
X67.08Y-101.64
X67.08Y-124.5
X69.12Y-68.81
X69.62Y-101.64
X69.62Y-124.5
X71.62Y-68.81
X72.16Y-101.64
X72.16Y-124.5
X74.12Y-68.81
X74.7Y-101.64
X74.7Y-124.5
X76.62Y-68.81
X77.24Y-101.64
X77.24Y-124.5
X79.78Y-101.64
X79.78Y-124.5
X80.9Y-74.94
X80.9Y-77.48
X80.9Y-80.02
X80.9Y-82.56
X80.9Y-85.1
X80.9Y-87.64
X80.9Y-90.18
X80.9Y-92.72
X80.9Y-95.26
X80.9Y-97.8
X82.32Y-101.64
X82.32Y-124.5
X84.86Y-101.64
X84.86Y-124.5
X108.76Y-63.86
X108.76Y-66.4
X108.76Y-68.94
X108.76Y-71.48
X108.76Y-74.02
X108.76Y-76.56
X108.76Y-79.1
X108.76Y-81.64
X108.76Y-107.04
X108.76Y-109.58
X108.76Y-112.12
X108.76Y-114.66
X108.76Y-117.2
X108.76Y-119.74
X108.76Y-122.28
X108.76Y-124.82
X108.76Y-127.36
X108.76Y-129.9
X136.486Y-63.86
X136.486Y-66.4
X136.486Y-68.94
X136.486Y-71.48
X136.486Y-74.02
X136.486Y-76.56
X136.486Y-79.1
X136.486Y-81.64
X136.486Y-107.04
X136.486Y-109.58
X136.486Y-112.12
X136.486Y-114.66
X136.486Y-117.2
X136.486Y-119.74
X136.486Y-122.28
X136.486Y-124.82
X136.486Y-127.36
X136.486Y-129.9
X164.212Y-63.86
X164.212Y-66.4
X164.212Y-68.94
X164.212Y-71.48
X164.212Y-74.02
X164.212Y-76.56
X164.212Y-79.1
X164.212Y-81.64
X164.212Y-107.04
X164.212Y-109.58
X164.212Y-112.12
X164.212Y-114.66
X164.212Y-117.2
X164.212Y-119.74
X164.212Y-122.28
X164.212Y-124.82
X164.212Y-127.36
X164.212Y-129.9
X181.03Y-61.72
X181.03Y-64.26
X181.03Y-66.8
X181.03Y-69.34
X181.03Y-71.88
X181.03Y-74.42
X181.03Y-76.96
X181.03Y-79.5
X181.03Y-82.04
X181.03Y-84.58
X181.03Y-87.12
X181.03Y-89.66
X181.03Y-92.2
X181.03Y-94.74
X181.03Y-97.28
X181.03Y-99.82
X181.03Y-102.36
X181.03Y-104.9
X181.03Y-107.44
X181.03Y-109.98
X201.35Y-61.72
X201.35Y-64.26
X201.35Y-66.8
X201.35Y-69.34
X201.35Y-71.88
X201.35Y-74.42
X201.35Y-76.96
X201.35Y-79.5
X201.35Y-82.04
X201.35Y-84.58
X201.35Y-87.12
X201.35Y-89.66
X201.35Y-92.2
X201.35Y-94.74
X201.35Y-97.28
X201.35Y-99.82
X201.35Y-102.36
X201.35Y-104.9
X201.35Y-107.44
X201.35Y-109.98
T3
X56.6Y-74.96
X56.6Y-77.5
X56.6Y-80.04
X56.6Y-82.58
X56.6Y-85.12
X56.6Y-87.66
X56.6Y-90.2
X56.6Y-92.74
X56.6Y-95.28
X56.6Y-97.82
X62.0Y-130.98
X64.54Y-130.98
X66.64Y-63.2
X67.08Y-130.98
X69.18Y-63.2
X69.62Y-130.98
X71.72Y-63.2
X72.16Y-130.98
X74.26Y-63.2
X74.7Y-130.98
X76.8Y-63.2
X77.24Y-130.98
X79.78Y-130.98
X82.32Y-130.98
X84.86Y-130.98
X89.9Y-74.95
X89.9Y-77.49
X89.9Y-80.03
X89.9Y-82.57
X89.9Y-85.11
X89.9Y-87.65
X89.9Y-90.19
X89.9Y-92.73
X89.9Y-95.27
X89.9Y-97.81
X118.248Y-63.9
X118.248Y-66.44
X118.248Y-68.98
X118.248Y-71.52
X118.248Y-74.06
X118.248Y-76.6
X118.248Y-79.14
X118.248Y-81.68
X118.248Y-84.22
X118.248Y-86.76
X118.248Y-89.3
X118.248Y-91.84
X118.248Y-94.38
X118.248Y-96.92
X118.248Y-99.46
X118.248Y-102.0
X118.248Y-104.54
X118.248Y-107.08
X118.248Y-109.62
X118.248Y-112.16
X118.248Y-114.7
X118.248Y-117.24
X118.248Y-119.78
X118.248Y-122.32
X118.248Y-124.86
X118.248Y-127.4
X118.248Y-129.94
X145.974Y-63.9
X145.974Y-66.44
X145.974Y-68.98
X145.974Y-71.52
X145.974Y-74.06
X145.974Y-76.6
X145.974Y-79.14
X145.974Y-81.68
X145.974Y-84.22
X145.974Y-86.76
X145.974Y-89.3
X145.974Y-91.84
X145.974Y-94.38
X145.974Y-96.92
X145.974Y-99.46
X145.974Y-102.0
X145.974Y-104.54
X145.974Y-107.08
X145.974Y-109.62
X145.974Y-112.16
X145.974Y-114.7
X145.974Y-117.24
X145.974Y-119.78
X145.974Y-122.32
X145.974Y-124.86
X145.974Y-127.4
X145.974Y-129.94
X173.7Y-63.9
X173.7Y-66.44
X173.7Y-68.98
X173.7Y-71.52
X173.7Y-74.06
X173.7Y-76.6
X173.7Y-79.14
X173.7Y-81.68
X173.7Y-84.22
X173.7Y-86.76
X173.7Y-89.3
X173.7Y-91.84
X173.7Y-94.38
X173.7Y-96.92
X173.7Y-99.46
X173.7Y-102.0
X173.7Y-104.54
X173.7Y-107.08
X173.7Y-109.62
X173.7Y-112.16
X173.7Y-114.7
X173.7Y-117.24
X173.7Y-119.78
X173.7Y-122.32
X173.7Y-124.86
X173.7Y-127.4
X173.7Y-129.94
X177.76Y-130.3
X178.32Y-61.76
X178.32Y-64.3
X178.32Y-66.84
X178.32Y-69.38
X178.32Y-71.92
X178.32Y-74.46
X178.32Y-77.0
X178.32Y-79.54
X178.32Y-82.08
X178.32Y-84.62
X178.32Y-87.16
X178.32Y-89.7
X178.32Y-92.24
X178.32Y-94.78
X178.32Y-97.32
X178.32Y-99.86
X178.32Y-102.4
X178.32Y-104.94
X178.32Y-107.48
X178.32Y-110.02
X180.3Y-130.3
X182.84Y-130.3
X185.38Y-130.3
X187.92Y-130.3
X190.46Y-130.3
X193.0Y-130.3
X195.54Y-130.3
X198.08Y-130.3
X203.945Y-130.3
X204.07Y-61.72
X204.07Y-64.26
X204.07Y-66.8
X204.07Y-69.34
X204.07Y-71.88
X204.07Y-74.42
X204.07Y-76.96
X204.07Y-79.5
X204.07Y-82.04
X204.07Y-84.58
X204.07Y-87.12
X204.07Y-89.66
X204.07Y-92.2
X204.07Y-94.74
X204.07Y-97.28
X204.07Y-99.82
X204.07Y-102.36
X204.07Y-104.9
X204.07Y-107.44
X204.07Y-109.98
X206.485Y-130.3
X208.5Y-63.605
X208.5Y-66.145
X208.5Y-68.685
X208.5Y-71.225
X208.5Y-73.765
X208.5Y-76.305
X208.5Y-78.845
X208.5Y-81.385
X208.5Y-83.925
X208.5Y-86.465
X208.5Y-89.005
X208.5Y-91.545
X208.5Y-94.085
X208.5Y-96.625
X209.025Y-130.3
T4
X49.5Y-62.2
X49.5Y-130.5
X212.6Y-62.2
X212.6Y-130.5
M30
