%TF.GenerationSoftware,KiCad,Pcbnew,8.0.0*%
%TF.CreationDate,2025-01-04T20:19:27+01:00*%
%TF.ProjectId,motherbard,6d6f7468-6572-4626-9172-642e6b696361,rev?*%
%TF.SameCoordinates,Original*%
%TF.FileFunction,Drillmap*%
%TF.FilePolarity,Positive*%
%FSLAX45Y45*%
G04 Gerber Fmt 4.5, Leading zero omitted, Abs format (unit mm)*
G04 Created by KiCad (PCBNEW 8.0.0) date 2025-01-04 20:19:27*
%MOMM*%
%LPD*%
G01*
G04 APERTURE LIST*
%ADD10C,0.050000*%
%ADD11C,0.200000*%
%ADD12C,0.100000*%
%ADD13C,0.320000*%
G04 APERTURE END LIST*
D10*
X4668000Y-5957000D02*
X21520000Y-5957000D01*
X21520000Y-13324000D01*
X4668000Y-13324000D01*
X4668000Y-5957000D01*
D11*
D12*
X4909000Y-6758000D02*
X4939000Y-6788000D01*
X4939000Y-6758000D02*
X4909000Y-6788000D01*
X4909000Y-8013000D02*
X4939000Y-8043000D01*
X4939000Y-8013000D02*
X4909000Y-8043000D01*
X4945000Y-11915000D02*
X4975000Y-11945000D01*
X4975000Y-11915000D02*
X4945000Y-11945000D01*
X4948000Y-12434000D02*
X4978000Y-12464000D01*
X4978000Y-12434000D02*
X4948000Y-12464000D01*
X4985000Y-8825000D02*
X5015000Y-8855000D01*
X5015000Y-8825000D02*
X4985000Y-8855000D01*
X5025000Y-10435000D02*
X5055000Y-10465000D01*
X5055000Y-10435000D02*
X5025000Y-10465000D01*
X5034000Y-9419000D02*
X5064000Y-9449000D01*
X5064000Y-9419000D02*
X5034000Y-9449000D01*
X5195000Y-7335000D02*
X5225000Y-7365000D01*
X5225000Y-7335000D02*
X5195000Y-7365000D01*
X5375000Y-13085000D02*
X5405000Y-13115000D01*
X5405000Y-13085000D02*
X5375000Y-13115000D01*
X5495000Y-6275000D02*
X5525000Y-6305000D01*
X5525000Y-6275000D02*
X5495000Y-6305000D01*
X5679000Y-10114000D02*
X5709000Y-10144000D01*
X5709000Y-10114000D02*
X5679000Y-10144000D01*
X5685000Y-11914000D02*
X5715000Y-11944000D01*
X5715000Y-11914000D02*
X5685000Y-11944000D01*
X5961000Y-9923000D02*
X5991000Y-9953000D01*
X5991000Y-9923000D02*
X5961000Y-9953000D01*
X6128000Y-12233000D02*
X6158000Y-12263000D01*
X6158000Y-12233000D02*
X6128000Y-12263000D01*
X6288000Y-6962000D02*
X6318000Y-6992000D01*
X6318000Y-6962000D02*
X6288000Y-6992000D01*
X6461000Y-7585000D02*
X6491000Y-7615000D01*
X6491000Y-7585000D02*
X6461000Y-7615000D01*
X7136000Y-7908000D02*
X7166000Y-7938000D01*
X7166000Y-7908000D02*
X7136000Y-7938000D01*
X7248000Y-12139000D02*
X7278000Y-12169000D01*
X7278000Y-12139000D02*
X7248000Y-12169000D01*
X7259000Y-9014000D02*
X7289000Y-9044000D01*
X7289000Y-9014000D02*
X7259000Y-9044000D01*
X7386000Y-10628000D02*
X7416000Y-10658000D01*
X7416000Y-10628000D02*
X7386000Y-10658000D01*
X7688000Y-8591000D02*
X7718000Y-8621000D01*
X7718000Y-8591000D02*
X7688000Y-8621000D01*
X7767000Y-9819000D02*
X7797000Y-9849000D01*
X7797000Y-9819000D02*
X7767000Y-9849000D01*
X7900000Y-6288000D02*
X7930000Y-6318000D01*
X7930000Y-6288000D02*
X7900000Y-6318000D01*
X8185000Y-6708000D02*
X8215000Y-6738000D01*
X8215000Y-6708000D02*
X8185000Y-6738000D01*
X8327000Y-11140000D02*
X8357000Y-11170000D01*
X8357000Y-11140000D02*
X8327000Y-11170000D01*
X8393000Y-7362000D02*
X8423000Y-7392000D01*
X8423000Y-7362000D02*
X8393000Y-7392000D01*
X8581000Y-6804000D02*
X8611000Y-6834000D01*
X8611000Y-6804000D02*
X8581000Y-6834000D01*
X8593000Y-11494000D02*
X8623000Y-11524000D01*
X8623000Y-11494000D02*
X8593000Y-11524000D01*
X8890000Y-10325000D02*
X8920000Y-10355000D01*
X8920000Y-10325000D02*
X8890000Y-10355000D01*
X8962000Y-12454000D02*
X8992000Y-12484000D01*
X8992000Y-12454000D02*
X8962000Y-12484000D01*
X9100000Y-13098000D02*
X9130000Y-13128000D01*
X9130000Y-13098000D02*
X9100000Y-13128000D01*
X9309000Y-8373000D02*
X9339000Y-8403000D01*
X9339000Y-8373000D02*
X9309000Y-8403000D01*
X9309000Y-9654000D02*
X9339000Y-9684000D01*
X9339000Y-9654000D02*
X9309000Y-9684000D01*
X9392000Y-7447000D02*
X9422000Y-7477000D01*
X9422000Y-7447000D02*
X9392000Y-7477000D01*
X9593000Y-6837000D02*
X9623000Y-6867000D01*
X9623000Y-6837000D02*
X9593000Y-6867000D01*
X9843000Y-6272000D02*
X9873000Y-6302000D01*
X9873000Y-6272000D02*
X9843000Y-6302000D01*
X10138000Y-8545000D02*
X10168000Y-8575000D01*
X10168000Y-8545000D02*
X10138000Y-8575000D01*
X10152000Y-9537000D02*
X10182000Y-9567000D01*
X10182000Y-9537000D02*
X10152000Y-9567000D01*
X10184000Y-10089000D02*
X10214000Y-10119000D01*
X10214000Y-10089000D02*
X10184000Y-10119000D01*
X10211000Y-12270000D02*
X10241000Y-12300000D01*
X10241000Y-12270000D02*
X10211000Y-12300000D01*
X10283000Y-11022000D02*
X10313000Y-11052000D01*
X10313000Y-11022000D02*
X10283000Y-11052000D01*
X10296000Y-10792000D02*
X10326000Y-10822000D01*
X10326000Y-10792000D02*
X10296000Y-10822000D01*
X10368000Y-6712000D02*
X10398000Y-6742000D01*
X10398000Y-6712000D02*
X10368000Y-6742000D01*
X10631000Y-11469000D02*
X10661000Y-11499000D01*
X10661000Y-11469000D02*
X10631000Y-11499000D01*
X10988000Y-9024000D02*
X11018000Y-9054000D01*
X11018000Y-9024000D02*
X10988000Y-9054000D01*
X11098000Y-13177000D02*
X11128000Y-13207000D01*
X11128000Y-13177000D02*
X11098000Y-13207000D01*
X11107000Y-6199000D02*
X11137000Y-6229000D01*
X11137000Y-6199000D02*
X11107000Y-6229000D01*
X11297000Y-12316000D02*
X11327000Y-12346000D01*
X11327000Y-12316000D02*
X11297000Y-12346000D01*
X11383000Y-10148000D02*
X11413000Y-10178000D01*
X11413000Y-10148000D02*
X11383000Y-10178000D01*
X11383000Y-10529000D02*
X11413000Y-10559000D01*
X11413000Y-10529000D02*
X11383000Y-10559000D01*
X12066000Y-6179000D02*
X12096000Y-6209000D01*
X12096000Y-6179000D02*
X12066000Y-6209000D01*
X12096000Y-12947000D02*
X12126000Y-12977000D01*
X12126000Y-12947000D02*
X12096000Y-12977000D01*
X12182000Y-9419000D02*
X12212000Y-9449000D01*
X12212000Y-9419000D02*
X12182000Y-9449000D01*
X12296000Y-12454000D02*
X12326000Y-12484000D01*
X12326000Y-12454000D02*
X12296000Y-12484000D01*
X12412000Y-10036000D02*
X12442000Y-10066000D01*
X12442000Y-10036000D02*
X12412000Y-10066000D01*
X12485000Y-12025000D02*
X12515000Y-12055000D01*
X12515000Y-12025000D02*
X12485000Y-12055000D01*
X13029000Y-10777000D02*
X13059000Y-10807000D01*
X13059000Y-10777000D02*
X13029000Y-10807000D01*
X13068000Y-10436000D02*
X13098000Y-10466000D01*
X13098000Y-10436000D02*
X13068000Y-10466000D01*
X13082000Y-10995000D02*
X13112000Y-11025000D01*
X13112000Y-10995000D02*
X13082000Y-11025000D01*
X13226000Y-11469000D02*
X13256000Y-11499000D01*
X13256000Y-11469000D02*
X13226000Y-11499000D01*
X13275000Y-11902000D02*
X13305000Y-11932000D01*
X13305000Y-11902000D02*
X13275000Y-11932000D01*
X13413000Y-9064000D02*
X13443000Y-9094000D01*
X13443000Y-9064000D02*
X13413000Y-9094000D01*
X13465000Y-6633000D02*
X13495000Y-6663000D01*
X13495000Y-6633000D02*
X13465000Y-6663000D01*
X13791000Y-8440000D02*
X13821000Y-8470000D01*
X13821000Y-8440000D02*
X13791000Y-8470000D01*
X13886000Y-6219000D02*
X13916000Y-6249000D01*
X13916000Y-6219000D02*
X13886000Y-6249000D01*
X14212000Y-10030000D02*
X14242000Y-10060000D01*
X14242000Y-10030000D02*
X14212000Y-10060000D01*
X14251000Y-9530000D02*
X14281000Y-9560000D01*
X14281000Y-9530000D02*
X14251000Y-9560000D01*
X14885000Y-12165000D02*
X14915000Y-12195000D01*
X14915000Y-12165000D02*
X14885000Y-12195000D01*
X14895000Y-9649000D02*
X14925000Y-9679000D01*
X14925000Y-9649000D02*
X14895000Y-9679000D01*
X14902000Y-6186000D02*
X14932000Y-6216000D01*
X14932000Y-6186000D02*
X14902000Y-6216000D01*
X14948000Y-12927000D02*
X14978000Y-12957000D01*
X14978000Y-12927000D02*
X14948000Y-12957000D01*
X15046000Y-8302000D02*
X15076000Y-8332000D01*
X15076000Y-8302000D02*
X15046000Y-8332000D01*
X15391000Y-12723000D02*
X15421000Y-12753000D01*
X15421000Y-12723000D02*
X15391000Y-12753000D01*
X15469000Y-8742000D02*
X15499000Y-8772000D01*
X15499000Y-8742000D02*
X15469000Y-8772000D01*
X15828000Y-11009000D02*
X15858000Y-11039000D01*
X15858000Y-11009000D02*
X15828000Y-11039000D01*
X15870000Y-9162000D02*
X15900000Y-9192000D01*
X15900000Y-9162000D02*
X15870000Y-9192000D01*
X15894000Y-10141000D02*
X15924000Y-10171000D01*
X15924000Y-10141000D02*
X15894000Y-10171000D01*
X15946000Y-10825000D02*
X15976000Y-10855000D01*
X15976000Y-10825000D02*
X15946000Y-10855000D01*
X15988000Y-12079000D02*
X16018000Y-12109000D01*
X16018000Y-12079000D02*
X15988000Y-12109000D01*
X16051000Y-11455000D02*
X16081000Y-11485000D01*
X16081000Y-11455000D02*
X16051000Y-11485000D01*
X16216000Y-8197000D02*
X16246000Y-8227000D01*
X16246000Y-8197000D02*
X16216000Y-8227000D01*
X16321000Y-10141000D02*
X16351000Y-10171000D01*
X16351000Y-10141000D02*
X16321000Y-10171000D01*
X16533000Y-8525000D02*
X16563000Y-8555000D01*
X16563000Y-8525000D02*
X16533000Y-8555000D01*
X16616000Y-12257000D02*
X16646000Y-12287000D01*
X16646000Y-12257000D02*
X16616000Y-12287000D01*
X16853000Y-10509000D02*
X16883000Y-10539000D01*
X16883000Y-10509000D02*
X16853000Y-10539000D01*
X16965000Y-10825000D02*
X16995000Y-10855000D01*
X16995000Y-10825000D02*
X16965000Y-10855000D01*
X16984000Y-6226000D02*
X17014000Y-6256000D01*
X17014000Y-6226000D02*
X16984000Y-6256000D01*
X17050000Y-10181000D02*
X17080000Y-10211000D01*
X17080000Y-10181000D02*
X17050000Y-10211000D01*
X17072000Y-8899000D02*
X17102000Y-8929000D01*
X17102000Y-8899000D02*
X17072000Y-8929000D01*
X17083000Y-9406000D02*
X17113000Y-9436000D01*
X17113000Y-9406000D02*
X17083000Y-9436000D01*
X17585000Y-11295000D02*
X17615000Y-11325000D01*
X17615000Y-11295000D02*
X17585000Y-11325000D01*
X17595000Y-6625000D02*
X17625000Y-6655000D01*
X17625000Y-6625000D02*
X17595000Y-6655000D01*
X18171000Y-12265000D02*
X18201000Y-12295000D01*
X18201000Y-12265000D02*
X18171000Y-12295000D01*
X18294000Y-8965000D02*
X18324000Y-8995000D01*
X18324000Y-8965000D02*
X18294000Y-8995000D01*
X18325000Y-8000000D02*
X18355000Y-8030000D01*
X18355000Y-8000000D02*
X18325000Y-8030000D01*
X18366000Y-9904000D02*
X18396000Y-9934000D01*
X18396000Y-9904000D02*
X18366000Y-9934000D01*
X18366000Y-10404000D02*
X18396000Y-10434000D01*
X18396000Y-10404000D02*
X18366000Y-10434000D01*
X18458000Y-6206000D02*
X18488000Y-6236000D01*
X18488000Y-6206000D02*
X18458000Y-6236000D01*
X18469000Y-7776000D02*
X18499000Y-7806000D01*
X18499000Y-7776000D02*
X18469000Y-7806000D01*
X18655000Y-12401000D02*
X18685000Y-12431000D01*
X18685000Y-12401000D02*
X18655000Y-12431000D01*
X18985000Y-11365000D02*
X19015000Y-11395000D01*
X19015000Y-11365000D02*
X18985000Y-11395000D01*
X19234000Y-7125000D02*
X19264000Y-7155000D01*
X19264000Y-7125000D02*
X19234000Y-7155000D01*
X19501000Y-10010000D02*
X19531000Y-10040000D01*
X19531000Y-10010000D02*
X19501000Y-10040000D01*
X19652000Y-10214000D02*
X19682000Y-10244000D01*
X19682000Y-10214000D02*
X19652000Y-10244000D01*
X19694000Y-11967000D02*
X19724000Y-11997000D01*
X19724000Y-11967000D02*
X19694000Y-11997000D01*
X19766000Y-6166000D02*
X19796000Y-6196000D01*
X19796000Y-6166000D02*
X19766000Y-6196000D01*
X19818000Y-7730000D02*
X19848000Y-7760000D01*
X19848000Y-7730000D02*
X19818000Y-7760000D01*
X19842000Y-9583000D02*
X19872000Y-9613000D01*
X19872000Y-9583000D02*
X19842000Y-9613000D01*
X19882000Y-10858000D02*
X19912000Y-10888000D01*
X19912000Y-10858000D02*
X19882000Y-10888000D01*
X19901000Y-9189000D02*
X19931000Y-9219000D01*
X19931000Y-9189000D02*
X19901000Y-9219000D01*
X20020000Y-12342000D02*
X20050000Y-12372000D01*
X20050000Y-12342000D02*
X20020000Y-12372000D01*
X20046000Y-13190000D02*
X20076000Y-13220000D01*
X20076000Y-13190000D02*
X20046000Y-13220000D01*
X20479000Y-11285000D02*
X20509000Y-11315000D01*
X20509000Y-11285000D02*
X20479000Y-11315000D01*
X20614000Y-6532000D02*
X20644000Y-6562000D01*
X20644000Y-6532000D02*
X20614000Y-6562000D01*
X20847000Y-6055000D02*
X20877000Y-6085000D01*
X20877000Y-6055000D02*
X20847000Y-6085000D01*
X21235000Y-8285000D02*
X21265000Y-8315000D01*
X21265000Y-8285000D02*
X21235000Y-8315000D01*
X21255000Y-12305000D02*
X21285000Y-12335000D01*
X21285000Y-12305000D02*
X21255000Y-12335000D01*
X21265000Y-6975000D02*
X21295000Y-7005000D01*
X21295000Y-6975000D02*
X21265000Y-7005000D01*
X21265000Y-10485000D02*
X21295000Y-10515000D01*
X21295000Y-10485000D02*
X21265000Y-10515000D01*
X6245000Y-10164000D02*
G75*
G02*
X6155000Y-10164000I-45000J0D01*
G01*
X6155000Y-10164000D02*
G75*
G02*
X6245000Y-10164000I45000J0D01*
G01*
X6245000Y-12450000D02*
G75*
G02*
X6155000Y-12450000I-45000J0D01*
G01*
X6155000Y-12450000D02*
G75*
G02*
X6245000Y-12450000I45000J0D01*
G01*
X6357000Y-7494000D02*
G75*
G02*
X6267000Y-7494000I-45000J0D01*
G01*
X6267000Y-7494000D02*
G75*
G02*
X6357000Y-7494000I45000J0D01*
G01*
X6357000Y-7748000D02*
G75*
G02*
X6267000Y-7748000I-45000J0D01*
G01*
X6267000Y-7748000D02*
G75*
G02*
X6357000Y-7748000I45000J0D01*
G01*
X6357000Y-8002000D02*
G75*
G02*
X6267000Y-8002000I-45000J0D01*
G01*
X6267000Y-8002000D02*
G75*
G02*
X6357000Y-8002000I45000J0D01*
G01*
X6357000Y-8256000D02*
G75*
G02*
X6267000Y-8256000I-45000J0D01*
G01*
X6267000Y-8256000D02*
G75*
G02*
X6357000Y-8256000I45000J0D01*
G01*
X6357000Y-8510000D02*
G75*
G02*
X6267000Y-8510000I-45000J0D01*
G01*
X6267000Y-8510000D02*
G75*
G02*
X6357000Y-8510000I45000J0D01*
G01*
X6357000Y-8764000D02*
G75*
G02*
X6267000Y-8764000I-45000J0D01*
G01*
X6267000Y-8764000D02*
G75*
G02*
X6357000Y-8764000I45000J0D01*
G01*
X6357000Y-9018000D02*
G75*
G02*
X6267000Y-9018000I-45000J0D01*
G01*
X6267000Y-9018000D02*
G75*
G02*
X6357000Y-9018000I45000J0D01*
G01*
X6357000Y-9272000D02*
G75*
G02*
X6267000Y-9272000I-45000J0D01*
G01*
X6267000Y-9272000D02*
G75*
G02*
X6357000Y-9272000I45000J0D01*
G01*
X6357000Y-9526000D02*
G75*
G02*
X6267000Y-9526000I-45000J0D01*
G01*
X6267000Y-9526000D02*
G75*
G02*
X6357000Y-9526000I45000J0D01*
G01*
X6357000Y-9780000D02*
G75*
G02*
X6267000Y-9780000I-45000J0D01*
G01*
X6267000Y-9780000D02*
G75*
G02*
X6357000Y-9780000I45000J0D01*
G01*
X6499000Y-10164000D02*
G75*
G02*
X6409000Y-10164000I-45000J0D01*
G01*
X6409000Y-10164000D02*
G75*
G02*
X6499000Y-10164000I45000J0D01*
G01*
X6499000Y-12450000D02*
G75*
G02*
X6409000Y-12450000I-45000J0D01*
G01*
X6409000Y-12450000D02*
G75*
G02*
X6499000Y-12450000I45000J0D01*
G01*
X6707000Y-6881000D02*
G75*
G02*
X6617000Y-6881000I-45000J0D01*
G01*
X6617000Y-6881000D02*
G75*
G02*
X6707000Y-6881000I45000J0D01*
G01*
X6753000Y-10164000D02*
G75*
G02*
X6663000Y-10164000I-45000J0D01*
G01*
X6663000Y-10164000D02*
G75*
G02*
X6753000Y-10164000I45000J0D01*
G01*
X6753000Y-12450000D02*
G75*
G02*
X6663000Y-12450000I-45000J0D01*
G01*
X6663000Y-12450000D02*
G75*
G02*
X6753000Y-12450000I45000J0D01*
G01*
X6957000Y-6881000D02*
G75*
G02*
X6867000Y-6881000I-45000J0D01*
G01*
X6867000Y-6881000D02*
G75*
G02*
X6957000Y-6881000I45000J0D01*
G01*
X7007000Y-10164000D02*
G75*
G02*
X6917000Y-10164000I-45000J0D01*
G01*
X6917000Y-10164000D02*
G75*
G02*
X7007000Y-10164000I45000J0D01*
G01*
X7007000Y-12450000D02*
G75*
G02*
X6917000Y-12450000I-45000J0D01*
G01*
X6917000Y-12450000D02*
G75*
G02*
X7007000Y-12450000I45000J0D01*
G01*
X7207000Y-6881000D02*
G75*
G02*
X7117000Y-6881000I-45000J0D01*
G01*
X7117000Y-6881000D02*
G75*
G02*
X7207000Y-6881000I45000J0D01*
G01*
X7261000Y-10164000D02*
G75*
G02*
X7171000Y-10164000I-45000J0D01*
G01*
X7171000Y-10164000D02*
G75*
G02*
X7261000Y-10164000I45000J0D01*
G01*
X7261000Y-12450000D02*
G75*
G02*
X7171000Y-12450000I-45000J0D01*
G01*
X7171000Y-12450000D02*
G75*
G02*
X7261000Y-12450000I45000J0D01*
G01*
X7457000Y-6881000D02*
G75*
G02*
X7367000Y-6881000I-45000J0D01*
G01*
X7367000Y-6881000D02*
G75*
G02*
X7457000Y-6881000I45000J0D01*
G01*
X7515000Y-10164000D02*
G75*
G02*
X7425000Y-10164000I-45000J0D01*
G01*
X7425000Y-10164000D02*
G75*
G02*
X7515000Y-10164000I45000J0D01*
G01*
X7515000Y-12450000D02*
G75*
G02*
X7425000Y-12450000I-45000J0D01*
G01*
X7425000Y-12450000D02*
G75*
G02*
X7515000Y-12450000I45000J0D01*
G01*
X7707000Y-6881000D02*
G75*
G02*
X7617000Y-6881000I-45000J0D01*
G01*
X7617000Y-6881000D02*
G75*
G02*
X7707000Y-6881000I45000J0D01*
G01*
X7769000Y-10164000D02*
G75*
G02*
X7679000Y-10164000I-45000J0D01*
G01*
X7679000Y-10164000D02*
G75*
G02*
X7769000Y-10164000I45000J0D01*
G01*
X7769000Y-12450000D02*
G75*
G02*
X7679000Y-12450000I-45000J0D01*
G01*
X7679000Y-12450000D02*
G75*
G02*
X7769000Y-12450000I45000J0D01*
G01*
X8023000Y-10164000D02*
G75*
G02*
X7933000Y-10164000I-45000J0D01*
G01*
X7933000Y-10164000D02*
G75*
G02*
X8023000Y-10164000I45000J0D01*
G01*
X8023000Y-12450000D02*
G75*
G02*
X7933000Y-12450000I-45000J0D01*
G01*
X7933000Y-12450000D02*
G75*
G02*
X8023000Y-12450000I45000J0D01*
G01*
X8135000Y-7494000D02*
G75*
G02*
X8045000Y-7494000I-45000J0D01*
G01*
X8045000Y-7494000D02*
G75*
G02*
X8135000Y-7494000I45000J0D01*
G01*
X8135000Y-7748000D02*
G75*
G02*
X8045000Y-7748000I-45000J0D01*
G01*
X8045000Y-7748000D02*
G75*
G02*
X8135000Y-7748000I45000J0D01*
G01*
X8135000Y-8002000D02*
G75*
G02*
X8045000Y-8002000I-45000J0D01*
G01*
X8045000Y-8002000D02*
G75*
G02*
X8135000Y-8002000I45000J0D01*
G01*
X8135000Y-8256000D02*
G75*
G02*
X8045000Y-8256000I-45000J0D01*
G01*
X8045000Y-8256000D02*
G75*
G02*
X8135000Y-8256000I45000J0D01*
G01*
X8135000Y-8510000D02*
G75*
G02*
X8045000Y-8510000I-45000J0D01*
G01*
X8045000Y-8510000D02*
G75*
G02*
X8135000Y-8510000I45000J0D01*
G01*
X8135000Y-8764000D02*
G75*
G02*
X8045000Y-8764000I-45000J0D01*
G01*
X8045000Y-8764000D02*
G75*
G02*
X8135000Y-8764000I45000J0D01*
G01*
X8135000Y-9018000D02*
G75*
G02*
X8045000Y-9018000I-45000J0D01*
G01*
X8045000Y-9018000D02*
G75*
G02*
X8135000Y-9018000I45000J0D01*
G01*
X8135000Y-9272000D02*
G75*
G02*
X8045000Y-9272000I-45000J0D01*
G01*
X8045000Y-9272000D02*
G75*
G02*
X8135000Y-9272000I45000J0D01*
G01*
X8135000Y-9526000D02*
G75*
G02*
X8045000Y-9526000I-45000J0D01*
G01*
X8045000Y-9526000D02*
G75*
G02*
X8135000Y-9526000I45000J0D01*
G01*
X8135000Y-9780000D02*
G75*
G02*
X8045000Y-9780000I-45000J0D01*
G01*
X8045000Y-9780000D02*
G75*
G02*
X8135000Y-9780000I45000J0D01*
G01*
X8277000Y-10164000D02*
G75*
G02*
X8187000Y-10164000I-45000J0D01*
G01*
X8187000Y-10164000D02*
G75*
G02*
X8277000Y-10164000I45000J0D01*
G01*
X8277000Y-12450000D02*
G75*
G02*
X8187000Y-12450000I-45000J0D01*
G01*
X8187000Y-12450000D02*
G75*
G02*
X8277000Y-12450000I45000J0D01*
G01*
X8531000Y-10164000D02*
G75*
G02*
X8441000Y-10164000I-45000J0D01*
G01*
X8441000Y-10164000D02*
G75*
G02*
X8531000Y-10164000I45000J0D01*
G01*
X8531000Y-12450000D02*
G75*
G02*
X8441000Y-12450000I-45000J0D01*
G01*
X8441000Y-12450000D02*
G75*
G02*
X8531000Y-12450000I45000J0D01*
G01*
X10921000Y-6386000D02*
G75*
G02*
X10831000Y-6386000I-45000J0D01*
G01*
X10831000Y-6386000D02*
G75*
G02*
X10921000Y-6386000I45000J0D01*
G01*
X10921000Y-6640000D02*
G75*
G02*
X10831000Y-6640000I-45000J0D01*
G01*
X10831000Y-6640000D02*
G75*
G02*
X10921000Y-6640000I45000J0D01*
G01*
X10921000Y-6894000D02*
G75*
G02*
X10831000Y-6894000I-45000J0D01*
G01*
X10831000Y-6894000D02*
G75*
G02*
X10921000Y-6894000I45000J0D01*
G01*
X10921000Y-7148000D02*
G75*
G02*
X10831000Y-7148000I-45000J0D01*
G01*
X10831000Y-7148000D02*
G75*
G02*
X10921000Y-7148000I45000J0D01*
G01*
X10921000Y-7402000D02*
G75*
G02*
X10831000Y-7402000I-45000J0D01*
G01*
X10831000Y-7402000D02*
G75*
G02*
X10921000Y-7402000I45000J0D01*
G01*
X10921000Y-7656000D02*
G75*
G02*
X10831000Y-7656000I-45000J0D01*
G01*
X10831000Y-7656000D02*
G75*
G02*
X10921000Y-7656000I45000J0D01*
G01*
X10921000Y-7910000D02*
G75*
G02*
X10831000Y-7910000I-45000J0D01*
G01*
X10831000Y-7910000D02*
G75*
G02*
X10921000Y-7910000I45000J0D01*
G01*
X10921000Y-8164000D02*
G75*
G02*
X10831000Y-8164000I-45000J0D01*
G01*
X10831000Y-8164000D02*
G75*
G02*
X10921000Y-8164000I45000J0D01*
G01*
X10921000Y-10704000D02*
G75*
G02*
X10831000Y-10704000I-45000J0D01*
G01*
X10831000Y-10704000D02*
G75*
G02*
X10921000Y-10704000I45000J0D01*
G01*
X10921000Y-10958000D02*
G75*
G02*
X10831000Y-10958000I-45000J0D01*
G01*
X10831000Y-10958000D02*
G75*
G02*
X10921000Y-10958000I45000J0D01*
G01*
X10921000Y-11212000D02*
G75*
G02*
X10831000Y-11212000I-45000J0D01*
G01*
X10831000Y-11212000D02*
G75*
G02*
X10921000Y-11212000I45000J0D01*
G01*
X10921000Y-11466000D02*
G75*
G02*
X10831000Y-11466000I-45000J0D01*
G01*
X10831000Y-11466000D02*
G75*
G02*
X10921000Y-11466000I45000J0D01*
G01*
X10921000Y-11720000D02*
G75*
G02*
X10831000Y-11720000I-45000J0D01*
G01*
X10831000Y-11720000D02*
G75*
G02*
X10921000Y-11720000I45000J0D01*
G01*
X10921000Y-11974000D02*
G75*
G02*
X10831000Y-11974000I-45000J0D01*
G01*
X10831000Y-11974000D02*
G75*
G02*
X10921000Y-11974000I45000J0D01*
G01*
X10921000Y-12228000D02*
G75*
G02*
X10831000Y-12228000I-45000J0D01*
G01*
X10831000Y-12228000D02*
G75*
G02*
X10921000Y-12228000I45000J0D01*
G01*
X10921000Y-12482000D02*
G75*
G02*
X10831000Y-12482000I-45000J0D01*
G01*
X10831000Y-12482000D02*
G75*
G02*
X10921000Y-12482000I45000J0D01*
G01*
X10921000Y-12736000D02*
G75*
G02*
X10831000Y-12736000I-45000J0D01*
G01*
X10831000Y-12736000D02*
G75*
G02*
X10921000Y-12736000I45000J0D01*
G01*
X10921000Y-12990000D02*
G75*
G02*
X10831000Y-12990000I-45000J0D01*
G01*
X10831000Y-12990000D02*
G75*
G02*
X10921000Y-12990000I45000J0D01*
G01*
X13693600Y-6386000D02*
G75*
G02*
X13603600Y-6386000I-45000J0D01*
G01*
X13603600Y-6386000D02*
G75*
G02*
X13693600Y-6386000I45000J0D01*
G01*
X13693600Y-6640000D02*
G75*
G02*
X13603600Y-6640000I-45000J0D01*
G01*
X13603600Y-6640000D02*
G75*
G02*
X13693600Y-6640000I45000J0D01*
G01*
X13693600Y-6894000D02*
G75*
G02*
X13603600Y-6894000I-45000J0D01*
G01*
X13603600Y-6894000D02*
G75*
G02*
X13693600Y-6894000I45000J0D01*
G01*
X13693600Y-7148000D02*
G75*
G02*
X13603600Y-7148000I-45000J0D01*
G01*
X13603600Y-7148000D02*
G75*
G02*
X13693600Y-7148000I45000J0D01*
G01*
X13693600Y-7402000D02*
G75*
G02*
X13603600Y-7402000I-45000J0D01*
G01*
X13603600Y-7402000D02*
G75*
G02*
X13693600Y-7402000I45000J0D01*
G01*
X13693600Y-7656000D02*
G75*
G02*
X13603600Y-7656000I-45000J0D01*
G01*
X13603600Y-7656000D02*
G75*
G02*
X13693600Y-7656000I45000J0D01*
G01*
X13693600Y-7910000D02*
G75*
G02*
X13603600Y-7910000I-45000J0D01*
G01*
X13603600Y-7910000D02*
G75*
G02*
X13693600Y-7910000I45000J0D01*
G01*
X13693600Y-8164000D02*
G75*
G02*
X13603600Y-8164000I-45000J0D01*
G01*
X13603600Y-8164000D02*
G75*
G02*
X13693600Y-8164000I45000J0D01*
G01*
X13693600Y-10704000D02*
G75*
G02*
X13603600Y-10704000I-45000J0D01*
G01*
X13603600Y-10704000D02*
G75*
G02*
X13693600Y-10704000I45000J0D01*
G01*
X13693600Y-10958000D02*
G75*
G02*
X13603600Y-10958000I-45000J0D01*
G01*
X13603600Y-10958000D02*
G75*
G02*
X13693600Y-10958000I45000J0D01*
G01*
X13693600Y-11212000D02*
G75*
G02*
X13603600Y-11212000I-45000J0D01*
G01*
X13603600Y-11212000D02*
G75*
G02*
X13693600Y-11212000I45000J0D01*
G01*
X13693600Y-11466000D02*
G75*
G02*
X13603600Y-11466000I-45000J0D01*
G01*
X13603600Y-11466000D02*
G75*
G02*
X13693600Y-11466000I45000J0D01*
G01*
X13693600Y-11720000D02*
G75*
G02*
X13603600Y-11720000I-45000J0D01*
G01*
X13603600Y-11720000D02*
G75*
G02*
X13693600Y-11720000I45000J0D01*
G01*
X13693600Y-11974000D02*
G75*
G02*
X13603600Y-11974000I-45000J0D01*
G01*
X13603600Y-11974000D02*
G75*
G02*
X13693600Y-11974000I45000J0D01*
G01*
X13693600Y-12228000D02*
G75*
G02*
X13603600Y-12228000I-45000J0D01*
G01*
X13603600Y-12228000D02*
G75*
G02*
X13693600Y-12228000I45000J0D01*
G01*
X13693600Y-12482000D02*
G75*
G02*
X13603600Y-12482000I-45000J0D01*
G01*
X13603600Y-12482000D02*
G75*
G02*
X13693600Y-12482000I45000J0D01*
G01*
X13693600Y-12736000D02*
G75*
G02*
X13603600Y-12736000I-45000J0D01*
G01*
X13603600Y-12736000D02*
G75*
G02*
X13693600Y-12736000I45000J0D01*
G01*
X13693600Y-12990000D02*
G75*
G02*
X13603600Y-12990000I-45000J0D01*
G01*
X13603600Y-12990000D02*
G75*
G02*
X13693600Y-12990000I45000J0D01*
G01*
X16466200Y-6386000D02*
G75*
G02*
X16376200Y-6386000I-45000J0D01*
G01*
X16376200Y-6386000D02*
G75*
G02*
X16466200Y-6386000I45000J0D01*
G01*
X16466200Y-6640000D02*
G75*
G02*
X16376200Y-6640000I-45000J0D01*
G01*
X16376200Y-6640000D02*
G75*
G02*
X16466200Y-6640000I45000J0D01*
G01*
X16466200Y-6894000D02*
G75*
G02*
X16376200Y-6894000I-45000J0D01*
G01*
X16376200Y-6894000D02*
G75*
G02*
X16466200Y-6894000I45000J0D01*
G01*
X16466200Y-7148000D02*
G75*
G02*
X16376200Y-7148000I-45000J0D01*
G01*
X16376200Y-7148000D02*
G75*
G02*
X16466200Y-7148000I45000J0D01*
G01*
X16466200Y-7402000D02*
G75*
G02*
X16376200Y-7402000I-45000J0D01*
G01*
X16376200Y-7402000D02*
G75*
G02*
X16466200Y-7402000I45000J0D01*
G01*
X16466200Y-7656000D02*
G75*
G02*
X16376200Y-7656000I-45000J0D01*
G01*
X16376200Y-7656000D02*
G75*
G02*
X16466200Y-7656000I45000J0D01*
G01*
X16466200Y-7910000D02*
G75*
G02*
X16376200Y-7910000I-45000J0D01*
G01*
X16376200Y-7910000D02*
G75*
G02*
X16466200Y-7910000I45000J0D01*
G01*
X16466200Y-8164000D02*
G75*
G02*
X16376200Y-8164000I-45000J0D01*
G01*
X16376200Y-8164000D02*
G75*
G02*
X16466200Y-8164000I45000J0D01*
G01*
X16466200Y-10704000D02*
G75*
G02*
X16376200Y-10704000I-45000J0D01*
G01*
X16376200Y-10704000D02*
G75*
G02*
X16466200Y-10704000I45000J0D01*
G01*
X16466200Y-10958000D02*
G75*
G02*
X16376200Y-10958000I-45000J0D01*
G01*
X16376200Y-10958000D02*
G75*
G02*
X16466200Y-10958000I45000J0D01*
G01*
X16466200Y-11212000D02*
G75*
G02*
X16376200Y-11212000I-45000J0D01*
G01*
X16376200Y-11212000D02*
G75*
G02*
X16466200Y-11212000I45000J0D01*
G01*
X16466200Y-11466000D02*
G75*
G02*
X16376200Y-11466000I-45000J0D01*
G01*
X16376200Y-11466000D02*
G75*
G02*
X16466200Y-11466000I45000J0D01*
G01*
X16466200Y-11720000D02*
G75*
G02*
X16376200Y-11720000I-45000J0D01*
G01*
X16376200Y-11720000D02*
G75*
G02*
X16466200Y-11720000I45000J0D01*
G01*
X16466200Y-11974000D02*
G75*
G02*
X16376200Y-11974000I-45000J0D01*
G01*
X16376200Y-11974000D02*
G75*
G02*
X16466200Y-11974000I45000J0D01*
G01*
X16466200Y-12228000D02*
G75*
G02*
X16376200Y-12228000I-45000J0D01*
G01*
X16376200Y-12228000D02*
G75*
G02*
X16466200Y-12228000I45000J0D01*
G01*
X16466200Y-12482000D02*
G75*
G02*
X16376200Y-12482000I-45000J0D01*
G01*
X16376200Y-12482000D02*
G75*
G02*
X16466200Y-12482000I45000J0D01*
G01*
X16466200Y-12736000D02*
G75*
G02*
X16376200Y-12736000I-45000J0D01*
G01*
X16376200Y-12736000D02*
G75*
G02*
X16466200Y-12736000I45000J0D01*
G01*
X16466200Y-12990000D02*
G75*
G02*
X16376200Y-12990000I-45000J0D01*
G01*
X16376200Y-12990000D02*
G75*
G02*
X16466200Y-12990000I45000J0D01*
G01*
X18148000Y-6172000D02*
G75*
G02*
X18058000Y-6172000I-45000J0D01*
G01*
X18058000Y-6172000D02*
G75*
G02*
X18148000Y-6172000I45000J0D01*
G01*
X18148000Y-6426000D02*
G75*
G02*
X18058000Y-6426000I-45000J0D01*
G01*
X18058000Y-6426000D02*
G75*
G02*
X18148000Y-6426000I45000J0D01*
G01*
X18148000Y-6680000D02*
G75*
G02*
X18058000Y-6680000I-45000J0D01*
G01*
X18058000Y-6680000D02*
G75*
G02*
X18148000Y-6680000I45000J0D01*
G01*
X18148000Y-6934000D02*
G75*
G02*
X18058000Y-6934000I-45000J0D01*
G01*
X18058000Y-6934000D02*
G75*
G02*
X18148000Y-6934000I45000J0D01*
G01*
X18148000Y-7188000D02*
G75*
G02*
X18058000Y-7188000I-45000J0D01*
G01*
X18058000Y-7188000D02*
G75*
G02*
X18148000Y-7188000I45000J0D01*
G01*
X18148000Y-7442000D02*
G75*
G02*
X18058000Y-7442000I-45000J0D01*
G01*
X18058000Y-7442000D02*
G75*
G02*
X18148000Y-7442000I45000J0D01*
G01*
X18148000Y-7696000D02*
G75*
G02*
X18058000Y-7696000I-45000J0D01*
G01*
X18058000Y-7696000D02*
G75*
G02*
X18148000Y-7696000I45000J0D01*
G01*
X18148000Y-7950000D02*
G75*
G02*
X18058000Y-7950000I-45000J0D01*
G01*
X18058000Y-7950000D02*
G75*
G02*
X18148000Y-7950000I45000J0D01*
G01*
X18148000Y-8204000D02*
G75*
G02*
X18058000Y-8204000I-45000J0D01*
G01*
X18058000Y-8204000D02*
G75*
G02*
X18148000Y-8204000I45000J0D01*
G01*
X18148000Y-8458000D02*
G75*
G02*
X18058000Y-8458000I-45000J0D01*
G01*
X18058000Y-8458000D02*
G75*
G02*
X18148000Y-8458000I45000J0D01*
G01*
X18148000Y-8712000D02*
G75*
G02*
X18058000Y-8712000I-45000J0D01*
G01*
X18058000Y-8712000D02*
G75*
G02*
X18148000Y-8712000I45000J0D01*
G01*
X18148000Y-8966000D02*
G75*
G02*
X18058000Y-8966000I-45000J0D01*
G01*
X18058000Y-8966000D02*
G75*
G02*
X18148000Y-8966000I45000J0D01*
G01*
X18148000Y-9220000D02*
G75*
G02*
X18058000Y-9220000I-45000J0D01*
G01*
X18058000Y-9220000D02*
G75*
G02*
X18148000Y-9220000I45000J0D01*
G01*
X18148000Y-9474000D02*
G75*
G02*
X18058000Y-9474000I-45000J0D01*
G01*
X18058000Y-9474000D02*
G75*
G02*
X18148000Y-9474000I45000J0D01*
G01*
X18148000Y-9728000D02*
G75*
G02*
X18058000Y-9728000I-45000J0D01*
G01*
X18058000Y-9728000D02*
G75*
G02*
X18148000Y-9728000I45000J0D01*
G01*
X18148000Y-9982000D02*
G75*
G02*
X18058000Y-9982000I-45000J0D01*
G01*
X18058000Y-9982000D02*
G75*
G02*
X18148000Y-9982000I45000J0D01*
G01*
X18148000Y-10236000D02*
G75*
G02*
X18058000Y-10236000I-45000J0D01*
G01*
X18058000Y-10236000D02*
G75*
G02*
X18148000Y-10236000I45000J0D01*
G01*
X18148000Y-10490000D02*
G75*
G02*
X18058000Y-10490000I-45000J0D01*
G01*
X18058000Y-10490000D02*
G75*
G02*
X18148000Y-10490000I45000J0D01*
G01*
X18148000Y-10744000D02*
G75*
G02*
X18058000Y-10744000I-45000J0D01*
G01*
X18058000Y-10744000D02*
G75*
G02*
X18148000Y-10744000I45000J0D01*
G01*
X18148000Y-10998000D02*
G75*
G02*
X18058000Y-10998000I-45000J0D01*
G01*
X18058000Y-10998000D02*
G75*
G02*
X18148000Y-10998000I45000J0D01*
G01*
X20180000Y-6172000D02*
G75*
G02*
X20090000Y-6172000I-45000J0D01*
G01*
X20090000Y-6172000D02*
G75*
G02*
X20180000Y-6172000I45000J0D01*
G01*
X20180000Y-6426000D02*
G75*
G02*
X20090000Y-6426000I-45000J0D01*
G01*
X20090000Y-6426000D02*
G75*
G02*
X20180000Y-6426000I45000J0D01*
G01*
X20180000Y-6680000D02*
G75*
G02*
X20090000Y-6680000I-45000J0D01*
G01*
X20090000Y-6680000D02*
G75*
G02*
X20180000Y-6680000I45000J0D01*
G01*
X20180000Y-6934000D02*
G75*
G02*
X20090000Y-6934000I-45000J0D01*
G01*
X20090000Y-6934000D02*
G75*
G02*
X20180000Y-6934000I45000J0D01*
G01*
X20180000Y-7188000D02*
G75*
G02*
X20090000Y-7188000I-45000J0D01*
G01*
X20090000Y-7188000D02*
G75*
G02*
X20180000Y-7188000I45000J0D01*
G01*
X20180000Y-7442000D02*
G75*
G02*
X20090000Y-7442000I-45000J0D01*
G01*
X20090000Y-7442000D02*
G75*
G02*
X20180000Y-7442000I45000J0D01*
G01*
X20180000Y-7696000D02*
G75*
G02*
X20090000Y-7696000I-45000J0D01*
G01*
X20090000Y-7696000D02*
G75*
G02*
X20180000Y-7696000I45000J0D01*
G01*
X20180000Y-7950000D02*
G75*
G02*
X20090000Y-7950000I-45000J0D01*
G01*
X20090000Y-7950000D02*
G75*
G02*
X20180000Y-7950000I45000J0D01*
G01*
X20180000Y-8204000D02*
G75*
G02*
X20090000Y-8204000I-45000J0D01*
G01*
X20090000Y-8204000D02*
G75*
G02*
X20180000Y-8204000I45000J0D01*
G01*
X20180000Y-8458000D02*
G75*
G02*
X20090000Y-8458000I-45000J0D01*
G01*
X20090000Y-8458000D02*
G75*
G02*
X20180000Y-8458000I45000J0D01*
G01*
X20180000Y-8712000D02*
G75*
G02*
X20090000Y-8712000I-45000J0D01*
G01*
X20090000Y-8712000D02*
G75*
G02*
X20180000Y-8712000I45000J0D01*
G01*
X20180000Y-8966000D02*
G75*
G02*
X20090000Y-8966000I-45000J0D01*
G01*
X20090000Y-8966000D02*
G75*
G02*
X20180000Y-8966000I45000J0D01*
G01*
X20180000Y-9220000D02*
G75*
G02*
X20090000Y-9220000I-45000J0D01*
G01*
X20090000Y-9220000D02*
G75*
G02*
X20180000Y-9220000I45000J0D01*
G01*
X20180000Y-9474000D02*
G75*
G02*
X20090000Y-9474000I-45000J0D01*
G01*
X20090000Y-9474000D02*
G75*
G02*
X20180000Y-9474000I45000J0D01*
G01*
X20180000Y-9728000D02*
G75*
G02*
X20090000Y-9728000I-45000J0D01*
G01*
X20090000Y-9728000D02*
G75*
G02*
X20180000Y-9728000I45000J0D01*
G01*
X20180000Y-9982000D02*
G75*
G02*
X20090000Y-9982000I-45000J0D01*
G01*
X20090000Y-9982000D02*
G75*
G02*
X20180000Y-9982000I45000J0D01*
G01*
X20180000Y-10236000D02*
G75*
G02*
X20090000Y-10236000I-45000J0D01*
G01*
X20090000Y-10236000D02*
G75*
G02*
X20180000Y-10236000I45000J0D01*
G01*
X20180000Y-10490000D02*
G75*
G02*
X20090000Y-10490000I-45000J0D01*
G01*
X20090000Y-10490000D02*
G75*
G02*
X20180000Y-10490000I45000J0D01*
G01*
X20180000Y-10744000D02*
G75*
G02*
X20090000Y-10744000I-45000J0D01*
G01*
X20090000Y-10744000D02*
G75*
G02*
X20180000Y-10744000I45000J0D01*
G01*
X20180000Y-10998000D02*
G75*
G02*
X20090000Y-10998000I-45000J0D01*
G01*
X20090000Y-10998000D02*
G75*
G02*
X20180000Y-10998000I45000J0D01*
G01*
X5660000Y-7446000D02*
X5660000Y-7546000D01*
X5610000Y-7496000D02*
X5710000Y-7496000D01*
X5660000Y-7700000D02*
X5660000Y-7800000D01*
X5610000Y-7750000D02*
X5710000Y-7750000D01*
X5660000Y-7954000D02*
X5660000Y-8054000D01*
X5610000Y-8004000D02*
X5710000Y-8004000D01*
X5660000Y-8208000D02*
X5660000Y-8308000D01*
X5610000Y-8258000D02*
X5710000Y-8258000D01*
X5660000Y-8462000D02*
X5660000Y-8562000D01*
X5610000Y-8512000D02*
X5710000Y-8512000D01*
X5660000Y-8716000D02*
X5660000Y-8816000D01*
X5610000Y-8766000D02*
X5710000Y-8766000D01*
X5660000Y-8970000D02*
X5660000Y-9070000D01*
X5610000Y-9020000D02*
X5710000Y-9020000D01*
X5660000Y-9224000D02*
X5660000Y-9324000D01*
X5610000Y-9274000D02*
X5710000Y-9274000D01*
X5660000Y-9478000D02*
X5660000Y-9578000D01*
X5610000Y-9528000D02*
X5710000Y-9528000D01*
X5660000Y-9732000D02*
X5660000Y-9832000D01*
X5610000Y-9782000D02*
X5710000Y-9782000D01*
X6200000Y-13048000D02*
X6200000Y-13148000D01*
X6150000Y-13098000D02*
X6250000Y-13098000D01*
X6454000Y-13048000D02*
X6454000Y-13148000D01*
X6404000Y-13098000D02*
X6504000Y-13098000D01*
X6664000Y-6270000D02*
X6664000Y-6370000D01*
X6614000Y-6320000D02*
X6714000Y-6320000D01*
X6708000Y-13048000D02*
X6708000Y-13148000D01*
X6658000Y-13098000D02*
X6758000Y-13098000D01*
X6918000Y-6270000D02*
X6918000Y-6370000D01*
X6868000Y-6320000D02*
X6968000Y-6320000D01*
X6962000Y-13048000D02*
X6962000Y-13148000D01*
X6912000Y-13098000D02*
X7012000Y-13098000D01*
X7172000Y-6270000D02*
X7172000Y-6370000D01*
X7122000Y-6320000D02*
X7222000Y-6320000D01*
X7216000Y-13048000D02*
X7216000Y-13148000D01*
X7166000Y-13098000D02*
X7266000Y-13098000D01*
X7426000Y-6270000D02*
X7426000Y-6370000D01*
X7376000Y-6320000D02*
X7476000Y-6320000D01*
X7470000Y-13048000D02*
X7470000Y-13148000D01*
X7420000Y-13098000D02*
X7520000Y-13098000D01*
X7680000Y-6270000D02*
X7680000Y-6370000D01*
X7630000Y-6320000D02*
X7730000Y-6320000D01*
X7724000Y-13048000D02*
X7724000Y-13148000D01*
X7674000Y-13098000D02*
X7774000Y-13098000D01*
X7978000Y-13048000D02*
X7978000Y-13148000D01*
X7928000Y-13098000D02*
X8028000Y-13098000D01*
X8232000Y-13048000D02*
X8232000Y-13148000D01*
X8182000Y-13098000D02*
X8282000Y-13098000D01*
X8486000Y-13048000D02*
X8486000Y-13148000D01*
X8436000Y-13098000D02*
X8536000Y-13098000D01*
X8990000Y-7445000D02*
X8990000Y-7545000D01*
X8940000Y-7495000D02*
X9040000Y-7495000D01*
X8990000Y-7699000D02*
X8990000Y-7799000D01*
X8940000Y-7749000D02*
X9040000Y-7749000D01*
X8990000Y-7953000D02*
X8990000Y-8053000D01*
X8940000Y-8003000D02*
X9040000Y-8003000D01*
X8990000Y-8207000D02*
X8990000Y-8307000D01*
X8940000Y-8257000D02*
X9040000Y-8257000D01*
X8990000Y-8461000D02*
X8990000Y-8561000D01*
X8940000Y-8511000D02*
X9040000Y-8511000D01*
X8990000Y-8715000D02*
X8990000Y-8815000D01*
X8940000Y-8765000D02*
X9040000Y-8765000D01*
X8990000Y-8969000D02*
X8990000Y-9069000D01*
X8940000Y-9019000D02*
X9040000Y-9019000D01*
X8990000Y-9223000D02*
X8990000Y-9323000D01*
X8940000Y-9273000D02*
X9040000Y-9273000D01*
X8990000Y-9477000D02*
X8990000Y-9577000D01*
X8940000Y-9527000D02*
X9040000Y-9527000D01*
X8990000Y-9731000D02*
X8990000Y-9831000D01*
X8940000Y-9781000D02*
X9040000Y-9781000D01*
X11824800Y-6340000D02*
X11824800Y-6440000D01*
X11774800Y-6390000D02*
X11874800Y-6390000D01*
X11824800Y-6594000D02*
X11824800Y-6694000D01*
X11774800Y-6644000D02*
X11874800Y-6644000D01*
X11824800Y-6848000D02*
X11824800Y-6948000D01*
X11774800Y-6898000D02*
X11874800Y-6898000D01*
X11824800Y-7102000D02*
X11824800Y-7202000D01*
X11774800Y-7152000D02*
X11874800Y-7152000D01*
X11824800Y-7356000D02*
X11824800Y-7456000D01*
X11774800Y-7406000D02*
X11874800Y-7406000D01*
X11824800Y-7610000D02*
X11824800Y-7710000D01*
X11774800Y-7660000D02*
X11874800Y-7660000D01*
X11824800Y-7864000D02*
X11824800Y-7964000D01*
X11774800Y-7914000D02*
X11874800Y-7914000D01*
X11824800Y-8118000D02*
X11824800Y-8218000D01*
X11774800Y-8168000D02*
X11874800Y-8168000D01*
X11824800Y-8372000D02*
X11824800Y-8472000D01*
X11774800Y-8422000D02*
X11874800Y-8422000D01*
X11824800Y-8626000D02*
X11824800Y-8726000D01*
X11774800Y-8676000D02*
X11874800Y-8676000D01*
X11824800Y-8880000D02*
X11824800Y-8980000D01*
X11774800Y-8930000D02*
X11874800Y-8930000D01*
X11824800Y-9134000D02*
X11824800Y-9234000D01*
X11774800Y-9184000D02*
X11874800Y-9184000D01*
X11824800Y-9388000D02*
X11824800Y-9488000D01*
X11774800Y-9438000D02*
X11874800Y-9438000D01*
X11824800Y-9642000D02*
X11824800Y-9742000D01*
X11774800Y-9692000D02*
X11874800Y-9692000D01*
X11824800Y-9896000D02*
X11824800Y-9996000D01*
X11774800Y-9946000D02*
X11874800Y-9946000D01*
X11824800Y-10150000D02*
X11824800Y-10250000D01*
X11774800Y-10200000D02*
X11874800Y-10200000D01*
X11824800Y-10404000D02*
X11824800Y-10504000D01*
X11774800Y-10454000D02*
X11874800Y-10454000D01*
X11824800Y-10658000D02*
X11824800Y-10758000D01*
X11774800Y-10708000D02*
X11874800Y-10708000D01*
X11824800Y-10912000D02*
X11824800Y-11012000D01*
X11774800Y-10962000D02*
X11874800Y-10962000D01*
X11824800Y-11166000D02*
X11824800Y-11266000D01*
X11774800Y-11216000D02*
X11874800Y-11216000D01*
X11824800Y-11420000D02*
X11824800Y-11520000D01*
X11774800Y-11470000D02*
X11874800Y-11470000D01*
X11824800Y-11674000D02*
X11824800Y-11774000D01*
X11774800Y-11724000D02*
X11874800Y-11724000D01*
X11824800Y-11928000D02*
X11824800Y-12028000D01*
X11774800Y-11978000D02*
X11874800Y-11978000D01*
X11824800Y-12182000D02*
X11824800Y-12282000D01*
X11774800Y-12232000D02*
X11874800Y-12232000D01*
X11824800Y-12436000D02*
X11824800Y-12536000D01*
X11774800Y-12486000D02*
X11874800Y-12486000D01*
X11824800Y-12690000D02*
X11824800Y-12790000D01*
X11774800Y-12740000D02*
X11874800Y-12740000D01*
X11824800Y-12944000D02*
X11824800Y-13044000D01*
X11774800Y-12994000D02*
X11874800Y-12994000D01*
X14597400Y-6340000D02*
X14597400Y-6440000D01*
X14547400Y-6390000D02*
X14647400Y-6390000D01*
X14597400Y-6594000D02*
X14597400Y-6694000D01*
X14547400Y-6644000D02*
X14647400Y-6644000D01*
X14597400Y-6848000D02*
X14597400Y-6948000D01*
X14547400Y-6898000D02*
X14647400Y-6898000D01*
X14597400Y-7102000D02*
X14597400Y-7202000D01*
X14547400Y-7152000D02*
X14647400Y-7152000D01*
X14597400Y-7356000D02*
X14597400Y-7456000D01*
X14547400Y-7406000D02*
X14647400Y-7406000D01*
X14597400Y-7610000D02*
X14597400Y-7710000D01*
X14547400Y-7660000D02*
X14647400Y-7660000D01*
X14597400Y-7864000D02*
X14597400Y-7964000D01*
X14547400Y-7914000D02*
X14647400Y-7914000D01*
X14597400Y-8118000D02*
X14597400Y-8218000D01*
X14547400Y-8168000D02*
X14647400Y-8168000D01*
X14597400Y-8372000D02*
X14597400Y-8472000D01*
X14547400Y-8422000D02*
X14647400Y-8422000D01*
X14597400Y-8626000D02*
X14597400Y-8726000D01*
X14547400Y-8676000D02*
X14647400Y-8676000D01*
X14597400Y-8880000D02*
X14597400Y-8980000D01*
X14547400Y-8930000D02*
X14647400Y-8930000D01*
X14597400Y-9134000D02*
X14597400Y-9234000D01*
X14547400Y-9184000D02*
X14647400Y-9184000D01*
X14597400Y-9388000D02*
X14597400Y-9488000D01*
X14547400Y-9438000D02*
X14647400Y-9438000D01*
X14597400Y-9642000D02*
X14597400Y-9742000D01*
X14547400Y-9692000D02*
X14647400Y-9692000D01*
X14597400Y-9896000D02*
X14597400Y-9996000D01*
X14547400Y-9946000D02*
X14647400Y-9946000D01*
X14597400Y-10150000D02*
X14597400Y-10250000D01*
X14547400Y-10200000D02*
X14647400Y-10200000D01*
X14597400Y-10404000D02*
X14597400Y-10504000D01*
X14547400Y-10454000D02*
X14647400Y-10454000D01*
X14597400Y-10658000D02*
X14597400Y-10758000D01*
X14547400Y-10708000D02*
X14647400Y-10708000D01*
X14597400Y-10912000D02*
X14597400Y-11012000D01*
X14547400Y-10962000D02*
X14647400Y-10962000D01*
X14597400Y-11166000D02*
X14597400Y-11266000D01*
X14547400Y-11216000D02*
X14647400Y-11216000D01*
X14597400Y-11420000D02*
X14597400Y-11520000D01*
X14547400Y-11470000D02*
X14647400Y-11470000D01*
X14597400Y-11674000D02*
X14597400Y-11774000D01*
X14547400Y-11724000D02*
X14647400Y-11724000D01*
X14597400Y-11928000D02*
X14597400Y-12028000D01*
X14547400Y-11978000D02*
X14647400Y-11978000D01*
X14597400Y-12182000D02*
X14597400Y-12282000D01*
X14547400Y-12232000D02*
X14647400Y-12232000D01*
X14597400Y-12436000D02*
X14597400Y-12536000D01*
X14547400Y-12486000D02*
X14647400Y-12486000D01*
X14597400Y-12690000D02*
X14597400Y-12790000D01*
X14547400Y-12740000D02*
X14647400Y-12740000D01*
X14597400Y-12944000D02*
X14597400Y-13044000D01*
X14547400Y-12994000D02*
X14647400Y-12994000D01*
X17370000Y-6340000D02*
X17370000Y-6440000D01*
X17320000Y-6390000D02*
X17420000Y-6390000D01*
X17370000Y-6594000D02*
X17370000Y-6694000D01*
X17320000Y-6644000D02*
X17420000Y-6644000D01*
X17370000Y-6848000D02*
X17370000Y-6948000D01*
X17320000Y-6898000D02*
X17420000Y-6898000D01*
X17370000Y-7102000D02*
X17370000Y-7202000D01*
X17320000Y-7152000D02*
X17420000Y-7152000D01*
X17370000Y-7356000D02*
X17370000Y-7456000D01*
X17320000Y-7406000D02*
X17420000Y-7406000D01*
X17370000Y-7610000D02*
X17370000Y-7710000D01*
X17320000Y-7660000D02*
X17420000Y-7660000D01*
X17370000Y-7864000D02*
X17370000Y-7964000D01*
X17320000Y-7914000D02*
X17420000Y-7914000D01*
X17370000Y-8118000D02*
X17370000Y-8218000D01*
X17320000Y-8168000D02*
X17420000Y-8168000D01*
X17370000Y-8372000D02*
X17370000Y-8472000D01*
X17320000Y-8422000D02*
X17420000Y-8422000D01*
X17370000Y-8626000D02*
X17370000Y-8726000D01*
X17320000Y-8676000D02*
X17420000Y-8676000D01*
X17370000Y-8880000D02*
X17370000Y-8980000D01*
X17320000Y-8930000D02*
X17420000Y-8930000D01*
X17370000Y-9134000D02*
X17370000Y-9234000D01*
X17320000Y-9184000D02*
X17420000Y-9184000D01*
X17370000Y-9388000D02*
X17370000Y-9488000D01*
X17320000Y-9438000D02*
X17420000Y-9438000D01*
X17370000Y-9642000D02*
X17370000Y-9742000D01*
X17320000Y-9692000D02*
X17420000Y-9692000D01*
X17370000Y-9896000D02*
X17370000Y-9996000D01*
X17320000Y-9946000D02*
X17420000Y-9946000D01*
X17370000Y-10150000D02*
X17370000Y-10250000D01*
X17320000Y-10200000D02*
X17420000Y-10200000D01*
X17370000Y-10404000D02*
X17370000Y-10504000D01*
X17320000Y-10454000D02*
X17420000Y-10454000D01*
X17370000Y-10658000D02*
X17370000Y-10758000D01*
X17320000Y-10708000D02*
X17420000Y-10708000D01*
X17370000Y-10912000D02*
X17370000Y-11012000D01*
X17320000Y-10962000D02*
X17420000Y-10962000D01*
X17370000Y-11166000D02*
X17370000Y-11266000D01*
X17320000Y-11216000D02*
X17420000Y-11216000D01*
X17370000Y-11420000D02*
X17370000Y-11520000D01*
X17320000Y-11470000D02*
X17420000Y-11470000D01*
X17370000Y-11674000D02*
X17370000Y-11774000D01*
X17320000Y-11724000D02*
X17420000Y-11724000D01*
X17370000Y-11928000D02*
X17370000Y-12028000D01*
X17320000Y-11978000D02*
X17420000Y-11978000D01*
X17370000Y-12182000D02*
X17370000Y-12282000D01*
X17320000Y-12232000D02*
X17420000Y-12232000D01*
X17370000Y-12436000D02*
X17370000Y-12536000D01*
X17320000Y-12486000D02*
X17420000Y-12486000D01*
X17370000Y-12690000D02*
X17370000Y-12790000D01*
X17320000Y-12740000D02*
X17420000Y-12740000D01*
X17370000Y-12944000D02*
X17370000Y-13044000D01*
X17320000Y-12994000D02*
X17420000Y-12994000D01*
X17776000Y-12980000D02*
X17776000Y-13080000D01*
X17726000Y-13030000D02*
X17826000Y-13030000D01*
X17832000Y-6126000D02*
X17832000Y-6226000D01*
X17782000Y-6176000D02*
X17882000Y-6176000D01*
X17832000Y-6380000D02*
X17832000Y-6480000D01*
X17782000Y-6430000D02*
X17882000Y-6430000D01*
X17832000Y-6634000D02*
X17832000Y-6734000D01*
X17782000Y-6684000D02*
X17882000Y-6684000D01*
X17832000Y-6888000D02*
X17832000Y-6988000D01*
X17782000Y-6938000D02*
X17882000Y-6938000D01*
X17832000Y-7142000D02*
X17832000Y-7242000D01*
X17782000Y-7192000D02*
X17882000Y-7192000D01*
X17832000Y-7396000D02*
X17832000Y-7496000D01*
X17782000Y-7446000D02*
X17882000Y-7446000D01*
X17832000Y-7650000D02*
X17832000Y-7750000D01*
X17782000Y-7700000D02*
X17882000Y-7700000D01*
X17832000Y-7904000D02*
X17832000Y-8004000D01*
X17782000Y-7954000D02*
X17882000Y-7954000D01*
X17832000Y-8158000D02*
X17832000Y-8258000D01*
X17782000Y-8208000D02*
X17882000Y-8208000D01*
X17832000Y-8412000D02*
X17832000Y-8512000D01*
X17782000Y-8462000D02*
X17882000Y-8462000D01*
X17832000Y-8666000D02*
X17832000Y-8766000D01*
X17782000Y-8716000D02*
X17882000Y-8716000D01*
X17832000Y-8920000D02*
X17832000Y-9020000D01*
X17782000Y-8970000D02*
X17882000Y-8970000D01*
X17832000Y-9174000D02*
X17832000Y-9274000D01*
X17782000Y-9224000D02*
X17882000Y-9224000D01*
X17832000Y-9428000D02*
X17832000Y-9528000D01*
X17782000Y-9478000D02*
X17882000Y-9478000D01*
X17832000Y-9682000D02*
X17832000Y-9782000D01*
X17782000Y-9732000D02*
X17882000Y-9732000D01*
X17832000Y-9936000D02*
X17832000Y-10036000D01*
X17782000Y-9986000D02*
X17882000Y-9986000D01*
X17832000Y-10190000D02*
X17832000Y-10290000D01*
X17782000Y-10240000D02*
X17882000Y-10240000D01*
X17832000Y-10444000D02*
X17832000Y-10544000D01*
X17782000Y-10494000D02*
X17882000Y-10494000D01*
X17832000Y-10698000D02*
X17832000Y-10798000D01*
X17782000Y-10748000D02*
X17882000Y-10748000D01*
X17832000Y-10952000D02*
X17832000Y-11052000D01*
X17782000Y-11002000D02*
X17882000Y-11002000D01*
X18030000Y-12980000D02*
X18030000Y-13080000D01*
X17980000Y-13030000D02*
X18080000Y-13030000D01*
X18284000Y-12980000D02*
X18284000Y-13080000D01*
X18234000Y-13030000D02*
X18334000Y-13030000D01*
X18538000Y-12980000D02*
X18538000Y-13080000D01*
X18488000Y-13030000D02*
X18588000Y-13030000D01*
X18792000Y-12980000D02*
X18792000Y-13080000D01*
X18742000Y-13030000D02*
X18842000Y-13030000D01*
X19046000Y-12980000D02*
X19046000Y-13080000D01*
X18996000Y-13030000D02*
X19096000Y-13030000D01*
X19300000Y-12980000D02*
X19300000Y-13080000D01*
X19250000Y-13030000D02*
X19350000Y-13030000D01*
X19554000Y-12980000D02*
X19554000Y-13080000D01*
X19504000Y-13030000D02*
X19604000Y-13030000D01*
X19808000Y-12980000D02*
X19808000Y-13080000D01*
X19758000Y-13030000D02*
X19858000Y-13030000D01*
X20394500Y-12980000D02*
X20394500Y-13080000D01*
X20344500Y-13030000D02*
X20444500Y-13030000D01*
X20407000Y-6122000D02*
X20407000Y-6222000D01*
X20357000Y-6172000D02*
X20457000Y-6172000D01*
X20407000Y-6376000D02*
X20407000Y-6476000D01*
X20357000Y-6426000D02*
X20457000Y-6426000D01*
X20407000Y-6630000D02*
X20407000Y-6730000D01*
X20357000Y-6680000D02*
X20457000Y-6680000D01*
X20407000Y-6884000D02*
X20407000Y-6984000D01*
X20357000Y-6934000D02*
X20457000Y-6934000D01*
X20407000Y-7138000D02*
X20407000Y-7238000D01*
X20357000Y-7188000D02*
X20457000Y-7188000D01*
X20407000Y-7392000D02*
X20407000Y-7492000D01*
X20357000Y-7442000D02*
X20457000Y-7442000D01*
X20407000Y-7646000D02*
X20407000Y-7746000D01*
X20357000Y-7696000D02*
X20457000Y-7696000D01*
X20407000Y-7900000D02*
X20407000Y-8000000D01*
X20357000Y-7950000D02*
X20457000Y-7950000D01*
X20407000Y-8154000D02*
X20407000Y-8254000D01*
X20357000Y-8204000D02*
X20457000Y-8204000D01*
X20407000Y-8408000D02*
X20407000Y-8508000D01*
X20357000Y-8458000D02*
X20457000Y-8458000D01*
X20407000Y-8662000D02*
X20407000Y-8762000D01*
X20357000Y-8712000D02*
X20457000Y-8712000D01*
X20407000Y-8916000D02*
X20407000Y-9016000D01*
X20357000Y-8966000D02*
X20457000Y-8966000D01*
X20407000Y-9170000D02*
X20407000Y-9270000D01*
X20357000Y-9220000D02*
X20457000Y-9220000D01*
X20407000Y-9424000D02*
X20407000Y-9524000D01*
X20357000Y-9474000D02*
X20457000Y-9474000D01*
X20407000Y-9678000D02*
X20407000Y-9778000D01*
X20357000Y-9728000D02*
X20457000Y-9728000D01*
X20407000Y-9932000D02*
X20407000Y-10032000D01*
X20357000Y-9982000D02*
X20457000Y-9982000D01*
X20407000Y-10186000D02*
X20407000Y-10286000D01*
X20357000Y-10236000D02*
X20457000Y-10236000D01*
X20407000Y-10440000D02*
X20407000Y-10540000D01*
X20357000Y-10490000D02*
X20457000Y-10490000D01*
X20407000Y-10694000D02*
X20407000Y-10794000D01*
X20357000Y-10744000D02*
X20457000Y-10744000D01*
X20407000Y-10948000D02*
X20407000Y-11048000D01*
X20357000Y-10998000D02*
X20457000Y-10998000D01*
X20648500Y-12980000D02*
X20648500Y-13080000D01*
X20598500Y-13030000D02*
X20698500Y-13030000D01*
X20850000Y-6310500D02*
X20850000Y-6410500D01*
X20800000Y-6360500D02*
X20900000Y-6360500D01*
X20850000Y-6564500D02*
X20850000Y-6664500D01*
X20800000Y-6614500D02*
X20900000Y-6614500D01*
X20850000Y-6818500D02*
X20850000Y-6918500D01*
X20800000Y-6868500D02*
X20900000Y-6868500D01*
X20850000Y-7072500D02*
X20850000Y-7172500D01*
X20800000Y-7122500D02*
X20900000Y-7122500D01*
X20850000Y-7326500D02*
X20850000Y-7426500D01*
X20800000Y-7376500D02*
X20900000Y-7376500D01*
X20850000Y-7580500D02*
X20850000Y-7680500D01*
X20800000Y-7630500D02*
X20900000Y-7630500D01*
X20850000Y-7834500D02*
X20850000Y-7934500D01*
X20800000Y-7884500D02*
X20900000Y-7884500D01*
X20850000Y-8088500D02*
X20850000Y-8188500D01*
X20800000Y-8138500D02*
X20900000Y-8138500D01*
X20850000Y-8342500D02*
X20850000Y-8442500D01*
X20800000Y-8392500D02*
X20900000Y-8392500D01*
X20850000Y-8596500D02*
X20850000Y-8696500D01*
X20800000Y-8646500D02*
X20900000Y-8646500D01*
X20850000Y-8850500D02*
X20850000Y-8950500D01*
X20800000Y-8900500D02*
X20900000Y-8900500D01*
X20850000Y-9104500D02*
X20850000Y-9204500D01*
X20800000Y-9154500D02*
X20900000Y-9154500D01*
X20850000Y-9358500D02*
X20850000Y-9458500D01*
X20800000Y-9408500D02*
X20900000Y-9408500D01*
X20850000Y-9612500D02*
X20850000Y-9712500D01*
X20800000Y-9662500D02*
X20900000Y-9662500D01*
X20902500Y-12980000D02*
X20902500Y-13080000D01*
X20852500Y-13030000D02*
X20952500Y-13030000D01*
D13*
X5063138Y-6333138D02*
X5063138Y-6106862D01*
X4836862Y-6106862D01*
X4836862Y-6333138D01*
X5063138Y-6333138D01*
X5063138Y-13163138D02*
X5063138Y-12936862D01*
X4836862Y-12936862D01*
X4836862Y-13163138D01*
X5063138Y-13163138D01*
X21373138Y-6333138D02*
X21373138Y-6106862D01*
X21146862Y-6106862D01*
X21146862Y-6333138D01*
X21373138Y-6333138D01*
X21373138Y-13163138D02*
X21373138Y-12936862D01*
X21146862Y-12936862D01*
X21146862Y-13163138D01*
X21373138Y-13163138D01*
D11*
X4926277Y-13637984D02*
X4926277Y-13437984D01*
X4926277Y-13437984D02*
X4973896Y-13437984D01*
X4973896Y-13437984D02*
X5002467Y-13447508D01*
X5002467Y-13447508D02*
X5021515Y-13466555D01*
X5021515Y-13466555D02*
X5031039Y-13485603D01*
X5031039Y-13485603D02*
X5040563Y-13523698D01*
X5040563Y-13523698D02*
X5040563Y-13552269D01*
X5040563Y-13552269D02*
X5031039Y-13590365D01*
X5031039Y-13590365D02*
X5021515Y-13609412D01*
X5021515Y-13609412D02*
X5002467Y-13628460D01*
X5002467Y-13628460D02*
X4973896Y-13637984D01*
X4973896Y-13637984D02*
X4926277Y-13637984D01*
X5126277Y-13637984D02*
X5126277Y-13504650D01*
X5126277Y-13542746D02*
X5135801Y-13523698D01*
X5135801Y-13523698D02*
X5145324Y-13514174D01*
X5145324Y-13514174D02*
X5164372Y-13504650D01*
X5164372Y-13504650D02*
X5183420Y-13504650D01*
X5250086Y-13637984D02*
X5250086Y-13504650D01*
X5250086Y-13437984D02*
X5240563Y-13447508D01*
X5240563Y-13447508D02*
X5250086Y-13457031D01*
X5250086Y-13457031D02*
X5259610Y-13447508D01*
X5259610Y-13447508D02*
X5250086Y-13437984D01*
X5250086Y-13437984D02*
X5250086Y-13457031D01*
X5373896Y-13637984D02*
X5354848Y-13628460D01*
X5354848Y-13628460D02*
X5345324Y-13609412D01*
X5345324Y-13609412D02*
X5345324Y-13437984D01*
X5478658Y-13637984D02*
X5459610Y-13628460D01*
X5459610Y-13628460D02*
X5450086Y-13609412D01*
X5450086Y-13609412D02*
X5450086Y-13437984D01*
X5707229Y-13637984D02*
X5707229Y-13437984D01*
X5707229Y-13437984D02*
X5773896Y-13580841D01*
X5773896Y-13580841D02*
X5840562Y-13437984D01*
X5840562Y-13437984D02*
X5840562Y-13637984D01*
X6021515Y-13637984D02*
X6021515Y-13533222D01*
X6021515Y-13533222D02*
X6011991Y-13514174D01*
X6011991Y-13514174D02*
X5992943Y-13504650D01*
X5992943Y-13504650D02*
X5954848Y-13504650D01*
X5954848Y-13504650D02*
X5935801Y-13514174D01*
X6021515Y-13628460D02*
X6002467Y-13637984D01*
X6002467Y-13637984D02*
X5954848Y-13637984D01*
X5954848Y-13637984D02*
X5935801Y-13628460D01*
X5935801Y-13628460D02*
X5926277Y-13609412D01*
X5926277Y-13609412D02*
X5926277Y-13590365D01*
X5926277Y-13590365D02*
X5935801Y-13571317D01*
X5935801Y-13571317D02*
X5954848Y-13561793D01*
X5954848Y-13561793D02*
X6002467Y-13561793D01*
X6002467Y-13561793D02*
X6021515Y-13552269D01*
X6116753Y-13504650D02*
X6116753Y-13704650D01*
X6116753Y-13514174D02*
X6135801Y-13504650D01*
X6135801Y-13504650D02*
X6173896Y-13504650D01*
X6173896Y-13504650D02*
X6192943Y-13514174D01*
X6192943Y-13514174D02*
X6202467Y-13523698D01*
X6202467Y-13523698D02*
X6211991Y-13542746D01*
X6211991Y-13542746D02*
X6211991Y-13599888D01*
X6211991Y-13599888D02*
X6202467Y-13618936D01*
X6202467Y-13618936D02*
X6192943Y-13628460D01*
X6192943Y-13628460D02*
X6173896Y-13637984D01*
X6173896Y-13637984D02*
X6135801Y-13637984D01*
X6135801Y-13637984D02*
X6116753Y-13628460D01*
X6297705Y-13618936D02*
X6307229Y-13628460D01*
X6307229Y-13628460D02*
X6297705Y-13637984D01*
X6297705Y-13637984D02*
X6288182Y-13628460D01*
X6288182Y-13628460D02*
X6297705Y-13618936D01*
X6297705Y-13618936D02*
X6297705Y-13637984D01*
X6297705Y-13514174D02*
X6307229Y-13523698D01*
X6307229Y-13523698D02*
X6297705Y-13533222D01*
X6297705Y-13533222D02*
X6288182Y-13523698D01*
X6288182Y-13523698D02*
X6297705Y-13514174D01*
X6297705Y-13514174D02*
X6297705Y-13533222D01*
D12*
X4635500Y-13951500D02*
X4665500Y-13981500D01*
X4665500Y-13951500D02*
X4635500Y-13981500D01*
D11*
X4964372Y-13857984D02*
X4983420Y-13857984D01*
X4983420Y-13857984D02*
X5002467Y-13867508D01*
X5002467Y-13867508D02*
X5011991Y-13877031D01*
X5011991Y-13877031D02*
X5021515Y-13896079D01*
X5021515Y-13896079D02*
X5031039Y-13934174D01*
X5031039Y-13934174D02*
X5031039Y-13981793D01*
X5031039Y-13981793D02*
X5021515Y-14019888D01*
X5021515Y-14019888D02*
X5011991Y-14038936D01*
X5011991Y-14038936D02*
X5002467Y-14048460D01*
X5002467Y-14048460D02*
X4983420Y-14057984D01*
X4983420Y-14057984D02*
X4964372Y-14057984D01*
X4964372Y-14057984D02*
X4945324Y-14048460D01*
X4945324Y-14048460D02*
X4935801Y-14038936D01*
X4935801Y-14038936D02*
X4926277Y-14019888D01*
X4926277Y-14019888D02*
X4916753Y-13981793D01*
X4916753Y-13981793D02*
X4916753Y-13934174D01*
X4916753Y-13934174D02*
X4926277Y-13896079D01*
X4926277Y-13896079D02*
X4935801Y-13877031D01*
X4935801Y-13877031D02*
X4945324Y-13867508D01*
X4945324Y-13867508D02*
X4964372Y-13857984D01*
X5116753Y-14038936D02*
X5126277Y-14048460D01*
X5126277Y-14048460D02*
X5116753Y-14057984D01*
X5116753Y-14057984D02*
X5107229Y-14048460D01*
X5107229Y-14048460D02*
X5116753Y-14038936D01*
X5116753Y-14038936D02*
X5116753Y-14057984D01*
X5192944Y-13857984D02*
X5316753Y-13857984D01*
X5316753Y-13857984D02*
X5250086Y-13934174D01*
X5250086Y-13934174D02*
X5278658Y-13934174D01*
X5278658Y-13934174D02*
X5297705Y-13943698D01*
X5297705Y-13943698D02*
X5307229Y-13953222D01*
X5307229Y-13953222D02*
X5316753Y-13972269D01*
X5316753Y-13972269D02*
X5316753Y-14019888D01*
X5316753Y-14019888D02*
X5307229Y-14038936D01*
X5307229Y-14038936D02*
X5297705Y-14048460D01*
X5297705Y-14048460D02*
X5278658Y-14057984D01*
X5278658Y-14057984D02*
X5221515Y-14057984D01*
X5221515Y-14057984D02*
X5202467Y-14048460D01*
X5202467Y-14048460D02*
X5192944Y-14038936D01*
X5440563Y-13857984D02*
X5459610Y-13857984D01*
X5459610Y-13857984D02*
X5478658Y-13867508D01*
X5478658Y-13867508D02*
X5488182Y-13877031D01*
X5488182Y-13877031D02*
X5497705Y-13896079D01*
X5497705Y-13896079D02*
X5507229Y-13934174D01*
X5507229Y-13934174D02*
X5507229Y-13981793D01*
X5507229Y-13981793D02*
X5497705Y-14019888D01*
X5497705Y-14019888D02*
X5488182Y-14038936D01*
X5488182Y-14038936D02*
X5478658Y-14048460D01*
X5478658Y-14048460D02*
X5459610Y-14057984D01*
X5459610Y-14057984D02*
X5440563Y-14057984D01*
X5440563Y-14057984D02*
X5421515Y-14048460D01*
X5421515Y-14048460D02*
X5411991Y-14038936D01*
X5411991Y-14038936D02*
X5402467Y-14019888D01*
X5402467Y-14019888D02*
X5392944Y-13981793D01*
X5392944Y-13981793D02*
X5392944Y-13934174D01*
X5392944Y-13934174D02*
X5402467Y-13896079D01*
X5402467Y-13896079D02*
X5411991Y-13877031D01*
X5411991Y-13877031D02*
X5421515Y-13867508D01*
X5421515Y-13867508D02*
X5440563Y-13857984D01*
X5631039Y-13857984D02*
X5650086Y-13857984D01*
X5650086Y-13857984D02*
X5669134Y-13867508D01*
X5669134Y-13867508D02*
X5678658Y-13877031D01*
X5678658Y-13877031D02*
X5688182Y-13896079D01*
X5688182Y-13896079D02*
X5697705Y-13934174D01*
X5697705Y-13934174D02*
X5697705Y-13981793D01*
X5697705Y-13981793D02*
X5688182Y-14019888D01*
X5688182Y-14019888D02*
X5678658Y-14038936D01*
X5678658Y-14038936D02*
X5669134Y-14048460D01*
X5669134Y-14048460D02*
X5650086Y-14057984D01*
X5650086Y-14057984D02*
X5631039Y-14057984D01*
X5631039Y-14057984D02*
X5611991Y-14048460D01*
X5611991Y-14048460D02*
X5602467Y-14038936D01*
X5602467Y-14038936D02*
X5592943Y-14019888D01*
X5592943Y-14019888D02*
X5583420Y-13981793D01*
X5583420Y-13981793D02*
X5583420Y-13934174D01*
X5583420Y-13934174D02*
X5592943Y-13896079D01*
X5592943Y-13896079D02*
X5602467Y-13877031D01*
X5602467Y-13877031D02*
X5611991Y-13867508D01*
X5611991Y-13867508D02*
X5631039Y-13857984D01*
X5783420Y-14057984D02*
X5783420Y-13924650D01*
X5783420Y-13943698D02*
X5792943Y-13934174D01*
X5792943Y-13934174D02*
X5811991Y-13924650D01*
X5811991Y-13924650D02*
X5840563Y-13924650D01*
X5840563Y-13924650D02*
X5859610Y-13934174D01*
X5859610Y-13934174D02*
X5869134Y-13953222D01*
X5869134Y-13953222D02*
X5869134Y-14057984D01*
X5869134Y-13953222D02*
X5878658Y-13934174D01*
X5878658Y-13934174D02*
X5897705Y-13924650D01*
X5897705Y-13924650D02*
X5926277Y-13924650D01*
X5926277Y-13924650D02*
X5945324Y-13934174D01*
X5945324Y-13934174D02*
X5954848Y-13953222D01*
X5954848Y-13953222D02*
X5954848Y-14057984D01*
X6050086Y-14057984D02*
X6050086Y-13924650D01*
X6050086Y-13943698D02*
X6059610Y-13934174D01*
X6059610Y-13934174D02*
X6078658Y-13924650D01*
X6078658Y-13924650D02*
X6107229Y-13924650D01*
X6107229Y-13924650D02*
X6126277Y-13934174D01*
X6126277Y-13934174D02*
X6135801Y-13953222D01*
X6135801Y-13953222D02*
X6135801Y-14057984D01*
X6135801Y-13953222D02*
X6145324Y-13934174D01*
X6145324Y-13934174D02*
X6164372Y-13924650D01*
X6164372Y-13924650D02*
X6192943Y-13924650D01*
X6192943Y-13924650D02*
X6211991Y-13934174D01*
X6211991Y-13934174D02*
X6221515Y-13953222D01*
X6221515Y-13953222D02*
X6221515Y-14057984D01*
X6611991Y-13848460D02*
X6440563Y-14105603D01*
X6869134Y-13857984D02*
X6888182Y-13857984D01*
X6888182Y-13857984D02*
X6907229Y-13867508D01*
X6907229Y-13867508D02*
X6916753Y-13877031D01*
X6916753Y-13877031D02*
X6926277Y-13896079D01*
X6926277Y-13896079D02*
X6935801Y-13934174D01*
X6935801Y-13934174D02*
X6935801Y-13981793D01*
X6935801Y-13981793D02*
X6926277Y-14019888D01*
X6926277Y-14019888D02*
X6916753Y-14038936D01*
X6916753Y-14038936D02*
X6907229Y-14048460D01*
X6907229Y-14048460D02*
X6888182Y-14057984D01*
X6888182Y-14057984D02*
X6869134Y-14057984D01*
X6869134Y-14057984D02*
X6850086Y-14048460D01*
X6850086Y-14048460D02*
X6840563Y-14038936D01*
X6840563Y-14038936D02*
X6831039Y-14019888D01*
X6831039Y-14019888D02*
X6821515Y-13981793D01*
X6821515Y-13981793D02*
X6821515Y-13934174D01*
X6821515Y-13934174D02*
X6831039Y-13896079D01*
X6831039Y-13896079D02*
X6840563Y-13877031D01*
X6840563Y-13877031D02*
X6850086Y-13867508D01*
X6850086Y-13867508D02*
X6869134Y-13857984D01*
X7021515Y-14038936D02*
X7031039Y-14048460D01*
X7031039Y-14048460D02*
X7021515Y-14057984D01*
X7021515Y-14057984D02*
X7011991Y-14048460D01*
X7011991Y-14048460D02*
X7021515Y-14038936D01*
X7021515Y-14038936D02*
X7021515Y-14057984D01*
X7154848Y-13857984D02*
X7173896Y-13857984D01*
X7173896Y-13857984D02*
X7192944Y-13867508D01*
X7192944Y-13867508D02*
X7202467Y-13877031D01*
X7202467Y-13877031D02*
X7211991Y-13896079D01*
X7211991Y-13896079D02*
X7221515Y-13934174D01*
X7221515Y-13934174D02*
X7221515Y-13981793D01*
X7221515Y-13981793D02*
X7211991Y-14019888D01*
X7211991Y-14019888D02*
X7202467Y-14038936D01*
X7202467Y-14038936D02*
X7192944Y-14048460D01*
X7192944Y-14048460D02*
X7173896Y-14057984D01*
X7173896Y-14057984D02*
X7154848Y-14057984D01*
X7154848Y-14057984D02*
X7135801Y-14048460D01*
X7135801Y-14048460D02*
X7126277Y-14038936D01*
X7126277Y-14038936D02*
X7116753Y-14019888D01*
X7116753Y-14019888D02*
X7107229Y-13981793D01*
X7107229Y-13981793D02*
X7107229Y-13934174D01*
X7107229Y-13934174D02*
X7116753Y-13896079D01*
X7116753Y-13896079D02*
X7126277Y-13877031D01*
X7126277Y-13877031D02*
X7135801Y-13867508D01*
X7135801Y-13867508D02*
X7154848Y-13857984D01*
X7411991Y-14057984D02*
X7297706Y-14057984D01*
X7354848Y-14057984D02*
X7354848Y-13857984D01*
X7354848Y-13857984D02*
X7335801Y-13886555D01*
X7335801Y-13886555D02*
X7316753Y-13905603D01*
X7316753Y-13905603D02*
X7297706Y-13915127D01*
X7602467Y-14057984D02*
X7488182Y-14057984D01*
X7545325Y-14057984D02*
X7545325Y-13857984D01*
X7545325Y-13857984D02*
X7526277Y-13886555D01*
X7526277Y-13886555D02*
X7507229Y-13905603D01*
X7507229Y-13905603D02*
X7488182Y-13915127D01*
X7716753Y-13943698D02*
X7697706Y-13934174D01*
X7697706Y-13934174D02*
X7688182Y-13924650D01*
X7688182Y-13924650D02*
X7678658Y-13905603D01*
X7678658Y-13905603D02*
X7678658Y-13896079D01*
X7678658Y-13896079D02*
X7688182Y-13877031D01*
X7688182Y-13877031D02*
X7697706Y-13867508D01*
X7697706Y-13867508D02*
X7716753Y-13857984D01*
X7716753Y-13857984D02*
X7754848Y-13857984D01*
X7754848Y-13857984D02*
X7773896Y-13867508D01*
X7773896Y-13867508D02*
X7783420Y-13877031D01*
X7783420Y-13877031D02*
X7792944Y-13896079D01*
X7792944Y-13896079D02*
X7792944Y-13905603D01*
X7792944Y-13905603D02*
X7783420Y-13924650D01*
X7783420Y-13924650D02*
X7773896Y-13934174D01*
X7773896Y-13934174D02*
X7754848Y-13943698D01*
X7754848Y-13943698D02*
X7716753Y-13943698D01*
X7716753Y-13943698D02*
X7697706Y-13953222D01*
X7697706Y-13953222D02*
X7688182Y-13962746D01*
X7688182Y-13962746D02*
X7678658Y-13981793D01*
X7678658Y-13981793D02*
X7678658Y-14019888D01*
X7678658Y-14019888D02*
X7688182Y-14038936D01*
X7688182Y-14038936D02*
X7697706Y-14048460D01*
X7697706Y-14048460D02*
X7716753Y-14057984D01*
X7716753Y-14057984D02*
X7754848Y-14057984D01*
X7754848Y-14057984D02*
X7773896Y-14048460D01*
X7773896Y-14048460D02*
X7783420Y-14038936D01*
X7783420Y-14038936D02*
X7792944Y-14019888D01*
X7792944Y-14019888D02*
X7792944Y-13981793D01*
X7792944Y-13981793D02*
X7783420Y-13962746D01*
X7783420Y-13962746D02*
X7773896Y-13953222D01*
X7773896Y-13953222D02*
X7754848Y-13943698D01*
X7869134Y-13857984D02*
X7869134Y-13896079D01*
X7945325Y-13857984D02*
X7945325Y-13896079D01*
X8240563Y-14134174D02*
X8231039Y-14124650D01*
X8231039Y-14124650D02*
X8211991Y-14096079D01*
X8211991Y-14096079D02*
X8202468Y-14077031D01*
X8202468Y-14077031D02*
X8192944Y-14048460D01*
X8192944Y-14048460D02*
X8183420Y-14000841D01*
X8183420Y-14000841D02*
X8183420Y-13962746D01*
X8183420Y-13962746D02*
X8192944Y-13915127D01*
X8192944Y-13915127D02*
X8202468Y-13886555D01*
X8202468Y-13886555D02*
X8211991Y-13867508D01*
X8211991Y-13867508D02*
X8231039Y-13838936D01*
X8231039Y-13838936D02*
X8240563Y-13829412D01*
X8421515Y-14057984D02*
X8307229Y-14057984D01*
X8364372Y-14057984D02*
X8364372Y-13857984D01*
X8364372Y-13857984D02*
X8345325Y-13886555D01*
X8345325Y-13886555D02*
X8326277Y-13905603D01*
X8326277Y-13905603D02*
X8307229Y-13915127D01*
X8611991Y-14057984D02*
X8497706Y-14057984D01*
X8554849Y-14057984D02*
X8554849Y-13857984D01*
X8554849Y-13857984D02*
X8535801Y-13886555D01*
X8535801Y-13886555D02*
X8516753Y-13905603D01*
X8516753Y-13905603D02*
X8497706Y-13915127D01*
X8707230Y-14057984D02*
X8745325Y-14057984D01*
X8745325Y-14057984D02*
X8764372Y-14048460D01*
X8764372Y-14048460D02*
X8773896Y-14038936D01*
X8773896Y-14038936D02*
X8792944Y-14010365D01*
X8792944Y-14010365D02*
X8802468Y-13972269D01*
X8802468Y-13972269D02*
X8802468Y-13896079D01*
X8802468Y-13896079D02*
X8792944Y-13877031D01*
X8792944Y-13877031D02*
X8783420Y-13867508D01*
X8783420Y-13867508D02*
X8764372Y-13857984D01*
X8764372Y-13857984D02*
X8726277Y-13857984D01*
X8726277Y-13857984D02*
X8707230Y-13867508D01*
X8707230Y-13867508D02*
X8697706Y-13877031D01*
X8697706Y-13877031D02*
X8688182Y-13896079D01*
X8688182Y-13896079D02*
X8688182Y-13943698D01*
X8688182Y-13943698D02*
X8697706Y-13962746D01*
X8697706Y-13962746D02*
X8707230Y-13972269D01*
X8707230Y-13972269D02*
X8726277Y-13981793D01*
X8726277Y-13981793D02*
X8764372Y-13981793D01*
X8764372Y-13981793D02*
X8783420Y-13972269D01*
X8783420Y-13972269D02*
X8792944Y-13962746D01*
X8792944Y-13962746D02*
X8802468Y-13943698D01*
X9040563Y-14057984D02*
X9040563Y-13857984D01*
X9126277Y-14057984D02*
X9126277Y-13953222D01*
X9126277Y-13953222D02*
X9116753Y-13934174D01*
X9116753Y-13934174D02*
X9097706Y-13924650D01*
X9097706Y-13924650D02*
X9069134Y-13924650D01*
X9069134Y-13924650D02*
X9050087Y-13934174D01*
X9050087Y-13934174D02*
X9040563Y-13943698D01*
X9250087Y-14057984D02*
X9231039Y-14048460D01*
X9231039Y-14048460D02*
X9221515Y-14038936D01*
X9221515Y-14038936D02*
X9211992Y-14019888D01*
X9211992Y-14019888D02*
X9211992Y-13962746D01*
X9211992Y-13962746D02*
X9221515Y-13943698D01*
X9221515Y-13943698D02*
X9231039Y-13934174D01*
X9231039Y-13934174D02*
X9250087Y-13924650D01*
X9250087Y-13924650D02*
X9278658Y-13924650D01*
X9278658Y-13924650D02*
X9297706Y-13934174D01*
X9297706Y-13934174D02*
X9307230Y-13943698D01*
X9307230Y-13943698D02*
X9316753Y-13962746D01*
X9316753Y-13962746D02*
X9316753Y-14019888D01*
X9316753Y-14019888D02*
X9307230Y-14038936D01*
X9307230Y-14038936D02*
X9297706Y-14048460D01*
X9297706Y-14048460D02*
X9278658Y-14057984D01*
X9278658Y-14057984D02*
X9250087Y-14057984D01*
X9431039Y-14057984D02*
X9411992Y-14048460D01*
X9411992Y-14048460D02*
X9402468Y-14029412D01*
X9402468Y-14029412D02*
X9402468Y-13857984D01*
X9583420Y-14048460D02*
X9564373Y-14057984D01*
X9564373Y-14057984D02*
X9526277Y-14057984D01*
X9526277Y-14057984D02*
X9507230Y-14048460D01*
X9507230Y-14048460D02*
X9497706Y-14029412D01*
X9497706Y-14029412D02*
X9497706Y-13953222D01*
X9497706Y-13953222D02*
X9507230Y-13934174D01*
X9507230Y-13934174D02*
X9526277Y-13924650D01*
X9526277Y-13924650D02*
X9564373Y-13924650D01*
X9564373Y-13924650D02*
X9583420Y-13934174D01*
X9583420Y-13934174D02*
X9592944Y-13953222D01*
X9592944Y-13953222D02*
X9592944Y-13972269D01*
X9592944Y-13972269D02*
X9497706Y-13991317D01*
X9669134Y-14048460D02*
X9688182Y-14057984D01*
X9688182Y-14057984D02*
X9726277Y-14057984D01*
X9726277Y-14057984D02*
X9745325Y-14048460D01*
X9745325Y-14048460D02*
X9754849Y-14029412D01*
X9754849Y-14029412D02*
X9754849Y-14019888D01*
X9754849Y-14019888D02*
X9745325Y-14000841D01*
X9745325Y-14000841D02*
X9726277Y-13991317D01*
X9726277Y-13991317D02*
X9697706Y-13991317D01*
X9697706Y-13991317D02*
X9678658Y-13981793D01*
X9678658Y-13981793D02*
X9669134Y-13962746D01*
X9669134Y-13962746D02*
X9669134Y-13953222D01*
X9669134Y-13953222D02*
X9678658Y-13934174D01*
X9678658Y-13934174D02*
X9697706Y-13924650D01*
X9697706Y-13924650D02*
X9726277Y-13924650D01*
X9726277Y-13924650D02*
X9745325Y-13934174D01*
X9821515Y-14134174D02*
X9831039Y-14124650D01*
X9831039Y-14124650D02*
X9850087Y-14096079D01*
X9850087Y-14096079D02*
X9859611Y-14077031D01*
X9859611Y-14077031D02*
X9869134Y-14048460D01*
X9869134Y-14048460D02*
X9878658Y-14000841D01*
X9878658Y-14000841D02*
X9878658Y-13962746D01*
X9878658Y-13962746D02*
X9869134Y-13915127D01*
X9869134Y-13915127D02*
X9859611Y-13886555D01*
X9859611Y-13886555D02*
X9850087Y-13867508D01*
X9850087Y-13867508D02*
X9831039Y-13838936D01*
X9831039Y-13838936D02*
X9821515Y-13829412D01*
D12*
X4665500Y-14230500D02*
G75*
G02*
X4575500Y-14230500I-45000J0D01*
G01*
X4575500Y-14230500D02*
G75*
G02*
X4665500Y-14230500I45000J0D01*
G01*
D11*
X4964372Y-14121984D02*
X4983420Y-14121984D01*
X4983420Y-14121984D02*
X5002467Y-14131508D01*
X5002467Y-14131508D02*
X5011991Y-14141031D01*
X5011991Y-14141031D02*
X5021515Y-14160079D01*
X5021515Y-14160079D02*
X5031039Y-14198174D01*
X5031039Y-14198174D02*
X5031039Y-14245793D01*
X5031039Y-14245793D02*
X5021515Y-14283888D01*
X5021515Y-14283888D02*
X5011991Y-14302936D01*
X5011991Y-14302936D02*
X5002467Y-14312460D01*
X5002467Y-14312460D02*
X4983420Y-14321984D01*
X4983420Y-14321984D02*
X4964372Y-14321984D01*
X4964372Y-14321984D02*
X4945324Y-14312460D01*
X4945324Y-14312460D02*
X4935801Y-14302936D01*
X4935801Y-14302936D02*
X4926277Y-14283888D01*
X4926277Y-14283888D02*
X4916753Y-14245793D01*
X4916753Y-14245793D02*
X4916753Y-14198174D01*
X4916753Y-14198174D02*
X4926277Y-14160079D01*
X4926277Y-14160079D02*
X4935801Y-14141031D01*
X4935801Y-14141031D02*
X4945324Y-14131508D01*
X4945324Y-14131508D02*
X4964372Y-14121984D01*
X5116753Y-14302936D02*
X5126277Y-14312460D01*
X5126277Y-14312460D02*
X5116753Y-14321984D01*
X5116753Y-14321984D02*
X5107229Y-14312460D01*
X5107229Y-14312460D02*
X5116753Y-14302936D01*
X5116753Y-14302936D02*
X5116753Y-14321984D01*
X5221515Y-14321984D02*
X5259610Y-14321984D01*
X5259610Y-14321984D02*
X5278658Y-14312460D01*
X5278658Y-14312460D02*
X5288182Y-14302936D01*
X5288182Y-14302936D02*
X5307229Y-14274365D01*
X5307229Y-14274365D02*
X5316753Y-14236269D01*
X5316753Y-14236269D02*
X5316753Y-14160079D01*
X5316753Y-14160079D02*
X5307229Y-14141031D01*
X5307229Y-14141031D02*
X5297705Y-14131508D01*
X5297705Y-14131508D02*
X5278658Y-14121984D01*
X5278658Y-14121984D02*
X5240563Y-14121984D01*
X5240563Y-14121984D02*
X5221515Y-14131508D01*
X5221515Y-14131508D02*
X5211991Y-14141031D01*
X5211991Y-14141031D02*
X5202467Y-14160079D01*
X5202467Y-14160079D02*
X5202467Y-14207698D01*
X5202467Y-14207698D02*
X5211991Y-14226746D01*
X5211991Y-14226746D02*
X5221515Y-14236269D01*
X5221515Y-14236269D02*
X5240563Y-14245793D01*
X5240563Y-14245793D02*
X5278658Y-14245793D01*
X5278658Y-14245793D02*
X5297705Y-14236269D01*
X5297705Y-14236269D02*
X5307229Y-14226746D01*
X5307229Y-14226746D02*
X5316753Y-14207698D01*
X5440563Y-14121984D02*
X5459610Y-14121984D01*
X5459610Y-14121984D02*
X5478658Y-14131508D01*
X5478658Y-14131508D02*
X5488182Y-14141031D01*
X5488182Y-14141031D02*
X5497705Y-14160079D01*
X5497705Y-14160079D02*
X5507229Y-14198174D01*
X5507229Y-14198174D02*
X5507229Y-14245793D01*
X5507229Y-14245793D02*
X5497705Y-14283888D01*
X5497705Y-14283888D02*
X5488182Y-14302936D01*
X5488182Y-14302936D02*
X5478658Y-14312460D01*
X5478658Y-14312460D02*
X5459610Y-14321984D01*
X5459610Y-14321984D02*
X5440563Y-14321984D01*
X5440563Y-14321984D02*
X5421515Y-14312460D01*
X5421515Y-14312460D02*
X5411991Y-14302936D01*
X5411991Y-14302936D02*
X5402467Y-14283888D01*
X5402467Y-14283888D02*
X5392944Y-14245793D01*
X5392944Y-14245793D02*
X5392944Y-14198174D01*
X5392944Y-14198174D02*
X5402467Y-14160079D01*
X5402467Y-14160079D02*
X5411991Y-14141031D01*
X5411991Y-14141031D02*
X5421515Y-14131508D01*
X5421515Y-14131508D02*
X5440563Y-14121984D01*
X5631039Y-14121984D02*
X5650086Y-14121984D01*
X5650086Y-14121984D02*
X5669134Y-14131508D01*
X5669134Y-14131508D02*
X5678658Y-14141031D01*
X5678658Y-14141031D02*
X5688182Y-14160079D01*
X5688182Y-14160079D02*
X5697705Y-14198174D01*
X5697705Y-14198174D02*
X5697705Y-14245793D01*
X5697705Y-14245793D02*
X5688182Y-14283888D01*
X5688182Y-14283888D02*
X5678658Y-14302936D01*
X5678658Y-14302936D02*
X5669134Y-14312460D01*
X5669134Y-14312460D02*
X5650086Y-14321984D01*
X5650086Y-14321984D02*
X5631039Y-14321984D01*
X5631039Y-14321984D02*
X5611991Y-14312460D01*
X5611991Y-14312460D02*
X5602467Y-14302936D01*
X5602467Y-14302936D02*
X5592943Y-14283888D01*
X5592943Y-14283888D02*
X5583420Y-14245793D01*
X5583420Y-14245793D02*
X5583420Y-14198174D01*
X5583420Y-14198174D02*
X5592943Y-14160079D01*
X5592943Y-14160079D02*
X5602467Y-14141031D01*
X5602467Y-14141031D02*
X5611991Y-14131508D01*
X5611991Y-14131508D02*
X5631039Y-14121984D01*
X5783420Y-14321984D02*
X5783420Y-14188650D01*
X5783420Y-14207698D02*
X5792943Y-14198174D01*
X5792943Y-14198174D02*
X5811991Y-14188650D01*
X5811991Y-14188650D02*
X5840563Y-14188650D01*
X5840563Y-14188650D02*
X5859610Y-14198174D01*
X5859610Y-14198174D02*
X5869134Y-14217222D01*
X5869134Y-14217222D02*
X5869134Y-14321984D01*
X5869134Y-14217222D02*
X5878658Y-14198174D01*
X5878658Y-14198174D02*
X5897705Y-14188650D01*
X5897705Y-14188650D02*
X5926277Y-14188650D01*
X5926277Y-14188650D02*
X5945324Y-14198174D01*
X5945324Y-14198174D02*
X5954848Y-14217222D01*
X5954848Y-14217222D02*
X5954848Y-14321984D01*
X6050086Y-14321984D02*
X6050086Y-14188650D01*
X6050086Y-14207698D02*
X6059610Y-14198174D01*
X6059610Y-14198174D02*
X6078658Y-14188650D01*
X6078658Y-14188650D02*
X6107229Y-14188650D01*
X6107229Y-14188650D02*
X6126277Y-14198174D01*
X6126277Y-14198174D02*
X6135801Y-14217222D01*
X6135801Y-14217222D02*
X6135801Y-14321984D01*
X6135801Y-14217222D02*
X6145324Y-14198174D01*
X6145324Y-14198174D02*
X6164372Y-14188650D01*
X6164372Y-14188650D02*
X6192943Y-14188650D01*
X6192943Y-14188650D02*
X6211991Y-14198174D01*
X6211991Y-14198174D02*
X6221515Y-14217222D01*
X6221515Y-14217222D02*
X6221515Y-14321984D01*
X6611991Y-14112460D02*
X6440563Y-14369603D01*
X6869134Y-14121984D02*
X6888182Y-14121984D01*
X6888182Y-14121984D02*
X6907229Y-14131508D01*
X6907229Y-14131508D02*
X6916753Y-14141031D01*
X6916753Y-14141031D02*
X6926277Y-14160079D01*
X6926277Y-14160079D02*
X6935801Y-14198174D01*
X6935801Y-14198174D02*
X6935801Y-14245793D01*
X6935801Y-14245793D02*
X6926277Y-14283888D01*
X6926277Y-14283888D02*
X6916753Y-14302936D01*
X6916753Y-14302936D02*
X6907229Y-14312460D01*
X6907229Y-14312460D02*
X6888182Y-14321984D01*
X6888182Y-14321984D02*
X6869134Y-14321984D01*
X6869134Y-14321984D02*
X6850086Y-14312460D01*
X6850086Y-14312460D02*
X6840563Y-14302936D01*
X6840563Y-14302936D02*
X6831039Y-14283888D01*
X6831039Y-14283888D02*
X6821515Y-14245793D01*
X6821515Y-14245793D02*
X6821515Y-14198174D01*
X6821515Y-14198174D02*
X6831039Y-14160079D01*
X6831039Y-14160079D02*
X6840563Y-14141031D01*
X6840563Y-14141031D02*
X6850086Y-14131508D01*
X6850086Y-14131508D02*
X6869134Y-14121984D01*
X7021515Y-14302936D02*
X7031039Y-14312460D01*
X7031039Y-14312460D02*
X7021515Y-14321984D01*
X7021515Y-14321984D02*
X7011991Y-14312460D01*
X7011991Y-14312460D02*
X7021515Y-14302936D01*
X7021515Y-14302936D02*
X7021515Y-14321984D01*
X7154848Y-14121984D02*
X7173896Y-14121984D01*
X7173896Y-14121984D02*
X7192944Y-14131508D01*
X7192944Y-14131508D02*
X7202467Y-14141031D01*
X7202467Y-14141031D02*
X7211991Y-14160079D01*
X7211991Y-14160079D02*
X7221515Y-14198174D01*
X7221515Y-14198174D02*
X7221515Y-14245793D01*
X7221515Y-14245793D02*
X7211991Y-14283888D01*
X7211991Y-14283888D02*
X7202467Y-14302936D01*
X7202467Y-14302936D02*
X7192944Y-14312460D01*
X7192944Y-14312460D02*
X7173896Y-14321984D01*
X7173896Y-14321984D02*
X7154848Y-14321984D01*
X7154848Y-14321984D02*
X7135801Y-14312460D01*
X7135801Y-14312460D02*
X7126277Y-14302936D01*
X7126277Y-14302936D02*
X7116753Y-14283888D01*
X7116753Y-14283888D02*
X7107229Y-14245793D01*
X7107229Y-14245793D02*
X7107229Y-14198174D01*
X7107229Y-14198174D02*
X7116753Y-14160079D01*
X7116753Y-14160079D02*
X7126277Y-14141031D01*
X7126277Y-14141031D02*
X7135801Y-14131508D01*
X7135801Y-14131508D02*
X7154848Y-14121984D01*
X7288182Y-14121984D02*
X7411991Y-14121984D01*
X7411991Y-14121984D02*
X7345325Y-14198174D01*
X7345325Y-14198174D02*
X7373896Y-14198174D01*
X7373896Y-14198174D02*
X7392944Y-14207698D01*
X7392944Y-14207698D02*
X7402467Y-14217222D01*
X7402467Y-14217222D02*
X7411991Y-14236269D01*
X7411991Y-14236269D02*
X7411991Y-14283888D01*
X7411991Y-14283888D02*
X7402467Y-14302936D01*
X7402467Y-14302936D02*
X7392944Y-14312460D01*
X7392944Y-14312460D02*
X7373896Y-14321984D01*
X7373896Y-14321984D02*
X7316753Y-14321984D01*
X7316753Y-14321984D02*
X7297706Y-14312460D01*
X7297706Y-14312460D02*
X7288182Y-14302936D01*
X7592944Y-14121984D02*
X7497706Y-14121984D01*
X7497706Y-14121984D02*
X7488182Y-14217222D01*
X7488182Y-14217222D02*
X7497706Y-14207698D01*
X7497706Y-14207698D02*
X7516753Y-14198174D01*
X7516753Y-14198174D02*
X7564372Y-14198174D01*
X7564372Y-14198174D02*
X7583420Y-14207698D01*
X7583420Y-14207698D02*
X7592944Y-14217222D01*
X7592944Y-14217222D02*
X7602467Y-14236269D01*
X7602467Y-14236269D02*
X7602467Y-14283888D01*
X7602467Y-14283888D02*
X7592944Y-14302936D01*
X7592944Y-14302936D02*
X7583420Y-14312460D01*
X7583420Y-14312460D02*
X7564372Y-14321984D01*
X7564372Y-14321984D02*
X7516753Y-14321984D01*
X7516753Y-14321984D02*
X7497706Y-14312460D01*
X7497706Y-14312460D02*
X7488182Y-14302936D01*
X7773896Y-14188650D02*
X7773896Y-14321984D01*
X7726277Y-14112460D02*
X7678658Y-14255317D01*
X7678658Y-14255317D02*
X7802467Y-14255317D01*
X7869134Y-14121984D02*
X7869134Y-14160079D01*
X7945325Y-14121984D02*
X7945325Y-14160079D01*
X8240563Y-14398174D02*
X8231039Y-14388650D01*
X8231039Y-14388650D02*
X8211991Y-14360079D01*
X8211991Y-14360079D02*
X8202468Y-14341031D01*
X8202468Y-14341031D02*
X8192944Y-14312460D01*
X8192944Y-14312460D02*
X8183420Y-14264841D01*
X8183420Y-14264841D02*
X8183420Y-14226746D01*
X8183420Y-14226746D02*
X8192944Y-14179127D01*
X8192944Y-14179127D02*
X8202468Y-14150555D01*
X8202468Y-14150555D02*
X8211991Y-14131508D01*
X8211991Y-14131508D02*
X8231039Y-14102936D01*
X8231039Y-14102936D02*
X8240563Y-14093412D01*
X8421515Y-14321984D02*
X8307229Y-14321984D01*
X8364372Y-14321984D02*
X8364372Y-14121984D01*
X8364372Y-14121984D02*
X8345325Y-14150555D01*
X8345325Y-14150555D02*
X8326277Y-14169603D01*
X8326277Y-14169603D02*
X8307229Y-14179127D01*
X8488182Y-14121984D02*
X8611991Y-14121984D01*
X8611991Y-14121984D02*
X8545325Y-14198174D01*
X8545325Y-14198174D02*
X8573896Y-14198174D01*
X8573896Y-14198174D02*
X8592944Y-14207698D01*
X8592944Y-14207698D02*
X8602468Y-14217222D01*
X8602468Y-14217222D02*
X8611991Y-14236269D01*
X8611991Y-14236269D02*
X8611991Y-14283888D01*
X8611991Y-14283888D02*
X8602468Y-14302936D01*
X8602468Y-14302936D02*
X8592944Y-14312460D01*
X8592944Y-14312460D02*
X8573896Y-14321984D01*
X8573896Y-14321984D02*
X8516753Y-14321984D01*
X8516753Y-14321984D02*
X8497706Y-14312460D01*
X8497706Y-14312460D02*
X8488182Y-14302936D01*
X8707230Y-14321984D02*
X8745325Y-14321984D01*
X8745325Y-14321984D02*
X8764372Y-14312460D01*
X8764372Y-14312460D02*
X8773896Y-14302936D01*
X8773896Y-14302936D02*
X8792944Y-14274365D01*
X8792944Y-14274365D02*
X8802468Y-14236269D01*
X8802468Y-14236269D02*
X8802468Y-14160079D01*
X8802468Y-14160079D02*
X8792944Y-14141031D01*
X8792944Y-14141031D02*
X8783420Y-14131508D01*
X8783420Y-14131508D02*
X8764372Y-14121984D01*
X8764372Y-14121984D02*
X8726277Y-14121984D01*
X8726277Y-14121984D02*
X8707230Y-14131508D01*
X8707230Y-14131508D02*
X8697706Y-14141031D01*
X8697706Y-14141031D02*
X8688182Y-14160079D01*
X8688182Y-14160079D02*
X8688182Y-14207698D01*
X8688182Y-14207698D02*
X8697706Y-14226746D01*
X8697706Y-14226746D02*
X8707230Y-14236269D01*
X8707230Y-14236269D02*
X8726277Y-14245793D01*
X8726277Y-14245793D02*
X8764372Y-14245793D01*
X8764372Y-14245793D02*
X8783420Y-14236269D01*
X8783420Y-14236269D02*
X8792944Y-14226746D01*
X8792944Y-14226746D02*
X8802468Y-14207698D01*
X9040563Y-14321984D02*
X9040563Y-14121984D01*
X9126277Y-14321984D02*
X9126277Y-14217222D01*
X9126277Y-14217222D02*
X9116753Y-14198174D01*
X9116753Y-14198174D02*
X9097706Y-14188650D01*
X9097706Y-14188650D02*
X9069134Y-14188650D01*
X9069134Y-14188650D02*
X9050087Y-14198174D01*
X9050087Y-14198174D02*
X9040563Y-14207698D01*
X9250087Y-14321984D02*
X9231039Y-14312460D01*
X9231039Y-14312460D02*
X9221515Y-14302936D01*
X9221515Y-14302936D02*
X9211992Y-14283888D01*
X9211992Y-14283888D02*
X9211992Y-14226746D01*
X9211992Y-14226746D02*
X9221515Y-14207698D01*
X9221515Y-14207698D02*
X9231039Y-14198174D01*
X9231039Y-14198174D02*
X9250087Y-14188650D01*
X9250087Y-14188650D02*
X9278658Y-14188650D01*
X9278658Y-14188650D02*
X9297706Y-14198174D01*
X9297706Y-14198174D02*
X9307230Y-14207698D01*
X9307230Y-14207698D02*
X9316753Y-14226746D01*
X9316753Y-14226746D02*
X9316753Y-14283888D01*
X9316753Y-14283888D02*
X9307230Y-14302936D01*
X9307230Y-14302936D02*
X9297706Y-14312460D01*
X9297706Y-14312460D02*
X9278658Y-14321984D01*
X9278658Y-14321984D02*
X9250087Y-14321984D01*
X9431039Y-14321984D02*
X9411992Y-14312460D01*
X9411992Y-14312460D02*
X9402468Y-14293412D01*
X9402468Y-14293412D02*
X9402468Y-14121984D01*
X9583420Y-14312460D02*
X9564373Y-14321984D01*
X9564373Y-14321984D02*
X9526277Y-14321984D01*
X9526277Y-14321984D02*
X9507230Y-14312460D01*
X9507230Y-14312460D02*
X9497706Y-14293412D01*
X9497706Y-14293412D02*
X9497706Y-14217222D01*
X9497706Y-14217222D02*
X9507230Y-14198174D01*
X9507230Y-14198174D02*
X9526277Y-14188650D01*
X9526277Y-14188650D02*
X9564373Y-14188650D01*
X9564373Y-14188650D02*
X9583420Y-14198174D01*
X9583420Y-14198174D02*
X9592944Y-14217222D01*
X9592944Y-14217222D02*
X9592944Y-14236269D01*
X9592944Y-14236269D02*
X9497706Y-14255317D01*
X9669134Y-14312460D02*
X9688182Y-14321984D01*
X9688182Y-14321984D02*
X9726277Y-14321984D01*
X9726277Y-14321984D02*
X9745325Y-14312460D01*
X9745325Y-14312460D02*
X9754849Y-14293412D01*
X9754849Y-14293412D02*
X9754849Y-14283888D01*
X9754849Y-14283888D02*
X9745325Y-14264841D01*
X9745325Y-14264841D02*
X9726277Y-14255317D01*
X9726277Y-14255317D02*
X9697706Y-14255317D01*
X9697706Y-14255317D02*
X9678658Y-14245793D01*
X9678658Y-14245793D02*
X9669134Y-14226746D01*
X9669134Y-14226746D02*
X9669134Y-14217222D01*
X9669134Y-14217222D02*
X9678658Y-14198174D01*
X9678658Y-14198174D02*
X9697706Y-14188650D01*
X9697706Y-14188650D02*
X9726277Y-14188650D01*
X9726277Y-14188650D02*
X9745325Y-14198174D01*
X9821515Y-14398174D02*
X9831039Y-14388650D01*
X9831039Y-14388650D02*
X9850087Y-14360079D01*
X9850087Y-14360079D02*
X9859611Y-14341031D01*
X9859611Y-14341031D02*
X9869134Y-14312460D01*
X9869134Y-14312460D02*
X9878658Y-14264841D01*
X9878658Y-14264841D02*
X9878658Y-14226746D01*
X9878658Y-14226746D02*
X9869134Y-14179127D01*
X9869134Y-14179127D02*
X9859611Y-14150555D01*
X9859611Y-14150555D02*
X9850087Y-14131508D01*
X9850087Y-14131508D02*
X9831039Y-14102936D01*
X9831039Y-14102936D02*
X9821515Y-14093412D01*
D12*
X4615500Y-14444500D02*
X4615500Y-14544500D01*
X4565500Y-14494500D02*
X4665500Y-14494500D01*
D11*
X5031039Y-14585984D02*
X4916753Y-14585984D01*
X4973896Y-14585984D02*
X4973896Y-14385984D01*
X4973896Y-14385984D02*
X4954848Y-14414555D01*
X4954848Y-14414555D02*
X4935801Y-14433603D01*
X4935801Y-14433603D02*
X4916753Y-14443127D01*
X5116753Y-14566936D02*
X5126277Y-14576460D01*
X5126277Y-14576460D02*
X5116753Y-14585984D01*
X5116753Y-14585984D02*
X5107229Y-14576460D01*
X5107229Y-14576460D02*
X5116753Y-14566936D01*
X5116753Y-14566936D02*
X5116753Y-14585984D01*
X5250086Y-14385984D02*
X5269134Y-14385984D01*
X5269134Y-14385984D02*
X5288182Y-14395508D01*
X5288182Y-14395508D02*
X5297705Y-14405031D01*
X5297705Y-14405031D02*
X5307229Y-14424079D01*
X5307229Y-14424079D02*
X5316753Y-14462174D01*
X5316753Y-14462174D02*
X5316753Y-14509793D01*
X5316753Y-14509793D02*
X5307229Y-14547888D01*
X5307229Y-14547888D02*
X5297705Y-14566936D01*
X5297705Y-14566936D02*
X5288182Y-14576460D01*
X5288182Y-14576460D02*
X5269134Y-14585984D01*
X5269134Y-14585984D02*
X5250086Y-14585984D01*
X5250086Y-14585984D02*
X5231039Y-14576460D01*
X5231039Y-14576460D02*
X5221515Y-14566936D01*
X5221515Y-14566936D02*
X5211991Y-14547888D01*
X5211991Y-14547888D02*
X5202467Y-14509793D01*
X5202467Y-14509793D02*
X5202467Y-14462174D01*
X5202467Y-14462174D02*
X5211991Y-14424079D01*
X5211991Y-14424079D02*
X5221515Y-14405031D01*
X5221515Y-14405031D02*
X5231039Y-14395508D01*
X5231039Y-14395508D02*
X5250086Y-14385984D01*
X5440563Y-14385984D02*
X5459610Y-14385984D01*
X5459610Y-14385984D02*
X5478658Y-14395508D01*
X5478658Y-14395508D02*
X5488182Y-14405031D01*
X5488182Y-14405031D02*
X5497705Y-14424079D01*
X5497705Y-14424079D02*
X5507229Y-14462174D01*
X5507229Y-14462174D02*
X5507229Y-14509793D01*
X5507229Y-14509793D02*
X5497705Y-14547888D01*
X5497705Y-14547888D02*
X5488182Y-14566936D01*
X5488182Y-14566936D02*
X5478658Y-14576460D01*
X5478658Y-14576460D02*
X5459610Y-14585984D01*
X5459610Y-14585984D02*
X5440563Y-14585984D01*
X5440563Y-14585984D02*
X5421515Y-14576460D01*
X5421515Y-14576460D02*
X5411991Y-14566936D01*
X5411991Y-14566936D02*
X5402467Y-14547888D01*
X5402467Y-14547888D02*
X5392944Y-14509793D01*
X5392944Y-14509793D02*
X5392944Y-14462174D01*
X5392944Y-14462174D02*
X5402467Y-14424079D01*
X5402467Y-14424079D02*
X5411991Y-14405031D01*
X5411991Y-14405031D02*
X5421515Y-14395508D01*
X5421515Y-14395508D02*
X5440563Y-14385984D01*
X5631039Y-14385984D02*
X5650086Y-14385984D01*
X5650086Y-14385984D02*
X5669134Y-14395508D01*
X5669134Y-14395508D02*
X5678658Y-14405031D01*
X5678658Y-14405031D02*
X5688182Y-14424079D01*
X5688182Y-14424079D02*
X5697705Y-14462174D01*
X5697705Y-14462174D02*
X5697705Y-14509793D01*
X5697705Y-14509793D02*
X5688182Y-14547888D01*
X5688182Y-14547888D02*
X5678658Y-14566936D01*
X5678658Y-14566936D02*
X5669134Y-14576460D01*
X5669134Y-14576460D02*
X5650086Y-14585984D01*
X5650086Y-14585984D02*
X5631039Y-14585984D01*
X5631039Y-14585984D02*
X5611991Y-14576460D01*
X5611991Y-14576460D02*
X5602467Y-14566936D01*
X5602467Y-14566936D02*
X5592943Y-14547888D01*
X5592943Y-14547888D02*
X5583420Y-14509793D01*
X5583420Y-14509793D02*
X5583420Y-14462174D01*
X5583420Y-14462174D02*
X5592943Y-14424079D01*
X5592943Y-14424079D02*
X5602467Y-14405031D01*
X5602467Y-14405031D02*
X5611991Y-14395508D01*
X5611991Y-14395508D02*
X5631039Y-14385984D01*
X5783420Y-14585984D02*
X5783420Y-14452650D01*
X5783420Y-14471698D02*
X5792943Y-14462174D01*
X5792943Y-14462174D02*
X5811991Y-14452650D01*
X5811991Y-14452650D02*
X5840563Y-14452650D01*
X5840563Y-14452650D02*
X5859610Y-14462174D01*
X5859610Y-14462174D02*
X5869134Y-14481222D01*
X5869134Y-14481222D02*
X5869134Y-14585984D01*
X5869134Y-14481222D02*
X5878658Y-14462174D01*
X5878658Y-14462174D02*
X5897705Y-14452650D01*
X5897705Y-14452650D02*
X5926277Y-14452650D01*
X5926277Y-14452650D02*
X5945324Y-14462174D01*
X5945324Y-14462174D02*
X5954848Y-14481222D01*
X5954848Y-14481222D02*
X5954848Y-14585984D01*
X6050086Y-14585984D02*
X6050086Y-14452650D01*
X6050086Y-14471698D02*
X6059610Y-14462174D01*
X6059610Y-14462174D02*
X6078658Y-14452650D01*
X6078658Y-14452650D02*
X6107229Y-14452650D01*
X6107229Y-14452650D02*
X6126277Y-14462174D01*
X6126277Y-14462174D02*
X6135801Y-14481222D01*
X6135801Y-14481222D02*
X6135801Y-14585984D01*
X6135801Y-14481222D02*
X6145324Y-14462174D01*
X6145324Y-14462174D02*
X6164372Y-14452650D01*
X6164372Y-14452650D02*
X6192943Y-14452650D01*
X6192943Y-14452650D02*
X6211991Y-14462174D01*
X6211991Y-14462174D02*
X6221515Y-14481222D01*
X6221515Y-14481222D02*
X6221515Y-14585984D01*
X6611991Y-14376460D02*
X6440563Y-14633603D01*
X6869134Y-14385984D02*
X6888182Y-14385984D01*
X6888182Y-14385984D02*
X6907229Y-14395508D01*
X6907229Y-14395508D02*
X6916753Y-14405031D01*
X6916753Y-14405031D02*
X6926277Y-14424079D01*
X6926277Y-14424079D02*
X6935801Y-14462174D01*
X6935801Y-14462174D02*
X6935801Y-14509793D01*
X6935801Y-14509793D02*
X6926277Y-14547888D01*
X6926277Y-14547888D02*
X6916753Y-14566936D01*
X6916753Y-14566936D02*
X6907229Y-14576460D01*
X6907229Y-14576460D02*
X6888182Y-14585984D01*
X6888182Y-14585984D02*
X6869134Y-14585984D01*
X6869134Y-14585984D02*
X6850086Y-14576460D01*
X6850086Y-14576460D02*
X6840563Y-14566936D01*
X6840563Y-14566936D02*
X6831039Y-14547888D01*
X6831039Y-14547888D02*
X6821515Y-14509793D01*
X6821515Y-14509793D02*
X6821515Y-14462174D01*
X6821515Y-14462174D02*
X6831039Y-14424079D01*
X6831039Y-14424079D02*
X6840563Y-14405031D01*
X6840563Y-14405031D02*
X6850086Y-14395508D01*
X6850086Y-14395508D02*
X6869134Y-14385984D01*
X7021515Y-14566936D02*
X7031039Y-14576460D01*
X7031039Y-14576460D02*
X7021515Y-14585984D01*
X7021515Y-14585984D02*
X7011991Y-14576460D01*
X7011991Y-14576460D02*
X7021515Y-14566936D01*
X7021515Y-14566936D02*
X7021515Y-14585984D01*
X7154848Y-14385984D02*
X7173896Y-14385984D01*
X7173896Y-14385984D02*
X7192944Y-14395508D01*
X7192944Y-14395508D02*
X7202467Y-14405031D01*
X7202467Y-14405031D02*
X7211991Y-14424079D01*
X7211991Y-14424079D02*
X7221515Y-14462174D01*
X7221515Y-14462174D02*
X7221515Y-14509793D01*
X7221515Y-14509793D02*
X7211991Y-14547888D01*
X7211991Y-14547888D02*
X7202467Y-14566936D01*
X7202467Y-14566936D02*
X7192944Y-14576460D01*
X7192944Y-14576460D02*
X7173896Y-14585984D01*
X7173896Y-14585984D02*
X7154848Y-14585984D01*
X7154848Y-14585984D02*
X7135801Y-14576460D01*
X7135801Y-14576460D02*
X7126277Y-14566936D01*
X7126277Y-14566936D02*
X7116753Y-14547888D01*
X7116753Y-14547888D02*
X7107229Y-14509793D01*
X7107229Y-14509793D02*
X7107229Y-14462174D01*
X7107229Y-14462174D02*
X7116753Y-14424079D01*
X7116753Y-14424079D02*
X7126277Y-14405031D01*
X7126277Y-14405031D02*
X7135801Y-14395508D01*
X7135801Y-14395508D02*
X7154848Y-14385984D01*
X7288182Y-14385984D02*
X7411991Y-14385984D01*
X7411991Y-14385984D02*
X7345325Y-14462174D01*
X7345325Y-14462174D02*
X7373896Y-14462174D01*
X7373896Y-14462174D02*
X7392944Y-14471698D01*
X7392944Y-14471698D02*
X7402467Y-14481222D01*
X7402467Y-14481222D02*
X7411991Y-14500269D01*
X7411991Y-14500269D02*
X7411991Y-14547888D01*
X7411991Y-14547888D02*
X7402467Y-14566936D01*
X7402467Y-14566936D02*
X7392944Y-14576460D01*
X7392944Y-14576460D02*
X7373896Y-14585984D01*
X7373896Y-14585984D02*
X7316753Y-14585984D01*
X7316753Y-14585984D02*
X7297706Y-14576460D01*
X7297706Y-14576460D02*
X7288182Y-14566936D01*
X7507229Y-14585984D02*
X7545325Y-14585984D01*
X7545325Y-14585984D02*
X7564372Y-14576460D01*
X7564372Y-14576460D02*
X7573896Y-14566936D01*
X7573896Y-14566936D02*
X7592944Y-14538365D01*
X7592944Y-14538365D02*
X7602467Y-14500269D01*
X7602467Y-14500269D02*
X7602467Y-14424079D01*
X7602467Y-14424079D02*
X7592944Y-14405031D01*
X7592944Y-14405031D02*
X7583420Y-14395508D01*
X7583420Y-14395508D02*
X7564372Y-14385984D01*
X7564372Y-14385984D02*
X7526277Y-14385984D01*
X7526277Y-14385984D02*
X7507229Y-14395508D01*
X7507229Y-14395508D02*
X7497706Y-14405031D01*
X7497706Y-14405031D02*
X7488182Y-14424079D01*
X7488182Y-14424079D02*
X7488182Y-14471698D01*
X7488182Y-14471698D02*
X7497706Y-14490746D01*
X7497706Y-14490746D02*
X7507229Y-14500269D01*
X7507229Y-14500269D02*
X7526277Y-14509793D01*
X7526277Y-14509793D02*
X7564372Y-14509793D01*
X7564372Y-14509793D02*
X7583420Y-14500269D01*
X7583420Y-14500269D02*
X7592944Y-14490746D01*
X7592944Y-14490746D02*
X7602467Y-14471698D01*
X7773896Y-14452650D02*
X7773896Y-14585984D01*
X7726277Y-14376460D02*
X7678658Y-14519317D01*
X7678658Y-14519317D02*
X7802467Y-14519317D01*
X7869134Y-14385984D02*
X7869134Y-14424079D01*
X7945325Y-14385984D02*
X7945325Y-14424079D01*
X8240563Y-14662174D02*
X8231039Y-14652650D01*
X8231039Y-14652650D02*
X8211991Y-14624079D01*
X8211991Y-14624079D02*
X8202468Y-14605031D01*
X8202468Y-14605031D02*
X8192944Y-14576460D01*
X8192944Y-14576460D02*
X8183420Y-14528841D01*
X8183420Y-14528841D02*
X8183420Y-14490746D01*
X8183420Y-14490746D02*
X8192944Y-14443127D01*
X8192944Y-14443127D02*
X8202468Y-14414555D01*
X8202468Y-14414555D02*
X8211991Y-14395508D01*
X8211991Y-14395508D02*
X8231039Y-14366936D01*
X8231039Y-14366936D02*
X8240563Y-14357412D01*
X8421515Y-14585984D02*
X8307229Y-14585984D01*
X8364372Y-14585984D02*
X8364372Y-14385984D01*
X8364372Y-14385984D02*
X8345325Y-14414555D01*
X8345325Y-14414555D02*
X8326277Y-14433603D01*
X8326277Y-14433603D02*
X8307229Y-14443127D01*
X8535801Y-14471698D02*
X8516753Y-14462174D01*
X8516753Y-14462174D02*
X8507230Y-14452650D01*
X8507230Y-14452650D02*
X8497706Y-14433603D01*
X8497706Y-14433603D02*
X8497706Y-14424079D01*
X8497706Y-14424079D02*
X8507230Y-14405031D01*
X8507230Y-14405031D02*
X8516753Y-14395508D01*
X8516753Y-14395508D02*
X8535801Y-14385984D01*
X8535801Y-14385984D02*
X8573896Y-14385984D01*
X8573896Y-14385984D02*
X8592944Y-14395508D01*
X8592944Y-14395508D02*
X8602468Y-14405031D01*
X8602468Y-14405031D02*
X8611991Y-14424079D01*
X8611991Y-14424079D02*
X8611991Y-14433603D01*
X8611991Y-14433603D02*
X8602468Y-14452650D01*
X8602468Y-14452650D02*
X8592944Y-14462174D01*
X8592944Y-14462174D02*
X8573896Y-14471698D01*
X8573896Y-14471698D02*
X8535801Y-14471698D01*
X8535801Y-14471698D02*
X8516753Y-14481222D01*
X8516753Y-14481222D02*
X8507230Y-14490746D01*
X8507230Y-14490746D02*
X8497706Y-14509793D01*
X8497706Y-14509793D02*
X8497706Y-14547888D01*
X8497706Y-14547888D02*
X8507230Y-14566936D01*
X8507230Y-14566936D02*
X8516753Y-14576460D01*
X8516753Y-14576460D02*
X8535801Y-14585984D01*
X8535801Y-14585984D02*
X8573896Y-14585984D01*
X8573896Y-14585984D02*
X8592944Y-14576460D01*
X8592944Y-14576460D02*
X8602468Y-14566936D01*
X8602468Y-14566936D02*
X8611991Y-14547888D01*
X8611991Y-14547888D02*
X8611991Y-14509793D01*
X8611991Y-14509793D02*
X8602468Y-14490746D01*
X8602468Y-14490746D02*
X8592944Y-14481222D01*
X8592944Y-14481222D02*
X8573896Y-14471698D01*
X8688182Y-14405031D02*
X8697706Y-14395508D01*
X8697706Y-14395508D02*
X8716753Y-14385984D01*
X8716753Y-14385984D02*
X8764372Y-14385984D01*
X8764372Y-14385984D02*
X8783420Y-14395508D01*
X8783420Y-14395508D02*
X8792944Y-14405031D01*
X8792944Y-14405031D02*
X8802468Y-14424079D01*
X8802468Y-14424079D02*
X8802468Y-14443127D01*
X8802468Y-14443127D02*
X8792944Y-14471698D01*
X8792944Y-14471698D02*
X8678658Y-14585984D01*
X8678658Y-14585984D02*
X8802468Y-14585984D01*
X9040563Y-14585984D02*
X9040563Y-14385984D01*
X9126277Y-14585984D02*
X9126277Y-14481222D01*
X9126277Y-14481222D02*
X9116753Y-14462174D01*
X9116753Y-14462174D02*
X9097706Y-14452650D01*
X9097706Y-14452650D02*
X9069134Y-14452650D01*
X9069134Y-14452650D02*
X9050087Y-14462174D01*
X9050087Y-14462174D02*
X9040563Y-14471698D01*
X9250087Y-14585984D02*
X9231039Y-14576460D01*
X9231039Y-14576460D02*
X9221515Y-14566936D01*
X9221515Y-14566936D02*
X9211992Y-14547888D01*
X9211992Y-14547888D02*
X9211992Y-14490746D01*
X9211992Y-14490746D02*
X9221515Y-14471698D01*
X9221515Y-14471698D02*
X9231039Y-14462174D01*
X9231039Y-14462174D02*
X9250087Y-14452650D01*
X9250087Y-14452650D02*
X9278658Y-14452650D01*
X9278658Y-14452650D02*
X9297706Y-14462174D01*
X9297706Y-14462174D02*
X9307230Y-14471698D01*
X9307230Y-14471698D02*
X9316753Y-14490746D01*
X9316753Y-14490746D02*
X9316753Y-14547888D01*
X9316753Y-14547888D02*
X9307230Y-14566936D01*
X9307230Y-14566936D02*
X9297706Y-14576460D01*
X9297706Y-14576460D02*
X9278658Y-14585984D01*
X9278658Y-14585984D02*
X9250087Y-14585984D01*
X9431039Y-14585984D02*
X9411992Y-14576460D01*
X9411992Y-14576460D02*
X9402468Y-14557412D01*
X9402468Y-14557412D02*
X9402468Y-14385984D01*
X9583420Y-14576460D02*
X9564373Y-14585984D01*
X9564373Y-14585984D02*
X9526277Y-14585984D01*
X9526277Y-14585984D02*
X9507230Y-14576460D01*
X9507230Y-14576460D02*
X9497706Y-14557412D01*
X9497706Y-14557412D02*
X9497706Y-14481222D01*
X9497706Y-14481222D02*
X9507230Y-14462174D01*
X9507230Y-14462174D02*
X9526277Y-14452650D01*
X9526277Y-14452650D02*
X9564373Y-14452650D01*
X9564373Y-14452650D02*
X9583420Y-14462174D01*
X9583420Y-14462174D02*
X9592944Y-14481222D01*
X9592944Y-14481222D02*
X9592944Y-14500269D01*
X9592944Y-14500269D02*
X9497706Y-14519317D01*
X9669134Y-14576460D02*
X9688182Y-14585984D01*
X9688182Y-14585984D02*
X9726277Y-14585984D01*
X9726277Y-14585984D02*
X9745325Y-14576460D01*
X9745325Y-14576460D02*
X9754849Y-14557412D01*
X9754849Y-14557412D02*
X9754849Y-14547888D01*
X9754849Y-14547888D02*
X9745325Y-14528841D01*
X9745325Y-14528841D02*
X9726277Y-14519317D01*
X9726277Y-14519317D02*
X9697706Y-14519317D01*
X9697706Y-14519317D02*
X9678658Y-14509793D01*
X9678658Y-14509793D02*
X9669134Y-14490746D01*
X9669134Y-14490746D02*
X9669134Y-14481222D01*
X9669134Y-14481222D02*
X9678658Y-14462174D01*
X9678658Y-14462174D02*
X9697706Y-14452650D01*
X9697706Y-14452650D02*
X9726277Y-14452650D01*
X9726277Y-14452650D02*
X9745325Y-14462174D01*
X9821515Y-14662174D02*
X9831039Y-14652650D01*
X9831039Y-14652650D02*
X9850087Y-14624079D01*
X9850087Y-14624079D02*
X9859611Y-14605031D01*
X9859611Y-14605031D02*
X9869134Y-14576460D01*
X9869134Y-14576460D02*
X9878658Y-14528841D01*
X9878658Y-14528841D02*
X9878658Y-14490746D01*
X9878658Y-14490746D02*
X9869134Y-14443127D01*
X9869134Y-14443127D02*
X9859611Y-14414555D01*
X9859611Y-14414555D02*
X9850087Y-14395508D01*
X9850087Y-14395508D02*
X9831039Y-14366936D01*
X9831039Y-14366936D02*
X9821515Y-14357412D01*
X4636211Y-14829211D02*
X4636211Y-14687789D01*
X4494789Y-14687789D01*
X4494789Y-14829211D01*
X4636211Y-14829211D01*
X4907229Y-14649984D02*
X5031039Y-14649984D01*
X5031039Y-14649984D02*
X4964372Y-14726174D01*
X4964372Y-14726174D02*
X4992944Y-14726174D01*
X4992944Y-14726174D02*
X5011991Y-14735698D01*
X5011991Y-14735698D02*
X5021515Y-14745222D01*
X5021515Y-14745222D02*
X5031039Y-14764269D01*
X5031039Y-14764269D02*
X5031039Y-14811888D01*
X5031039Y-14811888D02*
X5021515Y-14830936D01*
X5021515Y-14830936D02*
X5011991Y-14840460D01*
X5011991Y-14840460D02*
X4992944Y-14849984D01*
X4992944Y-14849984D02*
X4935801Y-14849984D01*
X4935801Y-14849984D02*
X4916753Y-14840460D01*
X4916753Y-14840460D02*
X4907229Y-14830936D01*
X5116753Y-14830936D02*
X5126277Y-14840460D01*
X5126277Y-14840460D02*
X5116753Y-14849984D01*
X5116753Y-14849984D02*
X5107229Y-14840460D01*
X5107229Y-14840460D02*
X5116753Y-14830936D01*
X5116753Y-14830936D02*
X5116753Y-14849984D01*
X5202467Y-14669031D02*
X5211991Y-14659508D01*
X5211991Y-14659508D02*
X5231039Y-14649984D01*
X5231039Y-14649984D02*
X5278658Y-14649984D01*
X5278658Y-14649984D02*
X5297705Y-14659508D01*
X5297705Y-14659508D02*
X5307229Y-14669031D01*
X5307229Y-14669031D02*
X5316753Y-14688079D01*
X5316753Y-14688079D02*
X5316753Y-14707127D01*
X5316753Y-14707127D02*
X5307229Y-14735698D01*
X5307229Y-14735698D02*
X5192944Y-14849984D01*
X5192944Y-14849984D02*
X5316753Y-14849984D01*
X5440563Y-14649984D02*
X5459610Y-14649984D01*
X5459610Y-14649984D02*
X5478658Y-14659508D01*
X5478658Y-14659508D02*
X5488182Y-14669031D01*
X5488182Y-14669031D02*
X5497705Y-14688079D01*
X5497705Y-14688079D02*
X5507229Y-14726174D01*
X5507229Y-14726174D02*
X5507229Y-14773793D01*
X5507229Y-14773793D02*
X5497705Y-14811888D01*
X5497705Y-14811888D02*
X5488182Y-14830936D01*
X5488182Y-14830936D02*
X5478658Y-14840460D01*
X5478658Y-14840460D02*
X5459610Y-14849984D01*
X5459610Y-14849984D02*
X5440563Y-14849984D01*
X5440563Y-14849984D02*
X5421515Y-14840460D01*
X5421515Y-14840460D02*
X5411991Y-14830936D01*
X5411991Y-14830936D02*
X5402467Y-14811888D01*
X5402467Y-14811888D02*
X5392944Y-14773793D01*
X5392944Y-14773793D02*
X5392944Y-14726174D01*
X5392944Y-14726174D02*
X5402467Y-14688079D01*
X5402467Y-14688079D02*
X5411991Y-14669031D01*
X5411991Y-14669031D02*
X5421515Y-14659508D01*
X5421515Y-14659508D02*
X5440563Y-14649984D01*
X5631039Y-14649984D02*
X5650086Y-14649984D01*
X5650086Y-14649984D02*
X5669134Y-14659508D01*
X5669134Y-14659508D02*
X5678658Y-14669031D01*
X5678658Y-14669031D02*
X5688182Y-14688079D01*
X5688182Y-14688079D02*
X5697705Y-14726174D01*
X5697705Y-14726174D02*
X5697705Y-14773793D01*
X5697705Y-14773793D02*
X5688182Y-14811888D01*
X5688182Y-14811888D02*
X5678658Y-14830936D01*
X5678658Y-14830936D02*
X5669134Y-14840460D01*
X5669134Y-14840460D02*
X5650086Y-14849984D01*
X5650086Y-14849984D02*
X5631039Y-14849984D01*
X5631039Y-14849984D02*
X5611991Y-14840460D01*
X5611991Y-14840460D02*
X5602467Y-14830936D01*
X5602467Y-14830936D02*
X5592943Y-14811888D01*
X5592943Y-14811888D02*
X5583420Y-14773793D01*
X5583420Y-14773793D02*
X5583420Y-14726174D01*
X5583420Y-14726174D02*
X5592943Y-14688079D01*
X5592943Y-14688079D02*
X5602467Y-14669031D01*
X5602467Y-14669031D02*
X5611991Y-14659508D01*
X5611991Y-14659508D02*
X5631039Y-14649984D01*
X5783420Y-14849984D02*
X5783420Y-14716650D01*
X5783420Y-14735698D02*
X5792943Y-14726174D01*
X5792943Y-14726174D02*
X5811991Y-14716650D01*
X5811991Y-14716650D02*
X5840563Y-14716650D01*
X5840563Y-14716650D02*
X5859610Y-14726174D01*
X5859610Y-14726174D02*
X5869134Y-14745222D01*
X5869134Y-14745222D02*
X5869134Y-14849984D01*
X5869134Y-14745222D02*
X5878658Y-14726174D01*
X5878658Y-14726174D02*
X5897705Y-14716650D01*
X5897705Y-14716650D02*
X5926277Y-14716650D01*
X5926277Y-14716650D02*
X5945324Y-14726174D01*
X5945324Y-14726174D02*
X5954848Y-14745222D01*
X5954848Y-14745222D02*
X5954848Y-14849984D01*
X6050086Y-14849984D02*
X6050086Y-14716650D01*
X6050086Y-14735698D02*
X6059610Y-14726174D01*
X6059610Y-14726174D02*
X6078658Y-14716650D01*
X6078658Y-14716650D02*
X6107229Y-14716650D01*
X6107229Y-14716650D02*
X6126277Y-14726174D01*
X6126277Y-14726174D02*
X6135801Y-14745222D01*
X6135801Y-14745222D02*
X6135801Y-14849984D01*
X6135801Y-14745222D02*
X6145324Y-14726174D01*
X6145324Y-14726174D02*
X6164372Y-14716650D01*
X6164372Y-14716650D02*
X6192943Y-14716650D01*
X6192943Y-14716650D02*
X6211991Y-14726174D01*
X6211991Y-14726174D02*
X6221515Y-14745222D01*
X6221515Y-14745222D02*
X6221515Y-14849984D01*
X6611991Y-14640460D02*
X6440563Y-14897603D01*
X6869134Y-14649984D02*
X6888182Y-14649984D01*
X6888182Y-14649984D02*
X6907229Y-14659508D01*
X6907229Y-14659508D02*
X6916753Y-14669031D01*
X6916753Y-14669031D02*
X6926277Y-14688079D01*
X6926277Y-14688079D02*
X6935801Y-14726174D01*
X6935801Y-14726174D02*
X6935801Y-14773793D01*
X6935801Y-14773793D02*
X6926277Y-14811888D01*
X6926277Y-14811888D02*
X6916753Y-14830936D01*
X6916753Y-14830936D02*
X6907229Y-14840460D01*
X6907229Y-14840460D02*
X6888182Y-14849984D01*
X6888182Y-14849984D02*
X6869134Y-14849984D01*
X6869134Y-14849984D02*
X6850086Y-14840460D01*
X6850086Y-14840460D02*
X6840563Y-14830936D01*
X6840563Y-14830936D02*
X6831039Y-14811888D01*
X6831039Y-14811888D02*
X6821515Y-14773793D01*
X6821515Y-14773793D02*
X6821515Y-14726174D01*
X6821515Y-14726174D02*
X6831039Y-14688079D01*
X6831039Y-14688079D02*
X6840563Y-14669031D01*
X6840563Y-14669031D02*
X6850086Y-14659508D01*
X6850086Y-14659508D02*
X6869134Y-14649984D01*
X7021515Y-14830936D02*
X7031039Y-14840460D01*
X7031039Y-14840460D02*
X7021515Y-14849984D01*
X7021515Y-14849984D02*
X7011991Y-14840460D01*
X7011991Y-14840460D02*
X7021515Y-14830936D01*
X7021515Y-14830936D02*
X7021515Y-14849984D01*
X7221515Y-14849984D02*
X7107229Y-14849984D01*
X7164372Y-14849984D02*
X7164372Y-14649984D01*
X7164372Y-14649984D02*
X7145325Y-14678555D01*
X7145325Y-14678555D02*
X7126277Y-14697603D01*
X7126277Y-14697603D02*
X7107229Y-14707127D01*
X7297706Y-14669031D02*
X7307229Y-14659508D01*
X7307229Y-14659508D02*
X7326277Y-14649984D01*
X7326277Y-14649984D02*
X7373896Y-14649984D01*
X7373896Y-14649984D02*
X7392944Y-14659508D01*
X7392944Y-14659508D02*
X7402467Y-14669031D01*
X7402467Y-14669031D02*
X7411991Y-14688079D01*
X7411991Y-14688079D02*
X7411991Y-14707127D01*
X7411991Y-14707127D02*
X7402467Y-14735698D01*
X7402467Y-14735698D02*
X7288182Y-14849984D01*
X7288182Y-14849984D02*
X7411991Y-14849984D01*
X7583420Y-14649984D02*
X7545325Y-14649984D01*
X7545325Y-14649984D02*
X7526277Y-14659508D01*
X7526277Y-14659508D02*
X7516753Y-14669031D01*
X7516753Y-14669031D02*
X7497706Y-14697603D01*
X7497706Y-14697603D02*
X7488182Y-14735698D01*
X7488182Y-14735698D02*
X7488182Y-14811888D01*
X7488182Y-14811888D02*
X7497706Y-14830936D01*
X7497706Y-14830936D02*
X7507229Y-14840460D01*
X7507229Y-14840460D02*
X7526277Y-14849984D01*
X7526277Y-14849984D02*
X7564372Y-14849984D01*
X7564372Y-14849984D02*
X7583420Y-14840460D01*
X7583420Y-14840460D02*
X7592944Y-14830936D01*
X7592944Y-14830936D02*
X7602467Y-14811888D01*
X7602467Y-14811888D02*
X7602467Y-14764269D01*
X7602467Y-14764269D02*
X7592944Y-14745222D01*
X7592944Y-14745222D02*
X7583420Y-14735698D01*
X7583420Y-14735698D02*
X7564372Y-14726174D01*
X7564372Y-14726174D02*
X7526277Y-14726174D01*
X7526277Y-14726174D02*
X7507229Y-14735698D01*
X7507229Y-14735698D02*
X7497706Y-14745222D01*
X7497706Y-14745222D02*
X7488182Y-14764269D01*
X7726277Y-14649984D02*
X7745325Y-14649984D01*
X7745325Y-14649984D02*
X7764372Y-14659508D01*
X7764372Y-14659508D02*
X7773896Y-14669031D01*
X7773896Y-14669031D02*
X7783420Y-14688079D01*
X7783420Y-14688079D02*
X7792944Y-14726174D01*
X7792944Y-14726174D02*
X7792944Y-14773793D01*
X7792944Y-14773793D02*
X7783420Y-14811888D01*
X7783420Y-14811888D02*
X7773896Y-14830936D01*
X7773896Y-14830936D02*
X7764372Y-14840460D01*
X7764372Y-14840460D02*
X7745325Y-14849984D01*
X7745325Y-14849984D02*
X7726277Y-14849984D01*
X7726277Y-14849984D02*
X7707229Y-14840460D01*
X7707229Y-14840460D02*
X7697706Y-14830936D01*
X7697706Y-14830936D02*
X7688182Y-14811888D01*
X7688182Y-14811888D02*
X7678658Y-14773793D01*
X7678658Y-14773793D02*
X7678658Y-14726174D01*
X7678658Y-14726174D02*
X7688182Y-14688079D01*
X7688182Y-14688079D02*
X7697706Y-14669031D01*
X7697706Y-14669031D02*
X7707229Y-14659508D01*
X7707229Y-14659508D02*
X7726277Y-14649984D01*
X7869134Y-14649984D02*
X7869134Y-14688079D01*
X7945325Y-14649984D02*
X7945325Y-14688079D01*
X8240563Y-14926174D02*
X8231039Y-14916650D01*
X8231039Y-14916650D02*
X8211991Y-14888079D01*
X8211991Y-14888079D02*
X8202468Y-14869031D01*
X8202468Y-14869031D02*
X8192944Y-14840460D01*
X8192944Y-14840460D02*
X8183420Y-14792841D01*
X8183420Y-14792841D02*
X8183420Y-14754746D01*
X8183420Y-14754746D02*
X8192944Y-14707127D01*
X8192944Y-14707127D02*
X8202468Y-14678555D01*
X8202468Y-14678555D02*
X8211991Y-14659508D01*
X8211991Y-14659508D02*
X8231039Y-14630936D01*
X8231039Y-14630936D02*
X8240563Y-14621412D01*
X8402468Y-14716650D02*
X8402468Y-14849984D01*
X8354848Y-14640460D02*
X8307229Y-14783317D01*
X8307229Y-14783317D02*
X8431039Y-14783317D01*
X8659611Y-14849984D02*
X8659611Y-14649984D01*
X8745325Y-14849984D02*
X8745325Y-14745222D01*
X8745325Y-14745222D02*
X8735801Y-14726174D01*
X8735801Y-14726174D02*
X8716753Y-14716650D01*
X8716753Y-14716650D02*
X8688182Y-14716650D01*
X8688182Y-14716650D02*
X8669134Y-14726174D01*
X8669134Y-14726174D02*
X8659611Y-14735698D01*
X8869134Y-14849984D02*
X8850087Y-14840460D01*
X8850087Y-14840460D02*
X8840563Y-14830936D01*
X8840563Y-14830936D02*
X8831039Y-14811888D01*
X8831039Y-14811888D02*
X8831039Y-14754746D01*
X8831039Y-14754746D02*
X8840563Y-14735698D01*
X8840563Y-14735698D02*
X8850087Y-14726174D01*
X8850087Y-14726174D02*
X8869134Y-14716650D01*
X8869134Y-14716650D02*
X8897706Y-14716650D01*
X8897706Y-14716650D02*
X8916753Y-14726174D01*
X8916753Y-14726174D02*
X8926277Y-14735698D01*
X8926277Y-14735698D02*
X8935801Y-14754746D01*
X8935801Y-14754746D02*
X8935801Y-14811888D01*
X8935801Y-14811888D02*
X8926277Y-14830936D01*
X8926277Y-14830936D02*
X8916753Y-14840460D01*
X8916753Y-14840460D02*
X8897706Y-14849984D01*
X8897706Y-14849984D02*
X8869134Y-14849984D01*
X9050087Y-14849984D02*
X9031039Y-14840460D01*
X9031039Y-14840460D02*
X9021515Y-14821412D01*
X9021515Y-14821412D02*
X9021515Y-14649984D01*
X9202468Y-14840460D02*
X9183420Y-14849984D01*
X9183420Y-14849984D02*
X9145325Y-14849984D01*
X9145325Y-14849984D02*
X9126277Y-14840460D01*
X9126277Y-14840460D02*
X9116753Y-14821412D01*
X9116753Y-14821412D02*
X9116753Y-14745222D01*
X9116753Y-14745222D02*
X9126277Y-14726174D01*
X9126277Y-14726174D02*
X9145325Y-14716650D01*
X9145325Y-14716650D02*
X9183420Y-14716650D01*
X9183420Y-14716650D02*
X9202468Y-14726174D01*
X9202468Y-14726174D02*
X9211992Y-14745222D01*
X9211992Y-14745222D02*
X9211992Y-14764269D01*
X9211992Y-14764269D02*
X9116753Y-14783317D01*
X9288182Y-14840460D02*
X9307230Y-14849984D01*
X9307230Y-14849984D02*
X9345325Y-14849984D01*
X9345325Y-14849984D02*
X9364373Y-14840460D01*
X9364373Y-14840460D02*
X9373896Y-14821412D01*
X9373896Y-14821412D02*
X9373896Y-14811888D01*
X9373896Y-14811888D02*
X9364373Y-14792841D01*
X9364373Y-14792841D02*
X9345325Y-14783317D01*
X9345325Y-14783317D02*
X9316753Y-14783317D01*
X9316753Y-14783317D02*
X9297706Y-14773793D01*
X9297706Y-14773793D02*
X9288182Y-14754746D01*
X9288182Y-14754746D02*
X9288182Y-14745222D01*
X9288182Y-14745222D02*
X9297706Y-14726174D01*
X9297706Y-14726174D02*
X9316753Y-14716650D01*
X9316753Y-14716650D02*
X9345325Y-14716650D01*
X9345325Y-14716650D02*
X9364373Y-14726174D01*
X9440563Y-14926174D02*
X9450087Y-14916650D01*
X9450087Y-14916650D02*
X9469134Y-14888079D01*
X9469134Y-14888079D02*
X9478658Y-14869031D01*
X9478658Y-14869031D02*
X9488182Y-14840460D01*
X9488182Y-14840460D02*
X9497706Y-14792841D01*
X9497706Y-14792841D02*
X9497706Y-14754746D01*
X9497706Y-14754746D02*
X9488182Y-14707127D01*
X9488182Y-14707127D02*
X9478658Y-14678555D01*
X9478658Y-14678555D02*
X9469134Y-14659508D01*
X9469134Y-14659508D02*
X9450087Y-14630936D01*
X9450087Y-14630936D02*
X9440563Y-14621412D01*
M02*
